<?xml version="1.0" encoding="UTF-8" standalone="no"?>
<!-- Created with Inkscape (http://www.inkscape.org/) -->

<svg
   xmlns:dc="http://purl.org/dc/elements/1.1/"
   xmlns:cc="http://creativecommons.org/ns#"
   xmlns:rdf="http://www.w3.org/1999/02/22-rdf-syntax-ns#"
   xmlns:svg="http://www.w3.org/2000/svg"
   xmlns="http://www.w3.org/2000/svg"
   xmlns:xlink="http://www.w3.org/1999/xlink"
   xmlns:sodipodi="http://sodipodi.sourceforge.net/DTD/sodipodi-0.dtd"
   xmlns:inkscape="http://www.inkscape.org/namespaces/inkscape"
   width="512"
   height="128"
   viewBox="0 0 135.46667 33.866668"
   version="1.1"
   id="svg9232"
   inkscape:version="0.92.4 (5da689c313, 2019-01-14)"
   sodipodi:docname="BrickTileCap.svg">
  <defs
     id="defs9226">
    <clipPath
       clipPathUnits="userSpaceOnUse"
       id="clipPath9383">
      <rect
         style="opacity:1;fill:#f37359;fill-opacity:1;stroke:#026c3a;stroke-width:0.27038726;stroke-linecap:square;stroke-linejoin:round;stroke-miterlimit:4;stroke-dasharray:none;stroke-dashoffset:0;stroke-opacity:1;paint-order:normal"
         id="rect9385"
         width="11.382671"
         height="11.897491"
         x="4.4750681"
         y="4.1368384" />
    </clipPath>
    <clipPath
       clipPathUnits="userSpaceOnUse"
       id="clipPath9387">
      <rect
         y="4.3648267"
         x="16.125204"
         height="11.897491"
         width="11.382671"
         id="rect9389"
         style="opacity:1;fill:#f37359;fill-opacity:1;stroke:#026c3a;stroke-width:0.27038726;stroke-linecap:square;stroke-linejoin:round;stroke-miterlimit:4;stroke-dasharray:none;stroke-dashoffset:0;stroke-opacity:1;paint-order:normal" />
    </clipPath>
    <clipPath
       clipPathUnits="userSpaceOnUse"
       id="clipPath10357">
      <rect
         style="opacity:0.51999996;fill:#775d43;fill-opacity:1;stroke:#026c3a;stroke-width:0.24419561;stroke-linecap:square;stroke-linejoin:round;stroke-miterlimit:4;stroke-dasharray:none;stroke-dashoffset:0;stroke-opacity:1;paint-order:normal"
         id="rect10359"
         width="10.129214"
         height="14.144797"
         x="28.98147"
         y="3.2174852" />
    </clipPath>
    <clipPath
       clipPathUnits="userSpaceOnUse"
       id="clipPath10361">
      <rect
         style="opacity:0.51999996;fill:#775d43;fill-opacity:1;stroke:#026c3a;stroke-width:0.24419561;stroke-linecap:square;stroke-linejoin:round;stroke-miterlimit:4;stroke-dasharray:none;stroke-dashoffset:0;stroke-opacity:1;paint-order:normal"
         id="rect10363"
         width="10.129214"
         height="14.144797"
         x="39.352417"
         y="3.1702502" />
    </clipPath>
    <linearGradient
       inkscape:collect="always"
       xlink:href="#linearGradient22421"
       id="linearGradient22423"
       x1="70.96006"
       y1="141.3466"
       x2="70.425514"
       y2="102.45889"
       gradientUnits="userSpaceOnUse"
       gradientTransform="matrix(0.92745504,0,0,1,6.3209524,-5.7463122)" />
    <linearGradient
       inkscape:collect="always"
       id="linearGradient22421">
      <stop
         style="stop-color:#816c57;stop-opacity:1;"
         offset="0"
         id="stop22417" />
      <stop
         style="stop-color:#816c57;stop-opacity:0;"
         offset="1"
         id="stop22419" />
    </linearGradient>
    <clipPath
       clipPathUnits="userSpaceOnUse"
       id="clipPath27252">
      <rect
         style="opacity:0.9;fill:#703a31;fill-opacity:1;stroke:none;stroke-width:0.26458335;stroke-linecap:square;stroke-linejoin:round;stroke-miterlimit:4;stroke-dasharray:none;stroke-dashoffset:0;stroke-opacity:1;paint-order:normal"
         id="rect27254"
         width="30.602362"
         height="140.98454"
         x="135.46667"
         y="155.88168" />
    </clipPath>
    <clipPath
       clipPathUnits="userSpaceOnUse"
       id="clipPath27256">
      <rect
         y="157.75256"
         x="-135.46667"
         height="140.98454"
         width="26.994225"
         id="rect27258"
         style="opacity:0.9;fill:#703a31;fill-opacity:1;stroke:none;stroke-width:0.24849661;stroke-linecap:square;stroke-linejoin:round;stroke-miterlimit:4;stroke-dasharray:none;stroke-dashoffset:0;stroke-opacity:1;paint-order:normal"
         transform="scale(-1,1)" />
    </clipPath>
  </defs>
  <sodipodi:namedview
     id="base"
     pagecolor="#ffffff"
     bordercolor="#666666"
     borderopacity="1.0"
     inkscape:pageopacity="0.0"
     inkscape:pageshadow="2"
     inkscape:zoom="1.4"
     inkscape:cx="342.56936"
     inkscape:cy="43.950104"
     inkscape:document-units="px"
     inkscape:current-layer="layer3"
     showgrid="false"
     units="px"
     objecttolerance="2"
     guidetolerance="2"
     inkscape:snap-perpendicular="true"
     inkscape:window-width="1920"
     inkscape:window-height="1027"
     inkscape:window-x="-8"
     inkscape:window-y="-8"
     inkscape:window-maximized="1"
     showguides="false"
     fit-margin-top="0"
     fit-margin-left="0"
     fit-margin-right="0"
     fit-margin-bottom="0">
    <inkscape:grid
       type="xygrid"
       id="grid9777"
       empspacing="8"
       originx="2.863329e-06"
       originy="-135.77292" />
  </sodipodi:namedview>
  <metadata
     id="metadata9229">
    <rdf:RDF>
      <cc:Work
         rdf:about="">
        <dc:format>image/svg+xml</dc:format>
        <dc:type
           rdf:resource="http://purl.org/dc/dcmitype/StillImage" />
        <dc:title></dc:title>
      </cc:Work>
    </rdf:RDF>
  </metadata>
  <g
     inkscape:label="Layer 1"
     inkscape:groupmode="layer"
     id="layer1"
     transform="translate(2.863329e-6,-127.36041)"
     style="display:none">
    <g
       style="display:inline"
       id="g26936"
       transform="translate(0.46757398,119.572)">
      <rect
         style="opacity:1;fill:#703a31;fill-opacity:1;stroke:none;stroke-width:0.28140834;stroke-linecap:square;stroke-linejoin:round;stroke-miterlimit:4;stroke-dasharray:none;stroke-dashoffset:0;stroke-opacity:1;paint-order:normal"
         id="rect26926"
         width="32.510849"
         height="11.691948"
         x="-0.32293156"
         y="15.230659"
         rx="0.81277126"
         ry="0.87689596"
         transform="matrix(1,0,0.03236712,0.99947605,0,0)" />
      <g
         transform="translate(-3.3574623,12.170832)"
         id="g26934">
        <rect
           style="opacity:1;fill:#b8630f;fill-opacity:1;stroke:none;stroke-width:0.26466396;stroke-linecap:square;stroke-linejoin:round;stroke-miterlimit:4;stroke-dasharray:none;stroke-dashoffset:0;stroke-opacity:1;paint-order:normal"
           id="rect26928"
           width="31.75"
           height="10.589785"
           x="3.4709003"
           y="3.5551422"
           rx="0.79375005"
           ry="0.79423386"
           transform="matrix(1,0,0.0348995,0.99939083,0,0)" />
        <path
           style="opacity:1;fill:#f2a961;fill-opacity:1;stroke:none;stroke-width:0.26458335;stroke-linecap:square;stroke-linejoin:round;stroke-miterlimit:4;stroke-dasharray:none;stroke-dashoffset:0;stroke-opacity:1;paint-order:normal"
           d="m 34.551248,3.5527547 c 0.439738,0 0.806113,0.3540125 0.821469,0.79375 l 0.314141,8.9958333 c 0.0142,0.406575 -0.278205,0.735974 -0.669739,0.783932 L 34.70184,5.0978801 c -0.01536,-0.4397375 -0.381731,-0.79375 -0.821468,-0.79375 H 3.9132083 c -0.1034918,0 -0.2007347,0.021124 -0.289988,0.056844 l -5.053e-4,-0.01447 c -0.015356,-0.4397375 0.3262941,-0.79375 0.7660316,-0.79375 z"
           id="path26930"
           inkscape:connector-curvature="0" />
        <path
           style="opacity:1;fill:#8b4b0b;fill-opacity:1;stroke:none;stroke-width:0.26458335;stroke-linecap:square;stroke-linejoin:round;stroke-miterlimit:4;stroke-dasharray:none;stroke-dashoffset:0;stroke-opacity:1;paint-order:normal"
           d="M 4.424749,3.5527547 C 4.388124,3.6476617 4.369697,3.7520193 4.37353,3.8617798 l 0.3056419,8.7524372 c 0.015356,0.439738 0.3817309,0.79375 0.8214684,0.79375 H 35.267299 c 0.15563,0 0.297805,-0.0462 0.417385,-0.122989 l 0.002,0.05736 c 0.01536,0.439738 -0.326294,0.79375 -0.766032,0.79375 H 4.7581534 c -0.4397375,0 -0.8061124,-0.354012 -0.8214684,-0.79375 L 3.6225436,4.3465047 c -0.015356,-0.4397375 0.3262941,-0.79375 0.7660316,-0.79375 z"
           id="path26932"
           inkscape:connector-curvature="0" />
      </g>
    </g>
    <g
       style="display:inline"
       id="g26948"
       transform="translate(0.4009043,119.572)">
      <rect
         ry="0.91505152"
         rx="0.82831353"
         y="14.144176"
         x="101.01913"
         height="12.200687"
         width="33.132538"
         id="rect26938"
         style="opacity:1;fill:#703a31;fill-opacity:1;stroke:none;stroke-width:0.29020101;stroke-linecap:square;stroke-linejoin:round;stroke-miterlimit:4;stroke-dasharray:none;stroke-dashoffset:0;stroke-opacity:1;paint-order:normal"
         transform="matrix(1,0,-0.04744003,0.99887409,0,0)" />
      <g
         transform="translate(96.636154,-23.547919)"
         id="g26946">
        <rect
           ry="0.79483932"
           rx="0.79375005"
           y="38.530785"
           x="6.0736318"
           height="10.597858"
           width="31.75"
           id="rect26940"
           style="opacity:1;fill:#e9663c;fill-opacity:1;stroke:none;stroke-width:0.26476485;stroke-linecap:square;stroke-linejoin:round;stroke-miterlimit:4;stroke-dasharray:none;stroke-dashoffset:0;stroke-opacity:1;paint-order:normal"
           transform="matrix(1,0,-0.05233596,0.99862953,0,0)" />
        <path
           inkscape:connector-curvature="0"
           id="path26942"
           d="m 35.012933,38.477758 c 0.439738,0 0.775197,0.354013 0.752151,0.79375 l -0.471451,8.995834 c -0.02131,0.406575 -0.342477,0.735974 -0.738199,0.783932 l 0.473158,-9.02839 c 0.02304,-0.439738 -0.312415,-0.79375 -0.752152,-0.79375 H 4.3092765 c -0.1034918,0 -0.2025792,0.02112 -0.2949519,0.05684 l 7.584e-4,-0.01447 c 0.023046,-0.439738 0.3956112,-0.79375 0.8353487,-0.79375 z"
           style="opacity:1;fill:#fa9279;fill-opacity:1;stroke:none;stroke-width:0.26458335;stroke-linecap:square;stroke-linejoin:round;stroke-miterlimit:4;stroke-dasharray:none;stroke-dashoffset:0;stroke-opacity:1;paint-order:normal" />
        <path
           inkscape:connector-curvature="0"
           id="path26944"
           d="m 4.8868626,38.477758 c -0.044913,0.09491 -0.072453,0.199265 -0.078205,0.309025 l -0.4586958,8.752438 c -0.023046,0.439738 0.3124139,0.79375 0.7521514,0.79375 H 34.868771 c 0.15563,0 0.30184,-0.0462 0.428125,-0.122989 l -0.003,0.05736 c -0.02305,0.439738 -0.395611,0.79375 -0.835349,0.79375 H 4.2960398 c -0.4397375,0 -0.775197,-0.354012 -0.7521513,-0.79375 l 0.4714516,-8.995834 c 0.023046,-0.439737 0.3956112,-0.79375 0.8353487,-0.79375 z"
           style="opacity:1;fill:#d05c35;fill-opacity:1;stroke:none;stroke-width:0.26458335;stroke-linecap:square;stroke-linejoin:round;stroke-miterlimit:4;stroke-dasharray:none;stroke-dashoffset:0;stroke-opacity:1;paint-order:normal" />
      </g>
    </g>
    <g
       style="display:inline"
       id="g26960"
       transform="translate(0.26726952,118.90383)">
      <rect
         transform="matrix(1,0,0.04838484,0.99882877,0,0)"
         style="opacity:1;fill:#6f372e;fill-opacity:1;stroke:none;stroke-width:0.28747541;stroke-linecap:square;stroke-linejoin:round;stroke-miterlimit:4;stroke-dasharray:none;stroke-dashoffset:0;stroke-opacity:1;paint-order:normal"
         id="rect26950"
         width="33.146576"
         height="11.967515"
         x="48.171474"
         y="1.9069819"
         rx="0.82866442"
         ry="0.89756352" />
      <g
         id="g26958"
         transform="translate(45.471791,-12.675683)">
        <rect
           transform="matrix(1,0,0.05233596,0.99862953,0,0)"
           style="opacity:1;fill:#df924c;fill-opacity:1;stroke:none;stroke-width:0.26476485;stroke-linecap:square;stroke-linejoin:round;stroke-miterlimit:4;stroke-dasharray:none;stroke-dashoffset:0;stroke-opacity:1;paint-order:normal"
           id="rect26952"
           width="31.75"
           height="10.597858"
           x="2.70612"
           y="15.215495"
           rx="0.79375005"
           ry="0.79483932" />
        <path
           style="opacity:1;fill:#ffca9e;fill-opacity:1;stroke:none;stroke-width:0.26458335;stroke-linecap:square;stroke-linejoin:round;stroke-miterlimit:4;stroke-dasharray:none;stroke-dashoffset:0;stroke-opacity:1;paint-order:normal"
           d="m 34.458799,15.194422 c 0.439738,0 0.812303,0.354013 0.835349,0.79375 l 0.471451,8.995834 c 0.02131,0.406575 -0.265335,0.735974 -0.656031,0.783932 l -0.473158,-9.02839 c -0.02304,-0.439738 -0.395611,-0.79375 -0.835348,-0.79375 H 3.8338981 c -0.1034918,0 -0.2003654,0.02112 -0.2889941,0.05684 l -7.584e-4,-0.01447 c -0.023046,-0.439738 0.3124138,-0.79375 0.7521513,-0.79375 z"
           id="path26954"
           inkscape:connector-curvature="0" />
        <path
           style="opacity:1;fill:#c97f42;fill-opacity:1;stroke:none;stroke-width:0.26458335;stroke-linecap:square;stroke-linejoin:round;stroke-miterlimit:4;stroke-dasharray:none;stroke-dashoffset:0;stroke-opacity:1;paint-order:normal"
           d="m 4.3322136,15.194422 c -0.034965,0.09491 -0.051567,0.199265 -0.045815,0.309025 l 0.4586958,8.752438 c 0.023046,0.439738 0.3956113,0.79375 0.8353488,0.79375 H 35.347101 c 0.15563,0 0.296998,-0.0462 0.415235,-0.122989 l 0.003,0.05736 c 0.02305,0.439738 -0.312413,0.79375 -0.752151,0.79375 H 4.8506888 c -0.4397375,0 -0.812303,-0.354012 -0.8353487,-0.79375 L 3.5438885,15.988172 c -0.023046,-0.439737 0.3124138,-0.79375 0.7521513,-0.79375 z"
           id="path26956"
           inkscape:connector-curvature="0" />
      </g>
    </g>
    <g
       style="display:inline"
       id="g26972"
       transform="translate(0.4009043,119.572)">
      <rect
         transform="matrix(1,0,-0.03179823,0.99949431,0,0)"
         ry="0.91664952"
         rx="0.83468485"
         y="1.3907769"
         x="14.542142"
         height="12.221994"
         width="33.387394"
         id="rect26962"
         style="opacity:0.9;fill:#6d372f;fill-opacity:1;stroke:none;stroke-width:0.29156923;stroke-linecap:square;stroke-linejoin:round;stroke-miterlimit:4;stroke-dasharray:none;stroke-dashoffset:0;stroke-opacity:1;paint-order:normal" />
      <g
         id="g26970"
         transform="translate(11.413403,-24.595789)">
        <rect
           transform="matrix(1,0,-0.0348995,0.99939083,0,0)"
           ry="0.79423386"
           rx="0.79375005"
           y="26.852667"
           x="4.9016957"
           height="10.589785"
           width="31.75"
           id="rect26964"
           style="opacity:1;fill:#f0983f;fill-opacity:1;stroke:none;stroke-width:0.26466396;stroke-linecap:square;stroke-linejoin:round;stroke-miterlimit:4;stroke-dasharray:none;stroke-dashoffset:0;stroke-opacity:1;paint-order:normal" />
        <path
           inkscape:connector-curvature="0"
           id="path26966"
           d="m 34.920484,26.83609 c 0.439738,0 0.781387,0.354013 0.766031,0.79375 l -0.314141,8.995834 c -0.0142,0.406575 -0.329607,0.735974 -0.724491,0.783932 l 0.315279,-9.02839 c 0.01536,-0.439738 -0.326295,-0.79375 -0.766032,-0.79375 H 4.2299663 c -0.1034918,0 -0.2022099,0.02112 -0.2939579,0.05684 l 5.053e-4,-0.01447 c 0.015356,-0.439738 0.3817308,-0.79375 0.8214683,-0.79375 z"
           style="opacity:1;fill:#febb91;fill-opacity:1;stroke:none;stroke-width:0.26458335;stroke-linecap:square;stroke-linejoin:round;stroke-miterlimit:4;stroke-dasharray:none;stroke-dashoffset:0;stroke-opacity:1;paint-order:normal" />
        <path
           inkscape:connector-curvature="0"
           id="path26968"
           d="m 4.7943272,26.83609 c -0.043253,0.09491 -0.068968,0.199265 -0.072801,0.309025 l -0.3056419,8.752438 c -0.015356,0.439738 0.3262943,0.79375 0.7660318,0.79375 H 34.948573 c 0.15563,0 0.301033,-0.0462 0.425975,-0.122989 l -0.002,0.05736 c -0.01536,0.439738 -0.38173,0.79375 -0.821468,0.79375 H 4.3885752 c -0.4397375,0 -0.7813876,-0.354012 -0.7660316,-0.79375 L 3.936685,27.62984 c 0.015356,-0.439737 0.3817309,-0.79375 0.8214684,-0.79375 z"
           style="opacity:1;fill:#d88038;fill-opacity:1;stroke:none;stroke-width:0.26458335;stroke-linecap:square;stroke-linejoin:round;stroke-miterlimit:4;stroke-dasharray:none;stroke-dashoffset:0;stroke-opacity:1;paint-order:normal" />
      </g>
    </g>
    <g
       style="display:inline"
       id="g26986"
       transform="translate(0.4009043,119.572)">
      <rect
         transform="matrix(1,0,0.03406797,0.99941952,0,0)"
         ry="0.85939586"
         rx="0.83840853"
         y="1.8178014"
         x="82.326813"
         height="11.458611"
         width="33.536339"
         id="rect26974"
         style="opacity:1;fill:#6f372e;fill-opacity:1;stroke:none;stroke-width:0.28294575;stroke-linecap:square;stroke-linejoin:round;stroke-miterlimit:4;stroke-dasharray:none;stroke-dashoffset:0;stroke-opacity:1;paint-order:normal" />
      <g
         id="g26982"
         transform="translate(79.530285,-47.768361)">
        <rect
           transform="matrix(1,0,0.0348995,0.99939083,0,0)"
           ry="0.79423386"
           rx="0.79375005"
           y="50.150196"
           x="1.8447564"
           height="10.589785"
           width="31.75"
           id="rect26976"
           style="opacity:1;fill:#dd894b;fill-opacity:1;stroke:none;stroke-width:0.26466396;stroke-linecap:square;stroke-linejoin:round;stroke-miterlimit:4;stroke-dasharray:none;stroke-dashoffset:0;stroke-opacity:1;paint-order:normal" />
        <path
           inkscape:connector-curvature="0"
           id="path26978"
           d="m 34.551248,50.119423 c 0.439738,0 0.806113,0.354013 0.821469,0.79375 l 0.314141,8.995834 c 0.0142,0.406575 -0.278205,0.735974 -0.669739,0.783932 l -0.315279,-9.02839 c -0.01536,-0.439738 -0.381731,-0.79375 -0.821468,-0.79375 H 3.9132083 c -0.1034918,0 -0.2007347,0.02112 -0.2899881,0.05684 l -5.053e-4,-0.01447 c -0.015356,-0.439738 0.3262942,-0.79375 0.7660317,-0.79375 z"
           style="opacity:1;fill:#ffc99d;fill-opacity:1;stroke:none;stroke-width:0.26458335;stroke-linecap:square;stroke-linejoin:round;stroke-miterlimit:4;stroke-dasharray:none;stroke-dashoffset:0;stroke-opacity:1;paint-order:normal" />
        <path
           inkscape:connector-curvature="0"
           id="path26980"
           d="m 4.424749,50.119423 c -0.036625,0.09491 -0.055052,0.199265 -0.051219,0.309025 l 0.3056419,8.752438 c 0.015356,0.439738 0.3817309,0.79375 0.8214684,0.79375 H 35.267299 c 0.15563,0 0.297805,-0.0462 0.417385,-0.122989 l 0.002,0.05736 c 0.01536,0.439738 -0.326294,0.79375 -0.766032,0.79375 H 4.7581534 c -0.4397375,0 -0.8061124,-0.354012 -0.8214684,-0.79375 L 3.6225436,50.913173 c -0.015356,-0.439737 0.3262941,-0.79375 0.7660316,-0.79375 z"
           style="opacity:1;fill:#000000;fill-opacity:0;stroke:none;stroke-width:0.26458335;stroke-linecap:square;stroke-linejoin:round;stroke-miterlimit:4;stroke-dasharray:none;stroke-dashoffset:0;stroke-opacity:1;paint-order:normal" />
      </g>
      <path
         inkscape:connector-curvature="0"
         id="path26984"
         d="m 83.955034,2.351062 c -0.03663,0.09491 -0.05505,0.199265 -0.05122,0.309025 l 0.305642,8.752438 c 0.01536,0.439738 0.381731,0.79375 0.821468,0.79375 h 29.766656 c 0.15563,0 0.29781,-0.0462 0.41739,-0.122989 l 0.002,0.05736 c 0.0154,0.439738 -0.32629,0.79375 -0.76603,0.79375 H 84.288438 c -0.439737,0 -0.806112,-0.354012 -0.821468,-0.79375 L 83.152829,3.144812 c -0.01536,-0.439737 0.326294,-0.79375 0.766031,-0.79375 z"
         style="opacity:1;fill:#000000;fill-opacity:0;stroke:none;stroke-width:0.26458335;stroke-linecap:square;stroke-linejoin:round;stroke-miterlimit:4;stroke-dasharray:none;stroke-dashoffset:0;stroke-opacity:1;paint-order:normal" />
    </g>
  </g>
  <g
     inkscape:groupmode="layer"
     id="layer3"
     inkscape:label="Plaster"
     style="display:inline"
     transform="translate(2.863329e-6,34.172916)">
    <rect
       style="display:inline;opacity:1;fill:#8b5249;fill-opacity:1;stroke:none;stroke-width:0.22423559;stroke-linecap:square;stroke-linejoin:round;stroke-miterlimit:4;stroke-dasharray:none;stroke-dashoffset:0;stroke-opacity:1;paint-order:normal"
       id="rect24784"
       width="135.46667"
       height="30.691668"
       x="0"
       y="-30.468748"
       rx="1.5067997"
       ry="0.3003282" />
  </g>
  <g
     inkscape:groupmode="layer"
     id="layer2"
     inkscape:label="Bricks"
     style="display:inline"
     transform="translate(2.863329e-6,34.172916)">
    <use
       x="0"
       y="0"
       xlink:href="#g26972"
       id="use26988"
       transform="matrix(0,0.98816353,-0.98356329,0,142.20268,-48.194756)"
       width="100%"
       height="100%" />
    <use
       x="0"
       y="0"
       xlink:href="#g26960"
       id="use26990"
       transform="matrix(0,0.98816353,-0.98356329,0,165.26619,-81.442968)"
       width="100%"
       height="100%" />
    <use
       x="0"
       y="0"
       xlink:href="#g26986"
       id="use26992"
       transform="matrix(0,0.98816353,-0.98356329,0,187.87057,-115.2678)"
       width="100%"
       height="100%" />
    <use
       x="0"
       y="0"
       xlink:href="#g26936"
       id="use26994"
       transform="matrix(0,0.98816353,-0.98356329,0,144.07284,-33.742924)"
       width="100%"
       height="100%" />
    <use
       x="0"
       y="0"
       xlink:href="#g26948"
       id="use27004"
       transform="matrix(0,0.98816353,-0.98356329,0,166.18895,-132.45685)"
       width="100%"
       height="100%" />
    <use
       x="0"
       y="0"
       xlink:href="#g26972"
       id="use27012"
       transform="matrix(0,0.98816353,-0.98356329,0,210.33011,-47.850398)"
       width="100%"
       height="100%" />
    <use
       x="0"
       y="0"
       xlink:href="#g26986"
       id="use27026"
       transform="matrix(0,0.98816353,-0.98356329,0,221.72396,-115.33716)"
       width="100%"
       height="100%" />
    <use
       x="0"
       y="0"
       xlink:href="#g26936"
       id="use27032"
       transform="matrix(0,0.98816353,-0.98356329,0,190.10654,-33.478815)"
       width="100%"
       height="100%" />
    <use
       x="0"
       y="0"
       xlink:href="#g26972"
       id="use27036"
       transform="matrix(0,0.98816353,-0.98356329,0,254.44052,-47.854051)"
       width="100%"
       height="100%" />
    <use
       x="0"
       y="0"
       xlink:href="#g26986"
       id="use27048"
       transform="matrix(0,-0.98816353,0.98356329,0,-6.6369846,81.649747)"
       width="100%"
       height="100%" />
    <use
       height="100%"
       width="100%"
       transform="matrix(0,0.98816353,0.98356329,0,-63.847697,-132.45686)"
       id="use2334"
       xlink:href="#g26948"
       y="0"
       x="0" />
    <use
       height="100%"
       width="100%"
       transform="matrix(0,0.98816353,-0.98356329,0,244.78835,-132.45685)"
       id="use2336"
       xlink:href="#g26948"
       y="0"
       x="0" />
  </g>
  <g
     inkscape:groupmode="layer"
     id="layer4"
     inkscape:label="Shader"
     sodipodi:insensitive="true"
     style="display:none"
     transform="translate(2.863329e-6,34.172916)">
    <rect
       ry="1.3255866"
       rx="1.5067997"
       y="9.8999021e-07"
       x="0"
       height="135.46667"
       width="135.46667"
       id="rect26735"
       style="display:inline;opacity:0.28300003;fill:#ffffff;fill-opacity:1;stroke:none;stroke-width:0.47109723;stroke-linecap:square;stroke-linejoin:round;stroke-miterlimit:4;stroke-dasharray:none;stroke-dashoffset:0;stroke-opacity:1;paint-order:normal" />
  </g>
</svg>
