<?xml version="1.0" encoding="UTF-8" standalone="no"?>
<!-- Created with Inkscape (http://www.inkscape.org/) -->

<svg
   xmlns:dc="http://purl.org/dc/elements/1.1/"
   xmlns:cc="http://creativecommons.org/ns#"
   xmlns:rdf="http://www.w3.org/1999/02/22-rdf-syntax-ns#"
   xmlns:svg="http://www.w3.org/2000/svg"
   xmlns="http://www.w3.org/2000/svg"
   xmlns:xlink="http://www.w3.org/1999/xlink"
   xmlns:sodipodi="http://sodipodi.sourceforge.net/DTD/sodipodi-0.dtd"
   xmlns:inkscape="http://www.inkscape.org/namespaces/inkscape"
   width="1024"
   height="1024"
   viewBox="0 0 1024 1024"
   id="svg4478"
   version="1.1"
   inkscape:version="0.92.4 (5da689c313, 2019-01-14)"
   sodipodi:docname="Splitter.svg">
  <defs
     id="defs4480" />
  <sodipodi:namedview
     id="base"
     pagecolor="#ffffff"
     bordercolor="#666666"
     borderopacity="1.0"
     inkscape:pageopacity="0.0"
     inkscape:pageshadow="2"
     inkscape:zoom="3.7454562"
     inkscape:cx="174.67052"
     inkscape:cy="878.73885"
     inkscape:document-units="px"
     inkscape:current-layer="layer1"
     showgrid="true"
     units="px"
     objecttolerance="2"
     guidetolerance="2"
     inkscape:window-width="1920"
     inkscape:window-height="1027"
     inkscape:window-x="-8"
     inkscape:window-y="-8"
     inkscape:window-maximized="1"
     showguides="false"
     inkscape:snap-others="false"
     inkscape:object-nodes="false"
     inkscape:snap-nodes="false">
    <inkscape:grid
       type="xygrid"
       id="grid4486"
       empspacing="8" />
  </sodipodi:namedview>
  <metadata
     id="metadata4483">
    <rdf:RDF>
      <cc:Work
         rdf:about="">
        <dc:format>image/svg+xml</dc:format>
        <dc:type
           rdf:resource="http://purl.org/dc/dcmitype/StillImage" />
        <dc:title />
      </cc:Work>
    </rdf:RDF>
  </metadata>
  <g
     inkscape:label="Layer 1"
     inkscape:groupmode="layer"
     id="layer1"
     transform="translate(0,-28.362161)"
     style="display:inline">
    <g
       id="g1144"
       transform="rotate(30.682508,190.53045,261.63143)"
       style="stroke-width:4;stroke-miterlimit:4;stroke-dasharray:none"
       inkscape:export-filename="C:\Users\fruit\Documents\DBProjects\Spitter\library\LeafR.png"
       inkscape:export-xdpi="96"
       inkscape:export-ydpi="96">
      <g
         id="g1154"
         transform="translate(-26.34303,11.747567)"
         style="stroke-width:4;stroke-miterlimit:4;stroke-dasharray:none">
        <path
           style="fill:#677821;fill-opacity:1;fill-rule:evenodd;stroke:#000000;stroke-width:4;stroke-linecap:butt;stroke-linejoin:miter;stroke-miterlimit:4;stroke-dasharray:none;stroke-opacity:1"
           d="m 218.57595,237.50817 c 18.86272,-30.24248 45.2116,-11.20043 71.55337,-31.68284 -9.94577,19.85151 -11.61504,82.05927 -71.19738,50.19415 z"
           id="path1119"
           inkscape:connector-curvature="0"
           sodipodi:nodetypes="cccc" />
        <path
           style="display:inline;fill:#222b00;fill-rule:evenodd;stroke:none;stroke-width:4;stroke-linecap:butt;stroke-linejoin:miter;stroke-opacity:1;stroke-miterlimit:4;stroke-dasharray:none"
           d="m 217.1459,250.10567 3.58955,6.29839 c 20.12604,-3.81508 33.09455,-23.50385 56.30477,-30.29506 -23.13255,3.54044 -37.29949,23.30483 -59.89432,23.99667 z"
           id="path1088-8"
           inkscape:connector-curvature="0"
           sodipodi:nodetypes="cccc" />
      </g>
    </g>
    <g
       id="g1150"
       transform="matrix(-1,0,0,1,387.13373,5.3398124)"
       style="stroke-width:4;stroke-miterlimit:4;stroke-dasharray:none"
       inkscape:export-filename="C:\Users\fruit\Documents\DBProjects\Spitter\library\LeafLpng.png"
       inkscape:export-xdpi="96"
       inkscape:export-ydpi="96">
      <path
         style="fill:#677821;fill-opacity:1;fill-rule:evenodd;stroke:#000000;stroke-width:4;stroke-linecap:butt;stroke-linejoin:miter;stroke-miterlimit:4;stroke-dasharray:none;stroke-opacity:1"
         d="m 216.8139,244.30463 c 18.86272,-30.24248 46.97365,-17.99689 73.31542,-38.4793 -9.94577,19.85151 -11.61504,82.05927 -71.19738,50.19415 z"
         id="path1146"
         inkscape:connector-curvature="0"
         sodipodi:nodetypes="cccc" />
      <path
         style="display:inline;fill:#222b00;fill-rule:evenodd;stroke:none;stroke-width:4;stroke-linecap:butt;stroke-linejoin:miter;stroke-opacity:1;stroke-miterlimit:4;stroke-dasharray:none"
         d="m 217.1459,250.10567 3.58955,6.29839 c 20.12604,-3.81508 33.09455,-23.50385 56.30477,-30.29506 -23.13255,3.54044 -37.29949,23.30483 -59.89432,23.99667 z"
         id="path1148"
         inkscape:connector-curvature="0"
         sodipodi:nodetypes="cccc" />
    </g>
    <g
       id="g1117"
       style="stroke-width:4;stroke-miterlimit:4;stroke-dasharray:none"
       inkscape:export-filename="C:\Users\fruit\Documents\DBProjects\Spitter\library\stalk.png"
       inkscape:export-xdpi="96"
       inkscape:export-ydpi="96">
      <path
         sodipodi:nodetypes="csccscc"
         inkscape:connector-curvature="0"
         id="path1102"
         d="m 180.73549,161.77416 c 12.43763,20.72258 27.20822,49.02073 11.07572,65.4474 -35.15513,35.79616 -34.50482,50.34415 -49.33727,75.51622 h 40.77876 c 8.4827,-25.33989 7.33996,-44.64192 34.23402,-76.01966 14.82458,-17.29609 -7.80747,-51.61471 -28.69616,-73.50246 z"
         style="fill:#abc837;fill-opacity:1;fill-rule:evenodd;stroke:#000000;stroke-width:4;stroke-linecap:butt;stroke-linejoin:miter;stroke-opacity:1;stroke-miterlimit:4;stroke-dasharray:none" />
      <ellipse
         style="opacity:1;fill:#677821;fill-opacity:1;stroke:none;stroke-width:4.03902553;stroke-linecap:round;stroke-linejoin:round;stroke-miterlimit:4;stroke-dasharray:none;stroke-dashoffset:0;stroke-opacity:1;paint-order:fill markers stroke"
         id="ellipse1104"
         cx="225.87108"
         cy="251.07791"
         rx="7.2299757"
         ry="5.3454008"
         transform="matrix(0.99015493,-0.13997578,-0.05596615,0.99843267,0,0)"
         inkscape:transform-center-x="0.24917305"
         inkscape:transform-center-y="0.035722545" />
      <ellipse
         transform="matrix(0.89805217,-0.43988897,0.29036673,0.95691544,0,0)"
         style="opacity:1;fill:#677821;fill-opacity:1;stroke:none;stroke-width:4.02607454;stroke-linecap:round;stroke-linejoin:round;stroke-miterlimit:4;stroke-dasharray:none;stroke-dashoffset:0;stroke-opacity:1;paint-order:fill markers stroke"
         id="ellipse1106"
         cx="143.03632"
         cy="276.77206"
         rx="4.4012413"
         ry="2.8930845" />
      <ellipse
         ry="2.8930845"
         rx="4.4012413"
         cy="326.22488"
         cx="80.668098"
         id="ellipse1108"
         style="opacity:1;fill:#677821;fill-opacity:1;stroke:none;stroke-width:4.02607454;stroke-linecap:round;stroke-linejoin:round;stroke-miterlimit:4;stroke-dasharray:none;stroke-dashoffset:0;stroke-opacity:1;paint-order:fill markers stroke"
         transform="matrix(0.89805217,-0.43988897,0.29036673,0.95691544,0,0)" />
      <ellipse
         inkscape:transform-center-y="0.035722545"
         inkscape:transform-center-x="0.24917305"
         transform="matrix(0.99015493,-0.13997578,-0.05596615,0.99843267,0,0)"
         ry="5.3454008"
         rx="7.2299757"
         cy="321.77475"
         cx="196.07156"
         id="ellipse1110"
         style="opacity:1;fill:#677821;fill-opacity:1;stroke:none;stroke-width:4.03902553;stroke-linecap:round;stroke-linejoin:round;stroke-miterlimit:4;stroke-dasharray:none;stroke-dashoffset:0;stroke-opacity:1;paint-order:fill markers stroke" />
    </g>
    <g
       id="g1100"
       style="stroke-width:4;stroke-miterlimit:4;stroke-dasharray:none"
       inkscape:export-filename="C:\Users\fruit\Documents\DBProjects\Spitter\library\Flower.png"
       inkscape:export-xdpi="96"
       inkscape:export-ydpi="96">
      <path
         sodipodi:nodetypes="cccccccccccc"
         inkscape:connector-curvature="0"
         id="path1072"
         d="m 167.96657,71.447715 c 0,0 5.03441,-23.158308 23.41003,-29.451327 12.83775,18.375614 1.00688,35.492625 1.00688,35.492625 15.49899,-9.820136 26.62911,-4.786099 39.01672,-4.027532 -7.44543,11.357776 -2.02613,26.391189 -22.65487,33.982309 21.04834,-0.85202 24.27148,20.08233 34.48574,32.47197 -12.08299,5.93188 -17.25756,12.99099 -41.53392,8.55851 18.30711,16.27794 10.87455,32.55588 16.11012,48.83382 -12.51231,-7.84824 -28.90272,-0.83041 -37.50639,-23.66175 -0.63083,16.48354 -12.0737,26.31352 -20.89282,37.75811 0.50953,-15.80348 -12.54441,-29.34639 2.51721,-47.57522 z"
         style="fill:#677821;fill-rule:evenodd;stroke:#000000;stroke-width:4;stroke-linecap:butt;stroke-linejoin:miter;stroke-miterlimit:4;stroke-dasharray:none;stroke-opacity:1" />
      <path
         sodipodi:nodetypes="cccc"
         inkscape:connector-curvature="0"
         id="path1084"
         d="m 174.6942,79.713202 4.40511,1.510324 c 6.61552,-7.945185 2.91543,-20.29234 9.43953,-30.45821 -7.99407,8.777795 -4.75795,21.534498 -13.84464,28.947886 z"
         style="fill:#222b00;fill-rule:evenodd;stroke:none;stroke-width:4;stroke-linecap:butt;stroke-linejoin:miter;stroke-opacity:1;stroke-miterlimit:4;stroke-dasharray:none" />
      <path
         style="fill:#222b00;fill-rule:evenodd;stroke:none;stroke-width:4;stroke-linecap:butt;stroke-linejoin:miter;stroke-opacity:1;stroke-miterlimit:4;stroke-dasharray:none"
         d="m 194.30009,94.713863 2.8275,3.700186 c 9.91164,-2.941164 13.68195,-15.267058 24.74934,-20.106654 -11.52052,2.869255 -15.90405,15.27855 -27.57684,16.406468 z"
         id="path1086"
         inkscape:connector-curvature="0"
         sodipodi:nodetypes="cccc" />
      <path
         sodipodi:nodetypes="cccc"
         inkscape:connector-curvature="0"
         id="path1088"
         d="m 200.66376,121.17904 -1.94793,4.93341 c 9.36872,7.69156 24.34047,3.8543 36.385,11.50406 -10.33032,-9.27157 -25.78136,-5.96965 -34.43707,-16.43747 z"
         style="fill:#222b00;fill-rule:evenodd;stroke:none;stroke-width:4;stroke-linecap:butt;stroke-linejoin:miter;stroke-opacity:1;stroke-miterlimit:4;stroke-dasharray:none" />
      <path
         style="fill:#222b00;fill-rule:evenodd;stroke:none;stroke-width:4;stroke-linecap:butt;stroke-linejoin:miter;stroke-opacity:1;stroke-miterlimit:4;stroke-dasharray:none"
         d="m 191.83605,153.94377 -4.61857,2.60801 c 2.44015,11.87344 16.49011,18.31366 21.03602,31.83861 -2.19308,-13.70649 -16.2786,-20.86438 -16.41745,-34.44662 z"
         id="path1090"
         inkscape:connector-curvature="0"
         sodipodi:nodetypes="cccc" />
      <path
         sodipodi:nodetypes="cccc"
         inkscape:connector-curvature="0"
         id="path1092"
         d="m 167.26158,164.03867 5.20145,1.03818 c 1.38303,12.04243 -9.95897,22.5418 -10.06188,36.80991 -2.18925,-13.7071 8.9628,-24.89946 4.86043,-37.84809 z"
         style="fill:#222b00;fill-rule:evenodd;stroke:none;stroke-width:4;stroke-linecap:butt;stroke-linejoin:miter;stroke-opacity:1;stroke-miterlimit:4;stroke-dasharray:none" />
    </g>
    <path
       sodipodi:type="star"
       style="opacity:1;fill:none;fill-opacity:1;stroke:none;stroke-width:2;stroke-linecap:round;stroke-linejoin:bevel;stroke-miterlimit:4;stroke-dasharray:none;stroke-dashoffset:0;stroke-opacity:1;paint-order:fill markers stroke"
       id="path1026"
       sodipodi:sides="3"
       sodipodi:cx="41.828461"
       sodipodi:cy="134.27197"
       sodipodi:r1="20.497087"
       sodipodi:r2="10.248544"
       sodipodi:arg1="1.1693253"
       sodipodi:arg2="2.2165228"
       inkscape:flatsided="false"
       inkscape:rounded="0"
       inkscape:randomized="0"
       d="M 49.838165,153.13928 35.661104,142.4571 21.484042,131.77493 l 16.339566,-6.93661 16.339566,-6.93661 -2.162504,17.61878 z"
       inkscape:transform-center-x="4.0048525"
       inkscape:transform-center-y="1.2485223" />
    <g
       id="g1164"
       inkscape:transform-center-x="38.45315"
       inkscape:transform-center-y="24.692069"
       style="stroke-width:4;stroke-miterlimit:4;stroke-dasharray:none"
       inkscape:export-filename="C:\Users\fruit\Documents\DBProjects\Spitter\library\bottom.png"
       inkscape:export-xdpi="96"
       inkscape:export-ydpi="96">
      <path
         sodipodi:nodetypes="ccsc"
         inkscape:connector-curvature="0"
         id="path1012"
         d="m 69.978367,157.74663 c 57.237973,-8.19085 101.026123,-31.19867 131.545683,-45.43188 1.95679,2.74475 2.93181,37.79429 -24.23765,54.1082 -33.76245,20.27269 -69.79454,22.79692 -107.308033,-8.67632 z"
         style="fill:#abc837;fill-opacity:1;fill-rule:evenodd;stroke:#000000;stroke-width:4;stroke-linecap:butt;stroke-linejoin:miter;stroke-miterlimit:4;stroke-dasharray:none;stroke-opacity:1" />
      <g
         transform="translate(0.92050569,0.12847989)"
         id="g1048"
         style="stroke-width:4;stroke-miterlimit:4;stroke-dasharray:none">
        <path
           sodipodi:nodetypes="cccc"
           inkscape:connector-curvature="0"
           id="path1039"
           d="m 89.518189,150.2871 c -2.635493,-3.40034 -5.439485,-6.53036 -9.254679,-8.03808 -2.750325,2.96481 -4.036588,6.9528 -5.474253,10.83499 4.909627,-0.93239 9.819285,-1.86462 14.728932,-2.79691 z"
           inkscape:transform-center-y="-0.87352387"
           inkscape:transform-center-x="-0.63007144"
           style="opacity:1;fill:#ffffff;fill-opacity:1;stroke:#000000;stroke-width:4;stroke-linecap:round;stroke-linejoin:round;stroke-miterlimit:4;stroke-dasharray:none;stroke-dashoffset:0;stroke-opacity:1;paint-order:fill markers stroke" />
        <path
           style="opacity:1;fill:#ffffff;fill-opacity:1;stroke:#000000;stroke-width:4;stroke-linecap:round;stroke-linejoin:round;stroke-miterlimit:4;stroke-dasharray:none;stroke-dashoffset:0;stroke-opacity:1;paint-order:fill markers stroke"
           inkscape:transform-center-x="-0.52464544"
           inkscape:transform-center-y="-1.0065639"
           d="m 104.40682,148.23926 c -2.52044,-3.48648 -5.218309,-6.70842 -8.981009,-8.34274 -2.847828,2.87128 -4.26659,6.81408 -5.833136,10.64607 4.938033,-0.76786 9.876092,-1.53557 14.814145,-2.30333 z"
           id="path1041"
           inkscape:connector-curvature="0"
           sodipodi:nodetypes="cccc" />
        <path
           sodipodi:nodetypes="cccc"
           inkscape:connector-curvature="0"
           id="path1043"
           d="m 120.03767,146.71083 c -2.32658,-3.61873 -4.84476,-6.98298 -8.51275,-8.82004 -3.00014,2.71173 -4.63179,6.5713 -6.40495,10.31217 4.97256,-0.49746 9.94513,-0.99477 14.9177,-1.49213 z"
           inkscape:transform-center-y="-1.2213139"
           inkscape:transform-center-x="-0.35129844"
           style="opacity:1;fill:#ffffff;fill-opacity:1;stroke:#000000;stroke-width:4;stroke-linecap:round;stroke-linejoin:round;stroke-miterlimit:4;stroke-dasharray:none;stroke-dashoffset:0;stroke-opacity:1;paint-order:fill markers stroke" />
      </g>
      <path
         style="fill:#ffdd55;fill-rule:evenodd;stroke:none;stroke-width:4;stroke-linecap:butt;stroke-linejoin:miter;stroke-opacity:1;stroke-miterlimit:4;stroke-dasharray:none"
         d="m 64,148.36216 c 33.636185,0.6293 83.05114,-13.54938 102.14794,-24.85695 7.88867,5.13662 1.58335,3.70281 1.58335,3.70281 1.68108,6.14816 -64.28156,33.3159 -101.219644,33.22294 C 62.033398,160.83735 60,150.36216 64,148.36216 Z"
         id="path1016"
         inkscape:connector-curvature="0"
         sodipodi:nodetypes="ccccc" />
      <path
         sodipodi:nodetypes="cccc"
         inkscape:connector-curvature="0"
         id="path1022"
         d="m 168.45191,127.46651 c -6.20058,9.58705 -56.63807,29.7341 -101.038474,32.88393 -5.401301,0.90774 -8.583814,-8.20108 -3.413436,-11.98828 34.917141,2.1609 89.26002,-14.8058 101.32148,-24.0643"
         style="fill:none;fill-rule:evenodd;stroke:#000000;stroke-width:4;stroke-linecap:round;stroke-linejoin:miter;stroke-miterlimit:4;stroke-dasharray:none;stroke-opacity:1" />
      <ellipse
         style="opacity:1;fill:#677821;fill-opacity:1;stroke:none;stroke-width:4.03902554;stroke-linecap:round;stroke-linejoin:round;stroke-miterlimit:4;stroke-dasharray:none;stroke-dashoffset:0;stroke-opacity:1;paint-order:fill markers stroke"
         id="ellipse1061"
         cx="174.9465"
         cy="172.46629"
         rx="7.2299757"
         ry="5.3454008"
         transform="matrix(0.99995664,-0.00931231,-0.18602985,0.98254409,0,0)"
         inkscape:transform-center-x="0.25169815"
         inkscape:transform-center-y="0.0028436374" />
    </g>
    <g
       id="g1178"
       inkscape:transform-center-x="37.209165"
       inkscape:transform-center-y="-13.031886"
       style="stroke-width:4;stroke-miterlimit:4;stroke-dasharray:none"
       inkscape:export-filename="C:\Users\fruit\Documents\DBProjects\Spitter\library\top.png"
       inkscape:export-xdpi="96"
       inkscape:export-ydpi="96">
      <path
         sodipodi:nodetypes="csscc"
         inkscape:connector-curvature="0"
         id="path1010"
         d="m 64,132.36216 c 0,0 0,-55.999999 56,-63.999999 56,-8 81.16552,26.222864 81.95793,44.093849 0.0622,1.40205 -1.95793,3.90615 -1.95793,3.90615 -35.32199,9.14435 -72,16 -136,16 z"
         style="fill:#abc837;fill-rule:evenodd;stroke:#000000;stroke-width:4;stroke-linecap:butt;stroke-linejoin:miter;stroke-miterlimit:4;stroke-dasharray:none;stroke-opacity:1" />
      <g
         transform="rotate(-6.378756,68.481947,145.00136)"
         id="g1053"
         style="stroke-width:4;stroke-miterlimit:4;stroke-dasharray:none">
        <path
           style="opacity:1;fill:#ffffff;fill-opacity:1;stroke:#000000;stroke-width:4;stroke-linecap:round;stroke-linejoin:round;stroke-miterlimit:4;stroke-dasharray:none;stroke-dashoffset:0;stroke-opacity:1;paint-order:fill markers stroke"
           inkscape:transform-center-x="-0.63007144"
           inkscape:transform-center-y="0.8735258"
           d="m 83.021428,135.43688 c -2.635493,3.40034 -5.439485,6.53036 -9.254679,8.03808 -2.750325,-2.96481 -4.036588,-6.9528 -5.474253,-10.83499 4.909627,0.93239 9.819285,1.86462 14.728932,2.79691 z"
           id="path1032"
           inkscape:connector-curvature="0"
           sodipodi:nodetypes="cccc" />
        <path
           sodipodi:nodetypes="cccc"
           inkscape:connector-curvature="0"
           id="path1035"
           d="m 97.910056,137.48472 c -2.520436,3.48648 -5.218306,6.70842 -8.981006,8.34274 -2.847828,-2.87128 -4.26659,-6.81408 -5.833136,-10.64607 4.938033,0.76786 9.876092,1.53557 14.814142,2.30333 z"
           inkscape:transform-center-y="1.0065658"
           inkscape:transform-center-x="-0.52464544"
           style="opacity:1;fill:#ffffff;fill-opacity:1;stroke:#000000;stroke-width:4;stroke-linecap:round;stroke-linejoin:round;stroke-miterlimit:4;stroke-dasharray:none;stroke-dashoffset:0;stroke-opacity:1;paint-order:fill markers stroke" />
        <path
           style="opacity:1;fill:#ffffff;fill-opacity:1;stroke:#000000;stroke-width:4;stroke-linecap:round;stroke-linejoin:round;stroke-miterlimit:4;stroke-dasharray:none;stroke-dashoffset:0;stroke-opacity:1;paint-order:fill markers stroke"
           inkscape:transform-center-x="-0.35129844"
           inkscape:transform-center-y="1.2213158"
           d="m 113.54091,139.01315 c -2.32658,3.61873 -4.84476,6.98298 -8.51275,8.82004 -3.00014,-2.71173 -4.63179,-6.5713 -6.40495,-10.31217 4.97256,0.49746 9.94513,0.99477 14.9177,1.49213 z"
           id="path1037"
           inkscape:connector-curvature="0"
           sodipodi:nodetypes="cccc" />
      </g>
      <g
         id="g1065"
         style="stroke-width:4;stroke-miterlimit:4;stroke-dasharray:none">
        <path
           style="fill:#ffdd55;fill-rule:evenodd;stroke:none;stroke-width:4;stroke-linecap:butt;stroke-linejoin:miter;stroke-opacity:1;stroke-miterlimit:4;stroke-dasharray:none"
           d="m 66,120.36216 c 31.236598,9.16802 85.89595,7.62149 102,-7 l -1,10 c -12.75777,8.02736 -65.93387,18.82456 -103.566372,9.2124 C 59.066951,131.50125 62.753983,121.85574 66,120.36216 Z"
           id="path1014"
           inkscape:connector-curvature="0"
           sodipodi:nodetypes="ccccc" />
        <path
           sodipodi:nodetypes="cccc"
           inkscape:connector-curvature="0"
           id="path1024"
           d="m 166.67847,122.85184 c -4.00064,7.68825 -65.4846,17.6477 -102.443871,9.63372 -4.366677,-1.07331 -2.113274,-10.46315 1.132743,-11.95673 33.181759,10.14804 95.050878,4.65565 101.990088,-5.90433"
           style="fill:none;fill-rule:evenodd;stroke:#000000;stroke-width:4;stroke-linecap:round;stroke-linejoin:miter;stroke-miterlimit:4;stroke-dasharray:none;stroke-opacity:1" />
      </g>
      <ellipse
         inkscape:transform-center-y="0.035722545"
         inkscape:transform-center-x="0.24917305"
         transform="matrix(0.99015493,-0.13997578,-0.05596615,0.99843267,0,0)"
         ry="5.3454008"
         rx="7.2299757"
         cy="120.77375"
         cx="148.3983"
         id="path1055"
         style="opacity:1;fill:#677821;fill-opacity:1;stroke:none;stroke-width:4.03902553;stroke-linecap:round;stroke-linejoin:round;stroke-miterlimit:4;stroke-dasharray:none;stroke-dashoffset:0;stroke-opacity:1;paint-order:fill markers stroke" />
      <ellipse
         transform="matrix(-0.9809322,0.19435027,0.01486783,-0.99988947,0,0)"
         style="opacity:1;fill:#677821;fill-opacity:1;stroke:none;stroke-width:4.04487562;stroke-linecap:round;stroke-linejoin:round;stroke-miterlimit:4;stroke-dasharray:none;stroke-dashoffset:0;stroke-opacity:1;paint-order:fill markers stroke"
         id="ellipse1057"
         cx="-122.67245"
         cy="-114.73842"
         rx="7.3222709"
         ry="5.0737782" />
      <ellipse
         ry="2.8930845"
         rx="4.4012413"
         cy="136.7963"
         cx="117.7356"
         id="ellipse1059"
         style="opacity:1;fill:#677821;fill-opacity:1;stroke:none;stroke-width:4.02607454;stroke-linecap:round;stroke-linejoin:round;stroke-miterlimit:4;stroke-dasharray:none;stroke-dashoffset:0;stroke-opacity:1;paint-order:fill markers stroke"
         transform="matrix(0.89805217,-0.43988897,0.29036673,0.95691544,0,0)" />
      <ellipse
         inkscape:transform-center-y="-0.23119632"
         inkscape:transform-center-x="0.09953632"
         transform="matrix(0.39362063,0.91927297,-0.97841809,0.20663504,0,0)"
         ry="5.3454008"
         rx="7.2299757"
         cy="-127.11839"
         cx="129.83121"
         id="ellipse1070"
         style="opacity:1;fill:#677821;fill-opacity:1;stroke:none;stroke-width:4.03902555;stroke-linecap:round;stroke-linejoin:round;stroke-miterlimit:4;stroke-dasharray:none;stroke-dashoffset:0;stroke-opacity:1;paint-order:fill markers stroke" />
    </g>
    <g
       id="g1182"
       inkscape:export-filename="C:\Users\fruit\Documents\DBProjects\Spitter\library\cap.png"
       inkscape:export-xdpi="96"
       inkscape:export-ydpi="96"
       style="stroke-width:4;stroke-miterlimit:4;stroke-dasharray:none"
       transform="translate(-1.0655344)">
      <path
         sodipodi:nodetypes="cc"
         inkscape:connector-curvature="0"
         id="path1020"
         d="m 170.60519,110.21284 c -1.88075,-0.58982 -11.50504,15.72654 7.67748,24.54278"
         style="fill:none;fill-rule:evenodd;stroke:#000000;stroke-width:4;stroke-linecap:round;stroke-linejoin:bevel;stroke-miterlimit:4;stroke-dasharray:none;stroke-opacity:1;paint-order:fill markers stroke" />
      <path
         sodipodi:nodetypes="ccccc"
         inkscape:connector-curvature="0"
         id="path1018"
         d="m 170.3166,110.07171 29.84928,-2.84229 c 2.77947,5.13361 1.40798,23.78148 -0.88104,26.5761 l -21.1649,0.6831 c -15.78663,-10.77607 -10.97997,-17.88659 -7.80334,-24.41691 z"
         style="fill:#abc837;fill-opacity:1;fill-rule:evenodd;stroke:none;stroke-width:4;stroke-linecap:butt;stroke-linejoin:miter;stroke-miterlimit:4;stroke-dasharray:none;stroke-opacity:1" />
    </g>
  </g>
  <g
     inkscape:groupmode="layer"
     id="layer2"
     inkscape:label="Grid"
     style="display:none"
     sodipodi:insensitive="true">
    <g
       style="display:inline"
       id="g6483">
      <g
         id="g6417">
        <rect
           style="display:inline;opacity:1;fill:none;fill-opacity:1;stroke:#d6d6d6;stroke-width:0.98461556;stroke-linecap:round;stroke-miterlimit:1;stroke-dasharray:0.98461554, 2.95384662;stroke-dashoffset:0;stroke-opacity:1;shape-rendering:crispEdges"
           id="rect6651"
           width="63.015385"
           height="63.015385"
           x="960.49231"
           y="-63.507694"
           inkscape:label="#rect5602"
           transform="rotate(90)"
           inkscape:tile-cx="32.000002"
           inkscape:tile-cy="992"
           inkscape:tile-w="64"
           inkscape:tile-h="64"
           inkscape:tile-x0="1.7881394e-06"
           inkscape:tile-y0="960" />
        <use
           x="0"
           y="0"
           xlink:href="#rect6651"
           id="use6369"
           transform="translate(63.999998)"
           width="100%"
           height="100%" />
        <use
           x="0"
           y="0"
           xlink:href="#rect6651"
           id="use6371"
           transform="translate(128)"
           width="100%"
           height="100%" />
        <use
           x="0"
           y="0"
           xlink:href="#rect6651"
           id="use6373"
           transform="translate(192)"
           width="100%"
           height="100%" />
        <use
           x="0"
           y="0"
           xlink:href="#rect6651"
           id="use6375"
           transform="translate(256)"
           width="100%"
           height="100%" />
        <use
           x="0"
           y="0"
           xlink:href="#rect6651"
           id="use6377"
           transform="translate(320)"
           width="100%"
           height="100%" />
        <use
           x="0"
           y="0"
           xlink:href="#rect6651"
           id="use6379"
           transform="translate(384)"
           width="100%"
           height="100%" />
        <use
           x="0"
           y="0"
           xlink:href="#rect6651"
           id="use6381"
           transform="translate(448)"
           width="100%"
           height="100%" />
        <use
           x="0"
           y="0"
           xlink:href="#rect6651"
           id="use6383"
           transform="translate(512)"
           width="100%"
           height="100%" />
        <use
           x="0"
           y="0"
           xlink:href="#rect6651"
           id="use6385"
           transform="translate(576)"
           width="100%"
           height="100%" />
        <use
           x="0"
           y="0"
           xlink:href="#rect6651"
           id="use6387"
           transform="translate(704,-2.0265579e-6)"
           width="100%"
           height="100%" />
        <use
           x="0"
           y="0"
           xlink:href="#rect6651"
           id="use6389"
           transform="translate(768)"
           width="100%"
           height="100%" />
        <use
           x="0"
           y="0"
           xlink:href="#rect6651"
           id="use6391"
           transform="translate(640)"
           width="100%"
           height="100%" />
        <use
           x="0"
           y="0"
           xlink:href="#rect6651"
           id="use6393"
           transform="translate(832)"
           width="100%"
           height="100%" />
        <use
           x="0"
           y="0"
           xlink:href="#rect6651"
           id="use6397"
           transform="translate(960)"
           width="100%"
           height="100%" />
        <use
           x="0"
           y="0"
           xlink:href="#rect6651"
           id="use6399"
           transform="translate(896)"
           width="100%"
           height="100%" />
      </g>
      <use
         height="100%"
         width="100%"
         transform="translate(0,-64.000002)"
         id="use6419"
         xlink:href="#g6417"
         y="0"
         x="0" />
      <use
         height="100%"
         width="100%"
         transform="translate(0,-128)"
         id="use6423"
         xlink:href="#g6417"
         y="0"
         x="0" />
      <use
         height="100%"
         width="100%"
         transform="translate(0,-192)"
         id="use6425"
         xlink:href="#g6417"
         y="0"
         x="0" />
      <use
         height="100%"
         width="100%"
         transform="translate(0,-256)"
         id="use6427"
         xlink:href="#g6417"
         y="0"
         x="0" />
      <use
         height="100%"
         width="100%"
         transform="translate(0,-320)"
         id="use6429"
         xlink:href="#g6417"
         y="0"
         x="0" />
      <use
         height="100%"
         width="100%"
         transform="translate(0,-384)"
         id="use6431"
         xlink:href="#g6417"
         y="0"
         x="0" />
      <use
         height="100%"
         width="100%"
         transform="translate(0,-448)"
         id="use6433"
         xlink:href="#g6417"
         y="0"
         x="0" />
      <use
         height="100%"
         width="100%"
         transform="translate(0,-512)"
         id="use6435"
         xlink:href="#g6417"
         y="0"
         x="0" />
      <use
         height="100%"
         width="100%"
         transform="translate(0,-576)"
         id="use6437"
         xlink:href="#g6417"
         y="0"
         x="0" />
      <use
         height="100%"
         width="100%"
         transform="translate(0,-640)"
         id="use6439"
         xlink:href="#g6417"
         y="0"
         x="0" />
      <use
         height="100%"
         width="100%"
         transform="translate(0,-704)"
         id="use6441"
         xlink:href="#g6417"
         y="0"
         x="0" />
      <use
         height="100%"
         width="100%"
         transform="translate(0,-768)"
         id="use6443"
         xlink:href="#g6417"
         y="0"
         x="0" />
      <use
         height="100%"
         width="100%"
         transform="translate(0,-832)"
         id="use6445"
         xlink:href="#g6417"
         y="0"
         x="0" />
      <use
         height="100%"
         width="100%"
         transform="translate(0,-896)"
         id="use6447"
         xlink:href="#g6417"
         y="0"
         x="0" />
      <use
         height="100%"
         width="100%"
         transform="translate(0,-960)"
         id="use6449"
         xlink:href="#g6417"
         y="0"
         x="0" />
    </g>
  </g>
</svg>
