<?xml version="1.0" encoding="UTF-8" standalone="no"?>
<!-- Created with Inkscape (http://www.inkscape.org/) -->

<svg
   xmlns:dc="http://purl.org/dc/elements/1.1/"
   xmlns:cc="http://creativecommons.org/ns#"
   xmlns:rdf="http://www.w3.org/1999/02/22-rdf-syntax-ns#"
   xmlns:svg="http://www.w3.org/2000/svg"
   xmlns="http://www.w3.org/2000/svg"
   xmlns:xlink="http://www.w3.org/1999/xlink"
   xmlns:sodipodi="http://sodipodi.sourceforge.net/DTD/sodipodi-0.dtd"
   xmlns:inkscape="http://www.inkscape.org/namespaces/inkscape"
   width="210mm"
   height="297mm"
   viewBox="0 0 210 297"
   version="1.1"
   id="svg5537"
   inkscape:version="0.92.4 (5da689c313, 2019-01-14)"
   sodipodi:docname="stones.svg">
  <defs
     id="defs5531" />
  <sodipodi:namedview
     id="base"
     pagecolor="#ffffff"
     bordercolor="#666666"
     borderopacity="1.0"
     inkscape:pageopacity="0.0"
     inkscape:pageshadow="2"
     inkscape:zoom="2.8"
     inkscape:cx="227.97683"
     inkscape:cy="1009.6263"
     inkscape:document-units="mm"
     inkscape:current-layer="layer1"
     showgrid="false"
     inkscape:window-width="2736"
     inkscape:window-height="1744"
     inkscape:window-x="-11"
     inkscape:window-y="-11"
     inkscape:window-maximized="1" />
  <metadata
     id="metadata5534">
    <rdf:RDF>
      <cc:Work
         rdf:about="">
        <dc:format>image/svg+xml</dc:format>
        <dc:type
           rdf:resource="http://purl.org/dc/dcmitype/StillImage" />
        <dc:title></dc:title>
      </cc:Work>
    </rdf:RDF>
  </metadata>
  <g
     inkscape:label="Layer 1"
     inkscape:groupmode="layer"
     id="layer1">
    <image
       sodipodi:absref="C:\Users\fruit\Downloads\images.jpg"
       y="27.319426"
       x="36.805"
       id="image1839"
       xlink:href="file:///C:/Users/fruit/Downloads/images.jpg"
       preserveAspectRatio="none"
       height="24.545557"
       width="37.835415"
       style="display:inline;fill:#000000;fill-opacity:1;shape-rendering:crispEdges" />
    <g
       id="g6153">
      <path
         sodipodi:nodetypes="ccccccccc"
         inkscape:connector-curvature="0"
         id="path1848-1"
         d="m 77.294518,33.669426 c 0.396155,-1.336781 1.322917,-2.116667 2.116667,-2.910417 0,-0.264583 3.528851,-0.900748 5.55625,-0.529167 1.645031,0.61812 2.910416,1.5875 3.963013,2.286133 0.534903,1.153451 0.799487,2.553387 0.799487,3.534701 -0.117158,0.265271 -0.02164,0.407643 -1.058334,1.322916 -0.664654,0.779357 -1.487339,1.036505 -2.38125,1.058333 -2.856068,-0.173407 -5.833358,-0.02037 -8.466666,-0.79375 -0.727813,-1.615678 -0.581692,-2.767356 -0.529167,-3.968749 z"
         style="fill:#d6d3c4;fill-opacity:1;fill-rule:evenodd;stroke:#443f33;stroke-width:0.26458332px;stroke-linecap:butt;stroke-linejoin:miter;stroke-opacity:1;shape-rendering:crispEdges" />
      <path
         sodipodi:nodetypes="cccccc"
         inkscape:connector-curvature="0"
         id="path1850-5"
         d="m 78.352851,37.109009 c 1.05659,-1.150858 1.622447,-2.600219 2.910417,-3.175 -0.683697,-0.909532 -1.136377,-2.041525 -1.5875,-3.175 -0.900276,0.870056 -1.911736,1.543606 -2.38125,3.175 0.146526,1.16242 0.0607,2.498116 0.529167,3.439583 z"
         style="fill:#8e8976;fill-opacity:1;fill-rule:evenodd;stroke:none;stroke-width:0.26458332px;stroke-linecap:butt;stroke-linejoin:miter;stroke-opacity:1;shape-rendering:crispEdges" />
      <path
         sodipodi:nodetypes="cccccc"
         inkscape:connector-curvature="0"
         id="path1852-0"
         d="m 78.088268,37.638175 1.5875,-1.587499 c 1.03882,-0.457412 0.79375,-1.5875 3.175,-1.322917 1.514734,0.05099 1.806821,0.613754 2.38125,1.058333 0.01188,0.862357 0.295592,1.616763 0.79375,2.38125 -3.175,0.264583 -7.25706,-0.297683 -7.9375,-0.529167 z"
         style="fill:#aba992;fill-opacity:1;fill-rule:evenodd;stroke:none;stroke-width:0.26458332px;stroke-linecap:butt;stroke-linejoin:miter;stroke-opacity:1;shape-rendering:crispEdges" />
      <path
         sodipodi:nodetypes="ccccccc"
         inkscape:connector-curvature="0"
         id="path1854-2"
         d="m 83.909101,34.463176 c 0.226253,-0.103003 1.562664,1.256162 1.5875,1.322916 0.264584,1.058334 0.264584,2.116667 1.058334,2.38125 1.514633,0.270351 2.190853,-1.252431 3.175,-2.116666 -0.120661,-0.895298 -0.02146,-1.803215 -1.058334,-2.645834 -0.313587,0.676143 -0.262948,1.898624 -1.058333,1.852084 -1.257168,0.160866 -2.469549,-0.527183 -3.704167,-0.79375 z"
         style="fill:#c8c4b8;fill-opacity:1;fill-rule:evenodd;stroke:none;stroke-width:0.26458332px;stroke-linecap:butt;stroke-linejoin:miter;stroke-opacity:1;shape-rendering:crispEdges" />
      <path
         sodipodi:nodetypes="ccccccc"
         inkscape:connector-curvature="0"
         id="path1856-4"
         d="m 80.469518,30.759009 c 0.434808,0.86786 0.718151,1.713124 1.5875,2.645833 l 2.910417,1.058334 c 0.806497,0.0272 1.868863,0.600233 2.38125,0 0.627964,-0.278765 0.668342,-0.962422 0.79375,-1.5875 -0.678757,-0.766948 -1.241457,-1.525667 -3.175,-2.38125 -1.853801,-0.174467 -3.316259,-0.0093 -4.497917,0.264583 z"
         style="fill:#efebe0;fill-opacity:1;fill-rule:evenodd;stroke:none;stroke-width:0.26458332px;stroke-linecap:butt;stroke-linejoin:miter;stroke-opacity:1;shape-rendering:crispEdges" />
    </g>
    <g
       id="g6146">
      <path
         sodipodi:nodetypes="ccccccccc"
         inkscape:connector-curvature="0"
         id="path5494"
         d="m 105.07576,38.431932 c -5.47845,0.582163 -11.641662,-0.529166 -11.906245,-1.322916 -1.768576,-2.634668 1.5875,-8.202089 2.116666,-8.466672 0.871387,-0.904439 3.853302,-1.285248 6.085419,-1.852084 l 3.175,-1.322916 c 0.51306,-0.349663 1.23048,-0.456748 2.64583,0.264583 1.93331,1.447477 3.50708,2.977433 3.96875,4.7625 -2.6e-4,1.013783 0.26458,2.116672 -0.26458,3.175005 -0.87314,1.936327 -4.7625,4.497917 -5.82084,4.7625 z"
         style="fill:#d4d0c4;fill-opacity:1;fill-rule:evenodd;stroke:#000000;stroke-width:0.26458332px;stroke-linecap:butt;stroke-linejoin:miter;stroke-opacity:1;shape-rendering:crispEdges" />
      <path
         sodipodi:nodetypes="ccccccc"
         inkscape:connector-curvature="0"
         id="path5496"
         d="m 101.10701,33.140266 c -0.26458,-0.529167 -2.106063,-1.901508 -3.968745,-2.38125 -3.420883,-1.071848 -3.403858,0.864061 -3.786849,1.5875 -0.579803,1.651515 -0.964364,4.07614 0.2008,4.939676 0.870405,0.677201 4.644382,1.14574 4.908965,0.881157 1.531197,-0.748665 2.130169,-2.068618 2.645829,-3.439583 0.2057,-0.648044 0.26459,-0.79375 0,-1.5875 z"
         style="fill:#8e8976;fill-opacity:1;fill-rule:evenodd;stroke:none;stroke-width:0.26458332px;stroke-linecap:butt;stroke-linejoin:miter;stroke-opacity:1;shape-rendering:crispEdges" />
      <path
         sodipodi:nodetypes="cccc"
         inkscape:connector-curvature="0"
         id="path5498"
         d="m 104.81118,38.299641 c -0.70019,-1.587156 -1.10868,-2.988787 -2.64583,-4.630209 -1.09518,2.538095 -1.66404,3.19159 -3.175002,4.630209 2.122462,0.302815 4.516262,0.219022 5.820832,0 z"
         style="fill:#ada894;fill-opacity:1;fill-rule:evenodd;stroke:none;stroke-width:0.26458332px;stroke-linecap:butt;stroke-linejoin:miter;stroke-opacity:1;shape-rendering:crispEdges" />
      <path
         sodipodi:nodetypes="ccccccccccccc"
         inkscape:connector-curvature="0"
         id="path5500"
         d="m 95.815348,28.642344 c 1.708584,1.021855 4.497912,2.645838 5.027082,3.704172 1.10986,0.564118 2.16091,0.68572 3.175,0.529166 1.93935,-0.354197 3.51741,-1.260739 5.82083,-1.058333 0.31961,-0.120888 0.66231,-0.181478 0.79375,-0.79375 0.49871,-0.917101 0.17148,-1.04566 0,-1.322922 -0.52916,-0.529167 -0.1572,-1.679689 -3.70416,-3.96875 -0.70575,-0.01537 -1.41893,-0.620689 -2.11667,0 -0.35786,0.60847 -0.0304,1.230813 0,1.852083 l 4.23333,3.439589 -5.02708,-3.175005 c -1.86642,-1.163863 -2.08512,-0.822595 -2.64583,-0.79375 -1.853665,0.52924 -5.820637,1.15801 -5.556252,1.5875 z"
         style="fill:#efebe0;fill-opacity:1;fill-rule:evenodd;stroke:none;stroke-width:0.26458332px;stroke-linecap:butt;stroke-linejoin:miter;stroke-opacity:1;shape-rendering:crispEdges" />
      <path
         sodipodi:nodetypes="ccccccc"
         inkscape:connector-curvature="0"
         id="path6112"
         d="m 105.58817,25.42075 c 2.01315,0.301514 2.46866,1.220672 3.19053,1.854182 1.12658,1.030372 1.27112,1.632674 1.85331,2.425745 -0.80675,-0.647447 -1.78826,-1.32092 -2.42126,-1.941319 -0.60753,-0.647296 -1.12523,-1.310139 -2.52236,-1.820773 -0.47756,-0.04994 -0.68518,0.320014 -0.88533,0.701583 -0.20258,-0.385149 -0.34788,-1.160466 0.78511,-1.219418 z"
         style="fill:#fafaed;fill-opacity:1;fill-rule:evenodd;stroke:none;stroke-width:0.26458332px;stroke-linecap:butt;stroke-linejoin:miter;stroke-opacity:1" />
      <path
         style="fill:#fafaed;fill-opacity:1;fill-rule:evenodd;stroke:none;stroke-width:0.26458332px;stroke-linecap:butt;stroke-linejoin:miter;stroke-opacity:1"
         d="m 108.2225,31.954714 c -2.73858,0.967235 -4.08469,0.807107 -4.78384,1.012463 -1.46211,0.0877 -1.6587,-0.02529 -2.58314,-0.623928 -0.27261,-0.592228 -0.6549,-0.726237 -0.945357,-1.056374 1.272567,0.596611 0.615537,1.005521 4.102827,1.149289 1.03415,-0.02392 2.05174,-1.393253 2.93552,-1.326016 0.8816,0.104217 1.70447,0.27816 3.10231,-0.230518 0.39759,-0.269222 0.3183,-0.685978 0.22582,-1.106812 0.44872,0.179847 0.73093,2.182659 -0.96001,1.981443 z"
         id="path6114"
         inkscape:connector-curvature="0"
         sodipodi:nodetypes="cccccccccc" />
      <path
         sodipodi:nodetypes="cccccc"
         inkscape:connector-curvature="0"
         id="path6120"
         d="m 93.848924,31.186688 c 0.233856,-0.349885 2.971449,0.134963 3.326392,0.344096 0.452444,0.212139 3.590774,1.854446 3.590774,1.854446 L 97.069009,32.0505 c -1.227804,-0.229101 -2.757108,-0.617764 -3.598061,0.01611 0.0657,-0.236234 0.17916,-0.489173 0.377976,-0.879922 z"
         style="fill:#747563;fill-opacity:1;fill-rule:evenodd;stroke:none;stroke-width:0.26458332px;stroke-linecap:butt;stroke-linejoin:miter;stroke-opacity:1" />
      <path
         sodipodi:nodetypes="cccccc"
         inkscape:connector-curvature="0"
         id="path6122"
         d="m 98.890121,38.345578 0.922517,-0.822531 c 0.810052,0.218469 1.458632,0.578229 2.434652,0.65147 l 2.15487,-0.45937 0.40902,0.584494 c -1.87694,0.224135 -3.89981,0.332454 -5.921059,0.04594 z"
         style="fill:#8e8976;fill-opacity:1;fill-rule:evenodd;stroke:none;stroke-width:0.26458332px;stroke-linecap:butt;stroke-linejoin:miter;stroke-opacity:1" />
      <path
         style="fill:#c8c4b8;fill-opacity:1;fill-rule:evenodd;stroke:none;stroke-width:0.26458332px;stroke-linecap:butt;stroke-linejoin:miter;stroke-opacity:1;shape-rendering:crispEdges"
         d="m 103.88278,35.490799 c 0.22625,-0.103003 0.91301,0.925433 0.93785,0.992187 0.26458,1.058334 -0.0543,1.266221 0.73942,1.530804 0.46339,0.175857 2.66333,-1.71309 3.83646,-2.565513 0.67072,-0.623628 2.05736,-1.986298 1.63474,-4.033716 -0.33721,3.115271 -4.00727,5.530739 -4.80265,5.484199 -1.25717,0.160866 -1.1112,-1.141394 -2.34582,-1.407961 z"
         id="path6135"
         inkscape:connector-curvature="0"
         sodipodi:nodetypes="ccccccc" />
    </g>
    <g
       id="g6196">
      <path
         style="fill:#d4d0c4;fill-opacity:1;fill-rule:evenodd;stroke:#000000;stroke-width:0.26458332px;stroke-linecap:butt;stroke-linejoin:miter;stroke-opacity:1;shape-rendering:crispEdges"
         d="m 95.303715,54.735373 c -5.595381,0.04762 -11.624958,-0.863253 -11.889541,-1.657003 -1.768576,-2.634668 1.5875,-8.202089 2.116666,-8.466672 0.871387,-0.904439 1.514694,-1.819787 3.746811,-2.386623 l 5.513608,-0.788377 c 1.04157,-0.04659 2.199332,1.029939 3.614682,1.75127 1.933309,1.447477 2.538229,1.490746 2.999899,3.275813 -2.6e-4,1.013783 0.26458,2.116672 -0.26458,3.175005 -0.23972,0.531611 0.62956,3.365438 0.0562,3.930835 -1.51517,1.493989 -4.808536,1.074035 -5.893695,1.165752 z"
         id="path6155"
         inkscape:connector-curvature="0"
         sodipodi:nodetypes="ccccccccscc" />
      <path
         style="fill:#8e8976;fill-opacity:1;fill-rule:evenodd;stroke:none;stroke-width:0.26458332px;stroke-linecap:butt;stroke-linejoin:miter;stroke-opacity:1;shape-rendering:crispEdges"
         d="m 91.010749,49.354584 c -2.536371,-1.030297 -2.232865,-1.378072 -4.095547,-1.857814 -3.420883,-1.071848 -2.936136,0.09566 -3.319127,0.8191 -0.579803,1.651515 -1.058858,4.017081 0.106306,4.880617 0.870405,0.677201 4.898335,1.092587 5.032988,1.052428 0.604111,-1.358373 0.897927,-2.047195 2.6163,-3.551795 0.2057,-0.648044 -0.07633,-0.548786 -0.34092,-1.342536 z"
         id="path6157"
         inkscape:connector-curvature="0"
         sodipodi:nodetypes="ccccccc" />
      <path
         style="fill:#efebe0;fill-opacity:1;fill-rule:evenodd;stroke:none;stroke-width:0.26458332px;stroke-linecap:butt;stroke-linejoin:miter;stroke-opacity:1;shape-rendering:crispEdges"
         d="m 84.760714,46.076356 c 2.606277,0.667502 5.797205,1.18118 6.326375,2.239514 1.10986,0.564118 2.16091,0.68572 3.175,0.529166 1.93935,-0.354197 3.51741,-1.260739 5.820831,-1.058333 0.31961,-0.120888 0.66231,-0.181478 0.79375,-0.79375 0.49871,-0.917101 0.17148,-1.04566 0,-1.322922 0.0717,-0.811929 -1.725481,-1.757731 -5.349539,-4.010511 -0.735872,-0.222822 -2.237443,0.18112 -3.227509,0.317383 -0.35786,0.60847 2.725817,0.955191 2.756217,1.576461 L 94.4115,44.863149 94.262089,43.817948 c -1.86642,-1.163863 -4.615828,-1.465712 -5.176538,-1.436867 -1.853665,0.52924 -4.589222,3.265785 -4.324837,3.695275 z"
         id="path6161"
         inkscape:connector-curvature="0"
         sodipodi:nodetypes="ccccccccccccc" />
      <path
         style="fill:#fafaed;fill-opacity:1;fill-rule:evenodd;stroke:none;stroke-width:0.26458332px;stroke-linecap:butt;stroke-linejoin:miter;stroke-opacity:1"
         d="m 89.085551,42.381081 c 0.93828,0.0062 3.231871,0.554889 3.231871,0.554889 0,0 0.949066,0.325142 1.944667,0.881978 -1.119762,0.09079 -2.009546,0.583105 -2.642546,-0.03729 -0.60753,-0.647296 -1.036642,-0.371104 -2.433772,-0.881738 -0.47756,-0.04994 -0.915509,-0.01071 -0.88533,0.701583 -0.20258,-0.385149 -0.495527,-0.806113 0.78511,-1.219418 z"
         id="path6163"
         inkscape:connector-curvature="0"
         sodipodi:nodetypes="ccccccc" />
      <path
         sodipodi:nodetypes="cccccccccc"
         inkscape:connector-curvature="0"
         id="path6165"
         d="m 98.454069,47.927335 c -2.73858,0.967235 -4.08469,0.807107 -4.78384,1.012463 -1.46211,0.0877 -1.6587,-0.02529 -2.58314,-0.623928 -0.27261,-0.592228 -0.837982,-0.531343 -1.128439,-0.86148 1.561955,0.171388 0.798619,0.810627 4.285909,0.954395 1.03415,-0.02392 2.665951,-0.342007 3.065449,-0.764958 0.8816,0.104217 1.574541,-0.282898 2.972382,-0.791576 0.39759,-0.269222 0.68676,-0.761386 0.59428,-1.18222 0.41531,0.572399 0.36247,2.258067 -1.328471,2.056851 z"
         style="fill:#fafaed;fill-opacity:1;fill-rule:evenodd;stroke:none;stroke-width:0.26458332px;stroke-linecap:butt;stroke-linejoin:miter;stroke-opacity:1" />
      <path
         style="fill:#747563;fill-opacity:1;fill-rule:evenodd;stroke:none;stroke-width:0.26458332px;stroke-linecap:butt;stroke-linejoin:miter;stroke-opacity:1"
         d="m 84.093583,47.156042 c 0.233856,-0.349885 2.971449,0.134963 3.326392,0.344096 0.452444,0.212139 3.590774,1.854446 3.590774,1.854446 l -3.697081,-1.33473 c -1.227804,-0.229101 -2.757108,-0.617764 -3.598061,0.01611 0.0657,-0.236234 0.17916,-0.489173 0.377976,-0.879922 z"
         id="path6167"
         inkscape:connector-curvature="0"
         sodipodi:nodetypes="cccccc" />
      <path
         style="fill:#ada894;fill-opacity:1;fill-rule:evenodd;stroke:none;stroke-width:0.24924099px;stroke-linecap:butt;stroke-linejoin:miter;stroke-opacity:1;shape-rendering:crispEdges"
         d="m 93.313605,54.582007 c -0.621341,-1.587156 0.19904,-2.967712 -1.16501,-4.609134 -0.859111,1.62243 -1.639018,1.602807 -2.157637,2.592914 -0.239908,0.458014 -0.668564,0.910018 -1.255589,1.683128 1.883449,0.302815 3.467742,0.351314 4.578236,0.333092 z"
         id="path6159"
         inkscape:connector-curvature="0"
         sodipodi:nodetypes="ccscc" />
      <path
         style="fill:#8e8976;fill-opacity:1;fill-rule:evenodd;stroke:none;stroke-width:0.26458332px;stroke-linecap:butt;stroke-linejoin:miter;stroke-opacity:1"
         d="m 88.284352,54.223858 c 0.457372,-0.23488 1.491246,-0.470898 1.68796,-0.581916 1.724318,0.218469 0.674991,0.24494 1.651011,0.318181 l 0.373525,0.253287 1.316757,0.368597 C 91.3717,54.581719 90.938872,54.476164 90.036814,54.415163 Z"
         id="path6169"
         inkscape:connector-curvature="0"
         sodipodi:nodetypes="ccccccc" />
      <path
         sodipodi:nodetypes="ccccccc"
         inkscape:connector-curvature="0"
         id="path6171"
         d="m 93.701479,51.41004 c 0.22625,-0.103003 1.272153,1.601959 1.296993,1.668713 0.26458,1.058334 -0.0543,1.266221 0.73942,1.530804 -0.02104,-0.492317 2.571456,-1.278777 3.402147,-2.582217 0.670721,-0.623628 2.491671,-1.969594 2.069051,-4.017012 -0.33721,3.115271 -4.007268,5.530739 -4.802648,5.484199 -1.25717,0.160866 -1.470343,-1.81792 -2.704963,-2.084487 z"
         style="fill:#c8c4b8;fill-opacity:1;fill-rule:evenodd;stroke:none;stroke-width:0.26458332px;stroke-linecap:butt;stroke-linejoin:miter;stroke-opacity:1;shape-rendering:crispEdges" />
      <path
         sodipodi:nodetypes="cccc"
         inkscape:connector-curvature="0"
         id="path6184"
         d="m 95.173008,52.832581 c 0.353697,0.399329 0.599223,0.901679 1.854181,0.442664 1.331924,-0.605628 2.08863,-1.432493 2.856444,-2.255086 -1.55809,0.615047 -2.124753,2.122379 -4.710625,1.812422 z"
         style="fill:#ada894;fill-opacity:1;fill-rule:evenodd;stroke:none;stroke-width:0.26458332px;stroke-linecap:butt;stroke-linejoin:miter;stroke-opacity:1" />
    </g>
    <g
       id="g6218">
      <path
         sodipodi:nodetypes="ccccccccscc"
         inkscape:connector-curvature="0"
         id="path6198"
         d="m 95.303715,54.735373 c -5.595381,0.04762 -11.624958,-0.863253 -11.889541,-1.657003 -1.768576,-2.634668 1.5875,-8.202089 2.116666,-8.466672 0.871387,-0.904439 1.514694,-1.819787 3.746811,-2.386623 l 5.513608,-0.788377 c 1.04157,-0.04659 2.199332,1.029939 3.614682,1.75127 1.933309,1.447477 2.538229,1.490746 2.999899,3.275813 -2.6e-4,1.013783 0.26458,2.116672 -0.26458,3.175005 -0.23972,0.531611 0.62956,3.365438 0.0562,3.930835 -1.51517,1.493989 -4.808536,1.074035 -5.893695,1.165752 z"
         style="fill:#d4d0c4;fill-opacity:1;fill-rule:evenodd;stroke:#000000;stroke-width:0.26458332px;stroke-linecap:butt;stroke-linejoin:miter;stroke-opacity:1;shape-rendering:crispEdges" />
      <path
         sodipodi:nodetypes="ccccccc"
         inkscape:connector-curvature="0"
         id="path6200"
         d="m 91.010749,49.354584 c -2.536371,-1.030297 -2.232865,-1.378072 -4.095547,-1.857814 -3.420883,-1.071848 -2.936136,0.09566 -3.319127,0.8191 -0.579803,1.651515 -1.058858,4.017081 0.106306,4.880617 0.870405,0.677201 4.898335,1.092587 5.032988,1.052428 0.604111,-1.358373 0.897927,-2.047195 2.6163,-3.551795 0.2057,-0.648044 -0.07633,-0.548786 -0.34092,-1.342536 z"
         style="fill:#8e8976;fill-opacity:1;fill-rule:evenodd;stroke:none;stroke-width:0.26458332px;stroke-linecap:butt;stroke-linejoin:miter;stroke-opacity:1;shape-rendering:crispEdges" />
      <path
         sodipodi:nodetypes="ccccccccccccc"
         inkscape:connector-curvature="0"
         id="path6202"
         d="m 84.760714,46.076356 c 2.606277,0.667502 5.797205,1.18118 6.326375,2.239514 1.10986,0.564118 2.16091,0.68572 3.175,0.529166 1.93935,-0.354197 3.51741,-1.260739 5.820831,-1.058333 0.31961,-0.120888 0.66231,-0.181478 0.79375,-0.79375 0.49871,-0.917101 0.17148,-1.04566 0,-1.322922 0.0717,-0.811929 -1.725481,-1.757731 -5.349539,-4.010511 -0.735872,-0.222822 -2.237443,0.18112 -3.227509,0.317383 -0.35786,0.60847 2.725817,0.955191 2.756217,1.576461 L 94.4115,44.863149 94.262089,43.817948 c -1.86642,-1.163863 -4.615828,-1.465712 -5.176538,-1.436867 -1.853665,0.52924 -4.589222,3.265785 -4.324837,3.695275 z"
         style="fill:#efebe0;fill-opacity:1;fill-rule:evenodd;stroke:none;stroke-width:0.26458332px;stroke-linecap:butt;stroke-linejoin:miter;stroke-opacity:1;shape-rendering:crispEdges" />
      <path
         sodipodi:nodetypes="ccccccc"
         inkscape:connector-curvature="0"
         id="path6204"
         d="m 89.085551,42.381081 c 0.93828,0.0062 3.231871,0.554889 3.231871,0.554889 0,0 0.949066,0.325142 1.944667,0.881978 -1.119762,0.09079 -2.009546,0.583105 -2.642546,-0.03729 -0.60753,-0.647296 -1.036642,-0.371104 -2.433772,-0.881738 -0.47756,-0.04994 -0.915509,-0.01071 -0.88533,0.701583 -0.20258,-0.385149 -0.495527,-0.806113 0.78511,-1.219418 z"
         style="fill:#fafaed;fill-opacity:1;fill-rule:evenodd;stroke:none;stroke-width:0.26458332px;stroke-linecap:butt;stroke-linejoin:miter;stroke-opacity:1" />
      <path
         style="fill:#fafaed;fill-opacity:1;fill-rule:evenodd;stroke:none;stroke-width:0.26458332px;stroke-linecap:butt;stroke-linejoin:miter;stroke-opacity:1"
         d="m 98.454069,47.927335 c -2.73858,0.967235 -4.08469,0.807107 -4.78384,1.012463 -1.46211,0.0877 -1.6587,-0.02529 -2.58314,-0.623928 -0.27261,-0.592228 -0.837982,-0.531343 -1.128439,-0.86148 1.561955,0.171388 0.798619,0.810627 4.285909,0.954395 1.03415,-0.02392 2.665951,-0.342007 3.065449,-0.764958 0.8816,0.104217 1.574541,-0.282898 2.972382,-0.791576 0.39759,-0.269222 0.68676,-0.761386 0.59428,-1.18222 0.41531,0.572399 0.36247,2.258067 -1.328471,2.056851 z"
         id="path6206"
         inkscape:connector-curvature="0"
         sodipodi:nodetypes="cccccccccc" />
      <path
         sodipodi:nodetypes="cccccc"
         inkscape:connector-curvature="0"
         id="path6208"
         d="m 84.093583,47.156042 c 0.233856,-0.349885 2.971449,0.134963 3.326392,0.344096 0.452444,0.212139 3.590774,1.854446 3.590774,1.854446 l -3.697081,-1.33473 c -1.227804,-0.229101 -2.757108,-0.617764 -3.598061,0.01611 0.0657,-0.236234 0.17916,-0.489173 0.377976,-0.879922 z"
         style="fill:#747563;fill-opacity:1;fill-rule:evenodd;stroke:none;stroke-width:0.26458332px;stroke-linecap:butt;stroke-linejoin:miter;stroke-opacity:1" />
      <path
         sodipodi:nodetypes="ccscc"
         inkscape:connector-curvature="0"
         id="path6210"
         d="m 93.313605,54.582007 c -0.621341,-1.587156 0.19904,-2.967712 -1.16501,-4.609134 -0.859111,1.62243 -1.639018,1.602807 -2.157637,2.592914 -0.239908,0.458014 -0.668564,0.910018 -1.255589,1.683128 1.883449,0.302815 3.467742,0.351314 4.578236,0.333092 z"
         style="fill:#ada894;fill-opacity:1;fill-rule:evenodd;stroke:none;stroke-width:0.24924099px;stroke-linecap:butt;stroke-linejoin:miter;stroke-opacity:1;shape-rendering:crispEdges" />
      <path
         sodipodi:nodetypes="ccccccc"
         inkscape:connector-curvature="0"
         id="path6212"
         d="m 88.284352,54.223858 c 0.457372,-0.23488 1.491246,-0.470898 1.68796,-0.581916 1.724318,0.218469 0.674991,0.24494 1.651011,0.318181 l 0.373525,0.253287 1.316757,0.368597 C 91.3717,54.581719 90.938872,54.476164 90.036814,54.415163 Z"
         style="fill:#8e8976;fill-opacity:1;fill-rule:evenodd;stroke:none;stroke-width:0.26458332px;stroke-linecap:butt;stroke-linejoin:miter;stroke-opacity:1" />
      <path
         style="fill:#c8c4b8;fill-opacity:1;fill-rule:evenodd;stroke:none;stroke-width:0.26458332px;stroke-linecap:butt;stroke-linejoin:miter;stroke-opacity:1;shape-rendering:crispEdges"
         d="m 93.701479,51.41004 c 0.22625,-0.103003 1.272153,1.601959 1.296993,1.668713 0.26458,1.058334 -0.0543,1.266221 0.73942,1.530804 -0.02104,-0.492317 2.571456,-1.278777 3.402147,-2.582217 0.670721,-0.623628 2.491671,-1.969594 2.069051,-4.017012 -0.33721,3.115271 -4.007268,5.530739 -4.802648,5.484199 -1.25717,0.160866 -1.470343,-1.81792 -2.704963,-2.084487 z"
         id="path6214"
         inkscape:connector-curvature="0"
         sodipodi:nodetypes="ccccccc" />
      <path
         style="fill:#ada894;fill-opacity:1;fill-rule:evenodd;stroke:none;stroke-width:0.26458332px;stroke-linecap:butt;stroke-linejoin:miter;stroke-opacity:1"
         d="m 95.173008,52.832581 c 0.353697,0.399329 0.599223,0.901679 1.854181,0.442664 1.331924,-0.605628 2.08863,-1.432493 2.856444,-2.255086 -1.55809,0.615047 -2.124753,2.122379 -4.710625,1.812422 z"
         id="path6216"
         inkscape:connector-curvature="0"
         sodipodi:nodetypes="cccc" />
    </g>
  </g>
</svg>
