<?xml version="1.0" encoding="UTF-8" standalone="no"?>
<!-- Created with Inkscape (http://www.inkscape.org/) -->

<svg
   xmlns:dc="http://purl.org/dc/elements/1.1/"
   xmlns:cc="http://creativecommons.org/ns#"
   xmlns:rdf="http://www.w3.org/1999/02/22-rdf-syntax-ns#"
   xmlns:svg="http://www.w3.org/2000/svg"
   xmlns="http://www.w3.org/2000/svg"
   xmlns:xlink="http://www.w3.org/1999/xlink"
   xmlns:sodipodi="http://sodipodi.sourceforge.net/DTD/sodipodi-0.dtd"
   xmlns:inkscape="http://www.inkscape.org/namespaces/inkscape"
   sodipodi:docname="Wood.svg"
   inkscape:version="0.92.4 (5da689c313, 2019-01-14)"
   version="1.1"
   id="svg4478"
   viewBox="0 0 1024 1024"
   height="1024"
   width="1024"
   inkscape:export-filename="C:\Projects\Phaser\FlitAndBob\assets\header.png"
   inkscape:export-xdpi="45.25"
   inkscape:export-ydpi="45.25">
  <defs
     id="defs4480">
    <filter
       style="color-interpolation-filters:sRGB;"
       inkscape:label="Drop Shadow"
       id="filter1285">
      <feFlood
         flood-opacity="0.498039"
         flood-color="rgb(0,0,0)"
         result="flood"
         id="feFlood1275" />
      <feComposite
         in="flood"
         in2="SourceGraphic"
         operator="in"
         result="composite1"
         id="feComposite1277" />
      <feGaussianBlur
         in="composite1"
         stdDeviation="3"
         result="blur"
         id="feGaussianBlur1279" />
      <feOffset
         dx="3"
         dy="3"
         result="offset"
         id="feOffset1281" />
      <feComposite
         in="SourceGraphic"
         in2="offset"
         operator="over"
         result="composite2"
         id="feComposite1283" />
    </filter>
    <filter
       style="color-interpolation-filters:sRGB;"
       inkscape:label="Drop Shadow"
       id="filter1299">
      <feFlood
         flood-opacity="0.498039"
         flood-color="rgb(0,0,0)"
         result="flood"
         id="feFlood1289" />
      <feComposite
         in="flood"
         in2="SourceGraphic"
         operator="in"
         result="composite1"
         id="feComposite1291" />
      <feGaussianBlur
         in="composite1"
         stdDeviation="3"
         result="blur"
         id="feGaussianBlur1293" />
      <feOffset
         dx="3"
         dy="3"
         result="offset"
         id="feOffset1295" />
      <feComposite
         in="SourceGraphic"
         in2="offset"
         operator="over"
         result="composite2"
         id="feComposite1297" />
    </filter>
  </defs>
  <sodipodi:namedview
     id="base"
     pagecolor="#ffffff"
     bordercolor="#666666"
     borderopacity="1.0"
     inkscape:pageopacity="0.0"
     inkscape:pageshadow="2"
     inkscape:zoom="3.7422831"
     inkscape:cx="382.81817"
     inkscape:cy="419.25147"
     inkscape:document-units="px"
     inkscape:current-layer="layer1"
     showgrid="true"
     units="px"
     objecttolerance="2"
     guidetolerance="2"
     inkscape:window-width="2736"
     inkscape:window-height="1744"
     inkscape:window-x="-11"
     inkscape:window-y="-11"
     inkscape:window-maximized="1">
    <inkscape:grid
       empspacing="8"
       id="grid4486"
       type="xygrid" />
  </sodipodi:namedview>
  <metadata
     id="metadata4483">
    <rdf:RDF>
      <cc:Work
         rdf:about="">
        <dc:format>image/svg+xml</dc:format>
        <dc:type
           rdf:resource="http://purl.org/dc/dcmitype/StillImage" />
        <dc:title />
      </cc:Work>
    </rdf:RDF>
  </metadata>
  <g
     inkscape:label="Layer 1"
     inkscape:groupmode="layer"
     id="layer1"
     transform="translate(0,-28.362161)">
    <image
       sodipodi:absref="C:\Users\fruit\Downloads\312viph.jpg"
       y="208.52217"
       x="92.160004"
       id="image824"
       xlink:href="file:///C:/Users/fruit/Downloads/312viph.jpg"
       preserveAspectRatio="none"
       height="163.84"
       width="163.84" />
    <rect
       style="opacity:1;fill:#2c0e06;fill-opacity:1;stroke:none;stroke-width:2;stroke-linecap:round;stroke-miterlimit:4;stroke-dasharray:none;stroke-dashoffset:0;stroke-opacity:1;paint-order:markers fill stroke"
       id="rect829"
       width="32"
       height="32"
       x="344"
       y="220.36217" />
    <rect
       y="220.36217"
       x="382"
       height="32"
       width="32"
       id="rect831"
       style="opacity:1;fill:#4b260e;fill-opacity:1;stroke:none;stroke-width:2;stroke-linecap:round;stroke-miterlimit:4;stroke-dasharray:none;stroke-dashoffset:0;stroke-opacity:1;paint-order:markers fill stroke" />
    <rect
       style="opacity:1;fill:#6c3911;fill-opacity:1;stroke:none;stroke-width:2;stroke-linecap:round;stroke-miterlimit:4;stroke-dasharray:none;stroke-dashoffset:0;stroke-opacity:1;paint-order:markers fill stroke"
       id="rect833"
       width="32"
       height="32"
       x="418"
       y="220.36217" />
    <rect
       y="220.36217"
       x="454"
       height="32"
       width="32"
       id="rect835"
       style="opacity:1;fill:#7c4715;fill-opacity:1;stroke:none;stroke-width:2;stroke-linecap:round;stroke-miterlimit:4;stroke-dasharray:none;stroke-dashoffset:0;stroke-opacity:1;paint-order:markers fill stroke" />
    <rect
       style="opacity:1;fill:#915b1d;fill-opacity:1;stroke:#7c4715;stroke-width:2;stroke-linecap:round;stroke-miterlimit:4;stroke-dasharray:none;stroke-dashoffset:0;stroke-opacity:1;paint-order:markers fill stroke"
       id="rect837"
       width="32"
       height="32"
       x="492"
       y="214.36217" />
    <rect
       y="220.36217"
       x="526"
       height="32"
       width="32"
       id="rect839"
       style="opacity:1;fill:#aa723f;fill-opacity:1;stroke:none;stroke-width:2;stroke-linecap:round;stroke-miterlimit:4;stroke-dasharray:none;stroke-dashoffset:0;stroke-opacity:1;paint-order:markers fill stroke" />
    <g
       id="g1105"
       transform="translate(36.10951,69.506791)"
       style="filter:url(#filter1285)"
       inkscape:export-filename="C:\Projects\Phaser\FlitAndBob\assets\header.png"
       inkscape:export-xdpi="64.879997"
       inkscape:export-ydpi="64.879997">
      <path
         style="opacity:1;fill:#a05d21;stroke-width:0.44418043"
         d="m 437.74568,276.51383 c 52.61233,0 105.22467,0 157.837,0 0,54.61333 0,109.22667 0,163.84 -105.22467,0 -210.44933,0 -315.674,0 0,-54.61333 0,-109.22667 0,-163.84 52.61233,0 105.22467,0 157.837,0 z"
         id="path912"
         inkscape:connector-curvature="0" />
      <path
         style="opacity:1;fill:#945217;stroke-width:0.44418043"
         d="m 437.74568,276.51383 c 52.61233,0 105.22467,0 157.837,0 0,54.61333 0,109.22667 0,163.84 -105.22467,0 -210.44933,0 -315.674,0 0,-54.61333 0,-109.22667 0,-163.84 52.61233,0 105.22467,0 157.837,0 z m -154.48186,92.66595 c 29.80964,2.21827 59.77081,-0.71078 89.56313,1.62247 17.80178,-0.69244 35.60407,-3.03733 53.43429,-1.69825 -29.12095,0.99815 -58.18973,3.5224 -87.34173,3.1379 -9.68452,0.44207 -19.46162,1.90024 -28.43745,5.71168 -6.15311,-0.75715 -30.45151,-0.30535 -13.32254,0.68685 14.35017,0.69026 28.69123,-1.0006 43.04242,-0.41251 -7.52611,-4.84164 -15.50742,11.17218 -3.77219,7.3221 -7.62959,1.47369 -23.3583,0.74712 -26.2955,2.43477 31.49869,0.96592 63.02798,-0.0545 94.45748,-2.23569 -15.67158,4.50376 -32.73605,-0.20694 -48.01389,6.19811 -5.83238,9.39106 -21.67937,-1.07662 -31.28815,3.71772 -8.45139,0.69263 -24.70413,-0.26371 -28.30994,1.73833 27.09923,3.6666 54.86288,3.32982 81.8824,-0.80803 12.91609,-1.30177 26.26086,2.16536 39.45416,0.64617 21.63936,-0.7329 43.23127,1.14351 64.88577,0.27001 34.60465,-0.29162 69.21035,-0.81692 103.8169,-0.52278 -27.5835,-2.6797 -55.64997,-3.64206 -82.71313,-9.50208 7.9926,-1.11511 23.95253,6.14501 27.04075,-2.17066 -13.03484,-3.09568 -26.82898,-3.14491 -40.19043,-4.70896 -24.28065,-1.9958 -48.71547,-2.94626 -73.04262,-1.20168 -11.12915,-2.29666 10.84939,-2.9568 14.15052,-2.76503 31.95814,-0.2247 63.80535,2.95295 95.73593,3.72194 3.1341,-5.97138 -16.91974,-5.91653 -22.89645,-8.10888 -5.5254,-0.0986 -25.66513,-5.31242 -10.40929,-3.88375 23.08745,1.57124 45.51688,8.17417 68.63478,9.47087 -15.83061,1.20169 -29.0017,-9.55422 -43.55779,-13.25736 -19.47346,-1.05287 -38.99659,-0.87084 -58.45697,-2.20703 12.46962,-1.06173 33.37303,1.22506 40.68117,-0.11294 -32.9527,-2.07503 -66.0145,0.87708 -98.95506,-0.21301 -20.82705,2.22869 -41.68823,-1.92399 -62.54799,-0.60555 -4.38594,0.23385 -23.36836,-2.5529 -12.80464,1.85492 -9.07457,7.18925 -22.96402,8.96862 -33.67623,4.31822 -10.30818,-4.06868 10.50715,-5.71871 -1.11581,-5.81467 -4.36384,-0.57135 -14.34679,0.74911 -9.6319,7.3768 z m 53.64546,-7.22595 c 4.69736,-1.79663 6.77233,3.99502 0,0 z m 15.7524,1.01109 c 1.98446,-0.5234 6.65028,0.13135 1.93865,0.10276 z m 35.22799,31.31953 c 37.31471,-8.02438 75.97256,-7.20105 113.64063,-2.23759 -28.26277,-0.26411 -56.6906,-5.1764 -84.81624,-0.46662 -9.66337,-0.0364 -19.35588,0.72213 -28.82439,2.70421 z M 496.518,385.5243 c 9.37359,-0.32072 -7.12088,0.85951 0,0 z M 283.8027,335.60973 c 10.80331,2.7857 -5.33853,-8.01554 0,0 z m -0.7392,8.92722 c 15.29853,2.24115 30.6662,-1.00867 46.00878,-0.45325 -10.27381,2.30966 -29.23342,4.52018 -33.58144,8.93383 32.88602,0.46468 65.87422,3.13418 98.69679,-0.18923 16.29627,6.69359 33.9457,-0.32135 50.80599,2.21644 24.66566,0.01 49.23153,2.70442 73.88656,3.07451 0.0276,-8.99114 14.81721,1.61669 21.963,-0.50432 11.66599,0.93021 23.38344,0.59503 35.06308,1.23141 4.29822,9.23888 20.92283,-7.82364 9.31641,-6.72783 0.71643,11.18607 -19.26476,0.72313 -24.39903,-2.89739 -18.57861,-2.93691 -37.32742,-4.60411 -56.0723,-6.0458 28.58289,-0.56656 57.05245,2.89345 85.62448,2.91392 -21.40846,2.77448 -40.07939,-11.62215 -61.12532,-12.20264 6.66527,-3.42449 20.11597,-0.32612 29.29257,-0.88852 15.27115,0.75542 -11.77408,-1.18614 -16.74794,-3.02244 -25.44757,-5.60063 -51.64317,-3.26617 -77.47976,-3.69972 -28.14043,0.28119 -56.28203,1.04931 -84.42488,0.57945 15.93739,-2.2221 32.07851,-0.1125 48.05618,-1.72087 -23.04931,-1.52345 -46.12705,1.2717 -69.19603,0.24836 -16.30703,2.08681 -32.786,3.29382 -49.27437,3.61046 4.85366,0.92432 20.53559,-1.31121 18.03657,3.34795 -7.27147,0.86895 -25.13287,2.07414 -25.28227,4.90777 8.68578,0.99049 25.27709,-0.9655 29.0516,0.7878 -15.88545,3.37893 -31.84618,7.28007 -48.21867,6.50011 z m 28.64159,-9.78312 c 8.62825,-1.0025 -3.11395,1.98011 0,0 z m 35.12313,-1.87642 c 17.84823,3.30778 35.91156,6.17221 53.05097,12.35561 -17.97493,-2.6981 -35.52102,-7.70668 -53.05097,-12.35561 z m 1.42427,8.94235 c 4.39354,-2.15876 7.38053,2.29421 0,0 z m 47.56774,-9.18261 1.40638,0.0881 z m 25.12444,-1.0211 c 12.32832,-1.77092 -6.32071,2.11158 0,0 z m 12.73419,-1.79951 c 9.21928,-1.50097 -6.68329,2.50999 0,0 z m 50.26979,20.06599 c 6.51702,-1.28117 21.62042,3.53959 6.30037,1.32523 -2.13328,-0.24943 -4.26138,-0.63448 -6.30037,-1.32523 z m -200.25864,37.86511 c 6.04378,2.65881 13.31251,0.99468 3.13465,-0.97525 -0.49637,-0.20423 -5.13222,-1.17433 -3.13465,0.97525 z m -0.14412,8.37716 c 5.62022,-3.49608 -5.75286,-3.4726 0,0 z m 6.82156,-68.77077 c 8.62385,0.63583 -7.16245,-1.45223 0,0 z m -6.50151,14.7598 c 9.28674,1.00672 5.31282,-5.88811 0,0 z m 1.12938,-23.00682 c 66.14812,0.69421 132.29894,1.51849 198.44557,2.09088 32.8737,-0.5817 65.83669,-1.89332 98.62545,-3.13243 -14.81649,0.31812 -29.63742,-1.54003 -44.06764,-5.13788 -19.63766,-5.32652 -39.98886,-5.26234 -60.14668,-4.42199 -6.48098,0.27692 -28.87523,0.29222 -11.64731,-0.5131 19.36192,-1.08989 38.78571,-0.81861 58.13316,0.4283 10.77467,-4.80585 -12.61451,-7.44097 -0.78179,-7.35453 6.06814,-0.66931 21.57722,-0.7753 7.02495,-0.89252 -14.84289,-1.1922 -29.55448,-5.05933 -44.52985,-3.79972 5.68779,-1.06656 14.00712,-4.09264 3.48566,-2.45364 -42.52529,3.75081 -85.30961,4.15774 -127.93508,2.03554 9.61133,4.3892 -11.2705,5.31701 -14.84704,6.60595 -4.21817,1.54705 -24.78608,5.9316 -9.97573,7.64257 10.05301,2.44237 31.77421,-0.21094 34.66389,1.28418 -23.37409,2.70431 -47.37676,-1.62717 -70.32357,4.88409 -5.40206,0.73093 -10.81727,1.46005 -16.12399,2.7343 z m 66.43325,-16.35318 c 6.3354,0.57613 -7.94281,1.12589 0,0 z m 9.86482,-2.56 c 6.33537,0.57621 -7.94299,1.1258 0,0 z m 58.26405,9.50979 c 8.89179,0.47413 -9.60555,0.0596 0,0 z m -78.9185,95.42602 c 5.70947,1.31549 23.42969,-0.32374 7.96627,-0.49355 -5.22108,-0.2974 -25.12163,-0.2349 -10.2477,0.39688 l 2.28143,0.0967 z m -2.92862,10.89278 c 10.63657,5.11275 25.9024,3.16313 35.07174,4.6538 -5.59021,0.21309 -24.8615,-4.02703 -18.38571,6.32876 6.94303,2.64947 26.47208,-2.2116 25.72639,0.61195 -11.27969,2.79794 -22.57676,6.05698 -34.25667,6.56579 12.57935,2.25069 38.92161,-0.74393 42.86909,1.30289 14.23998,0.99131 28.74357,-2.07657 43.15034,-1.37685 29.31786,-0.0731 58.6819,2.49589 87.96322,0.0291 -8.35705,-2.68478 -31.05592,-1.07702 -31.23668,-4.9313 6.55574,-0.90473 -12.11515,-1.88771 -15.87357,-2.13966 -13.44255,-2.83729 9.87954,-1.66079 13.80407,-0.27665 10.1702,1.57559 20.56666,3.57827 30.84893,1.77153 -6.43215,-12.80417 -24.34796,-11.19338 -36.7037,-12.3351 -6.70972,-0.42236 -23.01615,-0.73549 -24.02583,-2.72058 18.03631,0.45016 36.36485,0.92576 53.64,6.7083 5.17975,3.2507 27.15191,0.40298 13.15298,-4.7813 -23.52587,-8.27888 -48.82844,-9.20221 -73.49797,-10.86515 -25.06909,-1.007 -50.16501,-0.15426 -75.21294,1.00939 -9.0512,4.75111 -24.82607,-4.70704 -30.29244,4.93908 6.24096,-0.81856 23.39098,1.95745 7.66525,2.71215 -4.8712,0.48149 -9.7618,1.19305 -14.4065,2.79387 z m 38.68856,-4.77412 c 6.93582,-0.3979 21.81206,-0.82647 23.51687,-0.25279 -7.8394,0.0434 -15.67675,0.32218 -23.51687,0.25279 z m 30.51926,13.63603 c 6.91695,-0.0858 9.45802,1.56296 0.59365,0.83234 -0.6562,0.54584 -7.00312,-1.32508 -0.59365,-0.83234 z m 8.05156,8.4295 c 6.21481,1.61269 -9.52074,-0.58222 0,0 z m 3.35463,-21.9547 c 6.04846,-0.55275 19.41181,2.16805 5.91099,0.87409 -1.98525,-0.17001 -3.96731,-0.42677 -5.91099,-0.87409 z m -75.52747,-17.81802 c 7.97538,6.38939 6.91753,-7.62899 0,0 z m 38.08086,-97.83902 c 25.9023,1.54411 52.04372,2.2992 77.80071,-1.46207 -18.39356,-3.00228 -36.91706,2.39077 -55.44904,1.17762 -10.05054,-0.0755 -20.09539,-0.46451 -30.14518,-0.5868 2.60207,0.24027 5.2314,0.30927 7.79351,0.87125 z m 12.47631,-0.60986 c 10.75137,0.47377 -8.2563,-1.56166 0,0 z m 14.49503,-7.23715 c 12.98734,1.82173 36.67451,2.84414 43.16801,1.05672 -16.56584,0.40276 -33.2514,-0.69039 -49.5876,-2.48953 1.81904,1.33428 4.2947,1.0916 6.41959,1.43281 z m -2.00988,115.66474 c 15.0347,-0.43334 30.094,0.39971 45.1136,-0.61699 -15.02524,-0.73713 -30.14047,-1.15135 -45.1136,0.61699 z m 0.88806,1.01611 c 9.94447,-0.35092 -4.16556,-0.34353 0,0 z m 18.68743,-110.1021 c 10.06871,-1.20508 -6.20892,-2.11517 0,0 z m 14.64308,141.72214 c 5.20535,2.19219 2.02546,-1.94771 -0.42904,-0.52908 z m 35.45167,-111.37335 c 4.09837,-0.75844 -8.44959,0.21382 0,0 z m 1.6665,79.73121 c 19.49161,3.63592 38.99488,7.333 58.70142,9.61987 3.63323,-15.89452 -21.71697,-6.73146 -31.06356,-8.8232 -9.21437,-0.19654 -18.41525,-1.08665 -27.63786,-0.79667 z m 79.56732,-38.76548 c 6.68819,-0.51403 21.37582,0.27096 22.97343,-0.45879 -7.64256,-0.4517 -15.41328,-1.16497 -22.97343,0.45879 z m 12.69251,-29.36487 c 6.43152,1.3611 20.90933,1.79404 6.33536,0.24975 -1.94517,-0.39197 -4.5676,-1.96789 -6.33536,-0.24975 z m 5.64662,56.49575 c 5.25388,1.03284 5.31152,-1.08309 0,0 z m 10.80209,-3.24734 c 6.46168,1.63976 3.06168,-3.20019 0,0 z m 0.65202,3.47829 c 3.37244,10.56468 3.30861,-4.58614 0,0 z m 3.71984,-59.87733 c 8.85012,-9.80723 -6.71713,-0.40978 0,0 z m -1.14742,48.24098 c -4.17224,7.60026 6.51709,0.021 0,0 z"
         id="path910"
         inkscape:connector-curvature="0" />
      <path
         style="opacity:1;fill:#7c4513;stroke-width:0.44418043"
         d="m 437.74568,276.51383 c 52.61233,0 105.22467,0 157.837,0 0,54.61333 0,109.22667 0,163.84 -105.22467,0 -210.44933,0 -315.674,0 0,-54.61333 0,-109.22667 0,-163.84 52.61233,0 105.22467,0 157.837,0 z m -155.64036,92.05514 c 18.5311,4.87413 37.74408,-0.73235 56.46507,2.23947 -17.68602,-1.49379 -34.34393,6.60021 -51.8996,6.89673 8.26683,4.99919 23.53749,-4.75891 26.20243,6.63386 4.61718,1.32121 14.56541,1.07267 3.81532,1.64862 -10.05882,1.53202 -20.37616,2.33062 -30.46966,0.63911 13.4053,6.79296 29.01854,-3.86974 42.2349,3.66971 -10.98392,8.555 -33.58319,3.65036 -40.57663,6.84378 17.44347,5.19938 35.84307,1.53196 53.68642,2.67013 38.48214,-2.46969 77.06013,-3.4718 115.599,-1.98715 42.84216,0.13102 85.70158,-2.04193 128.52902,-0.10027 8.31843,-6.00674 -12.6735,-5.42719 -16.95762,-5.77836 -4.9771,1.12051 -25.1243,2.14549 -12.92167,-3.99547 -0.82743,-6.33777 -14.21762,-3.64012 -3.22903,-3.89282 0.89359,-8.5078 -16.48598,-4.82482 -23.23302,-8.15861 -9.4394,-1.90504 -18.79283,-4.20277 -28.19352,-6.28463 25.03911,2.49901 49.65888,9.82053 75.00461,8.64198 -17.99917,0.95136 -31.60283,-16.75931 -49.87926,-13.68209 -33.72904,-5.74161 -68.07133,-1.94589 -102.08621,-2.78225 -33.54238,0.0457 -67.08423,-0.30839 -100.62138,-0.88189 -13.06008,3.60665 -29.11281,-4.53631 -40.19347,5.51984 -0.42522,0.71339 -0.85052,1.42708 -1.2757,2.14031 z m 5.97266,-3.36986 c 6.59745,-7.32938 16.65861,8.34074 3.90419,3.22545 -1.5533,0.46523 -10.57998,-1.78049 -3.90419,-3.22545 z m 69.31788,22.88048 c 5.73761,-1.2075 16.76771,0.41514 5.02162,0.32452 -1.67875,-0.0272 -3.34715,-0.22433 -5.02162,-0.32452 z m 35.80757,-25.96042 c 7.04743,-3.73989 13.68127,4.67059 2.55689,0.79643 z m 68.13351,26.87872 c 4.3156,-2.05244 20.6047,2.60319 7.17611,1.03333 -2.40224,-0.26704 -4.79829,-0.59767 -7.17611,-1.03333 z m 26.50349,2.0895 c 4.45429,-1.94652 7.32625,3.26969 0,0 z m 21.08047,-10.25356 c 5.70686,-0.0127 30.33746,2.55796 12.79397,2.16193 -4.31429,-0.3763 -8.58333,-1.1633 -12.79397,-2.16193 z m 68.86046,13.43564 c 15.23325,-2.65284 -3.83867,5.25154 0,0 z m -294.43045,-58.72 c 9.58629,4.09081 28.77567,0.68302 33.40912,3.12165 -8.17062,1.96455 -19.95694,-0.42214 -25.35812,6.72134 5.34674,-1.4706 23.04429,1.0612 8.47991,1.78487 -6.46687,-1.70651 -15.66885,9.21987 -3.66225,6.37573 37.91686,2.19983 75.94974,-0.14339 113.8575,2.2443 26.88206,-0.42701 53.99049,-2.08843 80.61981,2.35691 21.93994,0.1506 43.94204,-1.99543 65.79161,0.8726 9.837,-1.05891 25.3036,2.46887 31.5283,-2.85643 -5.44302,-12.4984 -22.94591,-2.16535 -33.15959,-7.88226 -5.98802,-1.41228 -28.35621,-4.84701 -11.08405,-4.07929 14.71147,-1.65003 33.49419,7.72681 45.61502,-1.59252 -9.75133,-14.01245 -30.89549,-4.23452 -45.22529,-8.36801 -4.84915,-1.94644 12.0626,-1.17433 16.0289,-0.97904 9.17967,-1.43851 27.44702,6.37779 30.46302,-4.88733 -1.66663,-5.44685 -10.79146,-6.44056 -2.7188,-1.61541 1.63628,12.49833 -18.42135,3.88985 -25.99345,1.94228 -11.11057,-4.9949 -23.03428,-2.97939 -34.70055,-3.02275 -49.70852,-1.38661 -99.43583,-2.02032 -149.15223,-0.58585 -18.44162,0.72352 -37.15151,-0.23721 -55.43057,1.11252 -9.76696,2.72336 -20.05398,-0.38134 -29.84103,1.76063 6.71232,2.17126 18.25089,-2.09492 22.20394,3.17976 -10.34099,2.8184 -21.4815,1.03827 -31.6712,4.3963 z m 67.15284,-1.86555 c 15.68628,2.8806 31.62896,5.23433 46.57647,11.03152 -15.65554,-3.1056 -31.08784,-7.20638 -46.57647,-11.03152 z m 218.38408,3.39903 c 8.07409,-5.84499 6.86417,2.39029 0,0 z m 6.88957,6.56735 c 1.1194,-12.89815 23.48938,-1.44573 8.96878,2.4381 -2.93808,0.57105 -7.57016,0.93402 -8.96878,-2.4381 z m 12.02536,8.7031 c 5.32453,3.89056 -5.97026,1.96221 0,0 z m -304.87554,21.57983 c 4.31097,3.12457 2.18273,-4.72615 0,0 z m 3.22645,37.48013 c 2.11965,-2.19699 -7.01061,0.59295 0,0 z m -1.67141,-68.87387 c 9.11686,0.45037 0.87482,-6.24354 0,0 z m 2.25349,-23.19951 c 77.98036,1.27115 155.98906,2.69692 233.97444,1.72491 22.92978,-1.14177 45.87623,-2.54701 68.84578,-2.102 -9.96154,-3.59312 -35.36755,2.74492 -33.66586,-11.81612 5.16165,-3.95728 -14.17526,-3.3057 -18.33739,-4.49001 -5.57671,-0.21809 -11.47334,-2.10594 -2.4694,-2.12872 6.40434,-0.86994 24.57241,-0.75793 8.6787,-1.37459 -9.62278,-0.79207 -26.62058,-4.73513 -22.10677,-12.16435 -9.58325,0.1212 -22.4019,9.95159 -28.24084,-1.50657 -8.15154,-3.99037 -26.75669,6.21504 -28.12773,1.00282 -3.75775,-7.02006 -7.45922,4.00717 -14.75456,1.00789 -13.34812,0.3489 -26.54257,-2.02846 -39.76852,-3.43315 6.07428,5.6492 26.20397,2.36489 25.66679,5.19611 -9.77952,0.36279 -24.4384,-4.23636 -31.09374,-2.04491 5.59795,0.1 14.57012,5.32275 3.99691,2.87948 -11.90304,-5.52791 -25.2807,-4.8707 -37.55914,-1.1224 -5.72002,1.80369 -20.71495,1.35784 -21.20117,1.80266 6.59623,1.63529 21.70259,6.34552 6.97308,3.72548 -14.03813,-1.22396 -28.72411,2.18598 -40.10466,10.68446 0.71421,11.23135 21.86904,2.3253 30.29335,6.16235 -2.65544,1.51297 -19.54137,-0.39469 -27.34652,1.53882 -11.21749,1.78329 -22.8989,2.75577 -33.65275,6.45784 z m 158.8089,-29.16928 c 7.14603,-1.42739 8.97692,1.5978 0,0 z m -155.1546,91.94313 c 7.96108,-0.65579 -9.54569,-0.23473 0,0 z m 11.34852,-68.48 c 5.77433,1.28538 12.26951,-3.03063 2.80736,-2.44995 -1.08525,-0.0952 -4.47658,0.71265 -2.80736,2.44995 z m 14.23833,96.0608 c 6.02943,2.73083 23.2008,2.21943 23.64537,1.42087 -14.57444,-2.85332 -13.06333,11.40054 -3.70222,13.90226 -6.0452,2.73279 -11.70176,2.86434 -1.81033,2.37396 6.55159,-2.08057 24.41217,2.64169 8.14821,4.233 -5.59453,-0.42121 -12.63159,4.15063 -2.42995,3.62649 28.61043,-0.12658 57.23691,1.65281 85.83328,0.0926 15.25546,2.65748 30.56965,-2.13968 45.91167,-0.18715 14.74555,0.50585 29.55223,0.882 44.25553,-0.61989 6.01132,4.19396 13.36728,-2.83413 2.99378,-1.54107 -4.90357,1.96963 -22.57797,-5.92522 -8.18143,-3.40972 11.64138,6.47339 23.01187,-2.28211 33.74769,-5.04847 3.37543,-4.96577 -19.34538,-12.47171 -3.90781,-8.16478 7.82444,3.67406 13.96971,-3.73354 14.56259,-7.98119 4.79348,-5.32475 -13.85998,-2.52397 -18.09125,-3.97307 -17.5038,-0.53613 -35.07886,0.42728 -52.54339,-0.0304 -20.32769,1.53212 -40.47575,-3.72528 -60.8515,-2.18652 -29.47299,0.66313 -58.95423,4.42475 -88.43821,1.97317 -5.19968,5.2778 -13.75292,0.65381 -19.14203,5.51992 z m 168.47251,17.57316 c 5.05174,0.34284 3.94398,-0.40633 0,0 z m 15.58484,-9.47939 c 5.1716,-0.48615 25.69536,6.31244 10.47523,2.60444 -3.49094,-0.87134 -6.97758,-1.7602 -10.47523,-2.60444 z m 7.26435,-7.64567 c 17.06491,2.92767 -5.83081,-0.23311 0,0 z M 363.76828,280.99383 c 8.37106,2.75426 9.15451,-3.27398 0.67765,-0.18609 z m 46.4746,1.31354 c 5.26908,-1.90339 -9.11367,0.68367 0,0 z m 5.77444,155.10674 c 7.15144,0.59568 -4.30393,-2.88093 0,0 z m 127.31269,-74.0508 c 3.71224,-2.10463 15.53905,2.17511 5.59998,1.6885 9.57713,7.43041 32.35647,-0.71315 35.52187,0.74883 -13.58079,-1.15568 -27.5118,-3.67551 -41.12185,-2.43733 z m 4.16171,40.83052 c 5.04876,-1.2753 -9.07468,0.41378 0,0 z m 2.30032,-101.29592 c 4.59102,2.40054 4.04172,-4.43719 0,0 z m 5.86898,101.73423 c 5.04131,1.13532 26.24501,-1.35643 10.87804,-1.22548 -3.65117,0.11117 -7.29528,0.50998 -10.87804,1.22548 z m 9.86481,-91.34634 c 9.748,0.99532 5.816,-1.78239 0,0 z m 14.95136,-3.21695 c 4.03168,-1.32207 -9.23317,0.46236 0,0 z m -0.77624,80.06605 c 7.46136,-0.42338 10.13843,-2.22072 1.19455,-0.90479 -0.46564,-0.32034 -7.95646,1.53488 -1.19455,0.90479 z m 3.04378,-8.76801 c 12.07481,3.4851 -1.89859,-2.47315 -0.43939,-0.0197 v 0 z m 0.11907,-67.91322 c 9.65517,-0.0139 -8.63131,-1.00251 0,0 z m 7.2721,91.82471 c 6.94304,5.94634 -3.1457,-4.36893 0,0 z"
         id="path908"
         inkscape:connector-curvature="0" />
      <path
         inkscape:connector-curvature="0"
         id="path906"
         d="m 437.7427,276.51383 c 52.61134,0 105.22269,0 157.83403,0 0,54.61333 0,109.22667 0,163.84 -105.22268,0 -210.44537,0 -315.66805,0 0,-54.61333 0,-109.22667 0,-163.84 52.61134,0 105.22268,0 157.83402,0 z m -155.92134,77.13751 c 47.19515,2.71252 94.48455,3.23034 141.74257,3.27864 54.65787,0.78512 109.29357,4.36632 163.96453,2.94742 17.43099,-4.22336 -17.91844,-16.10556 -6.1345,-9.31946 10.47681,3.09889 12.27509,-18.21892 1.78978,-14.98979 17.26176,1.02854 2.47329,-21.06518 -7.53538,-11.52794 -22.87255,0.85826 -45.75817,-1.14579 -68.62857,0.0441 -55.31049,-0.40023 -110.63808,-0.87615 -165.9252,0.97335 -17.50689,0.0129 -35.01781,-0.30694 -52.52127,0.17904 0.11723,6.56154 25.62232,4.19559 11.47656,3.51849 -7.70998,-5.77918 -22.05449,11.02966 -7.18961,9.68142 -15.01479,-1.72531 0.80296,12.04314 4.65106,8.1133 -5.05421,0.69728 -17.76485,-1.98586 -15.68997,7.10146 z m 70.97162,-19.51585 c 11.07819,2.06358 35.48799,6.6215 37.60376,9.07036 -12.5495,-2.96074 -25.11199,-5.87191 -37.60376,-9.07036 z m -71.38691,33.80632 c 4.90108,5.46005 25.36114,1.73289 22.16152,3.35154 -5.2396,-0.82383 -24.10698,2.20618 -15.2757,8.23164 5.4366,-1.02089 26.39982,0.42436 11.75468,0.30352 -12.97956,-4.1757 -17.06018,13.32933 -3.93048,8.90744 -11.33246,-2.8538 -15.64418,13.24999 -2.60619,11.63852 18.09312,-0.47255 36.43355,0.97264 54.63174,0.44222 34.95195,-0.35532 69.83566,-3.74716 104.81302,-2.29676 27.91521,0.91623 55.8449,1.37848 83.7321,-0.57698 14.21134,-1.35615 28.38226,1.68071 42.53321,0.67628 10.06101,-1.19033 7.3253,-9.21506 -1.79697,-7.13993 -8.19849,0.47155 -7.09182,-1.36965 0.23946,0.73088 12.60947,4.85617 16.09249,-19.67828 1.05373,-11.65742 -5.64695,1.67424 -11.87307,-2.61414 -2.46232,-1.51009 6.10468,3.35432 15.27653,-3.75537 4.75367,-5.17882 -11.39578,-0.57757 19.76177,-0.19624 6.81659,-8.14943 -18.63739,-1.99852 -37.33783,-4.32508 -56.09622,-2.53136 -31.27212,-3.7499 -62.87168,-1.31144 -94.29148,-1.56849 -41.14263,0.36153 -82.27331,-1.4708 -123.41606,-0.88838 -9.82563,4.97343 -28.22468,-6.97228 -32.6143,7.21562 z m 8.57601,23.25044 c 3.72822,-3.27622 4.0835,0.98495 0,0 z m -7.5855,-75.93738 c 6.12722,7.758 20.17019,5.49748 31.32938,6.31444 77.73311,-1.16133 155.49339,1.67999 233.22886,-0.12897 11.35791,-4.59002 31.80856,5.39515 37.73931,-5.60367 -5.18564,-1.80751 12.82471,-5.98128 0.69142,-6.45602 -4.87657,1.66116 -27.78157,-3.44177 -12.53498,-1.30889 5.74625,4.32947 21.92105,-6.75694 8.18636,-6.8258 -4.20965,3.6515 -25.2969,-1.4991 -10.58631,-2.31591 6.18236,2.38032 19.84586,-2.07081 5.75314,8.9e-4 -5.02314,1.80568 -15.68787,-7.59887 -5.57956,-7.31073 -11.2241,-1.17438 -36.26092,0.64689 -38.70735,-1.54453 5.8634,1.06877 30.82215,-1.73543 13.45961,-4.03531 -6.64955,0.33625 -20.3963,-0.838 -8.64211,-2.3159 -20.88217,-1.9134 -42.21376,-4.75136 -63.04502,-2.25518 -14.96917,5.22315 -30.59595,-2.56876 -45.80543,0.80699 -0.13883,-6.03014 -17.22115,1.11932 -23.90478,-0.0179 -11.354,1.1236 -22.75993,-0.1818 -33.81357,-2.70155 -1.35033,11.30356 -15.06056,-3.742 -23.85164,0.29591 -8.77558,-2.10399 -8.81579,8.86944 -10.87683,8.25563 -10.178,-3.3627 -25.89912,-5.58676 -32.3112,4.73745 4.01117,4.43013 11.64025,3.67296 1.28493,3.13267 -5.22245,-2.72964 -21.06874,-1.73187 -14.27074,6.13846 5.60897,0.73364 9.79282,0.84243 2.1131,0.34235 -12.37761,0.54288 -5.23885,11.08537 3.36007,8.47846 7.77516,-0.74393 -15.62007,-1.86718 -13.21666,4.31715 z m 1.82017,-11.05854 c 9.94403,-0.65738 -4.52343,8.68127 0,0 z m 2.11527,-7.97488 c 20.10476,-2.11788 -8.3171,11.24725 0,0 z m 47.26126,-13.10913 c 5.94895,-3.73208 7.86895,4.0868 0,0 z M 282.8373,411.51088 c 4.55152,1.16405 24.19644,0.14511 20.1822,2.20549 -5.1045,-2.75197 -22.60958,4.53826 -10.41541,3.37536 9.43705,3.77904 2.28525,3.46768 -2.8846,4.38186 5.27309,0.026 15.38117,0.59626 18.40851,5.76434 4.86453,0.23744 16.75107,1.77805 5.39844,1.70159 -3.10947,0.7696 -22.02148,-0.52734 -12.42476,3.30053 -6.23314,-0.50647 -13.52601,5.81517 -3.05706,4.01555 42.91179,1.08678 85.90108,1.91944 128.76429,-0.45238 23.63682,0.53647 47.30948,2.27473 70.90112,-0.0121 13.52102,-0.009 26.99011,2.04959 40.51925,1.33472 3.66531,-4.45324 -16.83518,-4.79987 -4.17656,-3.93123 17.44225,2.93826 34.98636,-0.88569 52.17158,-3.7094 -7.58287,7.64157 -22.84749,-8.61715 -6.41101,-7.13974 13.24333,-1.38717 -13.41549,-1.21015 -17.53402,-2.34147 2.07102,-2.55227 28.16138,2.9365 23.09476,-7.09291 -6.78198,0.0614 -16.75295,-2.11854 -3.98887,-3.58912 13.0926,-2.83045 1.48904,-8.19223 -5.57385,-6.00616 -44.85426,0.1495 -89.75569,1.11461 -134.55011,-1.6995 -39.18999,-0.25108 -78.32828,2.99085 -117.49782,3.09394 -13.54492,1.63359 -29.24324,-1.65259 -40.92608,6.80063 z m 302.0716,2.51247 c 14.03993,-5.29349 -0.6629,8.88637 0,0 z M 283.73218,292.27383 c 11.43714,5.9736 -3.4578,-7.1257 0,0 z m 2.34201,134.3973 c 12.61498,1.19276 0.12133,-4.09023 0,0 z m 14.9272,10.39996 c -4.72634,-0.46931 -8.1737,0.41513 0,0 z m 113.05751,0.52851 c 9.3334,6.91347 6.44884,-7.90359 0,0 z M 572.89362,289.31383 c 7.21988,-0.72858 -9.29358,0.15557 0,0 z"
         style="opacity:1;fill:#603012;fill-opacity:1;stroke-width:0.44418043" />
      <path
         sodipodi:nodetypes="cc"
         inkscape:connector-curvature="0"
         id="path1092"
         d="M 288,324.36216 H 576"
         style="fill:none;fill-rule:evenodd;stroke:#000000;stroke-width:1px;stroke-linecap:butt;stroke-linejoin:miter;stroke-opacity:1" />
      <path
         sodipodi:nodetypes="cc"
         inkscape:connector-curvature="0"
         id="path1094"
         d="M 285.87876,359.30154 C 393.99075,362.59928 490.95366,356.68575 588,365.36216"
         style="fill:none;fill-rule:evenodd;stroke:#000000;stroke-width:1px;stroke-linecap:butt;stroke-linejoin:miter;stroke-opacity:1" />
      <path
         sodipodi:nodetypes="cc"
         inkscape:connector-curvature="0"
         id="path1096"
         d="m 288,404.36216 c 103.1176,-3.76678 194.0799,-3.98349 294,-1"
         style="fill:none;fill-rule:evenodd;stroke:#000000;stroke-width:1px;stroke-linecap:butt;stroke-linejoin:miter;stroke-opacity:1" />
    </g>
    <path
       style="fill:none;fill-rule:evenodd;stroke:#e6e6e6;stroke-width:5.01995993;stroke-linecap:round;stroke-linejoin:miter;stroke-miterlimit:4;stroke-dasharray:15.05988034, 15.05988033999999942;stroke-dashoffset:0;stroke-opacity:1;filter:url(#filter1299)"
       d="m 360,348.36216 112,-40 120,40"
       id="path1287"
       inkscape:connector-curvature="0"
       sodipodi:nodetypes="ccc"
       inkscape:export-filename="C:\Projects\Phaser\FlitAndBob\assets\header.png"
       inkscape:export-xdpi="64.879997"
       inkscape:export-ydpi="64.879997" />
    <image
       sodipodi:absref="C:\Users\fruit\Downloads\102851331-cartoon-wood-blank-banner-western-sign-vector-wooden-banner-and-vintage-frame-plank-illustration.jpg"
       y="548.36218"
       x="124"
       id="image1309"
       xlink:href="file:///C:/Users/fruit/Downloads/102851331-cartoon-wood-blank-banner-western-sign-vector-wooden-banner-and-vintage-frame-plank-illustration.jpg"
       preserveAspectRatio="none"
       height="156"
       width="156" />
    <path
       style="fill:#df9244;fill-opacity:1;fill-rule:evenodd;stroke:#000000;stroke-width:1px;stroke-linecap:butt;stroke-linejoin:miter;stroke-opacity:1"
       d="m 336,564.36216 120,-8 88,8 72,-8 v 24 l -32,8 40,8 v 16 l -80,-8 80,16 v 24 l -32,8 32,8 v 8 l -256,16 40,-32 h -80 v -32 h 64 l -64,-16 v -24 l 64,16 -80,-24 z"
       id="path1312"
       inkscape:connector-curvature="0" />
    <path
       style="opacity:1;fill:#df9244;fill-opacity:1;stroke:#c97222;stroke-width:5.35643196;stroke-linecap:round;stroke-miterlimit:4;stroke-dasharray:none;stroke-dashoffset:0;stroke-opacity:1;paint-order:markers fill stroke"
       d="m 644.14921,620.36216 a 92.519143,23.878678 0 0 1 -92.51914,23.87868 92.519143,23.878678 0 0 1 -92.51915,-23.87868 92.519143,23.878678 0 0 1 92.51915,-23.87868 92.519143,23.878678 0 0 1 92.51914,23.87868 z"
       id="path1314"
       inkscape:connector-curvature="0" />
    <path
       style="opacity:1;fill:#df9244;fill-opacity:1;stroke:#c97222;stroke-width:4.14701748;stroke-linecap:round;stroke-miterlimit:4;stroke-dasharray:none;stroke-dashoffset:0;stroke-opacity:1;paint-order:markers fill stroke"
       d="M 648,620.36216 A 81.589056,16.795148 0 0 1 566.41094,637.15731 81.589056,16.795148 0 0 1 484.82189,620.36216 81.589056,16.795148 0 0 1 566.41094,603.56701 81.589056,16.795148 0 0 1 648,620.36216 Z"
       id="ellipse1316"
       inkscape:connector-curvature="0" />
    <path
       style="opacity:1;fill:#df9244;fill-opacity:1;stroke:#c97222;stroke-width:3.89904284;stroke-linecap:round;stroke-miterlimit:4;stroke-dasharray:none;stroke-dashoffset:0;stroke-opacity:1;paint-order:markers fill stroke"
       d="M 632,620.36216 A 54.968642,10.850534 0 0 1 577.03136,631.2127 54.968642,10.850534 0 0 1 522.06271,620.36216 54.968642,10.850534 0 0 1 577.03136,609.51163 54.968642,10.850534 0 0 1 632,620.36216 Z"
       id="ellipse1318"
       inkscape:connector-curvature="0" />
    <path
       style="fill:none;fill-rule:evenodd;stroke:#c97222;stroke-width:8;stroke-linecap:butt;stroke-linejoin:miter;stroke-miterlimit:4;stroke-dasharray:none;stroke-opacity:1"
       d="m 646.73383,594.2485 c -66.28206,4.55034 -112.24777,-32.25989 -200,16 -20.81631,24.62678 -81.39334,12.78869 -118.73383,18.11366 37.58779,2.46636 93.12732,-6.0117 118.73383,5.88634 70.85118,30.79102 134.09814,15.31959 200,16 z"
       id="path1339"
       inkscape:connector-curvature="0"
       sodipodi:nodetypes="cccccc" />
  </g>
</svg>
