<?xml version="1.0" encoding="UTF-8" standalone="no"?>
<!-- Created with Inkscape (http://www.inkscape.org/) -->

<svg
   xmlns:dc="http://purl.org/dc/elements/1.1/"
   xmlns:cc="http://creativecommons.org/ns#"
   xmlns:rdf="http://www.w3.org/1999/02/22-rdf-syntax-ns#"
   xmlns:svg="http://www.w3.org/2000/svg"
   xmlns="http://www.w3.org/2000/svg"
   xmlns:xlink="http://www.w3.org/1999/xlink"
   xmlns:sodipodi="http://sodipodi.sourceforge.net/DTD/sodipodi-0.dtd"
   xmlns:inkscape="http://www.inkscape.org/namespaces/inkscape"
   width="280.9296"
   height="322.95303"
   viewBox="0 0 74.329287 85.447992"
   version="1.1"
   id="svg8260"
   inkscape:version="0.92.4 (5da689c313, 2019-01-14)"
   sodipodi:docname="gnome.svg">
  <defs
     id="defs8254">
    <linearGradient
       inkscape:collect="always"
       xlink:href="#linearGradient1121"
       id="linearGradient7761"
       gradientUnits="userSpaceOnUse"
       gradientTransform="matrix(1.3430035,0,0,1.3356047,72.335146,-57.4106)"
       x1="-114.6184"
       y1="202.01442"
       x2="-101.42279"
       y2="191.65912" />
    <linearGradient
       inkscape:collect="always"
       id="linearGradient1121">
      <stop
         style="stop-color:#969696;stop-opacity:1"
         offset="0"
         id="stop1117" />
      <stop
         style="stop-color:#dcdcdc;stop-opacity:0;"
         offset="1"
         id="stop1119" />
    </linearGradient>
    <linearGradient
       inkscape:collect="always"
       xlink:href="#linearGradient1121"
       id="linearGradient9184"
       gradientUnits="userSpaceOnUse"
       gradientTransform="matrix(1.3430035,0,0,1.3356047,72.335146,-57.4106)"
       x1="-114.6184"
       y1="202.01442"
       x2="-101.42279"
       y2="191.65912" />
  </defs>
  <sodipodi:namedview
     id="base"
     pagecolor="#ffffff"
     bordercolor="#666666"
     borderopacity="1.0"
     inkscape:pageopacity="0.0"
     inkscape:pageshadow="2"
     inkscape:zoom="0.35"
     inkscape:cx="-223.95031"
     inkscape:cy="-206.21793"
     inkscape:document-units="px"
     inkscape:current-layer="layer1"
     showgrid="false"
     units="px"
     fit-margin-top="0"
     fit-margin-left="0"
     fit-margin-right="0"
     fit-margin-bottom="0"
     inkscape:window-width="2736"
     inkscape:window-height="1744"
     inkscape:window-x="-11"
     inkscape:window-y="-11"
     inkscape:window-maximized="1" />
  <metadata
     id="metadata8257">
    <rdf:RDF>
      <cc:Work
         rdf:about="">
        <dc:format>image/svg+xml</dc:format>
        <dc:type
           rdf:resource="http://purl.org/dc/dcmitype/StillImage" />
        <dc:title></dc:title>
      </cc:Work>
    </rdf:RDF>
  </metadata>
  <g
     inkscape:label="Layer 1"
     inkscape:groupmode="layer"
     id="layer1"
     transform="translate(-12.384471,-8.8235117)">
    <g
       style="display:inline"
       id="g9024"
       transform="matrix(0.28222223,0,0,0.28222223,-27.060003,-183.66288)">
      <ellipse
         style="opacity:1;fill:#fcd6bf;fill-opacity:1;stroke:#000000;stroke-width:1.875;stroke-linecap:round;stroke-miterlimit:4;stroke-dasharray:none;stroke-dashoffset:0;stroke-opacity:1;paint-order:markers fill stroke"
         id="ellipse7799"
         cx="327.19196"
         cy="788.46777"
         rx="13.979802"
         ry="14.802715" />
      <ellipse
         transform="scale(-1,1)"
         ry="14.802715"
         rx="13.979802"
         cy="794.61102"
         cx="-210.21123"
         id="ellipse7801"
         style="opacity:1;fill:#fcd6bf;fill-opacity:1;stroke:#000000;stroke-width:1.875;stroke-linecap:round;stroke-miterlimit:4;stroke-dasharray:none;stroke-dashoffset:0;stroke-opacity:1;paint-order:markers fill stroke" />
      <path
         sodipodi:nodetypes="sssssss"
         inkscape:connector-curvature="0"
         id="path7777"
         d="m 330.96559,804.0446 c 0,6.3316 -0.48131,20.36877 -3.63315,25.83585 -9.23802,16.02404 -31.81682,19.23061 -56.63441,19.23061 -23.80419,0 -47.75794,-5.89288 -57.55096,-20.87581 -3.90034,-5.96735 -2.71659,-17.10127 -2.71659,-24.19065 0,-24.88952 26.9827,-45.06646 60.26755,-45.06646 33.28486,0 60.26756,20.17694 60.26756,45.06646 z"
         style="opacity:1;fill:#fcd6bf;fill-opacity:1;stroke:#000000;stroke-width:1.875;stroke-linecap:round;stroke-miterlimit:4;stroke-dasharray:none;stroke-dashoffset:0;stroke-opacity:1;paint-order:markers fill stroke" />
      <g
         id="g7759"
         transform="matrix(0.6124019,0,0,0.6124019,291.59554,670.77562)"
         style="stroke-width:3.06171489;stroke-miterlimit:4;stroke-dasharray:none">
        <g
           transform="translate(-513.29232,36.080668)"
           id="g7753"
           inkscape:export-xdpi="35.439999"
           inkscape:export-ydpi="35.439999"
           style="stroke-width:3.06171489;stroke-miterlimit:4;stroke-dasharray:none">
          <ellipse
             ry="26.257101"
             rx="26.004629"
             cy="163.66034"
             cx="451.67264"
             id="ellipse7749"
             style="opacity:1;fill:#ffffff;fill-opacity:1;stroke:#000000;stroke-width:3.06171489;stroke-linecap:round;stroke-miterlimit:4;stroke-dasharray:none;stroke-opacity:1" />
          <ellipse
             ry="5.806859"
             rx="5.3019147"
             cy="166.43753"
             cx="454.7023"
             id="ellipse7751"
             style="opacity:1;fill:#000000;fill-opacity:1;stroke:#000000;stroke-width:3.06171489;stroke-linecap:round;stroke-miterlimit:4;stroke-dasharray:none;stroke-opacity:1" />
        </g>
        <ellipse
           ry="2.9550059"
           rx="2.9530334"
           cy="200.86134"
           cx="-57.081104"
           id="ellipse7755"
           style="opacity:1;fill:#ffffff;fill-opacity:1;stroke:none;stroke-width:3.06171489;stroke-linecap:round;stroke-miterlimit:4;stroke-dasharray:none;stroke-opacity:1" />
        <ellipse
           ry="23.195875"
           rx="23.284636"
           cy="199.91377"
           cx="-61.332973"
           id="ellipse7757"
           style="opacity:1;fill:url(#linearGradient9184);fill-opacity:1;stroke:none;stroke-width:3.06171489;stroke-linecap:round;stroke-miterlimit:4;stroke-dasharray:none;stroke-opacity:1" />
      </g>
      <g
         transform="matrix(0.6124019,0,0,0.6124019,326.44412,671.18561)"
         id="g7773"
         style="stroke-width:3.06171489;stroke-miterlimit:4;stroke-dasharray:none">
        <g
           inkscape:export-ydpi="35.439999"
           inkscape:export-xdpi="35.439999"
           id="g7767"
           transform="translate(-513.29232,36.080668)"
           style="stroke-width:3.06171489;stroke-miterlimit:4;stroke-dasharray:none">
          <ellipse
             style="opacity:1;fill:#ffffff;fill-opacity:1;stroke:#000000;stroke-width:3.06171489;stroke-linecap:round;stroke-miterlimit:4;stroke-dasharray:none;stroke-opacity:1"
             id="ellipse7763"
             cx="451.67264"
             cy="163.66034"
             rx="26.004629"
             ry="26.257101" />
          <ellipse
             style="opacity:1;fill:#000000;fill-opacity:1;stroke:#000000;stroke-width:3.06171489;stroke-linecap:round;stroke-miterlimit:4;stroke-dasharray:none;stroke-opacity:1"
             id="ellipse7765"
             cx="454.7023"
             cy="166.43753"
             rx="5.3019147"
             ry="5.806859" />
        </g>
        <ellipse
           style="opacity:1;fill:#ffffff;fill-opacity:1;stroke:none;stroke-width:3.06171489;stroke-linecap:round;stroke-miterlimit:4;stroke-dasharray:none;stroke-opacity:1"
           id="ellipse7769"
           cx="-57.081104"
           cy="200.86134"
           rx="2.9530334"
           ry="2.9550059" />
        <ellipse
           style="opacity:1;fill:url(#linearGradient7761);fill-opacity:1;stroke:none;stroke-width:3.06171489;stroke-linecap:round;stroke-miterlimit:4;stroke-dasharray:none;stroke-opacity:1"
           id="ellipse7771"
           cx="-61.332973"
           cy="199.91377"
           rx="23.284636"
           ry="23.195875" />
      </g>
      <path
         sodipodi:nodetypes="ccccccccccc"
         inkscape:connector-curvature="0"
         id="path7803"
         d="m 171.01022,846.66497 c 15.99562,-5.6375 26.64162,-20.02891 48.27397,-16.44267 l 100.34245,-2.52965 c 20.0649,-3.76744 35.55035,12.61474 53.12248,19.81554 l -1.05403,27.19363 c -12.09591,5.22545 -24.19902,10.43109 -40.68506,3.58366 18.32737,20.14969 30.16252,40.50226 12.859,61.76542 l -149.24882,-0.21081 c -5.45129,-13.39597 -18.41013,-17.90955 10.54016,-58.18175 -14.58028,0.77267 -25.58984,-4.58844 -32.88533,-10.54018 z"
         style="fill:#5555ff;fill-rule:evenodd;stroke:#000000;stroke-width:1.875;stroke-linecap:butt;stroke-linejoin:miter;stroke-miterlimit:4;stroke-dasharray:none;stroke-opacity:1" />
      <path
         sodipodi:nodetypes="ccccc"
         inkscape:connector-curvature="0"
         id="path7840"
         d="m 217.49148,787.51085 c 2.40536,7.91329 2.35518,18.42476 4.24822,25.63842 5.67942,10.03699 21.15133,5.84984 30.00822,9.90571 l -34.01214,11.05362 c -11.8589,-22.60489 -4.73103,-39.43227 -0.2443,-46.59775 z"
         style="fill:#f8ab9b;fill-opacity:1;fill-rule:evenodd;stroke:none;stroke-width:1.875;stroke-linecap:butt;stroke-linejoin:miter;stroke-miterlimit:4;stroke-dasharray:none;stroke-opacity:1" />
      <path
         id="path7797"
         d="m 251.74792,823.05498 c -10.6904,-1.14361 -21.2415,-6.04824 -32.46373,7.16732 -7.67957,1.22458 -10.55745,3.98568 -4.21605,9.69696 -10.91975,8.56827 -2.81272,12.57102 1.26481,19.81552 -2.30222,7.35687 -1.45546,14.80776 6.56628,19.90194 -1.33203,3.83497 -3.27713,9.1043 9.6656,9.18894 8.17475,10.47414 13.13757,10.151 23.06117,11.82023 3.36057,0.56528 13.46786,-3.17158 16.11958,-11.44614 1.20476,5.72188 9.65546,11.33277 13.16429,11.42042 8.83911,0.22079 13.45684,2.63224 25.44142,-11.3729 5.87327,-1.93313 11.19797,-5.4741 9.896,-13.58772 -0.70497,-4.39333 14.95493,-4.7561 2.3306,-23.93531 7.39455,-2.03776 8.93754,-21.61849 -2.95125,-24.03159 -5.96483,-3.4949 -4.82111,-10.09979 -27.40443,-6.3241 z"
         style="fill:#ffffff;fill-rule:evenodd;stroke:#000000;stroke-width:1.875;stroke-linecap:butt;stroke-linejoin:miter;stroke-miterlimit:4;stroke-dasharray:none;stroke-opacity:1"
         inkscape:connector-curvature="0" />
      <path
         sodipodi:nodetypes="csc"
         inkscape:connector-curvature="0"
         id="path7783"
         d="m 239.88639,837.25489 c -2.65019,1.51003 11.26171,22.24767 29.98003,20.60167 19.49252,-1.71409 32.55855,-18.19558 29.5188,-19.52546"
         style="fill:none;fill-rule:evenodd;stroke:#000000;stroke-width:1.875;stroke-linecap:round;stroke-linejoin:miter;stroke-miterlimit:4;stroke-dasharray:none;stroke-opacity:1" />
      <ellipse
         ry="3.2542429"
         rx="3.9204657"
         cy="836.97296"
         cx="239.80952"
         id="path7785"
         style="opacity:1;fill:#000000;fill-opacity:1;stroke:none;stroke-width:1.875;stroke-linecap:round;stroke-miterlimit:4;stroke-dasharray:none;stroke-dashoffset:0;stroke-opacity:1;paint-order:markers fill stroke" />
      <ellipse
         style="opacity:1;fill:#000000;fill-opacity:1;stroke:none;stroke-width:1.875;stroke-linecap:round;stroke-miterlimit:4;stroke-dasharray:none;stroke-dashoffset:0;stroke-opacity:1;paint-order:markers fill stroke"
         id="ellipse7787"
         cx="300.02585"
         cy="837.28046"
         rx="3.9204657"
         ry="3.2542429" />
      <path
         sodipodi:nodetypes="cscc"
         inkscape:connector-curvature="0"
         id="path7793"
         d="m 217.45328,768.78214 c 0,0 11.24171,-81.66388 27.7076,-85.68609 13.78015,-3.36616 64.99505,70.06102 64.99505,70.06102 z"
         style="fill:#d40000;fill-rule:evenodd;stroke:#000000;stroke-width:1.875;stroke-linecap:butt;stroke-linejoin:miter;stroke-miterlimit:4;stroke-dasharray:none;stroke-opacity:1" />
      <path
         sodipodi:nodetypes="ccccc"
         inkscape:connector-curvature="0"
         id="path7789"
         d="m 220.09328,780.2537 c 25.36341,-8.11865 46.89364,-17.48388 93.9466,-10.95797 4.59925,-11.18889 -0.1408,-12.27227 -3.88395,-16.13866 -25.38638,-2.13932 -50.44137,-4.64799 -91.11296,10.24958 -6.39691,8.26874 -3.42253,11.26839 1.05031,16.84705 z"
         style="fill:#ffffff;fill-rule:evenodd;stroke:#000000;stroke-width:1.875;stroke-linecap:butt;stroke-linejoin:miter;stroke-miterlimit:4;stroke-dasharray:none;stroke-opacity:1" />
      <ellipse
         ry="20.026327"
         rx="25.507215"
         cy="820.31451"
         cx="270.50946"
         id="path7795"
         style="opacity:1;fill:#f8ab9b;fill-opacity:1;stroke:#000000;stroke-width:1.875;stroke-linecap:round;stroke-miterlimit:4;stroke-dasharray:none;stroke-dashoffset:0;stroke-opacity:1;paint-order:markers fill stroke" />
      <ellipse
         style="opacity:1;fill:#fcd6bf;fill-opacity:1;stroke:#000000;stroke-width:1.875;stroke-linecap:round;stroke-miterlimit:4;stroke-dasharray:none;stroke-dashoffset:0;stroke-opacity:1;paint-order:markers fill stroke"
         id="ellipse7805"
         cx="-160.88322"
         cy="859.3277"
         rx="20.181845"
         ry="14.469849"
         transform="scale(-1,1)" />
      <ellipse
         transform="scale(-1,1)"
         ry="14.469849"
         rx="20.181845"
         cy="862.7005"
         cx="-382.01602"
         id="ellipse7807"
         style="opacity:1;fill:#fcd6bf;fill-opacity:1;stroke:#000000;stroke-width:1.875;stroke-linecap:round;stroke-miterlimit:4;stroke-dasharray:none;stroke-dashoffset:0;stroke-opacity:1;paint-order:markers fill stroke" />
      <path
         sodipodi:nodetypes="cszczscc"
         inkscape:connector-curvature="0"
         id="path7814"
         d="m 189.4985,929.69918 c 3.90636,10.34388 1.04733,26.87143 10.44921,36.11503 8.90479,8.7549 19.89808,12.45091 31.15366,12.14261 11.25559,-0.30828 32.74421,4.12705 38.60669,-11.84448 6.84765,16.65476 21.17137,12.03559 34.86518,11.93929 13.69381,-0.0964 23.43135,0.55944 35.78951,-12.83365 10.31669,-11.18067 7.34646,-27.31991 10.84654,-38.29978 -51.49477,17.04761 -105.0534,20.28327 -161.71079,2.78098 z"
         style="fill:#008000;fill-rule:evenodd;stroke:#000000;stroke-width:1.875;stroke-linecap:butt;stroke-linejoin:miter;stroke-miterlimit:4;stroke-dasharray:none;stroke-opacity:1" />
      <path
         sodipodi:nodetypes="cccc"
         inkscape:connector-curvature="0"
         id="path8025"
         d="m 194.93641,944.47776 c 21.0491,14.20508 39.65225,34.06942 74.41361,16.54807 -1.45643,17.61666 -24.41864,15.97439 -43.84711,17.49669 -19.03565,-7.52555 -34.0718,-16.77929 -30.5665,-34.04476 z"
         style="fill:#005500;fill-rule:evenodd;stroke:none;stroke-width:1.875;stroke-linecap:butt;stroke-linejoin:miter;stroke-miterlimit:4;stroke-dasharray:none;stroke-opacity:1" />
      <path
         style="fill:#0000d4;fill-rule:evenodd;stroke:none;stroke-width:1.875;stroke-linecap:butt;stroke-linejoin:miter;stroke-miterlimit:4;stroke-dasharray:none;stroke-opacity:1"
         d="m 293.82348,931.95622 c -4.12914,8.0977 -110.73067,-16.43809 -102.55823,-23.26076 -3.55849,7.2501 -1.44497,18.96257 -0.24277,19.40548 33.32108,9.35484 72.80172,13.1061 95.64053,9.54125 6.65414,-1.03864 1.61328,-2.98613 7.16047,-5.68597 z"
         id="path8068"
         inkscape:connector-curvature="0"
         sodipodi:nodetypes="cccsc" />
      <ellipse
         style="opacity:1;fill:#fcd6bf;fill-opacity:1;stroke:#000000;stroke-width:1.87505925;stroke-linecap:round;stroke-miterlimit:4;stroke-dasharray:none;stroke-dashoffset:0;stroke-opacity:1;paint-order:markers fill stroke"
         id="ellipse7809"
         cx="-977.69165"
         cy="70.355476"
         rx="31.087166"
         ry="23.469294"
         transform="matrix(-0.30132789,-0.95352058,-0.95684775,0.29058972,0,0)" />
      <path
         style="fill:#005500;fill-rule:evenodd;stroke:none;stroke-width:1.875;stroke-linecap:butt;stroke-linejoin:miter;stroke-miterlimit:4;stroke-dasharray:none;stroke-opacity:1"
         d="m 345.70365,944.47776 c -21.0491,15.15062 -41.39138,35.17778 -76.15274,16.49014 1.45643,18.78928 24.41864,17.0377 43.84711,18.66133 18.18559,-7.7502 31.52462,-15.34371 32.30563,-35.15147 z"
         id="path8062"
         inkscape:connector-curvature="0"
         sodipodi:nodetypes="cccc" />
      <ellipse
         transform="matrix(0.30090328,-0.95365466,-0.95021176,-0.3116049,0,0)"
         ry="23.469294"
         rx="31.087166"
         cy="-580.74463"
         cx="-809.89807"
         id="ellipse7811"
         style="opacity:1;fill:#fcd6bf;fill-opacity:1;stroke:#000000;stroke-width:1.87505925;stroke-linecap:round;stroke-miterlimit:4;stroke-dasharray:none;stroke-dashoffset:0;stroke-opacity:1;paint-order:markers fill stroke" />
      <path
         sodipodi:nodetypes="cscccccccccccccccc"
         inkscape:connector-curvature="0"
         id="path7834"
         d="m 294.66918,881.3457 c -9.66899,0.94717 -15.15635,-11.00224 -23.07193,-11.08069 -6.55794,-0.065 -15.48379,11.80461 -23.52153,11.81347 -20.86621,7.5297 -26.37338,-52.11511 -28.17856,-46.70287 -2.17629,0.27221 -9.51029,1.24361 -4.82902,4.54365 9.05087,0.0635 -4.41393,4.01234 -2.49256,12.32469 2.54876,4.92083 7.49723,8.86823 4.62048,14.82406 -1.20114,6.04951 2.72865,11.76169 8.02949,14.37633 -1.51691,2.7315 -1.72915,6.70223 3.11304,6.49256 7.62555,-1.27419 8.46387,5.86645 15.15825,7.9646 7.16402,2.7429 14.83815,6.19039 20.49196,-0.25851 3.88179,-2.06062 6.33411,-14.91557 8.1003,-9.91332 1.54678,9.25332 10.87034,15.29503 20.40219,13.68908 9.92039,0.0266 12.14196,-11.25247 20.77031,-13.74942 5.95689,-2.85766 1.08102,-8.96846 6.56389,-12.04537 8.76821,-4.76256 4.6676,-15.69072 0.68462,-21.21746 9.76463,-2.80146 1.54816,-27.6011 -3.56284,-20.15757 -2.31022,-2.42198 -6.05063,55.6234 -22.27809,49.09677 z"
         style="fill:#e2ebf0;fill-opacity:1;fill-rule:evenodd;stroke:none;stroke-width:1.875;stroke-linecap:butt;stroke-linejoin:miter;stroke-miterlimit:4;stroke-dasharray:none;stroke-opacity:1" />
      <ellipse
         transform="rotate(19.219071)"
         ry="4.1364298"
         rx="8.6827774"
         cy="673.50732"
         cx="528.61841"
         id="path7842"
         style="opacity:1;fill:#fcd6bf;fill-opacity:1;stroke:none;stroke-width:1.875;stroke-linecap:round;stroke-miterlimit:4;stroke-dasharray:none;stroke-dashoffset:0;stroke-opacity:1;paint-order:markers fill stroke" />
      <path
         style="fill:#f8ab9b;fill-opacity:1;fill-rule:evenodd;stroke:none;stroke-width:1.875;stroke-linecap:butt;stroke-linejoin:miter;stroke-miterlimit:4;stroke-dasharray:none;stroke-opacity:1"
         d="m 212.89774,928.26306 c 2.40536,7.91329 2.35518,18.42476 4.24822,25.63842 5.67942,10.03699 21.15133,5.84984 30.00822,9.90571 -6.39887,16.29219 -15.43941,18.24832 -29.84877,8.26048 -16.15776,-18.63673 -8.8944,-36.63913 -4.40767,-43.80461 z"
         id="path7844"
         inkscape:connector-curvature="0"
         sodipodi:nodetypes="ccccc" />
      <path
         sodipodi:nodetypes="ccccc"
         inkscape:connector-curvature="0"
         id="path7846"
         d="m 311.97588,926.45615 c -2.8644,7.75894 -9.25529,16.1046 -12.10524,22.9965 -1.53861,11.42934 13.31988,17.44076 17.92692,26.02387 -14.94241,9.1162 -23.32817,5.21275 -28.77564,-11.45193 -1.61512,-24.61285 15.04945,-34.5695 22.95396,-37.56844 z"
         style="fill:#f8ab9b;fill-opacity:1;fill-rule:evenodd;stroke:none;stroke-width:1.875;stroke-linecap:butt;stroke-linejoin:miter;stroke-miterlimit:4;stroke-dasharray:none;stroke-opacity:1" />
      <path
         sodipodi:nodetypes="ccccc"
         inkscape:connector-curvature="0"
         id="path7848"
         d="m 145.77714,852.83163 c 4.35593,3.15867 7.69976,7.74161 11.49858,10.74436 7.03349,2.92442 14.33877,-5.63919 20.94695,-7.15838 1.93845,9.54449 -4.63645,13.80826 -16.34372,15.51009 -20.27357,-2.04093 -22.27761,-11.79124 -16.10181,-19.09607 z"
         style="fill:#f8ab9b;fill-opacity:1;fill-rule:evenodd;stroke:none;stroke-width:1.875;stroke-linecap:butt;stroke-linejoin:miter;stroke-miterlimit:4;stroke-dasharray:none;stroke-opacity:1" />
      <path
         style="fill:#f8ab9b;fill-opacity:1;fill-rule:evenodd;stroke:none;stroke-width:1.875;stroke-linecap:butt;stroke-linejoin:miter;stroke-miterlimit:4;stroke-dasharray:none;stroke-opacity:1"
         d="m 397.08876,856.26003 c -4.35593,3.15867 -7.69976,7.74161 -11.49857,10.74436 -7.0335,2.92442 -14.33878,-5.63919 -20.94696,-7.15838 -1.93845,9.54449 4.63645,13.80826 16.34372,15.51009 20.27357,-2.04093 22.27761,-11.79124 16.10181,-19.09607 z"
         id="path7850"
         inkscape:connector-curvature="0"
         sodipodi:nodetypes="ccccc" />
      <path
         sodipodi:nodetypes="cccc"
         inkscape:connector-curvature="0"
         id="path8064"
         d="m 176.2803,871.22356 c 0.51958,2.55064 38.20042,5.03578 36.1528,2.47694 -1.05402,2.31884 -2.84585,5.32279 -2.84585,5.32279 -10.4386,1.07603 -21.06849,1.09265 -33.30695,-7.79973 z"
         style="fill:#0000d4;fill-rule:evenodd;stroke:none;stroke-width:1.875;stroke-linecap:butt;stroke-linejoin:miter;stroke-miterlimit:4;stroke-dasharray:none;stroke-opacity:1" />
      <path
         style="fill:#0000d4;fill-rule:evenodd;stroke:none;stroke-width:1.875;stroke-linecap:butt;stroke-linejoin:miter;stroke-miterlimit:4;stroke-dasharray:none;stroke-opacity:1"
         d="m 366.62267,874.07262 c -0.80245,2.47626 -34.41355,-0.28278 -32.09179,-2.59577 0.78723,2.42245 -2.40692,4.92335 -2.40692,4.92335 9.2947,3.31723 21.29719,5.18379 34.49871,-2.32758 z"
         id="path8066"
         inkscape:connector-curvature="0"
         sodipodi:nodetypes="cccc" />
    </g>
  </g>
</svg>
