<?xml version="1.0" encoding="UTF-8" standalone="no"?>
<!-- Created with Inkscape (http://www.inkscape.org/) -->

<svg
   xmlns:osb="http://www.openswatchbook.org/uri/2009/osb"
   xmlns:dc="http://purl.org/dc/elements/1.1/"
   xmlns:cc="http://creativecommons.org/ns#"
   xmlns:rdf="http://www.w3.org/1999/02/22-rdf-syntax-ns#"
   xmlns:svg="http://www.w3.org/2000/svg"
   xmlns="http://www.w3.org/2000/svg"
   xmlns:xlink="http://www.w3.org/1999/xlink"
   xmlns:sodipodi="http://sodipodi.sourceforge.net/DTD/sodipodi-0.dtd"
   xmlns:inkscape="http://www.inkscape.org/namespaces/inkscape"
   width="1024"
   height="1024"
   viewBox="0 0 1024 1024"
   id="svg4478"
   version="1.1"
   inkscape:version="0.91 r13725"
   sodipodi:docname="GridEnvirnment.svg">
  <defs
     id="defs4480">
    <linearGradient
       inkscape:collect="always"
       xlink:href="#Grass_Main-6"
       id="linearGradient13270"
       x1="416"
       y1="484.36209"
       x2="464"
       y2="484.36209"
       gradientUnits="userSpaceOnUse"
       gradientTransform="translate(-304,-335.99993)" />
    <linearGradient
       id="Grass_Main-6"
       osb:paint="solid"
       gradientTransform="matrix(-1,0,0,1,2313.1681,-136.09407)">
      <stop
         style="stop-color:#44a318;stop-opacity:1;"
         offset="0"
         id="stop4939" />
    </linearGradient>
    <linearGradient
       inkscape:collect="always"
       xlink:href="#Grass_Main_Shadow-4"
       id="linearGradient13281"
       x1="415.5"
       y1="495.8363"
       x2="464.5"
       y2="495.8363"
       gradientUnits="userSpaceOnUse"
       gradientTransform="translate(-304,-335.99993)" />
    <linearGradient
       id="Grass_Main_Shadow-4"
       osb:paint="solid">
      <stop
         style="stop-color:#3d9815;stop-opacity:1;"
         offset="0"
         id="stop5119" />
    </linearGradient>
    <linearGradient
       inkscape:collect="always"
       xlink:href="#Grass_Main-6"
       id="linearGradient5749"
       gradientUnits="userSpaceOnUse"
       gradientTransform="translate(-111.97063,-335.99993)"
       x1="416"
       y1="484.36209"
       x2="464"
       y2="484.36209" />
    <linearGradient
       inkscape:collect="always"
       xlink:href="#Grass_Main_Shadow-4"
       id="linearGradient5751"
       gradientUnits="userSpaceOnUse"
       gradientTransform="translate(-111.97063,-335.99993)"
       x1="415.5"
       y1="495.8363"
       x2="464.5"
       y2="495.8363" />
    <linearGradient
       inkscape:collect="always"
       xlink:href="#Grass_Main-6"
       id="linearGradient5765"
       gradientUnits="userSpaceOnUse"
       gradientTransform="matrix(1,0,0,1.1666667,-256,-415.39361)"
       x1="416"
       y1="484.36209"
       x2="464"
       y2="484.36209" />
    <linearGradient
       inkscape:collect="always"
       xlink:href="#Grass_Main_Shadow-4"
       id="linearGradient5767"
       gradientUnits="userSpaceOnUse"
       gradientTransform="translate(-256,-335.99993)"
       x1="415.5"
       y1="495.8363"
       x2="464.5"
       y2="495.8363" />
    <linearGradient
       inkscape:collect="always"
       xlink:href="#Grass_Main-6"
       id="linearGradient5795"
       gradientUnits="userSpaceOnUse"
       gradientTransform="translate(175.79676,-399.99993)"
       x1="416"
       y1="484.36209"
       x2="464"
       y2="484.36209" />
    <linearGradient
       inkscape:collect="always"
       xlink:href="#Grass_Main_Shadow-4"
       id="linearGradient5797"
       gradientUnits="userSpaceOnUse"
       gradientTransform="translate(175.79676,-399.99993)"
       x1="415.5"
       y1="495.8363"
       x2="464.5"
       y2="495.8363" />
    <linearGradient
       inkscape:collect="always"
       xlink:href="#Grass_Main-6"
       id="linearGradient5828"
       gradientUnits="userSpaceOnUse"
       gradientTransform="translate(80,-399.99993)"
       x1="416"
       y1="484.36209"
       x2="464"
       y2="484.36209" />
    <linearGradient
       inkscape:collect="always"
       xlink:href="#Grass_Main_Shadow-4"
       id="linearGradient5830"
       gradientUnits="userSpaceOnUse"
       gradientTransform="translate(80,-399.99993)"
       x1="415.5"
       y1="495.8363"
       x2="464.5"
       y2="495.8363" />
    <linearGradient
       inkscape:collect="always"
       xlink:href="#Grass_Main-6"
       id="linearGradient5868"
       gradientUnits="userSpaceOnUse"
       gradientTransform="matrix(-1,0,0,1,527.97063,-335.99993)"
       x1="416"
       y1="484.36209"
       x2="464"
       y2="484.36209" />
    <linearGradient
       inkscape:collect="always"
       xlink:href="#Grass_Main_Shadow-4"
       id="linearGradient5870"
       gradientUnits="userSpaceOnUse"
       gradientTransform="matrix(-1,0,0,1,527.97063,-335.99993)"
       x1="415.5"
       y1="495.8363"
       x2="464.5"
       y2="495.8363" />
    <linearGradient
       inkscape:collect="always"
       xlink:href="#Grass_Main-6"
       id="linearGradient6296"
       gradientUnits="userSpaceOnUse"
       gradientTransform="translate(-112.20324,-335.99993)"
       x1="416"
       y1="484.36209"
       x2="464"
       y2="484.36209" />
    <linearGradient
       inkscape:collect="always"
       xlink:href="#Grass_Main_Shadow-4"
       id="linearGradient6298"
       gradientUnits="userSpaceOnUse"
       gradientTransform="translate(-112.20324,-335.99993)"
       x1="415.5"
       y1="495.8363"
       x2="464.5"
       y2="495.8363" />
    <linearGradient
       inkscape:collect="always"
       xlink:href="#Grass_Main-6"
       id="linearGradient6415"
       gradientUnits="userSpaceOnUse"
       gradientTransform="translate(-207.98531,-335.99993)"
       x1="416"
       y1="484.36209"
       x2="464"
       y2="484.36209" />
    <linearGradient
       inkscape:collect="always"
       xlink:href="#Grass_Main_Shadow-4"
       id="linearGradient6417"
       gradientUnits="userSpaceOnUse"
       gradientTransform="translate(-207.98531,-335.99993)"
       x1="415.5"
       y1="495.8363"
       x2="464.5"
       y2="495.8363" />
    <linearGradient
       inkscape:collect="always"
       xlink:href="#Grass_Main-6"
       id="linearGradient6437"
       gradientUnits="userSpaceOnUse"
       gradientTransform="matrix(-1,0,0,1,671.98531,-335.99993)"
       x1="416"
       y1="484.36209"
       x2="464"
       y2="484.36209" />
    <linearGradient
       inkscape:collect="always"
       xlink:href="#Grass_Main_Shadow-4"
       id="linearGradient6439"
       gradientUnits="userSpaceOnUse"
       gradientTransform="matrix(-1,0,0,1,671.98532,-336.15024)"
       x1="415.5"
       y1="495.8363"
       x2="464.5"
       y2="495.8363" />
  </defs>
  <sodipodi:namedview
     id="base"
     pagecolor="#ffffff"
     bordercolor="#666666"
     borderopacity="1.0"
     inkscape:pageopacity="0.0"
     inkscape:pageshadow="2"
     inkscape:zoom="2.7237753"
     inkscape:cx="226.28914"
     inkscape:cy="927.44978"
     inkscape:document-units="px"
     inkscape:current-layer="layer1"
     showgrid="true"
     units="px"
     objecttolerance="2"
     guidetolerance="2"
     inkscape:window-width="1824"
     inkscape:window-height="1162"
     inkscape:window-x="-8"
     inkscape:window-y="-8"
     inkscape:window-maximized="1"
     inkscape:snap-bbox="true"
     inkscape:bbox-paths="true"
     inkscape:bbox-nodes="true"
     inkscape:snap-bbox-edge-midpoints="true"
     inkscape:snap-bbox-midpoints="true"
     inkscape:object-paths="true"
     inkscape:snap-intersection-paths="true"
     inkscape:object-nodes="true"
     inkscape:snap-smooth-nodes="true"
     inkscape:snap-midpoints="true"
     inkscape:snap-grids="true">
    <inkscape:grid
       type="xygrid"
       id="grid4486"
       empspacing="8"
       snapvisiblegridlinesonly="false" />
  </sodipodi:namedview>
  <metadata
     id="metadata4483">
    <rdf:RDF>
      <cc:Work
         rdf:about="">
        <dc:format>image/svg+xml</dc:format>
        <dc:type
           rdf:resource="http://purl.org/dc/dcmitype/StillImage" />
        <dc:title></dc:title>
      </cc:Work>
    </rdf:RDF>
  </metadata>
  <g
     inkscape:label="Layer 1"
     inkscape:groupmode="layer"
     id="layer1"
     transform="translate(0,-28.362161)">
    <g
       style="shape-rendering:crispEdges"
       id="g13138"
       transform="translate(-16,-399.99993)">
      <path
         sodipodi:nodetypes="ccccsscc"
         inkscape:connector-curvature="0"
         id="path13050"
         d="m 48,492.36209 c 19.29695,3.326 54.23238,2.9626 91.2631,0.24395 30.17656,-1.35833 60.83039,7.43785 92.7369,-0.24395 l 0,24 c -24,0 -16,0 -61.32471,2.16795 -40.82395,1.95267 -68.28021,1.04236 -84.7422,0.73216 C 70.30092,518.96763 60.69637,516.56599 48,516.36209 Z"
         style="opacity:1;fill:#54321d;fill-opacity:1;stroke:none;stroke-width:1;stroke-linecap:round;stroke-miterlimit:4;stroke-dasharray:none;stroke-opacity:1" />
      <ellipse
         ry="3.6849132"
         rx="3.5720472"
         cy="500.03659"
         cx="103.95947"
         id="ellipse13052"
         style="opacity:1;fill:#93672e;fill-opacity:1;stroke:none;stroke-width:1;stroke-linecap:round;stroke-miterlimit:4;stroke-dasharray:none;stroke-opacity:1" />
      <ellipse
         ry="1.281709"
         rx="1.1629921"
         cy="498.75488"
         cx="53.203159"
         id="ellipse13054"
         style="opacity:1;fill:#93672e;fill-opacity:1;stroke:none;stroke-width:1;stroke-linecap:round;stroke-miterlimit:4;stroke-dasharray:none;stroke-opacity:1" />
      <ellipse
         ry="2.5634179"
         rx="2.492126"
         cy="510.29028"
         cx="63.836246"
         id="ellipse13056"
         style="opacity:1;fill:#93672e;fill-opacity:1;stroke:none;stroke-width:1;stroke-linecap:round;stroke-miterlimit:4;stroke-dasharray:none;stroke-opacity:1" />
      <ellipse
         style="opacity:1;fill:#93672e;fill-opacity:1;stroke:none;stroke-width:1;stroke-linecap:round;stroke-miterlimit:4;stroke-dasharray:none;stroke-opacity:1"
         id="ellipse13058"
         cx="80.782684"
         cy="504.52258"
         rx="1.1629921"
         ry="1.281709" />
      <ellipse
         ry="1.281709"
         rx="1.1629921"
         cy="510.7709"
         cx="111.35275"
         id="ellipse13060"
         style="opacity:1;fill:#93672e;fill-opacity:1;stroke:none;stroke-width:1;stroke-linecap:round;stroke-miterlimit:4;stroke-dasharray:none;stroke-opacity:1" />
      <ellipse
         style="opacity:1;fill:#93672e;fill-opacity:1;stroke:none;stroke-width:1;stroke-linecap:round;stroke-miterlimit:4;stroke-dasharray:none;stroke-opacity:1"
         id="ellipse13062"
         cx="139.763"
         cy="496.67212"
         rx="2.492126"
         ry="2.5634179" />
      <ellipse
         style="opacity:1;fill:#93672e;fill-opacity:1;stroke:none;stroke-width:1;stroke-linecap:round;stroke-miterlimit:4;stroke-dasharray:none;stroke-opacity:1"
         id="ellipse13064"
         cx="196.66653"
         cy="511.73218"
         rx="3.5720472"
         ry="3.6849132" />
      <ellipse
         ry="1.281709"
         rx="1.1629921"
         cy="502.11938"
         cx="171.6622"
         id="ellipse13066"
         style="opacity:1;fill:#93672e;fill-opacity:1;stroke:none;stroke-width:1;stroke-linecap:round;stroke-miterlimit:4;stroke-dasharray:none;stroke-opacity:1" />
      <ellipse
         ry="2.5634179"
         rx="2.492126"
         cy="509.00854"
         cx="162.026"
         id="ellipse13068"
         style="opacity:1;fill:#93672e;fill-opacity:1;stroke:none;stroke-width:1;stroke-linecap:round;stroke-miterlimit:4;stroke-dasharray:none;stroke-opacity:1" />
      <ellipse
         style="opacity:1;fill:#93672e;fill-opacity:1;stroke:none;stroke-width:1;stroke-linecap:round;stroke-miterlimit:4;stroke-dasharray:none;stroke-opacity:1"
         id="ellipse13070"
         cx="215.19135"
         cy="502.60001"
         rx="1.1629921"
         ry="1.281709" />
      <path
         style="fill:#3d9815;fill-opacity:1;fill-rule:evenodd;stroke:none;stroke-width:1px;stroke-linecap:butt;stroke-linejoin:miter;stroke-opacity:1"
         d="m 48,497.36209 c 10.01279,1.62318 15.54344,-4.91538 22.99892,5.24299 13.09967,-11.07215 11.3504,-5.69646 22.99208,-2.88107 18.39018,-9.29542 19.53359,-0.91504 22.99205,1.72601 15.82474,-7.8373 16.52726,-2.81343 22.99205,-1.12153 10.67486,-7.59379 19.64769,-2.96339 22.99208,1.58355 6.90964,-11.96966 19.87334,-5.56311 20.50202,-4.69133 17.86586,-5.82598 26.411,4.22471 26.81011,5.15335 9.0344,-5.71888 12.94788,-4.23662 21.72069,-5.01197 l -0.0566,-16.70314 -183.93649,0 z"
         id="path13072"
         inkscape:connector-curvature="0"
         sodipodi:nodetypes="cccccccccccc" />
      <path
         sodipodi:nodetypes="cccccccccccc"
         inkscape:connector-curvature="0"
         id="path13074"
         d="m 48,493.22596 c 10.01624,1.62317 15.70799,-2.92768 23.16605,7.23069 13.1042,-11.07214 17.83065,-9.07256 22.50182,-2.57415 18.39654,-9.29542 20.53671,-1.52888 23.99635,1.11217 13.33933,-11.98069 18.02751,-5.42223 21.8376,-0.81461 13.16942,-12.0441 19.65445,-4.03759 23,0.50935 6.91204,-11.96967 20.87655,-4.18199 21.50546,-3.31021 18.37021,-9.35555 25.92196,4.37817 26.32121,5.30681 9.03749,-5.71888 12.06537,-7.75893 21.67151,-7.46005 l 0,-16.86387 -184,0 z"
         style="fill:#44a318;fill-opacity:1;fill-rule:evenodd;stroke:none;stroke-width:1px;stroke-linecap:butt;stroke-linejoin:miter;stroke-opacity:1" />
      <ellipse
         style="opacity:1;fill:#93672e;fill-opacity:1;stroke:none;stroke-width:1;stroke-linecap:round;stroke-miterlimit:4;stroke-dasharray:none;stroke-opacity:1"
         id="ellipse13076"
         cx="136"
         cy="505.79871"
         rx="2.492126"
         ry="2.5634179" />
    </g>
    <g
       id="g6248">
      <path
         style="opacity:1;fill:#54321d;fill-opacity:1;stroke:none;stroke-width:1;stroke-linecap:round;stroke-miterlimit:4;stroke-dasharray:none;stroke-opacity:1;shape-rendering:crispEdges"
         d="m 216,92.36216 c 19.29695,3.326 54.23238,2.9626 91.2631,0.24395 30.17656,-1.35833 60.83039,7.43785 92.7369,-0.24395 l 0,24 c -21,-2 -26,1 -54.75595,1.04645 -41.24402,0.0666 -58.50718,-2.16191 -74.96917,-2.47211 -15.63217,-0.29457 -41.57851,1.62956 -54.27488,1.42566 z"
         id="path13156"
         inkscape:connector-curvature="0"
         sodipodi:nodetypes="ccccsscc" />
      <ellipse
         style="opacity:1;fill:#93672e;fill-opacity:1;stroke:none;stroke-width:1;stroke-linecap:round;stroke-miterlimit:4;stroke-dasharray:none;stroke-opacity:1;shape-rendering:crispEdges"
         id="ellipse13158"
         cx="271.95947"
         cy="100.03666"
         rx="3.5720472"
         ry="3.6849132" />
      <ellipse
         style="opacity:1;fill:#93672e;fill-opacity:1;stroke:none;stroke-width:1;stroke-linecap:round;stroke-miterlimit:4;stroke-dasharray:none;stroke-opacity:1;shape-rendering:crispEdges"
         id="ellipse13160"
         cx="221.20316"
         cy="98.754951"
         rx="1.1629921"
         ry="1.281709" />
      <ellipse
         style="opacity:1;fill:#93672e;fill-opacity:1;stroke:none;stroke-width:1;stroke-linecap:round;stroke-miterlimit:4;stroke-dasharray:none;stroke-opacity:1;shape-rendering:crispEdges"
         id="ellipse13162"
         cx="231.83624"
         cy="110.29035"
         rx="2.492126"
         ry="2.5634179" />
      <ellipse
         ry="1.281709"
         rx="1.1629921"
         cy="104.52265"
         cx="248.78268"
         id="ellipse13164"
         style="opacity:1;fill:#93672e;fill-opacity:1;stroke:none;stroke-width:1;stroke-linecap:round;stroke-miterlimit:4;stroke-dasharray:none;stroke-opacity:1;shape-rendering:crispEdges" />
      <ellipse
         style="opacity:1;fill:#93672e;fill-opacity:1;stroke:none;stroke-width:1;stroke-linecap:round;stroke-miterlimit:4;stroke-dasharray:none;stroke-opacity:1;shape-rendering:crispEdges"
         id="ellipse13166"
         cx="279.35275"
         cy="110.77097"
         rx="1.1629921"
         ry="1.281709" />
      <ellipse
         ry="2.5634179"
         rx="2.492126"
         cy="96.672188"
         cx="307.763"
         id="ellipse13168"
         style="opacity:1;fill:#93672e;fill-opacity:1;stroke:none;stroke-width:1;stroke-linecap:round;stroke-miterlimit:4;stroke-dasharray:none;stroke-opacity:1;shape-rendering:crispEdges" />
      <ellipse
         ry="3.6849132"
         rx="3.5720472"
         cy="111.73225"
         cx="364.66653"
         id="ellipse13170"
         style="opacity:1;fill:#93672e;fill-opacity:1;stroke:none;stroke-width:1;stroke-linecap:round;stroke-miterlimit:4;stroke-dasharray:none;stroke-opacity:1;shape-rendering:crispEdges" />
      <ellipse
         style="opacity:1;fill:#93672e;fill-opacity:1;stroke:none;stroke-width:1;stroke-linecap:round;stroke-miterlimit:4;stroke-dasharray:none;stroke-opacity:1;shape-rendering:crispEdges"
         id="ellipse13172"
         cx="339.6622"
         cy="102.11945"
         rx="1.1629921"
         ry="1.281709" />
      <ellipse
         style="opacity:1;fill:#93672e;fill-opacity:1;stroke:none;stroke-width:1;stroke-linecap:round;stroke-miterlimit:4;stroke-dasharray:none;stroke-opacity:1;shape-rendering:crispEdges"
         id="ellipse13174"
         cx="330.026"
         cy="109.00861"
         rx="2.492126"
         ry="2.5634179" />
      <ellipse
         ry="1.281709"
         rx="1.1629921"
         cy="102.60007"
         cx="383.19135"
         id="ellipse13176"
         style="opacity:1;fill:#93672e;fill-opacity:1;stroke:none;stroke-width:1;stroke-linecap:round;stroke-miterlimit:4;stroke-dasharray:none;stroke-opacity:1;shape-rendering:crispEdges" />
      <path
         sodipodi:nodetypes="cccccccccccc"
         inkscape:connector-curvature="0"
         id="path13178"
         d="m 216,97.36216 c 10.01279,1.62318 15.54344,-4.91538 22.99892,5.24299 13.09967,-11.07215 11.3504,-5.69646 22.99208,-2.88107 18.39018,-9.29542 19.53359,-0.91504 22.99205,1.72601 15.82474,-7.8373 16.52726,-2.81343 22.99205,-1.12153 10.67486,-7.59379 19.64769,-2.96339 22.99208,1.58355 6.90964,-11.96966 19.87334,-5.56311 20.50202,-4.69133 17.86586,-5.82598 26.411,4.22471 26.81011,5.15335 9.0344,-5.71888 12.94788,-4.23662 21.72069,-5.01197 l -0.0566,-16.70314 -183.93649,0 z"
         style="fill:#3d9815;fill-opacity:1;fill-rule:evenodd;stroke:none;stroke-width:1px;stroke-linecap:butt;stroke-linejoin:miter;stroke-opacity:1;shape-rendering:crispEdges" />
      <path
         style="fill:#44a318;fill-opacity:1;fill-rule:evenodd;stroke:none;stroke-width:1px;stroke-linecap:butt;stroke-linejoin:miter;stroke-opacity:1;shape-rendering:crispEdges"
         d="m 216,93.22603 c 10.01624,1.62317 15.70799,-2.92768 23.16605,7.23069 13.1042,-11.07214 17.83065,-9.07256 22.50182,-2.57415 18.39654,-9.29542 20.53671,-1.52888 23.99635,1.11217 13.33933,-11.98069 18.02751,-5.42223 21.8376,-0.81461 13.16942,-12.0441 19.65445,-4.03759 23,0.50935 6.91204,-11.96967 20.87655,-4.18199 21.50546,-3.31021 18.37021,-9.35555 25.92196,4.37817 26.32121,5.30681 C 387.36598,94.9672 390.39386,92.92715 400,93.22603 l 0,-16.86387 -184,0 z"
         id="path13180"
         inkscape:connector-curvature="0"
         sodipodi:nodetypes="cccccccccccc" />
      <ellipse
         ry="2.5634179"
         rx="2.492126"
         cy="105.79877"
         cx="304"
         id="ellipse13182"
         style="opacity:1;fill:#93672e;fill-opacity:1;stroke:none;stroke-width:1;stroke-linecap:round;stroke-miterlimit:4;stroke-dasharray:none;stroke-opacity:1;shape-rendering:crispEdges" />
    </g>
    <g
       id="g6389"
       transform="translate(-48.01469,9.9999988e-7)"
       inkscape:export-xdpi="90"
       inkscape:export-ydpi="90">
      <path
         style="opacity:1;fill:url(#linearGradient5765);fill-opacity:1;fill-rule:nonzero;stroke:none;stroke-width:3;stroke-linecap:round;stroke-linejoin:round;stroke-miterlimit:4;stroke-dasharray:none;stroke-opacity:1;shape-rendering:crispEdges"
         d="m 160,140.36216 48,0 0,21 c -4,-1.16667 -7,-2.33333 -11.87717,-2.33333 -5.12283,0 -8.12283,1.16666 -12.12283,2.33333 -4,-1.16667 -8,-2.33333 -12.02937,-2.33333 C 166,159.02883 163,160.19549 160,161.36216 Z"
         id="path5699"
         inkscape:connector-curvature="0"
         sodipodi:nodetypes="cccccccc" />
      <path
         sodipodi:nodetypes="cccccc"
         inkscape:connector-curvature="0"
         id="path5701"
         d="m 160,158.36216 48,0 0,22 -24,-2 c -13,0 -15,2 -24,2 z"
         style="opacity:1;fill:#54321d;fill-opacity:1;stroke:none;stroke-width:6;stroke-linecap:round;stroke-miterlimit:4;stroke-dasharray:none;stroke-opacity:1" />
      <ellipse
         style="opacity:1;fill:#93672e;fill-opacity:1;stroke:none;stroke-width:1;stroke-linecap:round;stroke-miterlimit:4;stroke-dasharray:none;stroke-opacity:1;shape-rendering:crispEdges"
         id="ellipse5703"
         cx="188"
         cy="166.36217"
         rx="2.492126"
         ry="2.5634179" />
      <path
         style="fill:url(#linearGradient5767);fill-opacity:1;fill-rule:evenodd;stroke:none;stroke-width:1px;stroke-linecap:butt;stroke-linejoin:miter;stroke-opacity:1;shape-rendering:crispEdges"
         d="m 160,161.36216 c 14.47312,2.83359 15,-2 24,1 13,-3 8,1 24,-1 l 0,-4 c -13,1 -13,0 -24,0 -7,1 -15,1 -24,0 z"
         id="path5705"
         inkscape:connector-curvature="0"
         sodipodi:nodetypes="ccccccc" />
      <ellipse
         style="opacity:1;fill:#93672e;fill-opacity:1;stroke:none;stroke-width:1;stroke-linecap:round;stroke-miterlimit:4;stroke-dasharray:none;stroke-opacity:1;shape-rendering:crispEdges"
         id="ellipse5707"
         cx="205"
         cy="173.36217"
         rx="1.1629921"
         ry="1.281709" />
      <ellipse
         style="opacity:1;fill:#93672e;fill-opacity:1;stroke:none;stroke-width:1;stroke-linecap:round;stroke-miterlimit:4;stroke-dasharray:none;stroke-opacity:1;shape-rendering:crispEdges"
         id="ellipse5709"
         cx="170"
         cy="171.36217"
         rx="3.5720472"
         ry="3.6849132" />
    </g>
    <g
       id="g5711"
       transform="translate(-240,64)"
       inkscape:export-xdpi="90"
       inkscape:export-ydpi="90">
      <path
         sodipodi:nodetypes="cccccccc"
         inkscape:connector-curvature="0"
         id="path5713"
         d="m 496,76.362161 48,0 0,18 c -4,-1 -7,-2 -11.87717,-2 -5.12283,0 -8.12283,1 -12.12283,2 -4,-1 -7.97063,-1 -12,-1 -5.97063,0 -9,0 -12,1 z"
         style="opacity:1;fill:url(#linearGradient5828);fill-opacity:1;fill-rule:nonzero;stroke:none;stroke-width:3;stroke-linecap:round;stroke-linejoin:round;stroke-miterlimit:4;stroke-dasharray:none;stroke-opacity:1;shape-rendering:crispEdges" />
      <path
         style="opacity:1;fill:#54321d;fill-opacity:1;stroke:none;stroke-width:6;stroke-linecap:round;stroke-miterlimit:4;stroke-dasharray:none;stroke-opacity:1"
         d="m 496,94.362161 48,0 0,21.999999 c -16,-1 -15.93063,-0.85166 -24,-1 -13,1 -13,1 -24,1 z"
         id="path5715"
         inkscape:connector-curvature="0"
         sodipodi:nodetypes="cccccc" />
      <ellipse
         ry="2.5634179"
         rx="2.492126"
         cy="101.36216"
         cx="503"
         id="ellipse5717"
         style="opacity:1;fill:#93672e;fill-opacity:1;stroke:none;stroke-width:1;stroke-linecap:round;stroke-miterlimit:4;stroke-dasharray:none;stroke-opacity:1;shape-rendering:crispEdges" />
      <ellipse
         ry="3.6849132"
         rx="3.5720472"
         cy="99.36216"
         cx="525"
         id="ellipse5719"
         style="opacity:1;fill:#93672e;fill-opacity:1;stroke:none;stroke-width:1;stroke-linecap:round;stroke-miterlimit:4;stroke-dasharray:none;stroke-opacity:1;shape-rendering:crispEdges" />
      <path
         sodipodi:nodetypes="csccccc"
         inkscape:connector-curvature="0"
         id="path5721"
         d="m 496,97.362161 c 14,-1 14.55213,-0.858898 24,0 11,1 8,1 24,0 l 0,-4 c -10.18855,-2.08319 -14,-1 -24,-1 -9,0 -14,1 -24,1 z"
         style="fill:url(#linearGradient5830);fill-opacity:1;fill-rule:evenodd;stroke:none;stroke-width:1px;stroke-linecap:butt;stroke-linejoin:miter;stroke-opacity:1;shape-rendering:crispEdges" />
      <ellipse
         ry="1.281709"
         rx="1.1629921"
         cy="109.36216"
         cx="512.16296"
         id="ellipse5723"
         style="opacity:1;fill:#93672e;fill-opacity:1;stroke:none;stroke-width:1;stroke-linecap:round;stroke-miterlimit:4;stroke-dasharray:none;stroke-opacity:1;shape-rendering:crispEdges" />
    </g>
    <g
       id="g6486"
       inkscape:export-xdpi="90"
       inkscape:export-ydpi="90">
      <path
         style="opacity:1;fill:url(#linearGradient5749);fill-opacity:1;fill-rule:nonzero;stroke:none;stroke-width:3;stroke-linecap:round;stroke-linejoin:round;stroke-miterlimit:4;stroke-dasharray:none;stroke-opacity:1;shape-rendering:crispEdges"
         d="m 304,140.36216 48.02937,0 0,18 c -4,-1 -7,-2 -11.87717,-2 -5.12283,0 -8.12283,1 -12.12283,2 -4,-1 -8,-2 -12.02937,-2 -5.97063,0 -9,1 -12,2 z"
         id="path5739"
         inkscape:connector-curvature="0"
         sodipodi:nodetypes="cccccccc" />
      <path
         sodipodi:nodetypes="cccccc"
         inkscape:connector-curvature="0"
         id="path5741"
         d="m 304,158.36216 48.02937,0 0,22 -26,-3 c -14.02937,1 -12.02937,3 -22.02937,3 z"
         style="opacity:1;fill:#54321d;fill-opacity:1;stroke:none;stroke-width:6;stroke-linecap:round;stroke-miterlimit:4;stroke-dasharray:none;stroke-opacity:1" />
      <path
         style="fill:url(#linearGradient5751);fill-opacity:1;fill-rule:evenodd;stroke:none;stroke-width:1px;stroke-linecap:butt;stroke-linejoin:miter;stroke-opacity:1;shape-rendering:crispEdges"
         d="m 304,161.36216 c 12.20553,-1.70159 20.91535,-4.01562 24.02937,2 13.66523,-7.18556 17.6471,-3.22862 24,-2 l 0,-4 c -10.18855,-2.08319 -18.9162,-2.5533 -24,1 -7.45695,-3.65199 -15.6148,-3.20012 -24.02937,-1 z"
         id="path5743"
         inkscape:connector-curvature="0"
         sodipodi:nodetypes="ccccccc" />
      <ellipse
         style="opacity:1;fill:#93672e;fill-opacity:1;stroke:none;stroke-width:1;stroke-linecap:round;stroke-miterlimit:4;stroke-dasharray:none;stroke-opacity:1;shape-rendering:crispEdges"
         id="ellipse5745"
         cx="307.86639"
         cy="167.08046"
         rx="1.1629921"
         ry="1.281709" />
      <ellipse
         style="opacity:1;fill:#93672e;fill-opacity:1;stroke:none;stroke-width:1;stroke-linecap:round;stroke-miterlimit:4;stroke-dasharray:none;stroke-opacity:1;shape-rendering:crispEdges"
         id="ellipse5747"
         cx="338.02936"
         cy="173.36217"
         rx="3.5720472"
         ry="3.6849132" />
    </g>
    <g
       id="g5878"
       transform="translate(-48.01469,9.9999988e-7)"
       inkscape:export-xdpi="90"
       inkscape:export-ydpi="90">
      <path
         style="opacity:1;fill:url(#linearGradient5868);fill-opacity:1;fill-rule:nonzero;stroke:none;stroke-width:3;stroke-linecap:round;stroke-linejoin:round;stroke-miterlimit:4;stroke-dasharray:none;stroke-opacity:1;shape-rendering:crispEdges"
         d="m 112,140.36216 -43.38968,0 c -2.84293,0 -4.84293,3 -4.84293,5 l 0,13 c 4,-1 7.20324,-2 12.08041,-2 5.12283,0 8.12283,1 12.12283,2 4,-1 8,-2 12.02937,-2 5.97063,0 9,1 12,2 z"
         id="path5856"
         inkscape:connector-curvature="0"
         sodipodi:nodetypes="ccccccccc" />
      <path
         sodipodi:nodetypes="ccccccc"
         inkscape:connector-curvature="0"
         id="path5858"
         d="m 112,158.36216 -48.23261,0 0,18.87746 c 0.37917,0.95045 0.68555,2.92938 3,3.12254 7.27787,-0.72156 14.59997,-1.13357 22,-1 13,0 8,1 23.23261,1 z"
         style="opacity:1;fill:#54321d;fill-opacity:1;stroke:none;stroke-width:6;stroke-linecap:round;stroke-miterlimit:4;stroke-dasharray:none;stroke-opacity:1" />
      <ellipse
         transform="scale(-1,1)"
         style="opacity:1;fill:#93672e;fill-opacity:1;stroke:none;stroke-width:1;stroke-linecap:round;stroke-miterlimit:4;stroke-dasharray:none;stroke-opacity:1;shape-rendering:crispEdges"
         id="ellipse5860"
         cx="-100.42796"
         cy="172.36217"
         rx="3.5720472"
         ry="3.6849132" />
      <path
         style="fill:url(#linearGradient5870);fill-opacity:1;fill-rule:evenodd;stroke:none;stroke-width:1px;stroke-linecap:butt;stroke-linejoin:miter;stroke-opacity:1;shape-rendering:crispEdges"
         d="m 112,161.36216 c -12.20553,-1.70159 -20.91535,-4.01562 -24.02937,2 -13.66523,-7.18556 -15.85034,-3.22862 -22.20324,-2 -0.97599,0.0952 -1.79231,-0.10636 -2,-1.43903 l 0,-4.56097 c 1,2 2,2 3.26679,1.38229 8.03876,-3.91985 16.40392,-1.55028 20.93645,1.61771 7.45695,-3.65199 15.6148,-3.20012 24.02937,-1 z"
         id="path5862"
         inkscape:connector-curvature="0"
         sodipodi:nodetypes="cccccsccc" />
      <ellipse
         transform="scale(-1,1)"
         style="opacity:1;fill:#93672e;fill-opacity:1;stroke:none;stroke-width:1;stroke-linecap:round;stroke-miterlimit:4;stroke-dasharray:none;stroke-opacity:1;shape-rendering:crispEdges"
         id="ellipse5864"
         cx="-73.162994"
         cy="173.64388"
         rx="1.1629921"
         ry="1.281709" />
      <ellipse
         transform="scale(-1,1)"
         ry="1.281709"
         rx="1.1629921"
         cy="164.36217"
         cx="-81.162994"
         id="ellipse5866"
         style="opacity:1;fill:#93672e;fill-opacity:1;stroke:none;stroke-width:1;stroke-linecap:round;stroke-miterlimit:4;stroke-dasharray:none;stroke-opacity:1;shape-rendering:crispEdges" />
    </g>
    <g
       id="g6334"
       transform="translate(48,0)"
       inkscape:export-xdpi="90"
       inkscape:export-ydpi="90">
      <g
         transform="translate(-288,64.000001)"
         id="g5820">
        <path
           style="opacity:1;fill:url(#linearGradient5795);fill-opacity:1;fill-rule:nonzero;stroke:none;stroke-width:3;stroke-linecap:round;stroke-linejoin:round;stroke-miterlimit:4;stroke-dasharray:none;stroke-opacity:1;shape-rendering:crispEdges"
           d="m 591.76739,76.362161 43.38968,0 c 2.84293,0 4.84293,3 4.84293,5 l 0,13 c -4,-1 -7.20324,-2 -12.08041,-2 -5.12283,0 -8.12283,1 -12.12283,2 -4,-1 -8,-2 -12.02937,-2 -5.97063,0 -9,1 -12,2 z"
           id="path5785"
           inkscape:connector-curvature="0"
           sodipodi:nodetypes="ccccccccc" />
        <path
           sodipodi:nodetypes="ccccccc"
           inkscape:connector-curvature="0"
           id="path5787"
           d="m 591.76739,94.362161 48.23261,0 0,18.877459 c -0.37917,0.95045 -0.68555,2.92938 -3,3.12254 -7.27787,-0.72156 -14.59997,-1.13357 -22,-1 -13,0 -8,1 -23.23261,1 z"
           style="opacity:1;fill:#54321d;fill-opacity:1;stroke:none;stroke-width:6;stroke-linecap:round;stroke-miterlimit:4;stroke-dasharray:none;stroke-opacity:1" />
        <ellipse
           style="opacity:1;fill:#93672e;fill-opacity:1;stroke:none;stroke-width:1;stroke-linecap:round;stroke-miterlimit:4;stroke-dasharray:none;stroke-opacity:1;shape-rendering:crispEdges"
           id="ellipse5793"
           cx="632"
           cy="97.36216"
           rx="3.5720472"
           ry="3.6849132" />
        <path
           style="fill:url(#linearGradient5797);fill-opacity:1;fill-rule:evenodd;stroke:none;stroke-width:1px;stroke-linecap:butt;stroke-linejoin:miter;stroke-opacity:1;shape-rendering:crispEdges"
           d="m 591.76739,97.362161 c 12.20553,-1.70159 20.91535,-4.01562 24.02937,2 13.66523,-7.18556 15.85034,-3.22862 22.20324,-2 0.97599,0.09519 1.79231,-0.106362 2,-1.439026 l 0,-4.560974 c -1,2 -2,2 -3.26679,1.38229 -8.03876,-3.919851 -16.40392,-1.55028 -20.93645,1.61771 -7.45695,-3.65199 -15.6148,-3.20012 -24.02937,-1 z"
           id="path5789"
           inkscape:connector-curvature="0"
           sodipodi:nodetypes="cccccsccc" />
        <ellipse
           style="opacity:1;fill:#93672e;fill-opacity:1;stroke:none;stroke-width:1;stroke-linecap:round;stroke-miterlimit:4;stroke-dasharray:none;stroke-opacity:1;shape-rendering:crispEdges"
           id="ellipse5791"
           cx="625"
           cy="110.08045"
           rx="1.1629921"
           ry="1.281709" />
        <ellipse
           ry="1.281709"
           rx="1.1629921"
           cy="101.36216"
           cx="607"
           id="ellipse5804"
           style="opacity:1;fill:#93672e;fill-opacity:1;stroke:none;stroke-width:1;stroke-linecap:round;stroke-miterlimit:4;stroke-dasharray:none;stroke-opacity:1;shape-rendering:crispEdges" />
      </g>
      <path
         style="opacity:1;fill:url(#linearGradient6296);fill-opacity:1;fill-rule:nonzero;stroke:none;stroke-width:3;stroke-linecap:round;stroke-linejoin:round;stroke-miterlimit:4;stroke-dasharray:none;stroke-opacity:1;shape-rendering:crispEdges"
         d="m 303.76739,140.36216 43.38968,0 c 2.84293,0 4.84293,3 4.84293,5 l 0,13 c -4,-1 -7.20324,-2 -12.08041,-2 -5.12283,0 -8.12283,1 -12.12283,2 -4,-1 -8,-2 -12.02937,-2 -5.97063,0 -9,1 -12,2 z"
         id="path6266"
         inkscape:connector-curvature="0"
         sodipodi:nodetypes="ccccccccc" />
      <path
         sodipodi:nodetypes="ccccccc"
         inkscape:connector-curvature="0"
         id="path6268"
         d="m 303.76739,158.36216 48.23261,0 0,18.87746 c -0.37917,0.95045 -0.68555,2.92938 -3,3.12254 -7.27787,-0.72156 -14.59997,-1.13357 -22,-1 -13,0 -8,1 -23.23261,1 z"
         style="opacity:1;fill:#54321d;fill-opacity:1;stroke:none;stroke-width:6;stroke-linecap:round;stroke-miterlimit:4;stroke-dasharray:none;stroke-opacity:1" />
      <ellipse
         style="opacity:1;fill:#93672e;fill-opacity:1;stroke:none;stroke-width:1;stroke-linecap:round;stroke-miterlimit:4;stroke-dasharray:none;stroke-opacity:1;shape-rendering:crispEdges"
         id="ellipse6270"
         cx="344"
         cy="161.36217"
         rx="3.5720472"
         ry="3.6849132" />
      <path
         style="fill:url(#linearGradient6298);fill-opacity:1;fill-rule:evenodd;stroke:none;stroke-width:1px;stroke-linecap:butt;stroke-linejoin:miter;stroke-opacity:1;shape-rendering:crispEdges"
         d="m 303.76739,161.36216 c 12.20553,-1.70159 20.91535,-4.01562 24.02937,2 13.66523,-7.18556 15.85034,-3.22862 22.20324,-2 0.97599,0.0952 1.79231,-0.10636 2,-1.43902 l 0,-4.56098 c -1,2 -2,2 -3.26679,1.38229 -8.03876,-3.91985 -16.40392,-1.55028 -20.93645,1.61771 -7.45695,-3.65199 -15.6148,-3.20012 -24.02937,-1 z"
         id="path6272"
         inkscape:connector-curvature="0"
         sodipodi:nodetypes="cccccsccc" />
      <ellipse
         style="opacity:1;fill:#93672e;fill-opacity:1;stroke:none;stroke-width:1;stroke-linecap:round;stroke-miterlimit:4;stroke-dasharray:none;stroke-opacity:1;shape-rendering:crispEdges"
         id="ellipse6274"
         cx="337"
         cy="174.08046"
         rx="1.1629921"
         ry="1.281709" />
      <ellipse
         ry="1.281709"
         rx="1.1629921"
         cy="165.36217"
         cx="319"
         id="ellipse6276"
         style="opacity:1;fill:#93672e;fill-opacity:1;stroke:none;stroke-width:1;stroke-linecap:round;stroke-miterlimit:4;stroke-dasharray:none;stroke-opacity:1;shape-rendering:crispEdges" />
    </g>
    <g
       id="g6375"
       transform="translate(-48.01469,9.9999988e-7)"
       inkscape:export-xdpi="90"
       inkscape:export-ydpi="90">
      <path
         style="opacity:1;fill:url(#linearGradient13270);fill-opacity:1;fill-rule:nonzero;stroke:none;stroke-width:3;stroke-linecap:round;stroke-linejoin:round;stroke-miterlimit:4;stroke-dasharray:none;stroke-opacity:1;shape-rendering:crispEdges"
         d="m 112,140.36216 48,0 0,18 c -4,-1 -7,-2 -11.87717,-2 -5.12283,0 -8.12283,1 -12.12283,2 -4,-1 -8,-2 -12.02937,-2 -5.97063,0 -8.97063,1 -11.97063,2 z"
         id="rect13244"
         inkscape:connector-curvature="0"
         sodipodi:nodetypes="cccccccc" />
      <path
         sodipodi:nodetypes="cccccc"
         inkscape:connector-curvature="0"
         id="rect5587"
         d="m 112,158.36216 48,0 0,22 -26,-3 c -13,0 -15.25435,1.68657 -22,3 z"
         style="opacity:1;fill:#54321d;fill-opacity:1;stroke:none;stroke-width:6;stroke-linecap:round;stroke-miterlimit:4;stroke-dasharray:none;stroke-opacity:1" />
      <path
         style="fill:url(#linearGradient13281);fill-opacity:1;fill-rule:evenodd;stroke:none;stroke-width:1px;stroke-linecap:butt;stroke-linejoin:miter;stroke-opacity:1;shape-rendering:crispEdges"
         d="m 112,161.36216 c 12.20553,-1.70159 20.88598,-4.01562 24,2 13.66523,-7.18556 17.6471,-3.22862 24,-2 l 0,-4 c -10.18855,-2.08319 -18.9162,-2.5533 -24,1 -7.45695,-3.65199 -15.58543,-3.20012 -24,-1 z"
         id="path13275"
         inkscape:connector-curvature="0"
         sodipodi:nodetypes="ccccccc" />
      <ellipse
         style="opacity:1;fill:#93672e;fill-opacity:1;stroke:none;stroke-width:1;stroke-linecap:round;stroke-miterlimit:4;stroke-dasharray:none;stroke-opacity:1;shape-rendering:crispEdges"
         id="ellipse5589"
         cx="115.83701"
         cy="167.08046"
         rx="1.1629921"
         ry="1.281709" />
      <ellipse
         style="opacity:1;fill:#93672e;fill-opacity:1;stroke:none;stroke-width:1;stroke-linecap:round;stroke-miterlimit:4;stroke-dasharray:none;stroke-opacity:1;shape-rendering:crispEdges"
         id="ellipse5591"
         cx="135"
         cy="171.36217"
         rx="3.5720472"
         ry="3.6849132" />
      <ellipse
         ry="2.5634179"
         rx="2.492126"
         cy="167.36217"
         cx="151"
         id="ellipse6355"
         style="opacity:1;fill:#93672e;fill-opacity:1;stroke:none;stroke-width:1;stroke-linecap:round;stroke-miterlimit:4;stroke-dasharray:none;stroke-opacity:1;shape-rendering:crispEdges" />
    </g>
    <g
       id="g6424"
       transform="matrix(-1,0,0,1,415.98532,9.9999988e-7)"
       inkscape:export-xdpi="90"
       inkscape:export-ydpi="90">
      <path
         sodipodi:nodetypes="cccccccc"
         inkscape:connector-curvature="0"
         id="path6405"
         d="m 207.98532,140.36216 48.02937,0 0,18 c -4,-1 -7,-2 -11.87717,-2 -5.12283,0 -8.12283,1 -12.12283,2 -4,-1 -8,-2 -12.02937,-2 -5.97063,0 -9,1 -12,2 z"
         style="opacity:1;fill:url(#linearGradient6415);fill-opacity:1;fill-rule:nonzero;stroke:none;stroke-width:3;stroke-linecap:round;stroke-linejoin:round;stroke-miterlimit:4;stroke-dasharray:none;stroke-opacity:1;shape-rendering:crispEdges" />
      <path
         style="opacity:1;fill:#54321d;fill-opacity:1;stroke:none;stroke-width:6;stroke-linecap:round;stroke-miterlimit:4;stroke-dasharray:none;stroke-opacity:1"
         d="m 207.98532,158.36216 48.02937,0 0,22 -26,-3 c -13,0 -15.28372,1.68657 -22.02937,3 z"
         id="path6407"
         inkscape:connector-curvature="0"
         sodipodi:nodetypes="cccccc" />
      <path
         sodipodi:nodetypes="ccccccc"
         inkscape:connector-curvature="0"
         id="path6409"
         d="m 207.98532,161.36216 c 12.20553,-1.70159 20.91535,-4.01562 24.02937,2 13.66523,-7.18556 17.6471,-3.22862 24,-2 l 0,-4 c -10.18855,-2.08319 -18.9162,-2.5533 -24,1 -7.45695,-3.65199 -15.6148,-3.20012 -24.02937,-1 z"
         style="fill:url(#linearGradient6417);fill-opacity:1;fill-rule:evenodd;stroke:none;stroke-width:1px;stroke-linecap:butt;stroke-linejoin:miter;stroke-opacity:1;shape-rendering:crispEdges" />
    </g>
    <g
       id="g6464"
       inkscape:export-xdpi="90"
       inkscape:export-ydpi="90">
      <path
         style="opacity:1;fill:url(#linearGradient6437);fill-opacity:1;fill-rule:nonzero;stroke:none;stroke-width:3;stroke-linecap:round;stroke-linejoin:round;stroke-miterlimit:4;stroke-dasharray:none;stroke-opacity:1;shape-rendering:crispEdges"
         d="m 256.01468,140.36216 -48.02937,0 0,18 c 4,-1 7.13752,0 12.01469,0 5.12283,0 7.8622,0 11.98531,0 4.12311,0 7.98532,0 12.01469,0 5.97063,0 9.01468,-1 12.01468,0 z"
         id="path6431"
         inkscape:connector-curvature="0"
         sodipodi:nodetypes="ccccsccc" />
      <path
         sodipodi:nodetypes="cccccc"
         inkscape:connector-curvature="0"
         id="path6433"
         d="m 256.01468,158.36216 -48.02937,0 0,22 25.01469,-1 c 13,0 7,1 23.01468,1 z"
         style="opacity:1;fill:#54321d;fill-opacity:1;stroke:none;stroke-width:6;stroke-linecap:round;stroke-miterlimit:4;stroke-dasharray:none;stroke-opacity:1" />
      <path
         style="fill:url(#linearGradient6439);fill-opacity:1;fill-rule:evenodd;stroke:none;stroke-width:1px;stroke-linecap:butt;stroke-linejoin:miter;stroke-opacity:1;shape-rendering:crispEdges"
         d="m 256,161.36216 c -13.01468,0.15031 -15.98531,0.15031 -24,0 -12,0 -16.98531,1.15031 -24,0 l 0,-4 c 11.01469,1.15031 19,0.84969 23.98531,0.84969 C 241,157.36216 245.98532,157.51247 256,157.36216 Z"
         id="path6435"
         inkscape:connector-curvature="0"
         sodipodi:nodetypes="ccccccc" />
    </g>
  </g>
</svg>
