<?xml version="1.0" encoding="UTF-8" standalone="no"?>
<!-- Created with Inkscape (http://www.inkscape.org/) -->

<svg
   xmlns:dc="http://purl.org/dc/elements/1.1/"
   xmlns:cc="http://creativecommons.org/ns#"
   xmlns:rdf="http://www.w3.org/1999/02/22-rdf-syntax-ns#"
   xmlns:svg="http://www.w3.org/2000/svg"
   xmlns="http://www.w3.org/2000/svg"
   xmlns:xlink="http://www.w3.org/1999/xlink"
   xmlns:sodipodi="http://sodipodi.sourceforge.net/DTD/sodipodi-0.dtd"
   xmlns:inkscape="http://www.inkscape.org/namespaces/inkscape"
   width="512"
   height="512"
   viewBox="0 0 135.46667 135.46667"
   version="1.1"
   id="svg9232"
   inkscape:version="0.92.4 (5da689c313, 2019-01-14)"
   sodipodi:docname="Bushes.svg">
  <defs
     id="defs9226">
    <linearGradient
       inkscape:collect="always"
       id="linearGradient13772">
      <stop
         style="stop-color:#4d4d4d;stop-opacity:1;"
         offset="0"
         id="stop13768" />
      <stop
         style="stop-color:#4d4d4d;stop-opacity:0;"
         offset="1"
         id="stop13770" />
    </linearGradient>
    <linearGradient
       inkscape:collect="always"
       id="linearGradient11065">
      <stop
         style="stop-color:#445016;stop-opacity:1"
         offset="0"
         id="stop11061" />
      <stop
         style="stop-color:#666666;stop-opacity:0;"
         offset="1"
         id="stop11063" />
    </linearGradient>
    <clipPath
       clipPathUnits="userSpaceOnUse"
       id="clipPath10181">
      <rect
         y="199.63332"
         x="-55.033333"
         height="127"
         width="55.033333"
         id="rect10183"
         style="opacity:0.51399997;fill:#666666;fill-opacity:1;stroke:none;stroke-width:0.26458335;stroke-linecap:butt;stroke-linejoin:round;stroke-miterlimit:4;stroke-dasharray:none;stroke-dashoffset:0;stroke-opacity:1;paint-order:markers stroke fill" />
    </clipPath>
    <clipPath
       clipPathUnits="userSpaceOnUse"
       id="clipPath10219">
      <rect
         style="opacity:0.51399997;fill:#666666;fill-opacity:1;stroke:none;stroke-width:0.32817525;stroke-linecap:butt;stroke-linejoin:round;stroke-miterlimit:4;stroke-dasharray:none;stroke-dashoffset:0;stroke-opacity:1;paint-order:markers stroke fill"
         id="rect10221"
         width="84.666672"
         height="127"
         x="-84.666672"
         y="205.98332"
         transform="scale(-1,1)" />
    </clipPath>
    <clipPath
       clipPathUnits="userSpaceOnUse"
       id="clipPath10271">
      <rect
         style="opacity:0.51399997;fill:#666666;fill-opacity:1;stroke:none;stroke-width:0.26458335;stroke-linecap:butt;stroke-linejoin:round;stroke-miterlimit:4;stroke-dasharray:none;stroke-dashoffset:0;stroke-opacity:1;paint-order:markers stroke fill"
         id="rect10273"
         width="33.866673"
         height="55.033348"
         x="181.44403"
         y="0.33956069" />
    </clipPath>
    <clipPath
       clipPathUnits="userSpaceOnUse"
       id="clipPath10280">
      <rect
         style="opacity:0.51399997;fill:#666666;fill-opacity:1;stroke:none;stroke-width:0.26458335;stroke-linecap:butt;stroke-linejoin:round;stroke-miterlimit:4;stroke-dasharray:none;stroke-dashoffset:0;stroke-opacity:1;paint-order:markers stroke fill"
         id="rect10282"
         width="82.550003"
         height="67.73333"
         x="98.894035"
         y="-1.77709" />
    </clipPath>
    <clipPath
       clipPathUnits="userSpaceOnUse"
       id="clipPath10399">
      <rect
         style="opacity:0.51399997;fill:#666666;fill-opacity:1;stroke:none;stroke-width:0.23966531;stroke-linecap:butt;stroke-linejoin:round;stroke-miterlimit:4;stroke-dasharray:none;stroke-dashoffset:0;stroke-opacity:1;paint-order:markers stroke fill"
         id="rect10401"
         width="135.46667"
         height="84.666672"
         x="-7.1054274e-15"
         y="212.33331" />
    </clipPath>
    <linearGradient
       inkscape:collect="always"
       xlink:href="#linearGradient11065"
       id="linearGradient11067"
       x1="65.616669"
       y1="301.23334"
       x2="67.733337"
       y2="244.08333"
       gradientUnits="userSpaceOnUse"
       gradientTransform="matrix(0.88888886,0,0,1.1111112,7.5259262,-37.703722)" />
    <linearGradient
       inkscape:collect="always"
       xlink:href="#linearGradient13772"
       id="linearGradient13774"
       x1="67.733337"
       y1="271.59998"
       x2="67.733337"
       y2="216.56665"
       gradientUnits="userSpaceOnUse" />
  </defs>
  <sodipodi:namedview
     id="base"
     pagecolor="#ffffff"
     bordercolor="#666666"
     borderopacity="1.0"
     inkscape:pageopacity="0.0"
     inkscape:pageshadow="2"
     inkscape:zoom="1.979899"
     inkscape:cx="251.55784"
     inkscape:cy="237.78828"
     inkscape:document-units="px"
     inkscape:current-layer="layer1"
     showgrid="true"
     units="px"
     objecttolerance="2"
     guidetolerance="2"
     inkscape:snap-perpendicular="true"
     inkscape:window-width="1920"
     inkscape:window-height="1027"
     inkscape:window-x="-8"
     inkscape:window-y="-8"
     inkscape:window-maximized="1"
     inkscape:object-nodes="false">
    <inkscape:grid
       type="xygrid"
       id="grid9777"
       empspacing="8" />
  </sodipodi:namedview>
  <metadata
     id="metadata9229">
    <rdf:RDF>
      <cc:Work
         rdf:about="">
        <dc:format>image/svg+xml</dc:format>
        <dc:type
           rdf:resource="http://purl.org/dc/dcmitype/StillImage" />
        <dc:title />
      </cc:Work>
    </rdf:RDF>
  </metadata>
  <g
     inkscape:label="Layer 1"
     inkscape:groupmode="layer"
     id="layer1"
     transform="translate(0,-161.53332)">
    <path
       style="fill:url(#linearGradient13774);fill-rule:evenodd;stroke:none;stroke-width:0.26458335px;stroke-linecap:butt;stroke-linejoin:miter;stroke-opacity:1;fill-opacity:1"
       d="m 0.26726953,218.68332 c 10.41136247,-1.32245 7.71421157,2.21491 11.05105547,3.43152 1.381675,-3.43152 2.892376,-2.23761 5.147287,-3.43152 4.778446,-0.46969 8.511059,-0.18829 10.91742,5.05663 2.250302,-0.8233 8.600302,-5.05663 15.150754,3.43153 1.916215,-0.0215 8.13258,-4.45528 14.48258,4.01139 1.837912,2.80435 3.147426,2.79987 4.366969,2.31712 8.466667,-6.35 16.153015,-3.29789 18.269682,-1.18123 1.556813,-1.51516 3.154037,-2.37048 5.347739,-1.1144 0,0 3.899246,-4.05437 10.249246,2.29563 3.152802,-1.45193 4.238698,-1.18144 5.302408,-0.89246 1.04759,-3.34087 3.16426,-7.57421 11.83138,-5.83696 8.26621,-8.08725 14.30362,-3.65346 16.42028,-3.65347 1.099,-1.35293 2.26631,-2.71347 6.6626,-4.43378 v 19.05 L 0,239.84999 Z"
       id="path13766"
       inkscape:connector-curvature="0"
       sodipodi:nodetypes="ccccccccccccccccc" />
    <g
       id="g10391"
       clip-path="url(#clipPath10399)">
      <g
         transform="translate(-70.378828,167.68405)"
         id="g8319">
        <path
           inkscape:connector-curvature="0"
           id="path3708"
           d="m 140.69837,63.651234 c -2.69268,-0.02307 -5.03963,1.024541 -7.77424,4.999028 -7.61736,-3.251411 -12.65176,-2.264885 -16.39564,3.104469 -0.10604,0.151061 -0.21075,0.304417 -0.31294,0.460862 -1.58861,-1.413393 -4.4885,-1.622851 -6.75049,-0.796545 -0.96191,0.217257 -1.77637,0.710728 -2.33384,1.630521 -0.96729,1.121607 -1.48438,2.568294 -1.496,3.974268 -5.785734,0.405725 -7.852644,8.367539 -2.63947,10.981364 -2.998444,4.101359 -3.282044,8.350398 2.01983,12.903289 -0.47855,3.09745 3.97212,7.00718 8.24859,1.58866 6.33727,7.73331 19.64564,7.25205 22.23073,4.35343 0.75279,0.73373 3.04854,7.65033 15.40525,-0.0582 8.31332,8.26273 14.55068,0.66248 14.22689,-0.35542 -0.0407,-0.0395 -0.0698,-0.0736 -0.0714,-0.0954 0.0368,0.0178 0.0578,0.0528 0.0714,0.0954 0.98876,0.95788 13.20904,6.70002 22.88004,-2.81187 10.28214,3.73516 13.58736,-3.22607 10.6496,-8.828787 2.60687,-2.958336 1.69451,-5.562569 -0.16767,-7.905066 -0.0177,-0.390706 -0.0614,-0.801481 -0.12913,-1.23889 1.56516,-0.377548 0.83641,-8.610639 -4.50729,-8.4742 -0.012,-0.0205 -0.0259,-0.04032 -0.038,-0.06078 2.09807,-4.071314 -4.40044,-9.274084 -12.5767,-5.23811 -2.96748,-4.000994 -5.97916,-5.928089 -11.13125,-4.779667 -2.13273,0.213442 -3.89119,0.912643 -4.13238,1.380969 -0.40563,-0.75019 -1.32019,-1.761058 -2.57699,-2.619861 -3.04979,-2.441208 -6.09859,-2.7114 -8.10073,-1.354004 -2.92826,-0.581185 -4.54525,1.444237 -4.85874,3.781874 -0.0229,0.02713 -0.0459,0.05266 -0.0688,0.08011 -1.00132,-2.30676 -2.67955,-3.702828 -4.71348,-4.278155 -0.87457,-0.365701 -1.89328,-0.497594 -3.01804,-0.276516 -0.005,4e-4 -0.0108,3.99e-4 -0.0162,8.04e-4 -0.66531,-0.09613 -1.30325,-0.158105 -1.92298,-0.163415 z m 37.93487,10.056825 c 0.0819,0.03959 0.16233,0.0816 0.24161,0.12598 -0.0776,0.08168 -0.15498,0.16363 -0.23171,0.249148 -9.4e-4,-0.127606 -0.005,-0.251788 -0.0101,-0.375128 z"
           style="fill:#677821;fill-opacity:1;fill-rule:evenodd;stroke:#677821;stroke-width:0.91920143;stroke-linecap:butt;stroke-linejoin:miter;stroke-miterlimit:4;stroke-dasharray:none;stroke-opacity:1"
           sodipodi:nodetypes="cccccccccccccccccccccccccccccccccccccc" />
        <path
           style="fill:#88aa00;fill-opacity:1;fill-rule:evenodd;stroke:none;stroke-width:0.17053521px;stroke-linecap:butt;stroke-linejoin:miter;stroke-opacity:1"
           d="m 106.67396,76.940008 c -0.73101,-4.540856 4.05512,-7.470692 9.8047,-4.599564 3.03157,-4.485846 7.74364,-6.71876 16.58182,-3.420036 4.68906,-5.176985 13.22753,-6.373228 17.31258,-0.270124 6.74746,-7.829897 14.09982,-2.371656 15.48661,0.107265 0.65294,-1.225498 12.50097,-4.115359 12.57303,5.374343 13.55791,-4.840009 17.23584,4.823868 16.21738,8.794376 3.27992,3.094316 7.65315,6.677211 3.64435,11.074397 2.91549,5.374354 -0.36443,12.051555 -10.56862,8.468665 -9.9936,9.50052 -22.73782,3.13397 -22.77722,2.60574 0.90961,0.42848 -5.45359,8.68952 -14.04833,0.43268 -12.26305,7.39448 -14.54164,0.75977 -15.28873,0.0559 -2.5655,2.78047 -15.77272,3.24203 -22.06195,-4.17607 -4.24405,5.19765 -8.66111,1.4472 -8.1862,-1.523993 -5.26169,-4.36731 -4.9801,-8.443134 -2.00439,-12.37732 -3.624104,-3.213233 -2.68151,-9.551255 3.31497,-10.546309 z"
           id="path3710"
           inkscape:connector-curvature="0"
           sodipodi:nodetypes="cccccccccccccccc" />
        <path
           style="fill:#aad400;fill-opacity:1;fill-rule:evenodd;stroke:none;stroke-width:0.17053521px;stroke-linecap:butt;stroke-linejoin:miter;stroke-opacity:1"
           d="m 103.56241,87.20617 c 1.11061,10.32513 11.79018,9.35347 14.46819,3.894615 2.4774,6.935704 13.31672,5.798537 15.84823,0.115154 5.14466,8.464772 9.75269,4.69932 14.43091,2.53349 2.56244,3.8168 3.74497,9.209501 14.68861,3.454756 4.02374,1.69362 6.95722,5.892895 14.16248,0.274625 5.92379,1.353125 11.50793,2.003254 12.89547,-6.032557 7.74542,-0.949662 8.72998,-2.859416 8.14724,-6.496963 1.55981,-0.363674 0.82439,-8.327345 -4.53951,-8.128174 1.16763,-3.613969 -8.60113,-9.891621 -15.0279,-2.969373 -2.45725,-2.877034 -1.88382,-9.650332 -12.57303,-5.374341 -4.04747,-2.643607 -8.16285,-6.039157 -15.48661,-0.107265 -2.80144,-6.237947 -10.92895,-5.567112 -17.31259,0.270124 -5.52175,-2.267941 -9.8637,-2.010676 -16.58181,3.420036 -4.33466,-1.024241 -9.96859,-2.615014 -9.8047,4.599563 -6.26539,-0.20996 -8.692704,7.940124 -3.31498,10.54631 z"
           id="path3712"
           inkscape:connector-curvature="0"
           sodipodi:nodetypes="cccccccccccccccc" />
        <path
           style="fill:#ccff00;fill-opacity:1;fill-rule:evenodd;stroke:none;stroke-width:0.17053521px;stroke-linecap:butt;stroke-linejoin:miter;stroke-opacity:1"
           d="m 106.77509,79.10114 c -2.17875,-3.913752 1.75204,-10.931714 9.907,-7.040843 3.74685,-5.537774 8.81005,-6.626434 16.58181,-3.420036 3.34011,-4.692289 6.09736,-5.131848 9.62896,-4.637828 4.79629,-0.920109 7.68363,4.367704 5.41688,7.175911 3.27307,2.276212 -1.01817,4.665208 -5.1798,2.93824 -0.591,-3.24265 -4.43002,-3.985445 -8.09148,-0.519909 -3.40694,-4.103929 -6.29518,-3.340174 -9.01932,-1.036427 -1.32252,-2.064295 -4.17436,-2.857713 -8.89963,2.072854 -5.10183,-2.688959 -9.18429,2.459762 -10.34442,4.468038 z"
           id="path3714"
           inkscape:connector-curvature="0"
           sodipodi:nodetypes="cccccccccc" />
        <path
           sodipodi:nodetypes="cccccccccc"
           inkscape:connector-curvature="0"
           id="path3716"
           d="m 193.66403,76.821116 c 2.17876,-3.913749 -4.29803,-8.974604 -12.45299,-5.083733 -3.65574,-4.764194 -7.37618,-6.466378 -15.14794,-3.259981 -3.77994,-4.582426 -8.04505,-5.484231 -10.59679,-3.812049 -4.79629,-0.920109 -6.05416,4.969743 -3.78742,7.777951 -3.27306,2.276212 2.65814,6.945231 6.81976,5.218263 0.591,-3.24265 3.88337,-8.301203 7.54483,-4.835667 4.9111,-4.256698 8.38986,-1.348771 7.47047,1.325025 1.32252,-2.064296 7.68205,-1.554841 7.30523,3.172151 5.10182,-2.688959 11.68472,-2.510234 12.84485,-0.50196 z"
           style="fill:#ccff00;fill-opacity:1;fill-rule:evenodd;stroke:none;stroke-width:0.17053521px;stroke-linecap:butt;stroke-linejoin:miter;stroke-opacity:1" />
        <path
           sodipodi:nodetypes="ccc"
           inkscape:connector-curvature="0"
           id="path3718"
           d="m 148.30974,93.749429 c 4.65701,3.300555 8.36724,0.866321 11.93418,-2.435818 -3.53945,1.342547 -6.11756,3.848065 -11.93418,2.435818 z"
           style="fill:#88aa00;fill-opacity:1;fill-rule:evenodd;stroke:none;stroke-width:0.24017689px;stroke-linecap:butt;stroke-linejoin:miter;stroke-opacity:1" />
        <path
           style="fill:#88aa00;fill-opacity:1;fill-rule:evenodd;stroke:none;stroke-width:0.36225557px;stroke-linecap:butt;stroke-linejoin:miter;stroke-opacity:1"
           d="m 126.31311,89.715938 c -7.02411,4.978186 -12.6202,1.306663 -18.00017,-3.673912 5.33851,2.024944 9.22703,5.803992 18.00017,3.673912 z"
           id="path3720"
           inkscape:connector-curvature="0"
           sodipodi:nodetypes="ccc" />
        <path
           sodipodi:nodetypes="ccc"
           inkscape:connector-curvature="0"
           id="path3722"
           d="m 185.37248,88.265804 c -0.40083,7.984194 -4.0597,9.117042 -8.21165,9.213005 2.84439,-2.092147 5.92368,-2.038844 8.21165,-9.213005 z"
           style="fill:#88aa00;fill-opacity:1;fill-rule:evenodd;stroke:none;stroke-width:0.2652328px;stroke-linecap:butt;stroke-linejoin:miter;stroke-opacity:1" />
        <path
           style="fill:#88aa00;fill-opacity:1;fill-rule:evenodd;stroke:none;stroke-width:0.17053521px;stroke-linecap:butt;stroke-linejoin:miter;stroke-opacity:1"
           d="m 150.04579,84.735343 c -1.27802,4.438766 -4.7332,5.453188 -7.8261,2.300989 2.53635,1.180305 5.14173,1.643332 7.8261,-2.300989 z"
           id="path3724"
           inkscape:connector-curvature="0"
           sodipodi:nodetypes="ccc" />
        <path
           sodipodi:nodetypes="ccc"
           inkscape:connector-curvature="0"
           id="path3726"
           d="m 175.73536,88.781272 c -1.27803,4.438766 -4.73321,5.453192 -7.82611,2.300984 2.53636,1.180308 5.14173,1.643336 7.82611,-2.300984 z"
           style="fill:#88aa00;fill-opacity:1;fill-rule:evenodd;stroke:none;stroke-width:0.17053521px;stroke-linecap:butt;stroke-linejoin:miter;stroke-opacity:1" />
        <path
           style="fill:#88aa00;fill-opacity:1;fill-rule:evenodd;stroke:none;stroke-width:0.17053521px;stroke-linecap:butt;stroke-linejoin:miter;stroke-opacity:1"
           d="m 188.77679,84.863482 c 1.27803,4.438766 4.7332,5.453188 7.8261,2.300984 -2.53635,1.180308 -5.14172,1.643337 -7.8261,-2.300984 z"
           id="path3728"
           inkscape:connector-curvature="0"
           sodipodi:nodetypes="ccc" />
        <path
           sodipodi:nodetypes="ccc"
           inkscape:connector-curvature="0"
           id="path3730"
           d="m 158.49865,77.661567 c 1.27803,4.438767 4.73321,5.453188 7.82611,2.300987 -2.53636,1.180306 -5.14173,1.643335 -7.82611,-2.300987 z"
           style="fill:#88aa00;fill-opacity:1;fill-rule:evenodd;stroke:none;stroke-width:0.17053521px;stroke-linecap:butt;stroke-linejoin:miter;stroke-opacity:1" />
        <path
           style="fill:#88aa00;fill-opacity:1;fill-rule:evenodd;stroke:none;stroke-width:0.17053521px;stroke-linecap:butt;stroke-linejoin:miter;stroke-opacity:1"
           d="m 125.37427,81.280585 c 1.27803,4.438768 4.7332,5.453191 7.8261,2.300989 -2.53635,1.180307 -5.14173,1.643334 -7.8261,-2.300989 z"
           id="path3732"
           inkscape:connector-curvature="0"
           sodipodi:nodetypes="ccc" />
        <path
           sodipodi:nodetypes="ccc"
           inkscape:connector-curvature="0"
           id="path3734"
           d="m 120.52698,78.898142 c -1.27803,-4.438768 -4.73321,-5.45319 -7.82611,-2.300987 2.53636,-1.180307 5.14173,-1.643335 7.82611,2.300987 z"
           style="fill:#ccff00;fill-opacity:1;fill-rule:evenodd;stroke:none;stroke-width:0.17053521px;stroke-linecap:butt;stroke-linejoin:miter;stroke-opacity:1" />
        <path
           style="fill:#ccff00;fill-opacity:1;fill-rule:evenodd;stroke:none;stroke-width:0.24784133px;stroke-linecap:butt;stroke-linejoin:miter;stroke-opacity:1"
           d="m 154.96613,79.142429 c -2.02194,-5.925873 -7.48832,-7.280153 -12.38154,-3.071878 4.01272,-1.575743 8.13464,-2.193896 12.38154,3.071878 z"
           id="path3736"
           inkscape:connector-curvature="0"
           sodipodi:nodetypes="ccc" />
        <path
           style="fill:#ccff00;fill-opacity:1;fill-rule:evenodd;stroke:none;stroke-width:0.17053521px;stroke-linecap:butt;stroke-linejoin:miter;stroke-opacity:1"
           d="m 176.93264,81.259594 c 1.27803,-4.438766 4.73319,-5.453188 7.8261,-2.300986 -2.53636,-1.180307 -5.14173,-1.643335 -7.8261,2.300986 z"
           id="path3738"
           inkscape:connector-curvature="0"
           sodipodi:nodetypes="ccc" />
        <path
           style="fill:#aad400;fill-opacity:1;fill-rule:evenodd;stroke:none;stroke-width:0.17053521px;stroke-linecap:butt;stroke-linejoin:miter;stroke-opacity:1"
           d="m 165.80936,74.711222 c -1.27802,-4.438767 -4.7332,-5.453189 -7.82609,-2.300987 2.53635,-1.180307 5.14173,-1.643335 7.82609,2.300987 z"
           id="path3740"
           inkscape:connector-curvature="0"
           sodipodi:nodetypes="ccc" />
        <path
           sodipodi:nodetypes="ccc"
           inkscape:connector-curvature="0"
           id="path3742"
           d="m 149.70344,73.099001 c -1.27803,-4.438766 -4.7332,-5.45319 -7.8261,-2.300987 2.53635,-1.180308 5.14173,-1.643335 7.8261,2.300987 z"
           style="fill:#aad400;fill-opacity:1;fill-rule:evenodd;stroke:none;stroke-width:0.17053521px;stroke-linecap:butt;stroke-linejoin:miter;stroke-opacity:1" />
        <path
           style="fill:#aad400;fill-opacity:1;fill-rule:evenodd;stroke:none;stroke-width:0.17053521px;stroke-linecap:butt;stroke-linejoin:miter;stroke-opacity:1"
           d="m 158.47775,67.250263 c -4.37423,-2.392308 -7.64519,-0.971457 -7.4114,3.215918 0.90212,-2.425246 2.41237,-4.378381 7.4114,-3.215918 z"
           id="path3744"
           inkscape:connector-curvature="0"
           sodipodi:nodetypes="ccc" />
      </g>
      <g
         clip-path="url(#clipPath10219)"
         id="g10143">
        <use
           x="0"
           y="0"
           xlink:href="#g8319"
           id="use10126"
           transform="translate(-68.600062,-10.860699)"
           width="100%"
           height="100%" />
        <g
           id="g4144"
           transform="translate(-21.139221,249.13342)">
          <path
             inkscape:connector-curvature="0"
             id="path2997"
             d="M 65.216168,0.18971073 C 61.947255,0.16867793 59.451025,1.1299812 58.501654,2.4912892 49.912262,-2.4417776 45.393137,2.0467177 46.107548,6.4611951 45.769278,5.6139862 44.94591,4.8944001 43.923793,4.3022764 42.790063,3.5501179 41.362996,3.0278764 39.840059,2.7294014 39.250928,2.5821961 38.699803,2.4719854 38.232501,2.4019981 33.648983,1.9020322 30.194372,2.992624 29.084023,5.574945 28.872639,5.9962215 28.748044,6.4589014 28.730066,6.9641038 28.070948,6.1894306 27.002471,5.630736 25.762111,5.3045021 22.167281,4.0340407 16.894752,3.8616015 16.410717,8.6083087 16.207266,9.3935942 16.239808,10.310404 16.588714,11.366613 12.722075,6.9336334 5.6335835,15.904299 8.2412148,18.640838 c -2.7168149,0 -4.7828177,8.269888 -3.2181654,14.034761 -0.837055,1.806293 -0.4982136,4.108118 4.3939554,5.226153 0.2604048,0.07378 0.5317901,0.1315 0.8162382,0.169347 -0.5549544,0.115067 -1.3872325,6.976218 4.929469,6.772853 8.62e-4,1.71e-4 0.0017,3.44e-4 0.0026,5.15e-4 6.5e-5,8.5e-5 4.45e-4,-8.6e-5 5.08e-4,0 2.903307,3.868535 5.757123,3.725267 9.519728,1.559531 4.915688,2.729805 6.926022,4.831854 11.215267,2.594601 0.871593,-0.08761 1.686373,-0.251302 2.454308,-0.465961 6.763896,3.207595 9.084242,-2.389496 10.083212,-2.565863 0.118254,0.09658 0.236282,0.19264 0.353449,0.284809 3.806651,3.301535 6.745622,5.243621 11.504126,3.582973 4.606196,2.036389 11.96991,2.380544 12.620416,-0.633253 1.746942,1.034123 3.728696,1.858289 5.771136,2.320052 2.215015,0.537126 4.397471,0.609163 6.491254,0.06004 1.620956,-0.394771 3.158744,-1.142666 4.517027,-2.331345 0.0029,-0.0023 0.0058,-0.0043 0.0087,-0.0067 2.968999,1.012725 5.056624,1.412123 6.709936,-2.962546 7.064361,0.553558 8.064351,-8.973651 7.743321,-9.600436 0.10508,-1.838576 -0.12753,-3.400095 -0.4933,-4.065356 1.60912,-1.681748 3.55221,-7.145934 1.34006,-11.12969 0.023,-0.03004 0.0445,-0.05518 0.0676,-0.0857 0.0615,-2.681543 -2.32499,-5.41056 -5.960823,-3.9073 C 98.463127,10.975419 89.915682,2.8544231 82.608906,8.0078983 82.386122,8.0805707 82.16153,8.1567745 81.932524,8.2403641 76.306707,2.3145305 69.95107,0.22017073 65.216168,0.18971073 Z M 46.269779,7.1627018 c 0.01147,0.039435 0.0231,0.078611 0.03458,0.1180301 -0.0038,0.010846 -0.02644,0.066199 -0.02644,0.066199 -1.81e-4,-6.831e-4 -3.29e-4,-0.00137 -5.09e-4,-0.00206 6.73e-4,-0.061477 -0.0034,-0.1217768 -0.0077,-0.1821766 z"
             style="fill:#9fc702;fill-opacity:1;fill-rule:evenodd;stroke:#445016;stroke-width:1.0630728;stroke-linecap:butt;stroke-linejoin:miter;stroke-miterlimit:4;stroke-dasharray:none;stroke-opacity:1" />
          <g
             transform="translate(-2.3207184,1.4211363)"
             id="g995">
            <path
               style="fill:#aad400;fill-rule:evenodd;stroke:none;stroke-width:0.26458332px;stroke-linecap:butt;stroke-linejoin:miter;stroke-opacity:1"
               d="m 10.77884,16.982187 c -2.597746,-2.701656 4.463494,-11.5580224 8.315475,-7.1815464 -2.29869,-6.896076 9.108907,-7.825064 12.09524,-4.346726 0.217027,-6.0436855 15.784841,-6.0167305 17.481396,0.377977 0,0 2.267857,-6.7090785 10.772322,-4.9136915 8.432033,1.5861395 15.246305,-2.425179 23.623516,6.2366075 12.24189,-5.162094 16.02282,4.7616354 18.237351,8.6934524 9.88083,2.28066 6.85801,12.524749 4.53571,14.930059 1.31061,2.362351 0.92282,16.158482 -10.772321,13.040177 -6.37438,8.836331 -14.90076,6.823937 -22.867558,1.511907 C 65.223672,45.66692 59.041598,52.09807 48.85994,42.212101 44.496919,44.759165 37.883408,51.687482 23.252055,42.117601 12.284269,45.993411 13.686794,35.373762 12.763216,36.164479 4.163491,35.030552 6.754759,16.982187 10.77884,16.982187 Z"
               id="path817"
               inkscape:connector-curvature="0"
               sodipodi:nodetypes="cccccccccccccc" />
            <path
               style="fill:#88aa00;fill-rule:evenodd;stroke:none;stroke-width:0.26458332px;stroke-linecap:butt;stroke-linejoin:miter;stroke-opacity:1"
               d="m 106.30098,34.757782 c -3.28003,1.313036 -2.27472,2.044911 -2.60198,0.405177 -2.91059,4.559851 -6.154811,0.778789 -9.414681,-3.393401 -2.87424,-0.638464 -4.57579,4.293313 -8.72993,-2.424661 -2.9558,4.573148 -4.29504,-1.091957 -6.29734,-2.557673 -0.72581,4.992695 -4.068484,6.496235 -10.13963,4.361813 -3.369447,7.084143 -7.07123,4.198206 -10.790085,0.80012 -4.772624,3.456488 -7.577373,0.615776 -10.639621,-1.400939 -1.729605,2.988195 -3.576999,5.872459 -11.23088,3.633352 -4.107437,5.279299 -3.900748,4.348118 -11.893801,1.14971 -3.696638,4.350866 -5.631305,3.636064 -6.480808,-0.198583 -3.6308,2.236775 -6.793877,-2.001953 -10.424677,-4.476485 -0.988999,1.900356 -0.728038,4.448807 5.105889,5.508193 -0.552927,0.110585 -1.38391,6.889691 4.913144,6.686904 2.89245,3.819817 5.735497,3.678183 9.484028,1.539945 5.45163,3.000212 7.314344,5.235977 12.717834,1.643787 8.442112,4.675988 10.483791,-3.706782 11.296878,-1.794008 3.792219,3.259451 6.719968,5.176385 11.460433,3.536901 4.588733,2.01043 11.924796,2.350297 12.572837,-0.625087 5.015379,2.942229 11.973139,4.169611 16.723619,0.04161 2.95799,0.999931 5.0381,1.394143 6.68523,-2.924988 7.239921,0.562212 8.086391,-9.410974 7.683541,-9.511686 z"
               id="path837"
               inkscape:connector-curvature="0"
               sodipodi:nodetypes="ccccccccccccccccccccccc" />
            <path
               inkscape:connector-curvature="0"
               style="fill:#ccff00;fill-rule:evenodd;stroke:none;stroke-width:0.156738px;stroke-linecap:butt;stroke-linejoin:miter;stroke-opacity:1"
               d="m 67.537353,-1.2337942 c -3.25652,-0.020762 -5.743225,0.92825565 -6.688997,2.2722128 C 52.291525,-3.8317702 47.789602,0.59935099 48.501305,4.9575591 47.577152,2.6637968 43.039752,1.3038139 40.656306,0.9500517 35.341174,0.37549339 31.546403,1.9265777 31.1897,5.4541696 28.935193,3.0911076 17.157496,0.00993845 19.094315,9.8006742 c -3.259521,-2.167328 -6.12059,0.00656 -6.580994,2.6143108 4.448868,9.069582 7.359115,0.533631 7.692554,2.526461 8.800806,-0.303069 5.785694,-5.3758996 5.785694,-5.3758996 2.209196,3.2488176 5.866791,-3.943046 7.854817,-0.7735962 0,0 3.901012,-6.1707905 8.695076,-2.2484415 1.387364,-2.5198139 6.348979,1.4653378 10.485149,5.9185013 0.172607,-0.200301 -0.440997,-6.2082169 -3.044258,-6.7773637 1.270095,-5.77689999 8.560395,-5.16628585 12.097969,-1.0588501 -1.364961,0.3481541 -2.783589,1.2828024 -4.15427,2.8458213 3.720219,-1.9370191 7.541553,-2.6970722 11.478887,3.7759965 -1.233057,-4.7916322 -3.847725,-7.1510741 -6.784081,-6.7329218 1.567132,-4.64367932 12.311745,-2.1751473 12.649356,0.5999633 6.535497,-2.927546 6.242711,4.1934397 7.210412,4.2627888 -0.0677,0.6932717 0.01455,1.3077217 0.212907,1.8520837 -1.824836,-0.162634 -3.834715,0.798085 -5.750555,2.982763 3.720225,-1.937019 7.541557,-2.697072 11.478887,3.775998 -0.35383,-1.374976 -0.821367,-2.549203 -1.377693,-3.515549 3.030659,0.829676 6.582463,0.567335 7.379393,-0.0026 0.09693,-0.132485 0.164333,-0.208773 0.164333,-0.208773 -0.01326,0.07297 -0.07211,0.142825 -0.164333,0.208773 -0.651068,0.889925 -2.678898,4.435233 4.780071,6.200139 0.71878,-1.888361 1.893424,7.052945 8.038784,-0.964798 0.0613,-2.647363 -2.31609,-5.341221 -5.93814,-3.857121 C 100.64322,9.260081 91.730128,1.0085632 84.342528,6.8711374 78.700899,0.89894161 72.296882,-1.2034494 67.537353,-1.2337942 Z m -18.8743,6.8838174 c 0.01643,0.055989 0.03088,0.1121706 0.04909,0.1679485 -0.01402,0.0055 -0.02724,0.00819 -0.04134,0.013952 7.94e-4,-0.061401 -0.0036,-0.1216015 -0.0078,-0.1819011 z"
               id="path855" />
            <path
               style="fill:#88aa00;fill-opacity:1;fill-rule:evenodd;stroke:none;stroke-width:0.26458332px;stroke-linecap:butt;stroke-linejoin:miter;stroke-opacity:1"
               d="m 42.49882,29.317488 c 4.566439,4.084882 8.204511,1.072188 11.702084,-3.014648 -3.470618,1.661575 -5.998584,4.762501 -11.702084,3.014648 z"
               id="path857"
               inkscape:connector-curvature="0"
               sodipodi:nodetypes="ccc" />
            <path
               sodipodi:nodetypes="ccc"
               inkscape:connector-curvature="0"
               id="path859"
               d="m 75.907506,26.243889 c 4.566443,4.084881 8.204523,1.072187 11.702093,-3.014649 -3.47062,1.661575 -5.99859,4.762502 -11.702093,3.014649 z"
               style="fill:#88aa00;fill-opacity:1;fill-rule:evenodd;stroke:none;stroke-width:0.26458332px;stroke-linecap:butt;stroke-linejoin:miter;stroke-opacity:1" />
            <path
               style="fill:#88aa00;fill-opacity:1;fill-rule:evenodd;stroke:none;stroke-width:0.26458332px;stroke-linecap:butt;stroke-linejoin:miter;stroke-opacity:1"
               d="m 36.456833,34.18157 c -4.56644,4.084881 -8.20452,1.072188 -11.70209,-3.014649 3.47062,1.661576 5.99859,4.762502 11.70209,3.014649 z"
               id="path861"
               inkscape:connector-curvature="0"
               sodipodi:nodetypes="ccc" />
            <path
               sodipodi:nodetypes="ccc"
               inkscape:connector-curvature="0"
               id="path863"
               d="m 22.48093,19.996836 c -5.508874,5.121558 -10.673994,3.78861 -11.70209,-3.014649 2.086971,3.638217 4.894351,6.339986 11.70209,3.014649 z"
               style="fill:#88aa00;fill-opacity:1;fill-rule:evenodd;stroke:none;stroke-width:0.26458332px;stroke-linecap:butt;stroke-linejoin:miter;stroke-opacity:1" />
            <path
               style="fill:#88aa00;fill-opacity:1;fill-rule:evenodd;stroke:none;stroke-width:0.26458332px;stroke-linecap:butt;stroke-linejoin:miter;stroke-opacity:1"
               d="m 65.679907,22.526662 c -1.874557,7.28451 -6.942466,8.949295 -11.479003,3.776177 3.720218,1.937019 7.541675,2.696892 11.479003,-3.776177 z"
               id="path865"
               inkscape:connector-curvature="0"
               sodipodi:nodetypes="ccc" />
            <path
               sodipodi:nodetypes="ccc"
               inkscape:connector-curvature="0"
               id="path867"
               d="m 44.259968,15.863252 c -1.874557,7.28451 -6.942466,8.949295 -11.479003,3.776177 3.720218,1.937019 7.541675,2.696892 11.479003,-3.776177 z"
               style="fill:#88aa00;fill-opacity:1;fill-rule:evenodd;stroke:none;stroke-width:0.26458332px;stroke-linecap:butt;stroke-linejoin:miter;stroke-opacity:1" />
            <path
               style="fill:#88aa00;fill-opacity:1;fill-rule:evenodd;stroke:none;stroke-width:0.26458332px;stroke-linecap:butt;stroke-linejoin:miter;stroke-opacity:1"
               d="m 79.539549,17.065965 c -1.874563,7.28451 -6.942469,8.949296 -11.479006,3.776177 3.720218,1.937019 7.541673,2.696892 11.479006,-3.776177 z"
               id="path869"
               inkscape:connector-curvature="0"
               sodipodi:nodetypes="ccc" />
            <path
               sodipodi:nodetypes="ccc"
               inkscape:connector-curvature="0"
               id="path871"
               d="m 90.072799,30.653837 c 4.56644,4.084881 8.20451,1.072187 11.702081,-3.014649 -3.470611,1.661575 -5.998581,4.762502 -11.702081,3.014649 z"
               style="fill:#88aa00;fill-opacity:1;fill-rule:evenodd;stroke:none;stroke-width:0.26458332px;stroke-linecap:butt;stroke-linejoin:miter;stroke-opacity:1" />
          </g>
        </g>
      </g>
      <g
         transform="translate(135.46668)"
         clip-path="url(#clipPath10181)"
         id="g10175">
        <use
           height="100%"
           width="100%"
           transform="translate(-68.600062,-10.860699)"
           id="use10145"
           xlink:href="#g8319"
           y="0"
           x="0" />
        <g
           transform="translate(-21.139221,249.13342)"
           id="g10173">
          <path
             style="fill:#9fc702;fill-opacity:1;fill-rule:evenodd;stroke:#445016;stroke-width:1.0630728;stroke-linecap:butt;stroke-linejoin:miter;stroke-miterlimit:4;stroke-dasharray:none;stroke-opacity:1"
             d="M 65.216168,0.18971073 C 61.947255,0.16867793 59.451025,1.1299812 58.501654,2.4912892 49.912262,-2.4417776 45.393137,2.0467177 46.107548,6.4611951 45.769278,5.6139862 44.94591,4.8944001 43.923793,4.3022764 42.790063,3.5501179 41.362996,3.0278764 39.840059,2.7294014 39.250928,2.5821961 38.699803,2.4719854 38.232501,2.4019981 33.648983,1.9020322 30.194372,2.992624 29.084023,5.574945 28.872639,5.9962215 28.748044,6.4589014 28.730066,6.9641038 28.070948,6.1894306 27.002471,5.630736 25.762111,5.3045021 22.167281,4.0340407 16.894752,3.8616015 16.410717,8.6083087 16.207266,9.3935942 16.239808,10.310404 16.588714,11.366613 12.722075,6.9336334 5.6335835,15.904299 8.2412148,18.640838 c -2.7168149,0 -4.7828177,8.269888 -3.2181654,14.034761 -0.837055,1.806293 -0.4982136,4.108118 4.3939554,5.226153 0.2604048,0.07378 0.5317901,0.1315 0.8162382,0.169347 -0.5549544,0.115067 -1.3872325,6.976218 4.929469,6.772853 8.62e-4,1.71e-4 0.0017,3.44e-4 0.0026,5.15e-4 6.5e-5,8.5e-5 4.45e-4,-8.6e-5 5.08e-4,0 2.903307,3.868535 5.757123,3.725267 9.519728,1.559531 4.915688,2.729805 6.926022,4.831854 11.215267,2.594601 0.871593,-0.08761 1.686373,-0.251302 2.454308,-0.465961 6.763896,3.207595 9.084242,-2.389496 10.083212,-2.565863 0.118254,0.09658 0.236282,0.19264 0.353449,0.284809 3.806651,3.301535 6.745622,5.243621 11.504126,3.582973 4.606196,2.036389 11.96991,2.380544 12.620416,-0.633253 1.746942,1.034123 3.728696,1.858289 5.771136,2.320052 2.215015,0.537126 4.397471,0.609163 6.491254,0.06004 1.620956,-0.394771 3.158744,-1.142666 4.517027,-2.331345 0.0029,-0.0023 0.0058,-0.0043 0.0087,-0.0067 2.968999,1.012725 5.056624,1.412123 6.709936,-2.962546 7.064361,0.553558 8.064351,-8.973651 7.743321,-9.600436 0.10508,-1.838576 -0.12753,-3.400095 -0.4933,-4.065356 1.60912,-1.681748 3.55221,-7.145934 1.34006,-11.12969 0.023,-0.03004 0.0445,-0.05518 0.0676,-0.0857 0.0615,-2.681543 -2.32499,-5.41056 -5.960823,-3.9073 C 98.463127,10.975419 89.915682,2.8544231 82.608906,8.0078983 82.386122,8.0805707 82.16153,8.1567745 81.932524,8.2403641 76.306707,2.3145305 69.95107,0.22017073 65.216168,0.18971073 Z M 46.269779,7.1627018 c 0.01147,0.039435 0.0231,0.078611 0.03458,0.1180301 -0.0038,0.010846 -0.02644,0.066199 -0.02644,0.066199 -1.81e-4,-6.831e-4 -3.29e-4,-0.00137 -5.09e-4,-0.00206 6.73e-4,-0.061477 -0.0034,-0.1217768 -0.0077,-0.1821766 z"
             id="path10147"
             inkscape:connector-curvature="0" />
          <g
             id="g10171"
             transform="translate(-2.3207184,1.4211363)">
            <path
               sodipodi:nodetypes="cccccccccccccc"
               inkscape:connector-curvature="0"
               id="path10149"
               d="m 10.77884,16.982187 c -2.597746,-2.701656 4.463494,-11.5580224 8.315475,-7.1815464 -2.29869,-6.896076 9.108907,-7.825064 12.09524,-4.346726 0.217027,-6.0436855 15.784841,-6.0167305 17.481396,0.377977 0,0 2.267857,-6.7090785 10.772322,-4.9136915 8.432033,1.5861395 15.246305,-2.425179 23.623516,6.2366075 12.24189,-5.162094 16.02282,4.7616354 18.237351,8.6934524 9.88083,2.28066 6.85801,12.524749 4.53571,14.930059 1.31061,2.362351 0.92282,16.158482 -10.772321,13.040177 -6.37438,8.836331 -14.90076,6.823937 -22.867558,1.511907 C 65.223672,45.66692 59.041598,52.09807 48.85994,42.212101 44.496919,44.759165 37.883408,51.687482 23.252055,42.117601 12.284269,45.993411 13.686794,35.373762 12.763216,36.164479 4.163491,35.030552 6.754759,16.982187 10.77884,16.982187 Z"
               style="fill:#aad400;fill-rule:evenodd;stroke:none;stroke-width:0.26458332px;stroke-linecap:butt;stroke-linejoin:miter;stroke-opacity:1" />
            <path
               sodipodi:nodetypes="ccccccccccccccccccccccc"
               inkscape:connector-curvature="0"
               id="path10151"
               d="m 106.30098,34.757782 c -3.28003,1.313036 -2.27472,2.044911 -2.60198,0.405177 -2.91059,4.559851 -6.154811,0.778789 -9.414681,-3.393401 -2.87424,-0.638464 -4.57579,4.293313 -8.72993,-2.424661 -2.9558,4.573148 -4.29504,-1.091957 -6.29734,-2.557673 -0.72581,4.992695 -4.068484,6.496235 -10.13963,4.361813 -3.369447,7.084143 -7.07123,4.198206 -10.790085,0.80012 -4.772624,3.456488 -7.577373,0.615776 -10.639621,-1.400939 -1.729605,2.988195 -3.576999,5.872459 -11.23088,3.633352 -4.107437,5.279299 -3.900748,4.348118 -11.893801,1.14971 -3.696638,4.350866 -5.631305,3.636064 -6.480808,-0.198583 -3.6308,2.236775 -6.793877,-2.001953 -10.424677,-4.476485 -0.988999,1.900356 -0.728038,4.448807 5.105889,5.508193 -0.552927,0.110585 -1.38391,6.889691 4.913144,6.686904 2.89245,3.819817 5.735497,3.678183 9.484028,1.539945 5.45163,3.000212 7.314344,5.235977 12.717834,1.643787 8.442112,4.675988 10.483791,-3.706782 11.296878,-1.794008 3.792219,3.259451 6.719968,5.176385 11.460433,3.536901 4.588733,2.01043 11.924796,2.350297 12.572837,-0.625087 5.015379,2.942229 11.973139,4.169611 16.723619,0.04161 2.95799,0.999931 5.0381,1.394143 6.68523,-2.924988 7.239921,0.562212 8.086391,-9.410974 7.683541,-9.511686 z"
               style="fill:#88aa00;fill-rule:evenodd;stroke:none;stroke-width:0.26458332px;stroke-linecap:butt;stroke-linejoin:miter;stroke-opacity:1" />
            <path
               id="path10153"
               d="m 67.537353,-1.2337942 c -3.25652,-0.020762 -5.743225,0.92825565 -6.688997,2.2722128 C 52.291525,-3.8317702 47.789602,0.59935099 48.501305,4.9575591 47.577152,2.6637968 43.039752,1.3038139 40.656306,0.9500517 35.341174,0.37549339 31.546403,1.9265777 31.1897,5.4541696 28.935193,3.0911076 17.157496,0.00993845 19.094315,9.8006742 c -3.259521,-2.167328 -6.12059,0.00656 -6.580994,2.6143108 4.448868,9.069582 7.359115,0.533631 7.692554,2.526461 8.800806,-0.303069 5.785694,-5.3758996 5.785694,-5.3758996 2.209196,3.2488176 5.866791,-3.943046 7.854817,-0.7735962 0,0 3.901012,-6.1707905 8.695076,-2.2484415 1.387364,-2.5198139 6.348979,1.4653378 10.485149,5.9185013 0.172607,-0.200301 -0.440997,-6.2082169 -3.044258,-6.7773637 1.270095,-5.77689999 8.560395,-5.16628585 12.097969,-1.0588501 -1.364961,0.3481541 -2.783589,1.2828024 -4.15427,2.8458213 3.720219,-1.9370191 7.541553,-2.6970722 11.478887,3.7759965 -1.233057,-4.7916322 -3.847725,-7.1510741 -6.784081,-6.7329218 1.567132,-4.64367932 12.311745,-2.1751473 12.649356,0.5999633 6.535497,-2.927546 6.242711,4.1934397 7.210412,4.2627888 -0.0677,0.6932717 0.01455,1.3077217 0.212907,1.8520837 -1.824836,-0.162634 -3.834715,0.798085 -5.750555,2.982763 3.720225,-1.937019 7.541557,-2.697072 11.478887,3.775998 -0.35383,-1.374976 -0.821367,-2.549203 -1.377693,-3.515549 3.030659,0.829676 6.582463,0.567335 7.379393,-0.0026 0.09693,-0.132485 0.164333,-0.208773 0.164333,-0.208773 -0.01326,0.07297 -0.07211,0.142825 -0.164333,0.208773 -0.651068,0.889925 -2.678898,4.435233 4.780071,6.200139 0.71878,-1.888361 1.893424,7.052945 8.038784,-0.964798 0.0613,-2.647363 -2.31609,-5.341221 -5.93814,-3.857121 C 100.64322,9.260081 91.730128,1.0085632 84.342528,6.8711374 78.700899,0.89894161 72.296882,-1.2034494 67.537353,-1.2337942 Z m -18.8743,6.8838174 c 0.01643,0.055989 0.03088,0.1121706 0.04909,0.1679485 -0.01402,0.0055 -0.02724,0.00819 -0.04134,0.013952 7.94e-4,-0.061401 -0.0036,-0.1216015 -0.0078,-0.1819011 z"
               style="fill:#ccff00;fill-rule:evenodd;stroke:none;stroke-width:0.156738px;stroke-linecap:butt;stroke-linejoin:miter;stroke-opacity:1"
               inkscape:connector-curvature="0" />
            <path
               sodipodi:nodetypes="ccc"
               inkscape:connector-curvature="0"
               id="path10155"
               d="m 42.49882,29.317488 c 4.566439,4.084882 8.204511,1.072188 11.702084,-3.014648 -3.470618,1.661575 -5.998584,4.762501 -11.702084,3.014648 z"
               style="fill:#88aa00;fill-opacity:1;fill-rule:evenodd;stroke:none;stroke-width:0.26458332px;stroke-linecap:butt;stroke-linejoin:miter;stroke-opacity:1" />
            <path
               style="fill:#88aa00;fill-opacity:1;fill-rule:evenodd;stroke:none;stroke-width:0.26458332px;stroke-linecap:butt;stroke-linejoin:miter;stroke-opacity:1"
               d="m 75.907506,26.243889 c 4.566443,4.084881 8.204523,1.072187 11.702093,-3.014649 -3.47062,1.661575 -5.99859,4.762502 -11.702093,3.014649 z"
               id="path10157"
               inkscape:connector-curvature="0"
               sodipodi:nodetypes="ccc" />
            <path
               sodipodi:nodetypes="ccc"
               inkscape:connector-curvature="0"
               id="path10159"
               d="m 36.456833,34.18157 c -4.56644,4.084881 -8.20452,1.072188 -11.70209,-3.014649 3.47062,1.661576 5.99859,4.762502 11.70209,3.014649 z"
               style="fill:#88aa00;fill-opacity:1;fill-rule:evenodd;stroke:none;stroke-width:0.26458332px;stroke-linecap:butt;stroke-linejoin:miter;stroke-opacity:1" />
            <path
               style="fill:#88aa00;fill-opacity:1;fill-rule:evenodd;stroke:none;stroke-width:0.26458332px;stroke-linecap:butt;stroke-linejoin:miter;stroke-opacity:1"
               d="m 22.48093,19.996836 c -5.508874,5.121558 -10.673994,3.78861 -11.70209,-3.014649 2.086971,3.638217 4.894351,6.339986 11.70209,3.014649 z"
               id="path10161"
               inkscape:connector-curvature="0"
               sodipodi:nodetypes="ccc" />
            <path
               sodipodi:nodetypes="ccc"
               inkscape:connector-curvature="0"
               id="path10163"
               d="m 65.679907,22.526662 c -1.874557,7.28451 -6.942466,8.949295 -11.479003,3.776177 3.720218,1.937019 7.541675,2.696892 11.479003,-3.776177 z"
               style="fill:#88aa00;fill-opacity:1;fill-rule:evenodd;stroke:none;stroke-width:0.26458332px;stroke-linecap:butt;stroke-linejoin:miter;stroke-opacity:1" />
            <path
               style="fill:#88aa00;fill-opacity:1;fill-rule:evenodd;stroke:none;stroke-width:0.26458332px;stroke-linecap:butt;stroke-linejoin:miter;stroke-opacity:1"
               d="m 44.259968,15.863252 c -1.874557,7.28451 -6.942466,8.949295 -11.479003,3.776177 3.720218,1.937019 7.541675,2.696892 11.479003,-3.776177 z"
               id="path10165"
               inkscape:connector-curvature="0"
               sodipodi:nodetypes="ccc" />
            <path
               sodipodi:nodetypes="ccc"
               inkscape:connector-curvature="0"
               id="path10167"
               d="m 79.539549,17.065965 c -1.874563,7.28451 -6.942469,8.949296 -11.479006,3.776177 3.720218,1.937019 7.541673,2.696892 11.479006,-3.776177 z"
               style="fill:#88aa00;fill-opacity:1;fill-rule:evenodd;stroke:none;stroke-width:0.26458332px;stroke-linecap:butt;stroke-linejoin:miter;stroke-opacity:1" />
            <path
               style="fill:#88aa00;fill-opacity:1;fill-rule:evenodd;stroke:none;stroke-width:0.26458332px;stroke-linecap:butt;stroke-linejoin:miter;stroke-opacity:1"
               d="m 90.072799,30.653837 c 4.56644,4.084881 8.20451,1.072187 11.702081,-3.014649 -3.470611,1.661575 -5.998581,4.762502 -11.702081,3.014649 z"
               id="path10169"
               inkscape:connector-curvature="0"
               sodipodi:nodetypes="ccc" />
          </g>
        </g>
      </g>
      <g
         clip-path="url(#clipPath10280)"
         id="g8821"
         transform="translate(-45.977364,245.86042)">
        <g
           id="g8382">
          <path
             inkscape:connector-curvature="0"
             id="path3791"
             d="m 145.06102,3.6874239 c -4.44696,-0.024987 -8.53681,2.2469949 -9.6383,7.9260291 -0.28916,0.0081 -0.58384,0.05149 -0.88196,0.133534 -7.22324,-2.553769 -11.04233,3.35983 -14.65134,8.868325 -0.0519,0.07294 -0.10303,0.147039 -0.15394,0.221313 -2.73883,-1.346712 -5.00231,-1.432387 -6.72683,-0.801762 -0.97809,0.213301 -1.80635,0.708025 -2.37136,1.637432 -0.97023,1.121737 -1.4882,2.569207 -1.4993,3.975402 -5.33288,0.373653 -7.50821,7.129306 -3.75796,10.244617 0.26165,0.36385 0.5639,0.706487 0.907,1.020373 -3.00506,4.099295 -3.2893,8.345883 2.02431,12.896493 -0.47959,3.095887 3.98093,7.004239 8.26686,1.588439 -0.51942,9.009416 10.7188,10.201835 13.30962,7.304661 0.75446,0.733405 12.50266,7.646669 16.96633,-2.125823 8.37028,8.296819 21.56543,-0.235465 21.67146,-1.254594 -0.023,-0.03197 -0.0397,-0.0608 -0.0412,-0.08235 0.0328,0.01588 0.0451,0.04471 0.0412,0.08235 0.56102,0.782915 7.44403,4.350158 17.14011,-5.160537 8.74927,3.169695 13.41736,-2.856963 12.82638,-8.176416 5.10713,0.398538 6.98828,-2.395977 7.43029,-8.689562 0.65884,-0.15848 1.98111,-3.017132 2.3463,-6.423204 0.52464,-2.901382 0.28659,-6.17921 -2.24558,-8.662641 -1.04265,-1.145834 -2.49392,-2.066036 -4.47289,-2.605575 -0.52256,-0.179128 -1.08309,-0.341442 -1.67988,-0.487298 0.21631,-0.840051 0.0183,-1.709925 -0.49264,-2.475814 -1.62357,-3.4234405 -8.43268,-3.3526168 -11.61565,0.651536 -0.10845,-0.02367 -0.21812,-0.04077 -0.32878,-0.05331 0.19476,-1.043539 0.0701,-2.229262 -0.44985,-3.2888651 -1.30447,-3.5475061 -5.94769,-4.0570298 -11.93399,-1.5087535 -5.83786,-6.2265041 -17.18001,-2.387307 -17.98135,1.0682932 -0.0703,-0.013353 -0.14066,-0.026302 -0.21188,-0.035002 -1.56252,-2.9041043 -5.18108,-4.9248499 -9.02512,-5.4852177 -0.92326,-0.1902052 -1.85393,-0.2969314 -2.77006,-0.3020709 z"
             style="fill:#445016;fill-opacity:1;fill-rule:evenodd;stroke:#445016;stroke-width:0.17493404px;stroke-linecap:butt;stroke-linejoin:miter;stroke-opacity:1" />
          <path
             style="fill:#88aa00;fill-opacity:1;fill-rule:evenodd;stroke:none;stroke-width:0.17053521px;stroke-linecap:butt;stroke-linejoin:miter;stroke-opacity:1"
             d="m 110.17492,25.863484 c -0.73101,-4.54086 4.05512,-7.47069 9.8047,-4.59957 3.03157,-4.48584 7.74363,-6.71876 16.58182,-3.42003 4.68906,-5.17699 13.22753,-6.37323 17.31258,-0.27013 6.74746,-7.8298896 14.09982,-2.37165 15.48662,0.10727 0.65293,-1.2255 12.50096,-4.11536 12.57302,5.37434 13.55791,-4.84001 17.23584,4.82387 16.21738,8.79438 3.27992,3.09431 3.21193,2.42498 -0.79687,6.82216 2.91549,5.37436 -1.68735,14.03593 -11.89154,10.45304 -9.9936,9.50052 -16.97368,5.40183 -17.01308,4.8736 0.90961,0.42848 -12.82412,9.53997 -21.41887,1.28313 -4.42004,9.37885 -16.05355,2.74414 -16.80063,2.04027 -2.5655,2.78048 -13.69385,1.63564 -13.17952,-7.01088 -4.24404,5.19765 -8.6611,1.4472 -8.18619,-1.52399 -5.26169,-4.36731 -4.9801,-8.44314 -2.0044,-12.37732 -3.62409,-3.21324 -2.6815,-9.55126 3.31498,-10.54631 z"
             id="path3668"
             inkscape:connector-curvature="0"
             sodipodi:nodetypes="ccccccccccccccccc" />
          <path
             style="fill:#aad400;fill-opacity:1;fill-rule:evenodd;stroke:none;stroke-width:0.17053521px;stroke-linecap:butt;stroke-linejoin:miter;stroke-opacity:1"
             d="m 107.06337,36.129644 c 1.11061,10.32513 11.38928,13.629782 14.06729,8.170922 2.4774,6.93571 13.04945,8.60487 15.58096,2.92149 5.14466,8.46477 16.56806,1.358451 15.09908,-4.549152 2.56244,3.8168 3.74497,9.2095 14.68861,3.45475 4.02374,1.69362 6.95722,5.8929 14.16248,0.27463 5.92379,1.35312 11.50793,2.00325 12.89547,-6.03256 8.60768,2.46084 11.41305,0.17481 11.96424,-7.43149 1.55981,-0.36367 6.89741,-15.52963 -6.02602,-17.31482 1.16763,-3.61397 -6.11242,-7.9914196 -12.53919,-1.06918 1.417,-3.3495 -1.31686,-9.7448296 -12.00607,-5.4688396 -4.04747,-2.94733 -10.5252,-5.72977 -17.84896,1.3101496 -3.40993,-6.9847296 -19.45607,-9.0396596 -21.47033,2.16001 -5.52175,-2.26794 -8.72977,2.9975 -15.44788,8.42822 -4.33466,-1.02424 -9.9686,-2.61502 -9.80471,4.59956 -6.26538,-0.20996 -8.69269,7.94012 -3.31497,10.54631 z"
             id="path3670"
             inkscape:connector-curvature="0"
             sodipodi:nodetypes="cccccccccccccccc" />
          <path
             style="fill:#ccff00;fill-opacity:1;fill-rule:evenodd;stroke:none;stroke-width:0.17053521px;stroke-linecap:butt;stroke-linejoin:miter;stroke-opacity:1"
             d="m 110.27605,28.024614 c -2.17876,-3.91375 1.75203,-10.93171 9.907,-7.04084 3.74684,-5.53778 7.67612,-11.6346196 15.44788,-8.42822 1.92134,-11.5281996 16.586,-9.1717196 21.47033,-2.16001 4.79629,-0.9201096 0.34534,8.16303 -1.92141,10.97123 3.27307,2.27622 -4.38732,3.40025 -8.54895,1.67328 -0.591,-3.24265 -4.43002,-3.98544 -8.09149,-0.51991 -3.40693,-4.10392 -6.29517,-3.34017 -9.01931,-1.03642 -1.32252,-2.0643 -4.17436,-2.85771 -8.89963,2.07285 -5.10183,-2.68896 -9.18429,2.45976 -10.34442,4.46804 z"
             id="path3672"
             inkscape:connector-curvature="0"
             sodipodi:nodetypes="cccccccccc" />
          <path
             sodipodi:nodetypes="ccccccccccc"
             inkscape:connector-curvature="0"
             id="path3674"
             d="m 205.5215,32.938234 c 1.27663,-2.29323 7.59393,-14.36584 -6.19493,-17.49573 0.95356,-5.7968496 -9.04115,-6.3807296 -12.37028,-0.88827 1.25795,-6.8430596 -4.23431,-8.6752396 -12.00607,-5.4688396 -5.9471,-6.14759 -17.66396,-2.07134 -17.84896,1.3101496 -4.79629,-0.9201096 -4.18815,8.16303 -1.92141,10.97123 -3.27307,2.27622 2.65814,6.94523 6.81976,5.21827 0.591,-3.24265 3.69956,-12.36956 7.36103,-8.90402 4.91109,-4.2567 8.57366,-1.53265 7.65427,1.14115 1.32252,-2.0643 8.10542,-2.88037 7.7286,1.84663 10.38399,-12.7421096 21.87864,5.95837 20.77799,12.26943 z"
             style="fill:#ccff00;fill-opacity:1;fill-rule:evenodd;stroke:none;stroke-width:0.17053521px;stroke-linecap:butt;stroke-linejoin:miter;stroke-opacity:1" />
          <path
             sodipodi:nodetypes="ccc"
             inkscape:connector-curvature="0"
             id="path3676"
             d="m 168.49942,32.618884 c 4.65701,3.30055 8.36724,0.86632 11.93418,-2.43582 -3.53945,1.34255 -6.11756,3.84807 -11.93418,2.43582 z"
             style="fill:#88aa00;fill-opacity:1;fill-rule:evenodd;stroke:none;stroke-width:0.24017689px;stroke-linecap:butt;stroke-linejoin:miter;stroke-opacity:1" />
          <path
             style="fill:#88aa00;fill-opacity:1;fill-rule:evenodd;stroke:none;stroke-width:0.36225557px;stroke-linecap:butt;stroke-linejoin:miter;stroke-opacity:1"
             d="m 149.28954,36.039914 c -7.02411,4.97818 -12.6202,1.30666 -18.00017,-3.67391 5.89947,4.45577 9.3673,6.41182 18.00017,3.67391 z"
             id="path3678"
             inkscape:connector-curvature="0"
             sodipodi:nodetypes="ccc" />
          <path
             sodipodi:nodetypes="ccc"
             inkscape:connector-curvature="0"
             id="path3680"
             d="m 188.87344,37.189274 c -0.40083,7.9842 -4.0597,9.11705 -8.21165,9.21301 2.84439,-2.09215 5.92368,-2.03884 8.21165,-9.21301 z"
             style="fill:#88aa00;fill-opacity:1;fill-rule:evenodd;stroke:none;stroke-width:0.2652328px;stroke-linecap:butt;stroke-linejoin:miter;stroke-opacity:1" />
          <path
             style="fill:#88aa00;fill-opacity:1;fill-rule:evenodd;stroke:none;stroke-width:0.17053521px;stroke-linecap:butt;stroke-linejoin:miter;stroke-opacity:1"
             d="m 159.6368,40.371914 c -1.27803,4.43877 -4.7332,5.45319 -7.8261,2.30099 2.53635,1.18031 5.14173,1.64333 7.8261,-2.30099 z"
             id="path3682"
             inkscape:connector-curvature="0"
             sodipodi:nodetypes="ccc" />
          <path
             sodipodi:nodetypes="ccc"
             inkscape:connector-curvature="0"
             id="path3684"
             d="m 179.23632,37.704744 c -1.27803,4.43877 -4.73321,5.45319 -7.82611,2.30099 2.53636,1.1803 5.14173,1.64333 7.82611,-2.30099 z"
             style="fill:#88aa00;fill-opacity:1;fill-rule:evenodd;stroke:none;stroke-width:0.17053521px;stroke-linecap:butt;stroke-linejoin:miter;stroke-opacity:1" />
          <path
             style="fill:#88aa00;fill-opacity:1;fill-rule:evenodd;stroke:none;stroke-width:0.17053521px;stroke-linecap:butt;stroke-linejoin:miter;stroke-opacity:1"
             d="m 194.6401,27.928324 c 1.27803,4.43877 4.7332,5.45319 7.8261,2.30099 -2.53635,1.18031 -5.14172,1.64333 -7.8261,-2.30099 z"
             id="path3686"
             inkscape:connector-curvature="0"
             sodipodi:nodetypes="ccc" />
          <path
             sodipodi:nodetypes="ccc"
             inkscape:connector-curvature="0"
             id="path3688"
             d="m 143.76226,27.057514 c 1.27803,4.43876 4.73321,5.45319 7.82611,2.30098 -2.53635,1.18031 -5.14174,1.64334 -7.82611,-2.30098 z"
             style="fill:#88aa00;fill-opacity:1;fill-rule:evenodd;stroke:none;stroke-width:0.17053521px;stroke-linecap:butt;stroke-linejoin:miter;stroke-opacity:1" />
          <path
             style="fill:#88aa00;fill-opacity:1;fill-rule:evenodd;stroke:none;stroke-width:0.17053521px;stroke-linecap:butt;stroke-linejoin:miter;stroke-opacity:1"
             d="m 117.15797,35.968204 c 1.27802,4.43876 4.7332,5.45319 7.8261,2.30098 -2.53636,1.18031 -5.14173,1.64334 -7.8261,-2.30098 z"
             id="path3690"
             inkscape:connector-curvature="0"
             sodipodi:nodetypes="ccc" />
          <path
             sodipodi:nodetypes="ccc"
             inkscape:connector-curvature="0"
             id="path3692"
             d="m 125.55626,27.554344 c 1.27802,-4.43877 4.7332,-5.45319 7.8261,-2.30099 -2.53635,-1.1803 -5.14173,-1.64333 -7.8261,2.30099 z"
             style="fill:#ccff00;fill-opacity:1;fill-rule:evenodd;stroke:none;stroke-width:0.17053521px;stroke-linecap:butt;stroke-linejoin:miter;stroke-opacity:1" />
          <path
             style="fill:#aad400;fill-opacity:1;fill-rule:evenodd;stroke:none;stroke-width:0.24784133px;stroke-linecap:butt;stroke-linejoin:miter;stroke-opacity:1"
             d="m 164.04224,23.813674 c -2.02195,-5.92587 -7.48832,-7.28015 -12.38155,-3.07188 4.01273,-1.57574 8.13465,-2.1939 12.38155,3.07188 z"
             id="path3694"
             inkscape:connector-curvature="0"
             sodipodi:nodetypes="ccc" />
          <path
             style="fill:#ccff00;fill-opacity:1;fill-rule:evenodd;stroke:none;stroke-width:0.17053521px;stroke-linecap:butt;stroke-linejoin:miter;stroke-opacity:1"
             d="m 189.75976,25.356344 c -1.27803,-4.43876 -4.7332,-5.45318 -7.8261,-2.30098 2.53636,-1.18031 5.14173,-1.64334 7.8261,2.30098 z"
             id="path3696"
             inkscape:connector-curvature="0"
             sodipodi:nodetypes="ccc" />
          <path
             style="fill:#aad400;fill-opacity:1;fill-rule:evenodd;stroke:none;stroke-width:0.17053521px;stroke-linecap:butt;stroke-linejoin:miter;stroke-opacity:1"
             d="m 160.71136,14.185294 c -1.27802,-4.4387696 -4.7332,-5.4531896 -7.82609,-2.30098 2.53635,-1.18031 5.14173,-1.64334 7.82609,2.30098 z"
             id="path3698"
             inkscape:connector-curvature="0"
             sodipodi:nodetypes="ccc" />
          <path
             sodipodi:nodetypes="ccc"
             inkscape:connector-curvature="0"
             id="path3700"
             d="m 139.97523,16.258334 c -1.27803,-4.43877 -4.7332,-5.45319 -7.8261,-2.30099 2.53635,-1.1803 5.14173,-1.64333 7.8261,2.30099 z"
             style="fill:#aad400;fill-opacity:1;fill-rule:evenodd;stroke:none;stroke-width:0.17053521px;stroke-linecap:butt;stroke-linejoin:miter;stroke-opacity:1" />
          <path
             style="fill:#aad400;fill-opacity:1;fill-rule:evenodd;stroke:none;stroke-width:0.17053521px;stroke-linecap:butt;stroke-linejoin:miter;stroke-opacity:1"
             d="m 174.31161,11.632694 c -4.37423,-2.3923096 -7.64519,-0.97145 -7.4114,3.21592 0.90212,-2.42524 2.41237,-4.37838 7.4114,-3.21592 z"
             id="path3702"
             inkscape:connector-curvature="0"
             sodipodi:nodetypes="ccc" />
          <path
             style="fill:#aad400;fill-opacity:1;fill-rule:evenodd;stroke:none;stroke-width:0.17053521px;stroke-linecap:butt;stroke-linejoin:miter;stroke-opacity:1"
             d="m 191.01953,17.800164 c -1.27802,-4.43877 -4.7332,-5.45319 -7.8261,-2.30099 2.53635,-1.1803 5.14173,-1.64333 7.8261,2.30099 z"
             id="path3789"
             inkscape:connector-curvature="0"
             sodipodi:nodetypes="ccc" />
        </g>
      </g>
      <g
         clip-path="url(#clipPath10271)"
         transform="translate(-181.44403,245.86042)"
         id="g10265">
        <g
           id="g10263">
          <path
             style="fill:#445016;fill-opacity:1;fill-rule:evenodd;stroke:#445016;stroke-width:0.17493404px;stroke-linecap:butt;stroke-linejoin:miter;stroke-opacity:1"
             d="m 145.06102,3.6874239 c -4.44696,-0.024987 -8.53681,2.2469949 -9.6383,7.9260291 -0.28916,0.0081 -0.58384,0.05149 -0.88196,0.133534 -7.22324,-2.553769 -11.04233,3.35983 -14.65134,8.868325 -0.0519,0.07294 -0.10303,0.147039 -0.15394,0.221313 -2.73883,-1.346712 -5.00231,-1.432387 -6.72683,-0.801762 -0.97809,0.213301 -1.80635,0.708025 -2.37136,1.637432 -0.97023,1.121737 -1.4882,2.569207 -1.4993,3.975402 -5.33288,0.373653 -7.50821,7.129306 -3.75796,10.244617 0.26165,0.36385 0.5639,0.706487 0.907,1.020373 -3.00506,4.099295 -3.2893,8.345883 2.02431,12.896493 -0.47959,3.095887 3.98093,7.004239 8.26686,1.588439 -0.51942,9.009416 10.7188,10.201835 13.30962,7.304661 0.75446,0.733405 12.50266,7.646669 16.96633,-2.125823 8.37028,8.296819 21.56543,-0.235465 21.67146,-1.254594 -0.023,-0.03197 -0.0397,-0.0608 -0.0412,-0.08235 0.0328,0.01588 0.0451,0.04471 0.0412,0.08235 0.56102,0.782915 7.44403,4.350158 17.14011,-5.160537 8.74927,3.169695 13.41736,-2.856963 12.82638,-8.176416 5.10713,0.398538 6.98828,-2.395977 7.43029,-8.689562 0.65884,-0.15848 1.98111,-3.017132 2.3463,-6.423204 0.52464,-2.901382 0.28659,-6.17921 -2.24558,-8.662641 -1.04265,-1.145834 -2.49392,-2.066036 -4.47289,-2.605575 -0.52256,-0.179128 -1.08309,-0.341442 -1.67988,-0.487298 0.21631,-0.840051 0.0183,-1.709925 -0.49264,-2.475814 -1.62357,-3.4234405 -8.43268,-3.3526168 -11.61565,0.651536 -0.10845,-0.02367 -0.21812,-0.04077 -0.32878,-0.05331 0.19476,-1.043539 0.0701,-2.229262 -0.44985,-3.2888651 -1.30447,-3.5475061 -5.94769,-4.0570298 -11.93399,-1.5087535 -5.83786,-6.2265041 -17.18001,-2.387307 -17.98135,1.0682932 -0.0703,-0.013353 -0.14066,-0.026302 -0.21188,-0.035002 -1.56252,-2.9041043 -5.18108,-4.9248499 -9.02512,-5.4852177 -0.92326,-0.1902052 -1.85393,-0.2969314 -2.77006,-0.3020709 z"
             id="path10223"
             inkscape:connector-curvature="0" />
          <path
             sodipodi:nodetypes="ccccccccccccccccc"
             inkscape:connector-curvature="0"
             id="path10225"
             d="m 110.17492,25.863484 c -0.73101,-4.54086 4.05512,-7.47069 9.8047,-4.59957 3.03157,-4.48584 7.74363,-6.71876 16.58182,-3.42003 4.68906,-5.17699 13.22753,-6.37323 17.31258,-0.27013 6.74746,-7.8298896 14.09982,-2.37165 15.48662,0.10727 0.65293,-1.2255 12.50096,-4.11536 12.57302,5.37434 13.55791,-4.84001 17.23584,4.82387 16.21738,8.79438 3.27992,3.09431 3.21193,2.42498 -0.79687,6.82216 2.91549,5.37436 -1.68735,14.03593 -11.89154,10.45304 -9.9936,9.50052 -16.97368,5.40183 -17.01308,4.8736 0.90961,0.42848 -12.82412,9.53997 -21.41887,1.28313 -4.42004,9.37885 -16.05355,2.74414 -16.80063,2.04027 -2.5655,2.78048 -13.69385,1.63564 -13.17952,-7.01088 -4.24404,5.19765 -8.6611,1.4472 -8.18619,-1.52399 -5.26169,-4.36731 -4.9801,-8.44314 -2.0044,-12.37732 -3.62409,-3.21324 -2.6815,-9.55126 3.31498,-10.54631 z"
             style="fill:#88aa00;fill-opacity:1;fill-rule:evenodd;stroke:none;stroke-width:0.17053521px;stroke-linecap:butt;stroke-linejoin:miter;stroke-opacity:1" />
          <path
             sodipodi:nodetypes="cccccccccccccccc"
             inkscape:connector-curvature="0"
             id="path10227"
             d="m 107.06337,36.129644 c 1.11061,10.32513 11.38928,13.629782 14.06729,8.170922 2.4774,6.93571 13.04945,8.60487 15.58096,2.92149 5.14466,8.46477 16.56806,1.358451 15.09908,-4.549152 2.56244,3.8168 3.74497,9.2095 14.68861,3.45475 4.02374,1.69362 6.95722,5.8929 14.16248,0.27463 5.92379,1.35312 11.50793,2.00325 12.89547,-6.03256 8.60768,2.46084 11.41305,0.17481 11.96424,-7.43149 1.55981,-0.36367 6.89741,-15.52963 -6.02602,-17.31482 1.16763,-3.61397 -6.11242,-7.9914196 -12.53919,-1.06918 1.417,-3.3495 -1.31686,-9.7448296 -12.00607,-5.4688396 -4.04747,-2.94733 -10.5252,-5.72977 -17.84896,1.3101496 -3.40993,-6.9847296 -19.45607,-9.0396596 -21.47033,2.16001 -5.52175,-2.26794 -8.72977,2.9975 -15.44788,8.42822 -4.33466,-1.02424 -9.9686,-2.61502 -9.80471,4.59956 -6.26538,-0.20996 -8.69269,7.94012 -3.31497,10.54631 z"
             style="fill:#aad400;fill-opacity:1;fill-rule:evenodd;stroke:none;stroke-width:0.17053521px;stroke-linecap:butt;stroke-linejoin:miter;stroke-opacity:1" />
          <path
             sodipodi:nodetypes="cccccccccc"
             inkscape:connector-curvature="0"
             id="path10229"
             d="m 110.27605,28.024614 c -2.17876,-3.91375 1.75203,-10.93171 9.907,-7.04084 3.74684,-5.53778 7.67612,-11.6346196 15.44788,-8.42822 1.92134,-11.5281996 16.586,-9.1717196 21.47033,-2.16001 4.79629,-0.9201096 0.34534,8.16303 -1.92141,10.97123 3.27307,2.27622 -4.38732,3.40025 -8.54895,1.67328 -0.591,-3.24265 -4.43002,-3.98544 -8.09149,-0.51991 -3.40693,-4.10392 -6.29517,-3.34017 -9.01931,-1.03642 -1.32252,-2.0643 -4.17436,-2.85771 -8.89963,2.07285 -5.10183,-2.68896 -9.18429,2.45976 -10.34442,4.46804 z"
             style="fill:#ccff00;fill-opacity:1;fill-rule:evenodd;stroke:none;stroke-width:0.17053521px;stroke-linecap:butt;stroke-linejoin:miter;stroke-opacity:1" />
          <path
             style="fill:#ccff00;fill-opacity:1;fill-rule:evenodd;stroke:none;stroke-width:0.17053521px;stroke-linecap:butt;stroke-linejoin:miter;stroke-opacity:1"
             d="m 205.5215,32.938234 c 1.27663,-2.29323 7.59393,-14.36584 -6.19493,-17.49573 0.95356,-5.7968496 -9.04115,-6.3807296 -12.37028,-0.88827 1.25795,-6.8430596 -4.23431,-8.6752396 -12.00607,-5.4688396 -5.9471,-6.14759 -17.66396,-2.07134 -17.84896,1.3101496 -4.79629,-0.9201096 -4.18815,8.16303 -1.92141,10.97123 -3.27307,2.27622 2.65814,6.94523 6.81976,5.21827 0.591,-3.24265 3.69956,-12.36956 7.36103,-8.90402 4.91109,-4.2567 8.57366,-1.53265 7.65427,1.14115 1.32252,-2.0643 8.10542,-2.88037 7.7286,1.84663 10.38399,-12.7421096 21.87864,5.95837 20.77799,12.26943 z"
             id="path10231"
             inkscape:connector-curvature="0"
             sodipodi:nodetypes="ccccccccccc" />
          <path
             style="fill:#88aa00;fill-opacity:1;fill-rule:evenodd;stroke:none;stroke-width:0.24017689px;stroke-linecap:butt;stroke-linejoin:miter;stroke-opacity:1"
             d="m 168.49942,32.618884 c 4.65701,3.30055 8.36724,0.86632 11.93418,-2.43582 -3.53945,1.34255 -6.11756,3.84807 -11.93418,2.43582 z"
             id="path10233"
             inkscape:connector-curvature="0"
             sodipodi:nodetypes="ccc" />
          <path
             sodipodi:nodetypes="ccc"
             inkscape:connector-curvature="0"
             id="path10235"
             d="m 149.28954,36.039914 c -7.02411,4.97818 -12.6202,1.30666 -18.00017,-3.67391 5.89947,4.45577 9.3673,6.41182 18.00017,3.67391 z"
             style="fill:#88aa00;fill-opacity:1;fill-rule:evenodd;stroke:none;stroke-width:0.36225557px;stroke-linecap:butt;stroke-linejoin:miter;stroke-opacity:1" />
          <path
             style="fill:#88aa00;fill-opacity:1;fill-rule:evenodd;stroke:none;stroke-width:0.2652328px;stroke-linecap:butt;stroke-linejoin:miter;stroke-opacity:1"
             d="m 188.87344,37.189274 c -0.40083,7.9842 -4.0597,9.11705 -8.21165,9.21301 2.84439,-2.09215 5.92368,-2.03884 8.21165,-9.21301 z"
             id="path10237"
             inkscape:connector-curvature="0"
             sodipodi:nodetypes="ccc" />
          <path
             sodipodi:nodetypes="ccc"
             inkscape:connector-curvature="0"
             id="path10239"
             d="m 159.6368,40.371914 c -1.27803,4.43877 -4.7332,5.45319 -7.8261,2.30099 2.53635,1.18031 5.14173,1.64333 7.8261,-2.30099 z"
             style="fill:#88aa00;fill-opacity:1;fill-rule:evenodd;stroke:none;stroke-width:0.17053521px;stroke-linecap:butt;stroke-linejoin:miter;stroke-opacity:1" />
          <path
             style="fill:#88aa00;fill-opacity:1;fill-rule:evenodd;stroke:none;stroke-width:0.17053521px;stroke-linecap:butt;stroke-linejoin:miter;stroke-opacity:1"
             d="m 179.23632,37.704744 c -1.27803,4.43877 -4.73321,5.45319 -7.82611,2.30099 2.53636,1.1803 5.14173,1.64333 7.82611,-2.30099 z"
             id="path10241"
             inkscape:connector-curvature="0"
             sodipodi:nodetypes="ccc" />
          <path
             sodipodi:nodetypes="ccc"
             inkscape:connector-curvature="0"
             id="path10243"
             d="m 194.6401,27.928324 c 1.27803,4.43877 4.7332,5.45319 7.8261,2.30099 -2.53635,1.18031 -5.14172,1.64333 -7.8261,-2.30099 z"
             style="fill:#88aa00;fill-opacity:1;fill-rule:evenodd;stroke:none;stroke-width:0.17053521px;stroke-linecap:butt;stroke-linejoin:miter;stroke-opacity:1" />
          <path
             style="fill:#88aa00;fill-opacity:1;fill-rule:evenodd;stroke:none;stroke-width:0.17053521px;stroke-linecap:butt;stroke-linejoin:miter;stroke-opacity:1"
             d="m 143.76226,27.057514 c 1.27803,4.43876 4.73321,5.45319 7.82611,2.30098 -2.53635,1.18031 -5.14174,1.64334 -7.82611,-2.30098 z"
             id="path10245"
             inkscape:connector-curvature="0"
             sodipodi:nodetypes="ccc" />
          <path
             sodipodi:nodetypes="ccc"
             inkscape:connector-curvature="0"
             id="path10247"
             d="m 117.15797,35.968204 c 1.27802,4.43876 4.7332,5.45319 7.8261,2.30098 -2.53636,1.18031 -5.14173,1.64334 -7.8261,-2.30098 z"
             style="fill:#88aa00;fill-opacity:1;fill-rule:evenodd;stroke:none;stroke-width:0.17053521px;stroke-linecap:butt;stroke-linejoin:miter;stroke-opacity:1" />
          <path
             style="fill:#ccff00;fill-opacity:1;fill-rule:evenodd;stroke:none;stroke-width:0.17053521px;stroke-linecap:butt;stroke-linejoin:miter;stroke-opacity:1"
             d="m 125.55626,27.554344 c 1.27802,-4.43877 4.7332,-5.45319 7.8261,-2.30099 -2.53635,-1.1803 -5.14173,-1.64333 -7.8261,2.30099 z"
             id="path10249"
             inkscape:connector-curvature="0"
             sodipodi:nodetypes="ccc" />
          <path
             sodipodi:nodetypes="ccc"
             inkscape:connector-curvature="0"
             id="path10251"
             d="m 164.04224,23.813674 c -2.02195,-5.92587 -7.48832,-7.28015 -12.38155,-3.07188 4.01273,-1.57574 8.13465,-2.1939 12.38155,3.07188 z"
             style="fill:#aad400;fill-opacity:1;fill-rule:evenodd;stroke:none;stroke-width:0.24784133px;stroke-linecap:butt;stroke-linejoin:miter;stroke-opacity:1" />
          <path
             sodipodi:nodetypes="ccc"
             inkscape:connector-curvature="0"
             id="path10253"
             d="m 189.75976,25.356344 c -1.27803,-4.43876 -4.7332,-5.45318 -7.8261,-2.30098 2.53636,-1.18031 5.14173,-1.64334 7.8261,2.30098 z"
             style="fill:#ccff00;fill-opacity:1;fill-rule:evenodd;stroke:none;stroke-width:0.17053521px;stroke-linecap:butt;stroke-linejoin:miter;stroke-opacity:1" />
          <path
             sodipodi:nodetypes="ccc"
             inkscape:connector-curvature="0"
             id="path10255"
             d="m 160.71136,14.185294 c -1.27802,-4.4387696 -4.7332,-5.4531896 -7.82609,-2.30098 2.53635,-1.18031 5.14173,-1.64334 7.82609,2.30098 z"
             style="fill:#aad400;fill-opacity:1;fill-rule:evenodd;stroke:none;stroke-width:0.17053521px;stroke-linecap:butt;stroke-linejoin:miter;stroke-opacity:1" />
          <path
             style="fill:#aad400;fill-opacity:1;fill-rule:evenodd;stroke:none;stroke-width:0.17053521px;stroke-linecap:butt;stroke-linejoin:miter;stroke-opacity:1"
             d="m 139.97523,16.258334 c -1.27803,-4.43877 -4.7332,-5.45319 -7.8261,-2.30099 2.53635,-1.1803 5.14173,-1.64333 7.8261,2.30099 z"
             id="path10257"
             inkscape:connector-curvature="0"
             sodipodi:nodetypes="ccc" />
          <path
             sodipodi:nodetypes="ccc"
             inkscape:connector-curvature="0"
             id="path10259"
             d="m 174.31161,11.632694 c -4.37423,-2.3923096 -7.64519,-0.97145 -7.4114,3.21592 0.90212,-2.42524 2.41237,-4.37838 7.4114,-3.21592 z"
             style="fill:#aad400;fill-opacity:1;fill-rule:evenodd;stroke:none;stroke-width:0.17053521px;stroke-linecap:butt;stroke-linejoin:miter;stroke-opacity:1" />
          <path
             sodipodi:nodetypes="ccc"
             inkscape:connector-curvature="0"
             id="path10261"
             d="m 191.01953,17.800164 c -1.27802,-4.43877 -4.7332,-5.45319 -7.8261,-2.30099 2.53635,-1.1803 5.14173,-1.64333 7.8261,2.30099 z"
             style="fill:#aad400;fill-opacity:1;fill-rule:evenodd;stroke:none;stroke-width:0.17053521px;stroke-linecap:butt;stroke-linejoin:miter;stroke-opacity:1" />
        </g>
      </g>
    </g>
    <rect
       style="opacity:0.51399997;fill:url(#linearGradient11067);fill-opacity:1;stroke:none;stroke-width:0.26294503;stroke-linecap:butt;stroke-linejoin:round;stroke-miterlimit:4;stroke-dasharray:none;stroke-dashoffset:0;stroke-opacity:1;paint-order:markers stroke fill"
       id="rect11059"
       width="135.46667"
       height="63.500004"
       x="0"
       y="233.49998" />
  </g>
</svg>
