<?xml version="1.0" encoding="UTF-8" standalone="no"?>
<!-- Created with Inkscape (http://www.inkscape.org/) -->

<svg
   xmlns:dc="http://purl.org/dc/elements/1.1/"
   xmlns:cc="http://creativecommons.org/ns#"
   xmlns:rdf="http://www.w3.org/1999/02/22-rdf-syntax-ns#"
   xmlns:svg="http://www.w3.org/2000/svg"
   xmlns="http://www.w3.org/2000/svg"
   xmlns:sodipodi="http://sodipodi.sourceforge.net/DTD/sodipodi-0.dtd"
   xmlns:inkscape="http://www.inkscape.org/namespaces/inkscape"
   width="310.15524"
   height="321.1893"
   viewBox="0 0 82.061906 84.981338"
   version="1.1"
   id="svg8260"
   inkscape:version="0.92.4 (5da689c313, 2019-01-14)"
   sodipodi:docname="Gnome.svg">
  <defs
     id="defs8254" />
  <sodipodi:namedview
     id="base"
     pagecolor="#ffffff"
     bordercolor="#666666"
     borderopacity="1.0"
     inkscape:pageopacity="0.0"
     inkscape:pageshadow="2"
     inkscape:zoom="1.979899"
     inkscape:cx="203.56024"
     inkscape:cy="148.6361"
     inkscape:document-units="px"
     inkscape:current-layer="layer1"
     showgrid="false"
     units="px"
     fit-margin-top="0"
     fit-margin-left="0"
     fit-margin-right="0"
     fit-margin-bottom="0"
     inkscape:window-width="1920"
     inkscape:window-height="1027"
     inkscape:window-x="-8"
     inkscape:window-y="-8"
     inkscape:window-maximized="1" />
  <metadata
     id="metadata8257">
    <rdf:RDF>
      <cc:Work
         rdf:about="">
        <dc:format>image/svg+xml</dc:format>
        <dc:type
           rdf:resource="http://purl.org/dc/dcmitype/StillImage" />
        <dc:title />
      </cc:Work>
    </rdf:RDF>
  </metadata>
  <g
     inkscape:label="Layer 1"
     inkscape:groupmode="layer"
     id="layer1"
     transform="translate(-8.6395312,-8.8235116)">
    <ellipse
       ry="5.9003768"
       rx="3.8974717"
       cy="40.630913"
       cx="65.280838"
       id="ellipse7799"
       style="opacity:1;fill:#fcd6bf;fill-opacity:1;stroke:#000000;stroke-width:0.26458333;stroke-linecap:round;stroke-miterlimit:4;stroke-dasharray:none;stroke-dashoffset:0;stroke-opacity:1;paint-order:markers fill stroke" />
    <ellipse
       style="opacity:1;fill:#fcd6bf;fill-opacity:1;stroke:#000000;stroke-width:0.26458333;stroke-linecap:round;stroke-miterlimit:4;stroke-dasharray:none;stroke-dashoffset:0;stroke-opacity:1;paint-order:markers fill stroke"
       id="ellipse7801"
       cx="-32.466732"
       cy="43.166481"
       rx="3.9128139"
       ry="5.3143625"
       transform="scale(-1,1)" />
    <path
       style="opacity:1;fill:#fcd6bf;fill-opacity:1;stroke:#000000;stroke-width:0.26458333;stroke-linecap:round;stroke-miterlimit:4;stroke-dasharray:none;stroke-dashoffset:0;stroke-opacity:1;paint-order:markers fill stroke"
       d="m 66.345844,43.25638 c 0,1.786918 -0.135837,5.74852 -1.025356,7.291451 -2.607174,4.522341 -8.979414,5.427306 -15.983489,5.427306 -6.718072,0 -13.478353,-1.663102 -16.242161,-5.891618 -1.100762,-1.684119 -0.766682,-4.826358 -0.766682,-6.827139 0,-7.024376 7.615118,-12.718757 17.008843,-12.718757 9.393727,0 17.008845,5.694381 17.008845,12.718757 z"
       id="path7777"
       inkscape:connector-curvature="0"
       sodipodi:nodetypes="sssssss" />
    <ellipse
       style="opacity:1;fill:#ffffff;fill-opacity:1;stroke:#000000;stroke-width:0.26458333;stroke-linecap:round;stroke-miterlimit:4;stroke-dasharray:none;stroke-opacity:1"
       id="ellipse7749"
       cx="44.584801"
       cy="40.166836"
       rx="4.4944692"
       ry="4.538105" />
    <ellipse
       style="opacity:1;fill:#000000;fill-opacity:1;stroke:#000000;stroke-width:0.5291667;stroke-linecap:round;stroke-miterlimit:4;stroke-dasharray:none;stroke-opacity:1"
       id="ellipse7751"
       cx="45.108429"
       cy="40.646828"
       rx="0.9163481"
       ry="1.0036193" />
    <ellipse
       ry="0.51072383"
       rx="0.51038289"
       cy="40.360466"
       cx="45.369217"
       id="ellipse7755"
       style="opacity:1;fill:#ffffff;fill-opacity:1;stroke:none;stroke-width:0.5291667;stroke-linecap:round;stroke-miterlimit:4;stroke-dasharray:none;stroke-opacity:1" />
    <ellipse
       ry="4.538105"
       rx="4.4944692"
       cy="40.282543"
       cx="54.419846"
       id="ellipse7763"
       style="opacity:1;fill:#ffffff;fill-opacity:1;stroke:#000000;stroke-width:0.26458333;stroke-linecap:round;stroke-miterlimit:4;stroke-dasharray:none;stroke-opacity:1" />
    <ellipse
       ry="1.0036193"
       rx="0.9163481"
       cy="40.762535"
       cx="54.94347"
       id="ellipse7765"
       style="opacity:1;fill:#000000;fill-opacity:1;stroke:#000000;stroke-width:0.5291667;stroke-linecap:round;stroke-miterlimit:4;stroke-dasharray:none;stroke-opacity:1" />
    <ellipse
       style="opacity:1;fill:#ffffff;fill-opacity:1;stroke:none;stroke-width:0.5291667;stroke-linecap:round;stroke-miterlimit:4;stroke-dasharray:none;stroke-opacity:1"
       id="ellipse7769"
       cx="55.204262"
       cy="40.476173"
       rx="0.51038289"
       ry="0.51072383" />
    <path
       style="fill:#5555ff;fill-rule:evenodd;stroke:#000000;stroke-width:0.5291667;stroke-linecap:butt;stroke-linejoin:miter;stroke-miterlimit:4;stroke-dasharray:none;stroke-opacity:1"
       d="M 22.120792,63.977262 C 26.635111,62.386234 28.72174,49.632192 34.82687,50.644309 l 28.31887,-0.713924 c 5.662761,-1.063255 8.086922,11.419357 13.046168,13.451583 l -1.233362,7.75295 c -3.413735,1.474738 -3.947433,-4.993614 -8.60016,-6.926111 5.172391,5.68669 8.512533,11.430638 3.629095,17.431574 l -42.121334,-0.05949 c -1.538476,-3.78064 -5.195748,-5.054473 2.974667,-16.420183 -4.114879,0.218064 -4.765177,8.059951 -6.824126,6.380238 z"
       id="path7803"
       inkscape:connector-curvature="0"
       sodipodi:nodetypes="ccccccccccc" />
    <path
       style="fill:#f8ab9b;fill-opacity:1;fill-rule:evenodd;stroke:none;stroke-width:0.5291667;stroke-linecap:butt;stroke-linejoin:miter;stroke-miterlimit:4;stroke-dasharray:none;stroke-opacity:1"
       d="m 34.037445,38.212212 c 0.331436,2.714337 -0.17152,7.456192 1.198943,8.334225 2.228881,2.088521 6.252857,0.930438 8.752468,2.075095 L 33.752039,50.583557 C 31.356575,47.676772 32.450783,40.103241 34.037445,38.212212 Z"
       id="path7840"
       inkscape:connector-curvature="0"
       sodipodi:nodetypes="ccccc" />
    <path
       inkscape:connector-curvature="0"
       style="fill:#ffffff;fill-rule:evenodd;stroke:#000000;stroke-width:0.26458333;stroke-linecap:butt;stroke-linejoin:miter;stroke-miterlimit:4;stroke-dasharray:none;stroke-opacity:1"
       d="m 43.988856,48.621532 c -3.017068,-0.322752 -5.994823,-1.706948 -9.161986,2.022777 -2.167345,0.345604 -2.979547,1.124847 -1.189863,2.736698 -3.081796,2.418156 -0.793812,3.547821 0.356958,5.59238 -0.649738,2.076272 -0.410764,4.179079 1.85315,5.61677 -0.375929,1.082313 -0.924879,2.569436 2.727847,2.593323 2.307096,2.956035 3.707714,2.864838 6.508375,3.335932 0.948427,0.159534 3.800929,-0.895091 4.549304,-3.230356 0.34001,1.614842 2.724985,3.19836 3.715255,3.223097 2.494593,0.06231 3.797819,0.742876 7.180134,-3.209685 1.657568,-0.545573 3.160316,-1.544913 2.792871,-3.834757 -0.198958,-1.239895 4.220614,-1.342277 0.657747,-6.755077 2.086907,-0.575101 2.522373,-6.101218 -0.832908,-6.782249 C 61.462332,48.944047 61.785116,47.08 55.411601,48.145584 Z"
       id="path7797" />
    <path
       style="fill:none;fill-rule:evenodd;stroke:#000000;stroke-width:0.5291667;stroke-linecap:round;stroke-linejoin:miter;stroke-miterlimit:4;stroke-dasharray:none;stroke-opacity:1"
       d="m 40.641269,52.629062 c -0.747943,0.426164 3.178305,6.278787 8.461031,5.814249 5.501222,-0.483754 9.188746,-5.135197 8.330861,-5.510518"
       id="path7783"
       inkscape:connector-curvature="0"
       sodipodi:nodetypes="csc" />
    <ellipse
       style="opacity:1;fill:#000000;fill-opacity:1;stroke:none;stroke-width:0.5291667;stroke-linecap:round;stroke-miterlimit:4;stroke-dasharray:none;stroke-dashoffset:0;stroke-opacity:1;paint-order:markers fill stroke"
       id="path7785"
       cx="40.619576"
       cy="52.549496"
       rx="1.1064426"
       ry="0.91841966" />
    <ellipse
       ry="0.91841966"
       rx="1.1064426"
       cy="52.636276"
       cx="57.61396"
       id="ellipse7787"
       style="opacity:1;fill:#000000;fill-opacity:1;stroke:none;stroke-width:0.5291667;stroke-linecap:round;stroke-miterlimit:4;stroke-dasharray:none;stroke-dashoffset:0;stroke-opacity:1;paint-order:markers fill stroke" />
    <path
       style="fill:#d40000;fill-rule:evenodd;stroke:#000000;stroke-width:0.26458333;stroke-linecap:butt;stroke-linejoin:miter;stroke-miterlimit:4;stroke-dasharray:none;stroke-opacity:1"
       d="m 34.310147,33.30453 c 0,0 3.17266,-23.047362 7.8197,-24.1825195 3.889065,-0.9500051 18.343048,19.7727775 18.343048,19.7727775 z"
       id="path7793"
       inkscape:connector-curvature="0"
       sodipodi:nodetypes="cscc" />
    <path
       style="fill:#ffffff;fill-rule:evenodd;stroke:#000000;stroke-width:0.26458333;stroke-linecap:butt;stroke-linejoin:miter;stroke-miterlimit:4;stroke-dasharray:none;stroke-opacity:1"
       d="m 34.535496,36.801918 c 7.233065,-2.528595 14.858566,-4.468598 27.860359,-1.747781 1.298011,-3.157753 -0.866563,-5.068168 -1.92296,-6.159349 -7.164601,-0.603764 -14.235676,-1.311766 -25.714103,2.892659 -1.80535,2.333622 -1.485631,3.440049 -0.223296,5.014471 z"
       id="path7789"
       inkscape:connector-curvature="0"
       sodipodi:nodetypes="ccccc" />
    <ellipse
       style="opacity:1;fill:#f8ab9b;fill-opacity:1;stroke:#000000;stroke-width:0.26458333;stroke-linecap:round;stroke-miterlimit:4;stroke-dasharray:none;stroke-dashoffset:0;stroke-opacity:1;paint-order:markers fill stroke"
       id="path7795"
       cx="49.283779"
       cy="47.84811"
       rx="7.1987033"
       ry="5.6518745" />
    <path
       style="fill:#008000;fill-rule:evenodd;stroke:#000000;stroke-width:0.5291667;stroke-linecap:butt;stroke-linejoin:miter;stroke-miterlimit:4;stroke-dasharray:none;stroke-opacity:1"
       d="m 26.420686,78.718896 c 1.102462,2.919273 0.29558,7.583715 2.949,10.192464 2.513129,2.470828 5.61568,3.513924 8.792255,3.426915 3.176578,-0.087 9.241144,1.164745 10.895666,-3.342776 1.932559,4.700344 5.975031,3.396711 9.839729,3.369533 3.864698,-0.02721 6.612848,0.157886 10.100595,-3.621941 2.9116,-3.155434 2.073335,-7.710286 3.061135,-10.80905 -14.532969,4.811215 -29.648405,5.72439 -45.63838,0.784855 z"
       id="path7814"
       inkscape:connector-curvature="0"
       sodipodi:nodetypes="cszczscc" />
    <path
       style="fill:#005500;fill-rule:evenodd;stroke:none;stroke-width:0.5291667;stroke-linecap:butt;stroke-linejoin:miter;stroke-miterlimit:4;stroke-dasharray:none;stroke-opacity:1"
       d="m 27.955385,82.88974 c 5.940524,4.008989 11.190747,9.615147 21.001175,4.670233 -0.411037,4.971813 -6.891483,4.508328 -12.374629,4.937955 -5.372283,-2.123878 -9.615819,-4.735489 -8.626546,-9.608188 z"
       id="path8025"
       inkscape:connector-curvature="0"
       sodipodi:nodetypes="cccc" />
    <path
       sodipodi:nodetypes="cccscc"
       inkscape:connector-curvature="0"
       id="path8068"
       d="M 55.863515,79.355883 C 54.69818,81.641234 26.91615,76.216781 26.659443,72.755744 c -1.405884,2.081575 -0.348743,5.635141 -0.0095,5.76014 9.687432,3.207108 20.50348,2.999109 27.381672,2.928988 1.994104,-0.02033 0.266315,-1.327034 1.831856,-2.088989 z"
       style="fill:#0000d4;fill-rule:evenodd;stroke:none;stroke-width:0.5291667;stroke-linecap:butt;stroke-linejoin:miter;stroke-miterlimit:4;stroke-dasharray:none;stroke-opacity:1" />
    <path
       sodipodi:nodetypes="cccc"
       inkscape:connector-curvature="0"
       id="path8062"
       d="m 70.505252,82.88974 c -5.940524,4.275841 -11.681568,9.927951 -21.491996,4.653884 0.411037,5.302752 6.891483,4.808417 12.374629,5.266642 5.132378,-2.187279 8.896949,-4.330336 9.117367,-9.920526 z"
       style="fill:#005500;fill-rule:evenodd;stroke:none;stroke-width:0.5291667;stroke-linecap:butt;stroke-linejoin:miter;stroke-miterlimit:4;stroke-dasharray:none;stroke-opacity:1" />
    <path
       style="fill:#e2ebf0;fill-opacity:1;fill-rule:evenodd;stroke:none;stroke-width:0.5291667;stroke-linecap:butt;stroke-linejoin:miter;stroke-miterlimit:4;stroke-dasharray:none;stroke-opacity:1"
       d="m 56.10219,65.072469 c -2.728804,0.267312 -4.277459,-3.105077 -6.511411,-3.127217 -1.850797,-0.01835 -4.36987,3.331523 -6.638299,3.334024 -5.888908,2.125048 -7.616148,-16.162422 -8.12561,-14.634967 -0.614198,0.07682 -3.337844,0.435189 -1.189863,2.736698 -0.658441,0.797496 -1.907167,1.581218 -1.057809,3.40743 0.719317,1.388768 1.919544,1.89787 1.414767,2.18495 -0.338988,1.707307 -0.776794,3.414203 1.85315,5.61677 -0.428106,0.77089 -0.81209,2.463509 2.727847,2.593323 2.364712,2.640581 4.33788,3.011214 6.605159,3.225382 4.330269,-0.544995 4.079241,-4.130724 4.45252,-3.119806 0.743641,2.068151 3.495529,3.975096 6.067512,3.096638 2.610767,-0.346853 3.172341,-1.622579 4.827877,-3.083226 1.681167,-0.806495 2.969076,-1.580125 2.67383,-3.960402 2.592702,-2.572523 2.916684,-2.541947 0.776788,-6.629432 2.521935,-2.394251 1.778834,-5.742562 -0.832908,-6.782249 -0.911346,-1.202239 -2.4638,16.984041 -7.04355,15.142081 z"
       id="path7834"
       inkscape:connector-curvature="0"
       sodipodi:nodetypes="cscccccccccccccccc" />
    <ellipse
       style="opacity:1;fill:#fcd6bf;fill-opacity:1;stroke:none;stroke-width:0.5291667;stroke-linecap:round;stroke-miterlimit:4;stroke-dasharray:none;stroke-dashoffset:0;stroke-opacity:1;paint-order:markers fill stroke"
       id="path7842"
       cx="63.177677"
       cy="25.55961"
       rx="2.4504728"
       ry="1.1673925"
       transform="rotate(19.219072)" />
    <path
       style="fill:#0000d4;fill-rule:evenodd;stroke:none;stroke-width:0.5291667;stroke-linecap:butt;stroke-linejoin:miter;stroke-miterlimit:4;stroke-dasharray:none;stroke-opacity:1"
       d="m 24.016688,71.540946 c 0.141236,-2.503396 9.702845,-10.659421 7.355203,-6.639487 -4.449078,0.02086 -6.263588,8.960126 -7.355203,6.639487 z"
       id="path8064"
       inkscape:connector-curvature="0"
       sodipodi:nodetypes="ccc" />
    <path
       sodipodi:nodetypes="cccc"
       inkscape:connector-curvature="0"
       id="path8066"
       d="m 74.958546,71.134918 c -0.935174,-0.246084 -8.148177,-8.541465 -7.492925,-9.194239 l -1.010015,2.098184 c 3.06432,0.335216 6.548506,9.268864 8.50294,7.096055 z"
       style="fill:#0000d4;fill-rule:evenodd;stroke:none;stroke-width:0.5291667;stroke-linecap:butt;stroke-linejoin:miter;stroke-miterlimit:4;stroke-dasharray:none;stroke-opacity:1" />
    <path
       style="fill:#e2ebf0;fill-opacity:1;fill-rule:evenodd;stroke:none;stroke-width:0.26458332px;stroke-linecap:butt;stroke-linejoin:miter;stroke-opacity:1"
       d="m 34.975948,32.088125 c -1.588556,1.748919 -1.388576,3.310594 -0.29336,4.399568 6.627724,-2.158379 14.835634,-3.930451 26.675856,-2.334064 l 0.41761,-1.469982 -9.404548,-1.186008 c -3.449187,-0.04662 -3.168013,0.316022 -4.911076,0.952734 -1.045383,-0.06646 -1.031226,-1.42424 -3.340869,0.05011 -1.759442,-0.741746 -2.559999,-0.340206 -3.173826,0.283974 -1.940411,-0.431482 -1.856996,0.35133 -2.605878,0.634765 -0.975566,-0.200392 -1.985212,-0.459974 -2.138156,0.7684 -1.389081,1.261162 -1.145744,-0.742514 -1.225753,-2.099497 z"
       id="path1007"
       inkscape:connector-curvature="0"
       sodipodi:nodetypes="ccccccccccc" />
    <g
       id="g7381">
      <path
         style="fill:#f8ab9b;fill-opacity:1;fill-rule:evenodd;stroke:#000000;stroke-width:0.26458332px;stroke-linecap:butt;stroke-linejoin:miter;stroke-opacity:1"
         d="m 76.328327,66.961768 5.418051,4.965643 c 1.600153,1.903668 0.01491,3.720093 -1.666836,2.278478 C 78.75125,71.11037 77.074508,68.763362 74.7528,67.801819 Z"
         id="path916"
         inkscape:connector-curvature="0"
         sodipodi:nodetypes="ccccc" />
      <path
         sodipodi:nodetypes="ccccc"
         inkscape:connector-curvature="0"
         id="path914"
         d="m 77.061032,66.462908 6.00039,4.243601 c 1.827207,1.686941 0.48339,3.688581 -1.36655,2.470293 -1.707641,-2.903544 -3.666663,-5.020644 -6.090999,-5.682072 z"
         style="fill:#f8ab9b;fill-opacity:1;fill-rule:evenodd;stroke:#000000;stroke-width:0.26458332px;stroke-linecap:butt;stroke-linejoin:miter;stroke-opacity:1" />
      <path
         sodipodi:nodetypes="ccccccc"
         inkscape:connector-curvature="0"
         id="path912"
         d="m 72.004198,72.837889 c -1.316528,-2.014124 -0.357564,-9.651308 4.18771,-9.455921 4.575204,1.910661 6.563823,3.697086 8.649297,6.468712 1.549669,2.854785 0.197787,2.902504 -1.701176,2.420951 -2.282798,-1.628878 -3.596201,-5.034841 -7.108232,-4.410276 -1.550223,1.371679 -0.598789,3.448292 -0.784049,5.2046 -0.166495,1.264416 -2.004718,1.966116 -3.24355,-0.228066 z"
         style="fill:#fcd6bf;fill-opacity:1;fill-rule:evenodd;stroke:#000000;stroke-width:0.26458333;stroke-linecap:butt;stroke-linejoin:miter;stroke-miterlimit:4;stroke-dasharray:none;stroke-opacity:1" />
      <path
         style="fill:#f8ab9b;fill-opacity:1;fill-rule:evenodd;stroke:none;stroke-width:0.22625066;stroke-linecap:butt;stroke-linejoin:miter;stroke-miterlimit:4;stroke-dasharray:none;stroke-opacity:1"
         d="m 75.05539,69.545038 c 0.300735,-2.687489 2.610394,-1.745099 2.998468,-1.700809 1.993754,0.377584 4.741566,4.699772 5.076208,4.122097 0.753535,-0.901845 -3.148195,-4.355251 -4.293184,-5.207797 -2.269061,-0.94691 -4.017781,1.656697 -3.781492,2.786509 z"
         id="path7850"
         inkscape:connector-curvature="0"
         sodipodi:nodetypes="ccccc" />
      <path
         sodipodi:nodetypes="cccc"
         inkscape:connector-curvature="0"
         id="path918"
         d="m 71.927497,67.664135 c 0.289595,2.611743 0.342838,5.446766 3.027716,5.795691 -0.873618,1.625869 -2.435177,0.122068 -2.84779,-0.700178 -1.029431,-2.105482 -0.468139,-3.567146 -0.179926,-5.095513 z"
         style="fill:#f8ab9b;fill-opacity:1;fill-rule:evenodd;stroke:none;stroke-width:0.26458332px;stroke-linecap:butt;stroke-linejoin:miter;stroke-opacity:1" />
    </g>
    <g
       id="g7393">
      <path
         sodipodi:nodetypes="ccccc"
         inkscape:connector-curvature="0"
         id="path927"
         d="m 22.167556,67.559356 -5.157115,5.236128 c -1.500742,1.982982 0.175288,3.715992 1.781136,2.190288 1.168307,-3.159375 2.722873,-5.589033 4.99239,-6.668008 z"
         style="fill:#f8ab9b;fill-opacity:1;fill-rule:evenodd;stroke:#000000;stroke-width:0.26458332px;stroke-linecap:butt;stroke-linejoin:miter;stroke-opacity:1" />
      <path
         style="fill:#f8ab9b;fill-opacity:1;fill-rule:evenodd;stroke:#000000;stroke-width:0.26458332px;stroke-linecap:butt;stroke-linejoin:miter;stroke-opacity:1"
         d="m 21.410306,67.098604 -5.775605,4.544802 c -1.738578,1.778146 -0.294191,3.70847 1.49105,2.397203 1.556974,-2.987045 3.405205,-5.201525 5.792558,-5.986024 z"
         id="path929"
         inkscape:connector-curvature="0"
         sodipodi:nodetypes="ccccc" />
      <path
         style="fill:#fcd6bf;fill-opacity:1;fill-rule:evenodd;stroke:#000000;stroke-width:0.26458333;stroke-linecap:butt;stroke-linejoin:miter;stroke-miterlimit:4;stroke-dasharray:none;stroke-opacity:1"
         d="m 26.786427,73.206737 c 1.211841,-2.078794 -0.136293,-9.656968 -4.665635,-9.229475 -4.471546,2.142054 -6.36624,4.027805 -8.307298,6.902419 -1.401701,2.930274 -0.04915,2.908821 1.822716,2.33082 2.196542,-1.743449 3.334109,-5.212101 6.873476,-4.767894 1.618319,1.290635 0.774289,3.413172 1.049092,5.157712 0.230916,1.254252 2.102608,1.861062 3.227649,-0.393582 z"
         id="path931"
         inkscape:connector-curvature="0"
         sodipodi:nodetypes="ccccccc" />
      <path
         sodipodi:nodetypes="ccccc"
         inkscape:connector-curvature="0"
         id="path933"
         d="m 23.57089,70.074173 c -0.437731,-2.668601 -2.696194,-1.60937 -3.081496,-1.545299 -1.971844,0.479014 -4.495106,4.936024 -4.858843,4.376212 -0.798653,-0.862144 2.921432,-4.510498 4.02134,-5.420462 2.217687,-1.06167 4.097221,1.449135 3.918999,2.589549 z"
         style="fill:#f8ab9b;fill-opacity:1;fill-rule:evenodd;stroke:none;stroke-width:0.22625066;stroke-linecap:butt;stroke-linejoin:miter;stroke-miterlimit:4;stroke-dasharray:none;stroke-opacity:1" />
      <path
         style="fill:#f8ab9b;fill-opacity:1;fill-rule:evenodd;stroke:none;stroke-width:0.26458332px;stroke-linecap:butt;stroke-linejoin:miter;stroke-opacity:1"
         d="m 26.598537,68.035826 c -0.155699,2.623133 -0.06394,5.457171 -2.727472,5.942895 0.955593,1.579083 2.438233,-0.0026 2.808272,-0.844846 0.92045,-2.155355 0.285169,-3.586414 -0.0808,-5.098049 z"
         id="path935"
         inkscape:connector-curvature="0"
         sodipodi:nodetypes="cccc" />
    </g>
    <g
       id="g7369">
      <path
         id="path939"
         d="m 36.925534,69.569646 a 3.5575126,1.8390533 87.705933 0 0 -1.695565,3.62789 3.5575126,1.8390533 87.705933 0 0 0.01385,0.232805 3.1655833,1.9897952 72.097738 0 0 -0.0211,-0.07386 3.1655833,1.9897952 72.097738 0 0 -2.866172,-2.400569 3.1655833,1.9897952 72.097738 0 0 -0.920658,3.623933 3.1655833,1.9897952 72.097738 0 0 0.09563,0.26446 2.8038025,1.7184596 64.420316 0 0 -1.79449,-0.480773 2.8038025,1.7184596 64.420316 0 0 -0.33964,3.271103 2.8038025,1.7184596 64.420316 0 0 1.816253,1.814276 8.0496259,6.0296825 81.287623 0 0 -0.01583,3.271102 8.0496259,6.0296825 81.287623 0 0 2.209313,4.925118 5.3965659,4.4770394 77.092677 0 0 0.156301,1.282063 5.3965659,4.4770394 77.092677 0 0 5.568789,4.260348 5.3965659,4.4770394 77.092677 0 0 3.158988,-6.260602 5.3965659,4.4770394 77.092677 0 0 -0.04485,-0.17213 8.0496259,6.0296825 81.287623 0 0 0.871855,-5.860945 8.0496259,6.0296825 81.287623 0 0 -0.871195,-2.868808 2.4721698,4.1604807 7.3455609 0 0 1.644125,-3.378601 2.4721698,4.1604807 7.3455609 0 0 -1.919795,-4.442369 2.4721698,4.1604807 7.3455609 0 0 -2.984221,3.80991 2.4721698,4.1604807 7.3455609 0 0 -0.03561,0.375913 8.0496259,6.0296825 81.287623 0 0 -0.120688,-0.05474 3.5575126,1.8390533 87.705933 0 0 0.07452,-1.284697 3.5575126,1.8390533 87.705933 0 0 -1.979809,-3.480825 z"
         style="opacity:1;fill:#fcd6bf;fill-opacity:1;stroke:#000000;stroke-width:0.26458333;stroke-linecap:square;stroke-linejoin:round;stroke-miterlimit:4;stroke-dasharray:none;stroke-dashoffset:0;stroke-opacity:1;paint-order:normal"
         inkscape:connector-curvature="0" />
      <path
         style="fill:#f8ab9b;fill-opacity:1;fill-rule:evenodd;stroke:none;stroke-width:0.30490604;stroke-linecap:butt;stroke-linejoin:miter;stroke-miterlimit:4;stroke-dasharray:none;stroke-opacity:1"
         d="m 32.193458,79.403685 c -0.754906,2.579196 2.806888,8.444731 3.837107,8.803192 0.923568,1.632181 3.786263,1.147244 5.226539,1.806795 -1.040562,2.649382 -3.234265,3.17852 -5.577466,1.554331 -0.858372,-0.990066 -0.834736,-1.58341 -1.674404,-4.371648 -2.335414,-1.488613 -2.505156,-6.954207 -1.811776,-7.79267 z"
         id="path7844"
         inkscape:connector-curvature="0"
         sodipodi:nodetypes="cccccc" />
      <path
         sodipodi:nodetypes="czccc"
         inkscape:connector-curvature="0"
         id="path952"
         d="m 41.01508,86.732301 c -2.153471,-0.805869 -0.546728,-1.446588 -0.89423,-3.453667 -0.347501,-2.007081 -0.988047,-1.918438 -1.240217,-3.482348 2.898082,-4.487321 3.875004,0.04815 3.827067,2.89881 -1.059146,3.868701 -0.318427,3.996151 -1.69262,4.037205 z"
         style="fill:#f8ab9b;fill-opacity:1;fill-rule:evenodd;stroke:none;stroke-width:0.30490604;stroke-linecap:butt;stroke-linejoin:miter;stroke-miterlimit:4;stroke-dasharray:none;stroke-opacity:1" />
      <path
         sodipodi:nodetypes="cccc"
         inkscape:connector-curvature="0"
         id="path954"
         d="m 31.505415,79.184041 0.798933,-0.648192 c -1.517778,0.04195 -2.414704,-0.899134 -2.969619,-2.381724 0.295061,1.001227 0.02356,1.990891 2.170686,3.029916 z"
         style="fill:#f8ab9b;fill-opacity:1;fill-rule:evenodd;stroke:none;stroke-width:0.33766222px;stroke-linecap:butt;stroke-linejoin:miter;stroke-opacity:1" />
      <path
         sodipodi:nodetypes="cccc"
         style="fill:#f8ab9b;fill-opacity:1;fill-rule:evenodd;stroke:none;stroke-width:0.33766222px;stroke-linecap:butt;stroke-linejoin:miter;stroke-opacity:1"
         d="m 32.726426,76.651575 1.793831,-0.904455 c -1.534227,0.641205 -2.308088,-0.722186 -2.969619,-2.381724 0.147134,1.159813 0.284184,2.322279 1.175788,3.286179 z"
         id="path956"
         inkscape:connector-curvature="0" />
      <path
         sodipodi:nodetypes="cccc"
         inkscape:connector-curvature="0"
         id="path958"
         d="m 35.57545,75.098931 1.477272,-0.331634 c -1.404463,-0.01263 -1.198258,-1.528656 -1.492346,-2.577689 z"
         style="fill:#f8ab9b;fill-opacity:1;fill-rule:evenodd;stroke:none;stroke-width:0.33766222px;stroke-linecap:butt;stroke-linejoin:miter;stroke-opacity:1" />
      <path
         sodipodi:nodetypes="cccc"
         style="fill:#f8ab9b;fill-opacity:1;fill-rule:evenodd;stroke:none;stroke-width:0.33766222px;stroke-linecap:butt;stroke-linejoin:miter;stroke-opacity:1"
         d="m 39.148037,74.737149 1.552644,1.839052 C 39.527814,75.222482 39.744715,73.734269 39.76608,72.264978 Z"
         id="path960"
         inkscape:connector-curvature="0" />
    </g>
    <g
       id="g7353">
      <path
         inkscape:connector-curvature="0"
         style="opacity:1;fill:#fcd6bf;fill-opacity:1;stroke:#000000;stroke-width:0.26458333;stroke-linecap:square;stroke-linejoin:round;stroke-miterlimit:4;stroke-dasharray:none;stroke-dashoffset:0;stroke-opacity:1;paint-order:normal"
         d="m 60.141989,69.753575 a 1.8390533,3.5575126 2.294067 0 1 1.695565,3.62789 1.8390533,3.5575126 2.294067 0 1 -0.01385,0.232805 1.9897952,3.1655833 17.902262 0 1 0.0211,-0.07386 1.9897952,3.1655833 17.902262 0 1 2.866172,-2.400569 1.9897952,3.1655833 17.902262 0 1 0.920658,3.623933 1.9897952,3.1655833 17.902262 0 1 -0.09563,0.26446 1.7184596,2.8038025 25.579684 0 1 1.79449,-0.480773 1.7184596,2.8038025 25.579684 0 1 0.33964,3.271103 1.7184596,2.8038025 25.579684 0 1 -1.816253,1.814276 6.0296825,8.0496259 8.712377 0 1 0.01583,3.271102 6.0296825,8.0496259 8.712377 0 1 -2.209313,4.925118 4.4770394,5.3965659 12.907323 0 1 -0.156301,1.282063 4.4770394,5.3965659 12.907323 0 1 -5.568789,4.260348 4.4770394,5.3965659 12.907323 0 1 -3.158988,-6.260602 4.4770394,5.3965659 12.907323 0 1 0.04485,-0.17213 6.0296825,8.0496259 8.712377 0 1 -0.871855,-5.860945 6.0296825,8.0496259 8.712377 0 1 0.871195,-2.868808 4.1604807,2.4721698 82.654439 0 1 -1.644125,-3.378601 4.1604807,2.4721698 82.654439 0 1 1.919795,-4.442369 4.1604807,2.4721698 82.654439 0 1 2.984221,3.80991 4.1604807,2.4721698 82.654439 0 1 0.03561,0.375913 6.0296825,8.0496259 8.712377 0 1 0.120688,-0.05474 1.8390533,3.5575126 2.294067 0 1 -0.07452,-1.284697 1.8390533,3.5575126 2.294067 0 1 1.979809,-3.480825 z"
         id="path987" />
      <path
         sodipodi:nodetypes="cccccc"
         inkscape:connector-curvature="0"
         id="path989"
         d="m 64.874065,79.587614 c 0.754906,2.579196 -2.806888,8.444731 -3.837107,8.803192 -0.923568,1.632181 -3.786263,1.147244 -5.226539,1.806795 1.040562,2.649382 3.234265,3.17852 5.577466,1.554331 0.858372,-0.990066 0.834737,-1.58341 1.674405,-4.371648 2.335413,-1.488613 2.505155,-6.954207 1.811775,-7.79267 z"
         style="fill:#f8ab9b;fill-opacity:1;fill-rule:evenodd;stroke:none;stroke-width:0.30490604;stroke-linecap:butt;stroke-linejoin:miter;stroke-miterlimit:4;stroke-dasharray:none;stroke-opacity:1" />
      <path
         style="fill:#f8ab9b;fill-opacity:1;fill-rule:evenodd;stroke:none;stroke-width:0.30490604;stroke-linecap:butt;stroke-linejoin:miter;stroke-miterlimit:4;stroke-dasharray:none;stroke-opacity:1"
         d="m 56.052443,86.91623 c 2.153472,-0.805869 0.546729,-1.446588 0.89423,-3.453667 0.347501,-2.007081 0.988047,-1.918438 1.240217,-3.482348 -2.898082,-4.487321 -3.875003,0.04815 -3.827067,2.89881 1.059146,3.868701 0.318427,3.996151 1.69262,4.037205 z"
         id="path991"
         inkscape:connector-curvature="0"
         sodipodi:nodetypes="czccc" />
      <path
         style="fill:#f8ab9b;fill-opacity:1;fill-rule:evenodd;stroke:none;stroke-width:0.33766222px;stroke-linecap:butt;stroke-linejoin:miter;stroke-opacity:1"
         d="m 65.562108,79.36797 -0.798932,-0.648192 c 1.517777,0.04195 2.414703,-0.899134 2.969618,-2.381724 -0.29506,1.001227 -0.02356,1.990891 -2.170686,3.029916 z"
         id="path993"
         inkscape:connector-curvature="0"
         sodipodi:nodetypes="cccc" />
      <path
         inkscape:connector-curvature="0"
         id="path995"
         d="m 64.341097,76.835504 -1.793831,-0.904455 c 1.534227,0.641205 2.308088,-0.722186 2.969619,-2.381724 -0.147134,1.159813 -0.284184,2.322279 -1.175788,3.286179 z"
         style="fill:#f8ab9b;fill-opacity:1;fill-rule:evenodd;stroke:none;stroke-width:0.33766222px;stroke-linecap:butt;stroke-linejoin:miter;stroke-opacity:1"
         sodipodi:nodetypes="cccc" />
      <path
         style="fill:#f8ab9b;fill-opacity:1;fill-rule:evenodd;stroke:none;stroke-width:0.33766222px;stroke-linecap:butt;stroke-linejoin:miter;stroke-opacity:1"
         d="m 61.492073,75.28286 -1.477272,-0.331634 c 1.404463,-0.01263 1.198258,-1.528656 1.492346,-2.577689 z"
         id="path997"
         inkscape:connector-curvature="0"
         sodipodi:nodetypes="cccc" />
      <path
         inkscape:connector-curvature="0"
         id="path999"
         d="m 57.919486,74.921078 -1.552643,1.839052 c 1.172866,-1.353719 0.955965,-2.841932 0.934601,-4.311223 z"
         style="fill:#f8ab9b;fill-opacity:1;fill-rule:evenodd;stroke:none;stroke-width:0.33766222px;stroke-linecap:butt;stroke-linejoin:miter;stroke-opacity:1"
         sodipodi:nodetypes="cccc" />
    </g>
    <path
       style="fill:#f37359;fill-opacity:1;fill-rule:evenodd;stroke:none;stroke-width:0.26458332px;stroke-linecap:butt;stroke-linejoin:miter;stroke-opacity:1"
       d="m 66.266252,40.840723 c 0.145743,-0.237264 -0.106772,-0.965861 0.752945,-0.322297 -0.207046,0.459114 -0.203817,0.955528 0.02332,1.491657 l 0.680532,-0.455103 c 0.247063,-0.391246 -0.08381,-1.160237 -0.456836,-1.820473 -0.244135,-0.498565 -0.829006,-0.255606 -1.37386,-0.09974 -0.249978,-0.200047 0.991973,-1.036545 1.719927,-0.498666 0.367076,0.07712 0.871417,2.721743 0.72155,2.69516 -0.434609,0.752011 -1.014883,1.012472 -1.669069,1.023519 z"
       id="path1003"
       inkscape:connector-curvature="0"
       sodipodi:nodetypes="cccccccccc" />
    <path
       sodipodi:nodetypes="cccccccccc"
       inkscape:connector-curvature="0"
       id="path1005"
       d="m 31.99371,43.878986 c -0.195292,-0.198485 -0.112806,-0.965175 -0.806084,-0.14502 0.304839,0.400908 0.413146,0.885374 0.312177,1.458811 l -0.765336,-0.290693 c -0.328597,-0.325788 -0.178822,-1.149433 0.03645,-1.876564 0.125966,-0.540649 0.750454,-0.435206 1.316393,-0.405648 0.198682,-0.251064 -1.19937,-0.787368 -1.787977,-0.09978 -0.34039,0.157566 -0.238093,2.847905 -0.09802,2.788353 0.592352,0.635235 1.21629,0.758766 1.856255,0.622655 z"
       style="fill:#f37359;fill-opacity:1;fill-rule:evenodd;stroke:none;stroke-width:0.26458332px;stroke-linecap:butt;stroke-linejoin:miter;stroke-opacity:1" />
    <path
       style="fill:#a10000;fill-opacity:1;fill-rule:evenodd;stroke:none;stroke-width:0.26458332px;stroke-linecap:butt;stroke-linejoin:miter;stroke-opacity:1"
       d="M 40.323696,29.771292 41.99593,9.5161567 C 41.024053,9.8996526 38.353747,10.561719 34.975948,31.369838 Z"
       id="path1009"
       inkscape:connector-curvature="0"
       sodipodi:nodetypes="cccc" />
    <path
       style="fill:#f37359;fill-opacity:1;fill-rule:evenodd;stroke:none;stroke-width:0.26458332px;stroke-linecap:butt;stroke-linejoin:miter;stroke-opacity:1"
       d="m 42.974033,45.348725 c -0.36835,7.869977 5.129236,6.489823 9.085512,7.540198 -4.325333,1.239375 -6.125579,-0.145195 -7.57074,-0.986454 -2.450325,-1.597667 -2.837676,-4.158685 -1.514772,-6.553744 z"
       id="path1015"
       inkscape:connector-curvature="0"
       sodipodi:nodetypes="cccc" />
  </g>
</svg>
