<?xml version="1.0" encoding="UTF-8" standalone="no"?>
<!-- Created with Inkscape (http://www.inkscape.org/) -->

<svg
   xmlns:dc="http://purl.org/dc/elements/1.1/"
   xmlns:cc="http://creativecommons.org/ns#"
   xmlns:rdf="http://www.w3.org/1999/02/22-rdf-syntax-ns#"
   xmlns:svg="http://www.w3.org/2000/svg"
   xmlns="http://www.w3.org/2000/svg"
   xmlns:xlink="http://www.w3.org/1999/xlink"
   xmlns:sodipodi="http://sodipodi.sourceforge.net/DTD/sodipodi-0.dtd"
   xmlns:inkscape="http://www.inkscape.org/namespaces/inkscape"
   width="209.30099"
   height="397.55447"
   viewBox="0 0 55.377556 105.18629"
   version="1.1"
   id="svg16861"
   inkscape:version="0.92.4 (5da689c313, 2019-01-14)"
   sodipodi:docname="Tools.svg">
  <defs
     id="defs16855">
    <linearGradient
       inkscape:collect="always"
       id="linearGradient15197">
      <stop
         style="stop-color:#502d16;stop-opacity:1;"
         offset="0"
         id="stop15193" />
      <stop
         style="stop-color:#502d16;stop-opacity:0;"
         offset="1"
         id="stop15195" />
    </linearGradient>
    <linearGradient
       inkscape:collect="always"
       id="linearGradient15089">
      <stop
         style="stop-color:#b3b3b3;stop-opacity:1;"
         offset="0"
         id="stop15085" />
      <stop
         style="stop-color:#b3b3b3;stop-opacity:0;"
         offset="1"
         id="stop15087" />
    </linearGradient>
    <linearGradient
       inkscape:collect="always"
       xlink:href="#linearGradient15197"
       id="linearGradient18845"
       gradientUnits="userSpaceOnUse"
       x1="74.850029"
       y1="401.1676"
       x2="85.646996"
       y2="400.81161" />
    <linearGradient
       inkscape:collect="always"
       xlink:href="#linearGradient15197"
       id="linearGradient18847"
       gradientUnits="userSpaceOnUse"
       gradientTransform="matrix(-1,0,0,1,192.90479,0)"
       x1="74.850029"
       y1="401.1676"
       x2="85.646996"
       y2="400.81161" />
    <linearGradient
       inkscape:collect="always"
       xlink:href="#linearGradient15089"
       id="linearGradient18849"
       gradientUnits="userSpaceOnUse"
       gradientTransform="translate(266.29301,9.8171091)"
       x1="22.116547"
       y1="665.67072"
       x2="31.497116"
       y2="664.50372" />
    <linearGradient
       inkscape:collect="always"
       xlink:href="#linearGradient15089"
       id="linearGradient18851"
       gradientUnits="userSpaceOnUse"
       gradientTransform="translate(306.29301,9.8171091)"
       x1="22.116547"
       y1="665.67072"
       x2="31.497116"
       y2="664.50372" />
    <linearGradient
       inkscape:collect="always"
       xlink:href="#linearGradient15089"
       id="linearGradient18853"
       gradientUnits="userSpaceOnUse"
       gradientTransform="translate(346.29301,9.8171091)"
       x1="22.116547"
       y1="665.67072"
       x2="31.497116"
       y2="664.50372" />
    <linearGradient
       inkscape:collect="always"
       xlink:href="#linearGradient15089"
       id="linearGradient18855"
       gradientUnits="userSpaceOnUse"
       gradientTransform="translate(386.29301,9.8171091)"
       x1="22.116547"
       y1="665.67072"
       x2="31.497116"
       y2="664.50372" />
    <linearGradient
       inkscape:collect="always"
       xlink:href="#linearGradient15089"
       id="linearGradient18957"
       gradientUnits="userSpaceOnUse"
       x1="34.754082"
       y1="660.68689"
       x2="49.830441"
       y2="657.91797" />
    <linearGradient
       inkscape:collect="always"
       xlink:href="#linearGradient15089"
       id="linearGradient18959"
       gradientUnits="userSpaceOnUse"
       x1="157.16069"
       y1="677.26709"
       x2="132.7169"
       y2="669.46375" />
  </defs>
  <sodipodi:namedview
     id="base"
     pagecolor="#ffffff"
     bordercolor="#666666"
     borderopacity="1.0"
     inkscape:pageopacity="0.0"
     inkscape:pageshadow="2"
     inkscape:zoom="1.4"
     inkscape:cx="144.53963"
     inkscape:cy="139.63528"
     inkscape:document-units="mm"
     inkscape:current-layer="layer1"
     showgrid="false"
     fit-margin-top="0"
     fit-margin-left="0"
     fit-margin-right="0"
     fit-margin-bottom="0"
     units="px"
     inkscape:window-width="1920"
     inkscape:window-height="1027"
     inkscape:window-x="491"
     inkscape:window-y="-8"
     inkscape:window-maximized="1" />
  <metadata
     id="metadata16858">
    <rdf:RDF>
      <cc:Work
         rdf:about="">
        <dc:format>image/svg+xml</dc:format>
        <dc:type
           rdf:resource="http://purl.org/dc/dcmitype/StillImage" />
        <dc:title></dc:title>
      </cc:Work>
    </rdf:RDF>
  </metadata>
  <g
     inkscape:label="Layer 1"
     inkscape:groupmode="layer"
     id="layer1"
     transform="translate(-58.744003,-24.205067)">
    <g
       id="use15587"
       style="display:inline"
       transform="matrix(0.15590783,-0.02104411,0.02104411,0.15590783,55.351382,17.139759)">
      <rect
         inkscape:export-ydpi="95.999969"
         inkscape:export-xdpi="95.999969"
         inkscape:export-filename="C:\Projects\Phaser\FlitAndBob\assets\Levels\Grass_Platform2.png"
         inkscape:label="#rect8200"
         y="600.36212"
         x="0.0054887813"
         height="64"
         width="64"
         id="rect18857"
         style="display:inline;opacity:1;fill:#ff0000;fill-opacity:0.01831503;stroke:none;stroke-width:3.14754081;stroke-linecap:round;stroke-miterlimit:4;stroke-dasharray:none;stroke-dashoffset:0;stroke-opacity:1;paint-order:markers fill stroke;shape-rendering:crispEdges" />
      <g
         id="g18901">
        <g
           id="g18895">
          <path
             style="fill:#a05a2c;fill-rule:evenodd;stroke:#000000;stroke-width:1px;stroke-linecap:butt;stroke-linejoin:miter;stroke-opacity:1"
             d="M 74.757247,263.46284 H 116.7637 c 3.44565,93.20358 -1.5124,184.00611 -4.27184,275.4368 H 79.385077 c -3.055289,-92.06438 -7.028061,-184.28167 -4.62783,-275.4368 z"
             id="path18859"
             inkscape:connector-curvature="0"
             sodipodi:nodetypes="ccccc" />
          <path
             style="fill:#c87137;fill-rule:evenodd;stroke:none;stroke-width:0.61322898px;stroke-linecap:butt;stroke-linejoin:miter;stroke-opacity:1"
             d="m 105.34907,536.33463 c -0.56796,-3.02064 -11.789946,-37.75811 -8.760842,-59.90953 3.029105,-22.15143 8.140722,-29.19961 6.626162,-47.3235 -1.51455,-18.1239 -5.490248,-38.26156 -4.354334,-48.33039 1.135913,-10.06883 5.111614,-43.29597 5.111614,-43.29597 0,0 -4.354337,42.28909 -2.83978,47.82695 1.51455,5.53785 8.14071,41.78564 5.86889,52.35791 -2.27183,10.57227 -12.116423,38.765 -9.276638,46.82006 2.839778,8.05506 7.624928,51.85447 7.624928,51.85447 z"
             id="path18861"
             inkscape:connector-curvature="0"
             sodipodi:nodetypes="cssscsssc" />
          <path
             style="fill:#784421;fill-rule:evenodd;stroke:none;stroke-width:0.6924848px;stroke-linecap:butt;stroke-linejoin:miter;stroke-opacity:1"
             d="m 105.34178,514.43493 c 0,0 -5.794031,-31.71682 -3.62127,-40.77876 2.17276,-9.06195 7.4116,-31.59096 8.37727,-36.62537 0.96567,-5.03442 -2.56873,23.05774 -4.756,38.63913 -1.8141,12.92305 0,38.765 0,38.765 z"
             id="path18863"
             inkscape:connector-curvature="0"
             sodipodi:nodetypes="csssc" />
          <path
             style="fill:#d38d5f;fill-rule:evenodd;stroke:none;stroke-width:0.83457416px;stroke-linecap:butt;stroke-linejoin:miter;stroke-opacity:1"
             d="m 87.804065,303.74466 c 0,0 17.182045,19.13078 13.324855,43.79941 -3.857196,24.66864 -7.71439,41.28221 -4.909158,59.4061 2.805232,18.12389 6.662428,20.13766 3.506541,30.70993 -3.155887,10.57227 -6.311773,31.21337 -5.259811,41.78564 1.051962,10.57228 6.662428,51.35104 3.155886,54.87513 0.701308,-17.11701 -8.415697,-49.33727 -6.662427,-59.4061 1.753271,-10.06883 8.415697,-37.25467 5.610465,-48.33038 -2.805233,-11.07572 -7.714389,-26.17896 -5.610465,-39.26844 2.103924,-13.08948 9.117009,-41.78564 8.766352,-46.82006 -0.350655,-5.03441 -11.922238,-36.75123 -11.922238,-36.75123 z"
             id="path18865"
             inkscape:connector-curvature="0"
             sodipodi:nodetypes="csssscssssc" />
          <path
             style="fill:#c87137;fill-opacity:1;fill-rule:evenodd;stroke:none;stroke-width:1px;stroke-linecap:butt;stroke-linejoin:miter;stroke-opacity:1"
             d="m 91.488631,324.72495 c -2.588904,0.18492 -12.280491,30.2461 0.355988,47.34626 -3.203883,2.13592 -12.459542,-13.88349 -11.035594,-23.85112 2.690944,-18.83659 10.679606,-23.49514 10.679606,-23.49514 z"
             id="path18867"
             inkscape:connector-curvature="0"
             sodipodi:nodetypes="ccsc" />
          <path
             style="fill:#784421;fill-opacity:1;fill-rule:evenodd;stroke:none;stroke-width:0.86726314px;stroke-linecap:butt;stroke-linejoin:miter;stroke-opacity:1"
             d="m 90.001314,266.69909 c 0,0 -3.480801,24.91908 1.071015,35.2427 4.551815,10.32362 13.119941,19.22329 13.387691,35.59869 0.26776,16.3754 -1.60652,33.81876 -3.21304,37.37862 -1.606526,3.55987 2.14203,25.63106 2.14203,25.63106 0,0 -2.9453,-24.56309 -0.26776,-24.56309 2.67754,0 5.62283,-25.98705 4.81957,-28.83494 -0.80326,-2.8479 1.60652,-24.20711 -1.07102,-25.63106 -2.67753,-1.42395 -11.781164,-17.79934 -13.119933,-25.27507 -1.338769,-7.47572 -3.748553,-29.54691 -3.748553,-29.54691 z"
             id="path18869"
             inkscape:connector-curvature="0" />
          <path
             sodipodi:nodetypes="ccsc"
             inkscape:connector-curvature="0"
             id="path18871"
             d="m 114.11034,463.18446 c -2.5889,0.18492 -14.772403,25.26228 -2.13592,42.36244 -3.20388,2.13592 -7.92071,-16.46439 -6.49676,-26.43202 2.69094,-18.83659 8.63268,-15.93042 8.63268,-15.93042 z"
             style="fill:#c87137;fill-opacity:1;fill-rule:evenodd;stroke:none;stroke-width:1px;stroke-linecap:butt;stroke-linejoin:miter;stroke-opacity:1" />
          <path
             style="fill:#784421;fill-rule:evenodd;stroke:none;stroke-width:0.77683228px;stroke-linecap:butt;stroke-linejoin:miter;stroke-opacity:1"
             d="m 86.811828,528.70544 c 0,0 -3.652056,-48.7702 1.288962,-63.72165 4.941016,-14.95145 3.007575,-50.90613 -0.644481,-61.22975 -3.652056,-10.32362 -0.859307,-24.91908 -0.859307,-24.91908 l -3.652057,-21.35921 c 0,0 2.363096,17.79934 1.288962,22.42717 -1.074135,4.62783 -1.933442,27.76698 2.148268,34.88672 4.08171,7.11973 1.288961,39.15855 -0.429654,48.41421 -1.718614,9.25566 0.859307,65.50159 0.859307,65.50159 z"
             id="path18873"
             inkscape:connector-curvature="0" />
          <path
             inkscape:connector-curvature="0"
             id="path18875"
             d="m 81.204532,528.70544 c 0,0 3.652056,-48.7702 -1.288962,-63.72165 -4.941016,-14.95145 -3.007575,-50.90613 0.644481,-61.22975 3.652056,-10.32362 0.859307,-24.91908 0.859307,-24.91908 l 3.652057,-21.35921 c 0,0 -2.363096,17.79934 -1.288962,22.42717 1.074135,4.62783 1.933442,27.76698 -2.148268,34.88672 -4.08171,7.11973 -1.288961,39.15855 0.429654,48.41421 1.718614,9.25566 -0.859307,65.50159 -0.859307,65.50159 z"
             style="fill:#784421;fill-rule:evenodd;stroke:none;stroke-width:0.77683228px;stroke-linecap:butt;stroke-linejoin:miter;stroke-opacity:1" />
          <path
             style="fill:#c87137;fill-rule:evenodd;stroke:none;stroke-width:1px;stroke-linecap:butt;stroke-linejoin:miter;stroke-opacity:1"
             d="m 83.973423,415.35045 c 0,0 -5.69579,36.31066 0.355987,44.14237 6.051777,7.83172 -0.355987,-44.14237 -0.355987,-44.14237 z"
             id="path18877"
             inkscape:connector-curvature="0" />
          <path
             style="fill:#784421;fill-rule:evenodd;stroke:none;stroke-width:0.77683228px;stroke-linecap:butt;stroke-linejoin:miter;stroke-opacity:1"
             d="m 110.40414,485.91291 c 0,0 3.65205,-48.7702 -1.28896,-63.72165 -4.94102,-14.95145 -3.00758,-50.90613 0.64448,-61.22975 3.65205,-10.32362 0.8593,-24.91908 0.8593,-24.91908 l 3.65206,-21.35921 c 0,0 -2.36309,17.79934 -1.28896,22.42717 1.07413,4.62783 1.93344,27.76698 -2.14827,34.88672 -4.08171,7.11973 -1.28896,39.15855 0.42966,48.41421 1.71861,9.25566 -0.85931,65.50159 -0.85931,65.50159 z"
             id="path18879"
             inkscape:connector-curvature="0" />
          <path
             style="fill:#d38d5f;fill-rule:evenodd;stroke:none;stroke-width:1px;stroke-linecap:butt;stroke-linejoin:miter;stroke-opacity:1"
             d="m 115.69574,363.52752 c 0,0 -4.27184,12.81553 -4.44984,22.78317 -0.17799,9.96763 4.27185,37.20063 3.20389,37.37862 -1.06796,0.17799 1.77993,-20.64724 0.88996,-33.28478 -0.88996,-12.63753 0.35599,-26.87701 0.35599,-26.87701 z"
             id="path18881"
             inkscape:connector-curvature="0" />
          <path
             style="fill:#c87137;fill-rule:evenodd;stroke:none;stroke-width:1px;stroke-linecap:butt;stroke-linejoin:miter;stroke-opacity:1"
             d="m 95.150442,272.02785 c 0,0 2.072015,31.66759 10.572268,41.78564 3.12971,9.80184 5.03442,15.10325 5.03442,15.10325 0,0 1.097,-11.87024 -6.0413,-25.67552 -2.2729,-4.39572 -5.738529,-9.51561 -6.188752,-36.60115 -0.05089,-3.06189 -3.376636,5.38778 -3.376636,5.38778 z"
             id="path18883"
             inkscape:connector-curvature="0"
             sodipodi:nodetypes="cccssc" />
          <path
             inkscape:connector-curvature="0"
             id="path18885"
             d="m 115.47588,272.02785 c 0,0 -0.8568,31.18283 -9.41531,41.25166 -1.57345,-8.49671 -0.17167,-9.99129 -0.15008,-10.03829 6.54474,-14.09636 8.40844,-9.24862 6.63374,-36.77915 -0.197,-3.05597 2.93165,5.56578 2.93165,5.56578 z"
             style="fill:#c87137;fill-rule:evenodd;stroke:none;stroke-width:1px;stroke-linecap:butt;stroke-linejoin:miter;stroke-opacity:1"
             sodipodi:nodetypes="cccsc" />
          <path
             style="fill:#784421;fill-rule:evenodd;stroke:none;stroke-width:1px;stroke-linecap:butt;stroke-linejoin:miter;stroke-opacity:1"
             d="m 102.16824,266.69909 h 6.76375 c 0,0 2.04692,23.85112 -3.91586,31.68283 -1.06796,-8.98867 -2.84789,-31.68283 -2.84789,-31.68283 z"
             id="path18887"
             inkscape:connector-curvature="0"
             sodipodi:nodetypes="cccc" />
          <path
             style="fill:#784421;fill-opacity:1;fill-rule:evenodd;stroke:none;stroke-width:0.77335131px;stroke-linecap:butt;stroke-linejoin:miter;stroke-opacity:1"
             d="m 79.265005,331.43395 c 0,0 4.826643,-5.98329 5.269152,-17.87217 0.78638,-21.12764 -2.484029,-16.61358 -2.709849,-26.68241 -0.297883,-13.2819 1.957113,-10.01066 1.957113,-20.38938 -3.010944,8.30679 -4.215322,6.6706 -4.817511,12.7119 -0.602188,6.0413 1.423738,14.27487 0.602189,25.54966 4.615573,1.90905 -0.301094,26.6824 -0.301094,26.6824 z"
             id="path18889"
             inkscape:connector-curvature="0"
             sodipodi:nodetypes="csscscc" />
          <path
             inkscape:connector-curvature="0"
             id="path18891"
             d="m 85.232027,533.79914 c 0,0 -5.69579,-36.31066 0.355987,-44.14237 6.051777,-7.83172 -0.355987,44.14237 -0.355987,44.14237 z"
             style="fill:#784421;fill-rule:evenodd;stroke:none;stroke-width:1px;stroke-linecap:butt;stroke-linejoin:miter;stroke-opacity:1" />
          <path
             sodipodi:nodetypes="cccc"
             inkscape:connector-curvature="0"
             id="path18893"
             d="m 91.034037,333.46256 c -0.383766,-3.25667 3.830112,-5.12206 4.056925,-0.86092 0,0 1.727402,24.00498 -4.112183,31.92898 -2.956292,-7.59753 -0.373102,-30.73149 0.05526,-31.06806 z"
             style="fill:#784421;fill-rule:evenodd;stroke:none;stroke-width:1px;stroke-linecap:butt;stroke-linejoin:miter;stroke-opacity:1" />
        </g>
        <path
           sodipodi:nodetypes="ccccc"
           inkscape:connector-curvature="0"
           id="path18897"
           d="m 75.249234,264.01466 10.068829,-0.0305 6.736692,274.36689 H 79.836045 C 76.658611,446.90556 73.767648,355.46011 75.249234,264.01466 Z"
           style="fill:url(#linearGradient15199);fill-opacity:1;fill-rule:evenodd;stroke:none;stroke-width:1px;stroke-linecap:butt;stroke-linejoin:miter;stroke-opacity:1" />
        <path
           style="fill:url(#linearGradient15203);fill-opacity:1;fill-rule:evenodd;stroke:none;stroke-width:1px;stroke-linecap:butt;stroke-linejoin:miter;stroke-opacity:1"
           d="m 117.65555,264.01466 -10.06883,-0.0305 -6.73669,274.36689 h 12.21871 c 3.17744,-91.44549 6.0684,-182.89094 4.58681,-274.33639 z"
           id="path18899"
           inkscape:connector-curvature="0"
           sodipodi:nodetypes="ccccc" />
      </g>
      <g
         id="g18915">
        <path
           sodipodi:nodetypes="ccccccccc"
           inkscape:connector-curvature="0"
           id="path18903"
           d="m 77.42715,539.91903 36.84464,-0.17799 v 51.26211 c 18.62461,7.57291 33.6897,0.90773 50.19415,0 L 152.33895,716.342 37.022637,716.31053 24.919082,591.00315 c 18.204062,1.13837 39.853129,7.57674 52.508068,0.17799 z"
           style="fill:#e6e6e6;fill-rule:evenodd;stroke:#000000;stroke-width:2;stroke-linecap:butt;stroke-linejoin:miter;stroke-miterlimit:4;stroke-dasharray:none;stroke-opacity:1" />
        <path
           sodipodi:nodetypes="ccccccc"
           inkscape:connector-curvature="0"
           id="path18905"
           d="m 74.757247,598.30088 19.045299,14.41747 21.181224,-15.84142 -16.019414,25.09708 -2.313915,71.55336 -4.627829,-71.55336 z"
           style="fill:#ffffff;fill-rule:evenodd;stroke:none;stroke-width:1px;stroke-linecap:butt;stroke-linejoin:miter;stroke-opacity:1" />
        <path
           sodipodi:nodetypes="cccc"
           inkscape:connector-curvature="0"
           id="path18907"
           d="M 25.440413,591.53528 60.402709,715.74219 H 37.387569 Z"
           style="fill:url(#linearGradient18957);fill-opacity:1;fill-rule:evenodd;stroke:none;stroke-width:1px;stroke-linecap:butt;stroke-linejoin:miter;stroke-opacity:1" />
        <path
           style="fill:url(#linearGradient18959);fill-opacity:1;fill-rule:evenodd;stroke:none;stroke-width:1px;stroke-linecap:butt;stroke-linejoin:miter;stroke-opacity:1"
           d="m 163.93027,591.46853 -35.21402,124.27366 h 23.01514 z"
           id="path18909"
           inkscape:connector-curvature="0"
           sodipodi:nodetypes="cccc" />
        <path
           sodipodi:nodetypes="cccccccc"
           inkscape:connector-curvature="0"
           id="path18911"
           d="M 77.783136,540.542 H 84.1909 l 0.444984,46.54528 c 0.259513,4.48698 4.33639,5.15659 6.941744,7.29773 l -7.564721,-2.5809 c -3.689972,2.65732 -11.092536,3.53403 -17.121616,3.61832 3.233725,-1.24571 8.476811,-1.93366 10.980842,-4.1523 z"
           style="fill:#b3b3b3;fill-opacity:1;fill-rule:evenodd;stroke:none;stroke-width:1px;stroke-linecap:butt;stroke-linejoin:miter;stroke-opacity:1" />
        <path
           sodipodi:nodetypes="cccccccc"
           inkscape:connector-curvature="0"
           id="path18913"
           d="m 105.72271,540.73974 7.55163,-0.25172 -0.12586,51.22518 12.96361,3.77581 c -4.37749,-0.0643 -9.74203,0.62955 -16.99115,-3.90167 -0.77581,2.06494 -4.29072,2.17338 -7.2999,2.64306 2.52668,-1.76171 4.57999,-1.85103 5.91544,-6.29301 z"
           style="fill:#ffffff;fill-opacity:1;fill-rule:evenodd;stroke:none;stroke-width:1px;stroke-linecap:butt;stroke-linejoin:miter;stroke-opacity:1" />
      </g>
      <g
         id="g18953">
        <g
           id="g18931">
          <path
             style="fill:#447821;fill-rule:evenodd;stroke:#000000;stroke-width:1px;stroke-linecap:butt;stroke-linejoin:miter;stroke-opacity:1"
             d="m 94.406141,62.119497 c -21.34204,-0.071 -42.56567,3.05895 -63.64453,10.09375 l 1.00976,89.476563 c 8.03907,23.43916 22.36282,38.70869 39.8711,49.83789 v 54.10938 l 47.701169,-0.35547 V 211.5277 c 16.30482,-14.8769 31.76279,-30.28251 40.58203,-49.83789 l -1.16406,-90.460933 c -21.55298,-5.7663 -43.01343,-9.03841 -64.355469,-9.10938 z m 44.238279,40.630863 0.79492,61.125 c -0.6773,1.7441 -1.4293,3.43393 -2.25195,5.07422 -0.82265,1.64028 -1.7159,3.23229 -2.67188,4.77734 -1.91196,3.09009 -4.07796,5.99719 -6.45117,8.75781 -2.37321,2.76063 -4.95305,5.37324 -7.6914,7.87305 -2.73836,2.49981 -5.6352,4.88766 -8.64258,7.19531 v 0.32227 c -2.10536,1.06386 -4.25855,2.04751 -6.53711,2.81445 -1.13929,0.38347 -2.30937,0.71209 -3.52149,0.9707 -1.21211,0.25862 -2.464899,0.44686 -3.769529,0.54688 -1.30463,0.10001 -2.66129,0.11186 -4.07812,0.0195 -1.41684,-0.0923 -2.89464,-0.289 -4.44336,-0.60742 -1.54872,-0.31843 -3.16885,-0.75767 -4.86914,-1.33594 -1.7003,-0.57827 -3.48001,-1.29611 -5.35157,-2.16797 v -0.5625 c -2.85939,-2.51101 -5.84137,-4.96087 -8.74218,-7.45117 -2.90082,-2.4903 -5.7217,-5.02169 -8.25977,-7.69336 -1.26903,-1.33584 -2.46774,-2.70593 -3.57031,-4.125 -1.10257,-1.41907 -2.10856,-2.8865 -2.99414,-4.41406 -0.88558,-1.52757 -1.64951,-3.11603 -2.26758,-4.77735 -0.61807,-1.66131 -1.09058,-3.39646 -1.39062,-5.21679 l -0.68946,-60.46094 c 3.958,1.11136 7.87143,2.06405 11.74219,2.86133 3.87076,0.79728 7.69905,1.44077 11.48633,1.9375 3.78727,0.49673 7.53464,0.84497 11.24219,1.05469 3.70754,0.20971 7.37623,0.28058 11.00781,0.21679 3.631569,-0.0638 7.225799,-0.26217 10.785149,-0.58594 3.55936,-0.32376 7.08332,-0.77354 10.57422,-1.34374 3.4909,-0.57021 6.9488,-1.25937 10.375,-2.0625 3.4262,-0.80314 6.8203,-1.71965 10.18555,-2.74219 z"
             id="path18917"
             inkscape:connector-curvature="0" />
          <path
             style="fill:#2d5016;fill-rule:evenodd;stroke:none;stroke-width:1px;stroke-linecap:butt;stroke-linejoin:miter;stroke-opacity:1"
             d="m 48.204522,95.571608 2.487324,7.266852 c 25.331515,6.83256 52.208354,10.17252 88.581874,-0.6545 l 2.44506,-6.108911 C 111.71147,102.47983 77.544378,100.1798 48.204522,95.571608 Z"
             id="path18919"
             inkscape:connector-curvature="0"
             sodipodi:nodetypes="ccccc" />
          <path
             style="fill:#2d5016;fill-opacity:1;fill-rule:evenodd;stroke:none;stroke-width:1px;stroke-linecap:butt;stroke-linejoin:miter;stroke-opacity:1"
             d="m 31.716814,72.916741 6.041298,89.109139 c 8.388627,28.54274 24.127298,33.03078 37.25467,46.0649 7.257863,5.36987 11.257682,4.22366 16.613569,5.78958 l -13.341199,4.53097 -0.625597,46.98541 -5.550506,-0.19327 0.134805,-53.84032 C 54.199581,201.19086 40.194889,182.96353 31.771371,161.68981 Z"
             id="path18921"
             inkscape:connector-curvature="0"
             sodipodi:nodetypes="cccccccccc" />
          <path
             style="fill:#71c837;fill-rule:evenodd;stroke:none;stroke-width:1px;stroke-linecap:butt;stroke-linejoin:miter;stroke-opacity:1"
             d="m 92.200605,63.786562 c 21.285135,-1.449846 43.766325,3.87801 66.005025,7.831712 l 1.50662,89.226846 C 156.90631,132.76411 159.06852,104.6831 151.29443,76.602091 132.6378,67.123711 112.07245,67.188897 92.200605,63.786562 Z"
             id="path18923"
             inkscape:connector-curvature="0"
             sodipodi:nodetypes="ccccc" />
          <path
             style="fill:#71c837;fill-opacity:1;fill-rule:evenodd;stroke:none;stroke-width:1px;stroke-linecap:butt;stroke-linejoin:miter;stroke-opacity:1"
             d="m 48.414217,96.181369 1.423948,73.155301 c 12.029952,23.31697 19.306143,20.22415 28.656945,28.65695 -9.493211,-9.83898 -20.985747,-14.04351 -27.150326,-33.26318 l -0.438658,-62.3193 z"
             id="path18925"
             inkscape:connector-curvature="0"
             sodipodi:nodetypes="cccccc" />
          <path
             style="fill:#2d5016;fill-opacity:1;fill-rule:evenodd;stroke:none;stroke-width:1px;stroke-linecap:butt;stroke-linejoin:miter;stroke-opacity:1"
             d="m 143.99669,98.495283 -4.72297,3.688677 0.53561,61.216 c -1.40563,6.01778 -5.81852,11.16512 -8.90523,16.5716 6.22251,-4.17742 10.5905,-10.01416 13.62653,-17.04265 z"
             id="path18927"
             inkscape:connector-curvature="0"
             sodipodi:nodetypes="cccccc" />
          <path
             style="fill:#71c837;fill-opacity:1;fill-rule:evenodd;stroke:none;stroke-width:1px;stroke-linecap:butt;stroke-linejoin:miter;stroke-opacity:1"
             d="m 117.92066,264.74116 -3.82686,0.178 -0.35599,-54.28801 c 9.94315,-10.44322 22.65016,-17.43161 27.41099,-34.35273 -1.70541,14.08778 -14.39919,24.29732 -23.49513,35.77668 z"
             id="path18929"
             inkscape:connector-curvature="0"
             sodipodi:nodetypes="cccccc" />
        </g>
        <g
           id="g18951"
           style="font-style:normal;font-variant:normal;font-weight:normal;font-stretch:normal;font-size:17.33333397px;line-height:125%;font-family:'Segoe Print';-inkscape-font-specification:'Segoe Print';letter-spacing:0px;word-spacing:0px;fill:#2d5016;fill-opacity:1;stroke:#445500;stroke-width:1px;stroke-linecap:butt;stroke-linejoin:miter;stroke-opacity:1"
           aria-label="FBIS Tools">
          <path
             inkscape:connector-curvature="0"
             id="path18933"
             style="fill:#2d5016;fill-opacity:1;stroke:#445500;stroke-opacity:1"
             d="m 56.476947,78.922566 q -0.160808,0.287761 -0.465495,1.853516 -0.304688,1.557292 -0.304688,2.615235 0.583985,-0.0931 1.201823,-0.160808 l 1.777344,-0.203125 q 0.423177,-0.05925 1.184896,-0.26237 0.770182,-0.203125 1.049479,-0.203125 0.998698,0 0.998698,0.8125 0,0.160808 -0.28776,0.40625 -0.279297,0.245443 -0.753256,0.347006 -0.465494,0.101562 -2.259765,0.296224 -2.200521,0.253906 -2.615235,0.389323 -0.40625,0.126953 -0.482422,0.262369 -0.07617,0.126954 -0.160807,1.227214 -0.08463,1.091797 -0.08463,1.777344 l 0.03385,1.049479 q 0,0.863281 -0.626302,0.863281 -0.389323,0 -0.719401,-0.296224 -0.330078,-0.296224 -0.330078,-0.795573 0,-1.963541 0.964843,-8.277344 0.228516,-1.472656 0.228516,-1.582682 0,-0.160807 -0.101563,-0.490885 -0.135416,-0.414714 -0.135416,-0.575521 0,-0.228516 0.253906,-0.490886 0.253906,-0.270833 0.482422,-0.270833 l 1.117188,0.126953 q 0.516276,0 1.921224,-0.169271 2.386718,-0.28776 3.27539,-0.28776 0.778646,0 1.117188,0.236979 0.338541,0.236979 0.338541,0.465495 0,0.40625 -0.279296,0.702474 -0.270834,0.28776 -0.583985,0.28776 -0.14388,0 -0.313151,-0.03385 -0.922526,-0.152344 -1.404948,-0.152344 -0.905599,0 -2.352864,0.169271 -1.438803,0.160807 -1.684245,0.363932 z" />
          <path
             inkscape:connector-curvature="0"
             id="path18935"
             style="fill:#2d5016;fill-opacity:1;stroke:#445500;stroke-opacity:1"
             d="m 71.677468,82.316447 q 0,0.135416 0.169271,0.177734 0.914062,0.26237 1.616536,1.024089 0.702474,0.753255 0.702474,1.794271 0,1.599609 -2.048177,3.292317 -2.048177,1.692709 -4.307943,1.692709 -0.634765,0 -0.998698,-0.169271 -0.355468,-0.160807 -0.355468,-0.380859 0,-1.066407 1.50651,-1.066407 0.211589,0 0.651693,0.01693 0.448568,0.01693 1.024088,-0.211588 0.583985,-0.236979 1.134115,-0.600912 0.55013,-0.372396 0.939453,-0.761718 0.397787,-0.397787 0.634766,-0.837891 0.245443,-0.440104 0.245443,-0.888672 0,-0.727865 -0.634766,-1.294922 -0.626302,-0.567057 -1.675781,-0.567057 -0.169271,0 -0.804037,0.270833 -0.634766,0.279297 -0.829427,0.279297 -0.660156,0 -0.829427,-0.169271 -0.160807,-0.169271 -0.160807,-0.600911 0,-0.26237 1.430338,-0.846355 1.19336,-0.473958 2.310547,-1.548828 1.125651,-1.07487 1.125651,-1.819661 0,-0.516276 -0.423177,-0.820964 -0.423177,-0.304687 -1.184896,-0.304687 -1.261068,0 -2.505208,0.313151 -1.244141,0.304687 -1.371094,0.575521 -0.11849,0.270833 -0.685547,4.104817 -0.567057,3.825521 -0.567057,4.426433 0,0.592448 0.02539,1.108724 0.02539,0.507812 -0.186198,0.871745 -0.203125,0.372396 -0.702473,0.372396 -0.457032,0 -0.710938,-0.363933 -0.245443,-0.355469 -0.245443,-0.905599 0,-0.14388 0.07617,-0.440104 0.440104,-1.819661 0.829427,-4.654948 0.389323,-2.835287 0.389323,-3.275391 0,-0.355469 -0.101562,-0.524739 -0.0931,-0.169271 -0.440105,-0.169271 -0.135416,0 -0.270833,0.0085 -0.126953,0.0085 -0.26237,-0.160807 -0.126953,-0.169271 -0.126953,-0.40625 0,-0.744792 2.395183,-1.464193 2.395182,-0.719401 4.866536,-0.719401 1.269532,0 2.073568,0.685547 0.8125,0.677083 0.8125,1.591146 0,0.677083 -0.69401,1.599609 -0.685547,0.914063 -1.836589,1.768881 z" />
          <path
             inkscape:connector-curvature="0"
             id="path18937"
             style="fill:#2d5016;fill-opacity:1;stroke:#445500;stroke-opacity:1"
             d="m 79.726296,78.025431 q -0.05078,0.330078 -0.567057,2.361328 -0.245443,0.95638 -0.321615,1.608073 -0.05078,0.440104 -0.126953,0.95638 -0.338541,2.166667 -0.338541,2.96224 0,1.193359 0.14388,2.344401 0.08464,0.66862 -0.236979,0.964844 -0.321615,0.296224 -0.64323,0.296224 -0.457031,0 -0.634765,-0.507813 -0.177735,-0.516276 -0.177735,-1.658854 0,-1.193359 0.338542,-3.300781 0.11849,-0.795573 0.135417,-0.95638 0.01693,-0.287761 0.06771,-0.592448 0.04232,-0.296224 0.06771,-0.592448 0.05078,-0.78711 0.304688,-2.056641 0.186198,-0.95638 0.270833,-1.684245 0.05925,-0.507812 0.135417,-0.685547 0.07617,-0.177734 0.389323,-0.389323 0.321614,-0.211588 0.482422,-0.211588 0.355469,0 0.533203,0.347005 0.177734,0.338542 0.177734,0.795573 z" />
          <path
             inkscape:connector-curvature="0"
             id="path18939"
             style="fill:#2d5016;fill-opacity:1;stroke:#445500;stroke-opacity:1"
             d="m 90.119526,79.794311 q 0,-1.125651 -0.583985,-1.371094 -0.583984,-0.253906 -1.455729,-0.253906 -1.794271,0 -3.258464,0.710938 -1.455729,0.702474 -1.455729,1.692708 0,0.710938 0.643229,1.244141 0.651693,0.524739 2.826823,1.159505 2.107422,0.609375 2.996094,1.261068 0.897136,0.643229 0.897136,1.557291 0,0.922527 -1.244141,1.997396 -1.244141,1.066407 -3.004557,1.625 -1.751954,0.558594 -2.979167,0.558594 -1.024089,0 -1.557292,-0.245443 -0.52474,-0.236979 -0.52474,-0.600911 0,-0.253906 0.152344,-0.617839 0.160808,-0.372395 0.321615,-0.372395 0.169271,0 0.347005,0.05924 0.905599,0.338542 1.794271,0.338542 1.599609,0 3.39388,-0.93099 1.794271,-0.939453 1.794271,-1.751953 0,-0.347005 -0.55013,-0.660156 -0.541667,-0.321615 -2.759115,-1.024089 -2.750651,-0.871744 -3.385417,-1.692708 -0.626302,-0.829427 -0.626302,-1.74349 0,-1.760416 2.022787,-2.835286 2.022786,-1.083334 4.231771,-1.083334 1.464193,0 2.251302,0.499349 0.787109,0.490886 0.787109,1.091797 0,0.287761 -0.177734,0.837891 -0.177734,0.55013 -0.897135,0.55013 z" />
          <path
             inkscape:connector-curvature="0"
             id="path18941"
             style="fill:#2d5016;fill-opacity:1;stroke:#445500;stroke-opacity:1"
             d="m 99.006243,78.947957 q -0.0931,-0.169271 -0.0931,-0.423177 0,-0.38086 0.270834,-0.516276 0.279297,-0.135417 1.650393,-0.152344 1.68424,-0.0085 3.02148,-0.11849 1.34571,-0.118489 4.13867,-0.499349 1.05795,-0.14388 2.01433,-0.14388 0.48242,0 0.91406,0.05924 0.4401,0.05925 0.61784,0.11849 0.1862,0.05078 0.29622,0.304687 0.11003,0.245443 0.11003,0.38086 0,0.600911 -0.42318,0.600911 -0.27929,0 -0.76172,-0.05078 -0.49088,-0.04232 -1.32877,-0.04232 -0.86328,0 -2.09896,0.126953 -1.22721,0.11849 -1.36263,0.397787 -0.13542,0.279297 -0.44857,3.300781 -0.30469,3.021485 -0.30469,4.502604 0,0.685547 0.21159,1.582683 0.0339,0.169271 0.0339,0.203125 0,0.372396 -0.20313,0.66862 -0.20312,0.304687 -0.49088,0.304687 -0.44011,0 -0.73633,-0.423177 -0.28776,-0.423177 -0.28776,-2.369792 0,-1.845052 0.70247,-7.202474 0.0339,-0.28776 0.0339,-0.296224 0,-0.28776 -0.31316,-0.28776 -0.50781,0 -1.93815,0.126953 -1.43034,0.135416 -2.03971,0.135416 -0.914064,0 -1.184898,-0.28776 z" />
          <path
             inkscape:connector-curvature="0"
             id="path18943"
             style="fill:#2d5016;fill-opacity:1;stroke:#445500;stroke-opacity:1"
             d="m 112.72564,89.662801 q -1.1595,0 -1.91276,-0.880208 -0.75325,-0.880209 -0.75325,-2.175131 0,-2.183593 1.46419,-4.299479 1.47266,-2.124349 3.52084,-2.124349 1.35416,0 2.19205,1.041016 0.84636,1.041015 0.84636,2.479818 0,2.20052 -1.74349,4.079427 -1.73503,1.878906 -3.61394,1.878906 z m -1.17643,-3.275391 q 0,0.854818 0.35547,1.396485 0.36393,0.541666 0.95638,0.541666 1.26107,0 2.5306,-1.379557 1.26953,-1.388021 1.26953,-3.080729 0,-1.041016 -0.49088,-1.684245 -0.48243,-0.651693 -1.30339,-0.651693 -1.36263,0 -2.3444,1.675782 -0.97331,1.667317 -0.97331,3.182291 z" />
          <path
             inkscape:connector-curvature="0"
             id="path18945"
             style="fill:#2d5016;fill-opacity:1;stroke:#445500;stroke-opacity:1"
             d="m 122.54336,89.662801 q -1.15951,0 -1.91277,-0.880208 -0.75325,-0.880209 -0.75325,-2.175131 0,-2.183593 1.46419,-4.299479 1.47266,-2.124349 3.52084,-2.124349 1.35416,0 2.19205,1.041016 0.84636,1.041015 0.84636,2.479818 0,2.20052 -1.74349,4.079427 -1.73503,1.878906 -3.61393,1.878906 z m -1.17644,-3.275391 q 0,0.854818 0.35547,1.396485 0.36393,0.541666 0.95638,0.541666 1.26107,0 2.5306,-1.379557 1.26953,-1.388021 1.26953,-3.080729 0,-1.041016 -0.49088,-1.684245 -0.48242,-0.651693 -1.30339,-0.651693 -1.36263,0 -2.3444,1.675782 -0.97331,1.667317 -0.97331,3.182291 z" />
          <path
             inkscape:connector-curvature="0"
             id="path18947"
             style="fill:#2d5016;fill-opacity:1;stroke:#445500;stroke-opacity:1"
             d="m 132.85195,74.910847 q 0.60938,0 0.60938,0.778646 0,0.694011 -0.73633,3.300782 -0.4655,1.641927 -0.7194,3.622396 -0.25391,1.980468 -0.25391,3.10612 0,1.396484 0.17774,2.776041 0.0339,0.26237 0.0339,0.38086 0,0.423177 -0.28776,0.727864 -0.28776,0.304688 -0.60938,0.304688 -0.44856,0 -0.6263,-0.558594 -0.16927,-0.558594 -0.16927,-1.802734 0,-2.835287 0.67708,-7.02474 0.68555,-4.189453 1.08334,-4.900391 0.40625,-0.710938 0.82096,-0.710938 z" />
          <path
             inkscape:connector-curvature="0"
             id="path18949"
             style="fill:#2d5016;fill-opacity:1;stroke:#445500;stroke-opacity:1"
             d="m 139.12344,87.301473 q 0,-0.55013 -1.35417,-1.252604 -1.7181,-0.880209 -2.32747,-1.404948 -0.60092,-0.533203 -0.60092,-1.184896 0,-1.684245 1.68425,-2.792969 1.69271,-1.108724 2.75911,-1.108724 0.68555,0 0.99024,0.236979 0.31315,0.236979 0.31315,0.820964 0,0.26237 -0.22852,0.448567 -0.22005,0.186198 -0.347,0.186198 -0.0931,0 -0.36393,-0.126953 -0.27084,-0.118489 -0.35547,-0.118489 -0.42318,0 -1.7181,0.617838 -1.29492,0.617839 -1.29492,1.396485 0,0.473958 0.45703,0.863281 0.45703,0.380859 1.64192,0.939453 0.95638,0.457031 1.52344,0.981771 0.57552,0.516276 0.57552,1.21875 0,1.294922 -1.7858,2.03125 -1.78581,0.727865 -3.41081,0.727865 -1.3711,0 -1.3711,-0.93099 0,-0.321615 0.30469,-0.473958 0.31315,-0.152344 0.6263,-0.152344 0.12696,0 0.48243,0.08463 0.347,0.08464 0.45703,0.08464 0.93945,0 2.01432,-0.313151 1.07487,-0.313151 1.32878,-0.778645 z" />
        </g>
      </g>
    </g>
    <g
       id="use15585"
       style="display:inline"
       transform="matrix(0.15604224,0.02002304,-0.02002304,0.15604224,47.819915,7.7728021)">
      <g
         id="g18789"
         transform="matrix(-1,0,0,1,451.95951,0)">
        <g
           id="g18783">
          <path
             sodipodi:nodetypes="ccccc"
             inkscape:connector-curvature="0"
             id="path18747"
             d="M 74.757247,263.46284 H 116.7637 c 3.44565,93.20358 -1.5124,184.00611 -4.27184,275.4368 H 79.385077 c -3.055289,-92.06438 -7.028061,-184.28167 -4.62783,-275.4368 z"
             style="fill:#a05a2c;fill-rule:evenodd;stroke:#000000;stroke-width:1px;stroke-linecap:butt;stroke-linejoin:miter;stroke-opacity:1" />
          <path
             sodipodi:nodetypes="cssscsssc"
             inkscape:connector-curvature="0"
             id="path18749"
             d="m 105.34907,536.33463 c -0.56796,-3.02064 -11.789946,-37.75811 -8.760842,-59.90953 3.029105,-22.15143 8.140722,-29.19961 6.626162,-47.3235 -1.51455,-18.1239 -5.490248,-38.26156 -4.354334,-48.33039 1.135913,-10.06883 5.111614,-43.29597 5.111614,-43.29597 0,0 -4.354337,42.28909 -2.83978,47.82695 1.51455,5.53785 8.14071,41.78564 5.86889,52.35791 -2.27183,10.57227 -12.116423,38.765 -9.276638,46.82006 2.839778,8.05506 7.624928,51.85447 7.624928,51.85447 z"
             style="fill:#c87137;fill-rule:evenodd;stroke:none;stroke-width:0.61322898px;stroke-linecap:butt;stroke-linejoin:miter;stroke-opacity:1" />
          <path
             sodipodi:nodetypes="csssc"
             inkscape:connector-curvature="0"
             id="path18751"
             d="m 105.34178,514.43493 c 0,0 -5.794031,-31.71682 -3.62127,-40.77876 2.17276,-9.06195 7.4116,-31.59096 8.37727,-36.62537 0.96567,-5.03442 -2.56873,23.05774 -4.756,38.63913 -1.8141,12.92305 0,38.765 0,38.765 z"
             style="fill:#784421;fill-rule:evenodd;stroke:none;stroke-width:0.6924848px;stroke-linecap:butt;stroke-linejoin:miter;stroke-opacity:1" />
          <path
             sodipodi:nodetypes="csssscssssc"
             inkscape:connector-curvature="0"
             id="path18753"
             d="m 87.804065,303.74466 c 0,0 17.182045,19.13078 13.324855,43.79941 -3.857196,24.66864 -7.71439,41.28221 -4.909158,59.4061 2.805232,18.12389 6.662428,20.13766 3.506541,30.70993 -3.155887,10.57227 -6.311773,31.21337 -5.259811,41.78564 1.051962,10.57228 6.662428,51.35104 3.155886,54.87513 0.701308,-17.11701 -8.415697,-49.33727 -6.662427,-59.4061 1.753271,-10.06883 8.415697,-37.25467 5.610465,-48.33038 -2.805233,-11.07572 -7.714389,-26.17896 -5.610465,-39.26844 2.103924,-13.08948 9.117009,-41.78564 8.766352,-46.82006 -0.350655,-5.03441 -11.922238,-36.75123 -11.922238,-36.75123 z"
             style="fill:#d38d5f;fill-rule:evenodd;stroke:none;stroke-width:0.83457416px;stroke-linecap:butt;stroke-linejoin:miter;stroke-opacity:1" />
          <path
             sodipodi:nodetypes="ccsc"
             inkscape:connector-curvature="0"
             id="path18755"
             d="m 91.488631,324.72495 c -2.588904,0.18492 -12.280491,30.2461 0.355988,47.34626 -3.203883,2.13592 -12.459542,-13.88349 -11.035594,-23.85112 2.690944,-18.83659 10.679606,-23.49514 10.679606,-23.49514 z"
             style="fill:#c87137;fill-opacity:1;fill-rule:evenodd;stroke:none;stroke-width:1px;stroke-linecap:butt;stroke-linejoin:miter;stroke-opacity:1" />
          <path
             inkscape:connector-curvature="0"
             id="path18757"
             d="m 90.001314,266.69909 c 0,0 -3.480801,24.91908 1.071015,35.2427 4.551815,10.32362 13.119941,19.22329 13.387691,35.59869 0.26776,16.3754 -1.60652,33.81876 -3.21304,37.37862 -1.606526,3.55987 2.14203,25.63106 2.14203,25.63106 0,0 -2.9453,-24.56309 -0.26776,-24.56309 2.67754,0 5.62283,-25.98705 4.81957,-28.83494 -0.80326,-2.8479 1.60652,-24.20711 -1.07102,-25.63106 -2.67753,-1.42395 -11.781164,-17.79934 -13.119933,-25.27507 -1.338769,-7.47572 -3.748553,-29.54691 -3.748553,-29.54691 z"
             style="fill:#784421;fill-opacity:1;fill-rule:evenodd;stroke:none;stroke-width:0.86726314px;stroke-linecap:butt;stroke-linejoin:miter;stroke-opacity:1" />
          <path
             style="fill:#c87137;fill-opacity:1;fill-rule:evenodd;stroke:none;stroke-width:1px;stroke-linecap:butt;stroke-linejoin:miter;stroke-opacity:1"
             d="m 114.11034,463.18446 c -2.5889,0.18492 -14.772403,25.26228 -2.13592,42.36244 -3.20388,2.13592 -7.92071,-16.46439 -6.49676,-26.43202 2.69094,-18.83659 8.63268,-15.93042 8.63268,-15.93042 z"
             id="path18759"
             inkscape:connector-curvature="0"
             sodipodi:nodetypes="ccsc" />
          <path
             inkscape:connector-curvature="0"
             id="path18761"
             d="m 86.811828,528.70544 c 0,0 -3.652056,-48.7702 1.288962,-63.72165 4.941016,-14.95145 3.007575,-50.90613 -0.644481,-61.22975 -3.652056,-10.32362 -0.859307,-24.91908 -0.859307,-24.91908 l -3.652057,-21.35921 c 0,0 2.363096,17.79934 1.288962,22.42717 -1.074135,4.62783 -1.933442,27.76698 2.148268,34.88672 4.08171,7.11973 1.288961,39.15855 -0.429654,48.41421 -1.718614,9.25566 0.859307,65.50159 0.859307,65.50159 z"
             style="fill:#784421;fill-rule:evenodd;stroke:none;stroke-width:0.77683228px;stroke-linecap:butt;stroke-linejoin:miter;stroke-opacity:1" />
          <path
             style="fill:#784421;fill-rule:evenodd;stroke:none;stroke-width:0.77683228px;stroke-linecap:butt;stroke-linejoin:miter;stroke-opacity:1"
             d="m 81.204532,528.70544 c 0,0 3.652056,-48.7702 -1.288962,-63.72165 -4.941016,-14.95145 -3.007575,-50.90613 0.644481,-61.22975 3.652056,-10.32362 0.859307,-24.91908 0.859307,-24.91908 l 3.652057,-21.35921 c 0,0 -2.363096,17.79934 -1.288962,22.42717 1.074135,4.62783 1.933442,27.76698 -2.148268,34.88672 -4.08171,7.11973 -1.288961,39.15855 0.429654,48.41421 1.718614,9.25566 -0.859307,65.50159 -0.859307,65.50159 z"
             id="path18763"
             inkscape:connector-curvature="0" />
          <path
             inkscape:connector-curvature="0"
             id="path18765"
             d="m 83.973423,415.35045 c 0,0 -5.69579,36.31066 0.355987,44.14237 6.051777,7.83172 -0.355987,-44.14237 -0.355987,-44.14237 z"
             style="fill:#c87137;fill-rule:evenodd;stroke:none;stroke-width:1px;stroke-linecap:butt;stroke-linejoin:miter;stroke-opacity:1" />
          <path
             inkscape:connector-curvature="0"
             id="path18767"
             d="m 110.40414,485.91291 c 0,0 3.65205,-48.7702 -1.28896,-63.72165 -4.94102,-14.95145 -3.00758,-50.90613 0.64448,-61.22975 3.65205,-10.32362 0.8593,-24.91908 0.8593,-24.91908 l 3.65206,-21.35921 c 0,0 -2.36309,17.79934 -1.28896,22.42717 1.07413,4.62783 1.93344,27.76698 -2.14827,34.88672 -4.08171,7.11973 -1.28896,39.15855 0.42966,48.41421 1.71861,9.25566 -0.85931,65.50159 -0.85931,65.50159 z"
             style="fill:#784421;fill-rule:evenodd;stroke:none;stroke-width:0.77683228px;stroke-linecap:butt;stroke-linejoin:miter;stroke-opacity:1" />
          <path
             inkscape:connector-curvature="0"
             id="path18769"
             d="m 115.69574,363.52752 c 0,0 -4.27184,12.81553 -4.44984,22.78317 -0.17799,9.96763 4.27185,37.20063 3.20389,37.37862 -1.06796,0.17799 1.77993,-20.64724 0.88996,-33.28478 -0.88996,-12.63753 0.35599,-26.87701 0.35599,-26.87701 z"
             style="fill:#d38d5f;fill-rule:evenodd;stroke:none;stroke-width:1px;stroke-linecap:butt;stroke-linejoin:miter;stroke-opacity:1" />
          <path
             sodipodi:nodetypes="cccssc"
             inkscape:connector-curvature="0"
             id="path18771"
             d="m 95.150442,272.02785 c 0,0 2.072015,31.66759 10.572268,41.78564 3.12971,9.80184 5.03442,15.10325 5.03442,15.10325 0,0 1.097,-11.87024 -6.0413,-25.67552 -2.2729,-4.39572 -5.738529,-9.51561 -6.188752,-36.60115 -0.05089,-3.06189 -3.376636,5.38778 -3.376636,5.38778 z"
             style="fill:#c87137;fill-rule:evenodd;stroke:none;stroke-width:1px;stroke-linecap:butt;stroke-linejoin:miter;stroke-opacity:1" />
          <path
             sodipodi:nodetypes="cccsc"
             style="fill:#c87137;fill-rule:evenodd;stroke:none;stroke-width:1px;stroke-linecap:butt;stroke-linejoin:miter;stroke-opacity:1"
             d="m 115.47588,272.02785 c 0,0 -0.8568,31.18283 -9.41531,41.25166 -1.57345,-8.49671 -0.17167,-9.99129 -0.15008,-10.03829 6.54474,-14.09636 8.40844,-9.24862 6.63374,-36.77915 -0.197,-3.05597 2.93165,5.56578 2.93165,5.56578 z"
             id="path18773"
             inkscape:connector-curvature="0" />
          <path
             sodipodi:nodetypes="cccc"
             inkscape:connector-curvature="0"
             id="path18775"
             d="m 102.16824,266.69909 h 6.76375 c 0,0 2.04692,23.85112 -3.91586,31.68283 -1.06796,-8.98867 -2.84789,-31.68283 -2.84789,-31.68283 z"
             style="fill:#784421;fill-rule:evenodd;stroke:none;stroke-width:1px;stroke-linecap:butt;stroke-linejoin:miter;stroke-opacity:1" />
          <path
             sodipodi:nodetypes="csscscc"
             inkscape:connector-curvature="0"
             id="path18777"
             d="m 79.265005,331.43395 c 0,0 4.826643,-5.98329 5.269152,-17.87217 0.78638,-21.12764 -2.484029,-16.61358 -2.709849,-26.68241 -0.297883,-13.2819 1.957113,-10.01066 1.957113,-20.38938 -3.010944,8.30679 -4.215322,6.6706 -4.817511,12.7119 -0.602188,6.0413 1.423738,14.27487 0.602189,25.54966 4.615573,1.90905 -0.301094,26.6824 -0.301094,26.6824 z"
             style="fill:#784421;fill-opacity:1;fill-rule:evenodd;stroke:none;stroke-width:0.77335131px;stroke-linecap:butt;stroke-linejoin:miter;stroke-opacity:1" />
          <path
             style="fill:#784421;fill-rule:evenodd;stroke:none;stroke-width:1px;stroke-linecap:butt;stroke-linejoin:miter;stroke-opacity:1"
             d="m 85.232027,533.79914 c 0,0 -5.69579,-36.31066 0.355987,-44.14237 6.051777,-7.83172 -0.355987,44.14237 -0.355987,44.14237 z"
             id="path18779"
             inkscape:connector-curvature="0" />
          <path
             style="fill:#784421;fill-rule:evenodd;stroke:none;stroke-width:1px;stroke-linecap:butt;stroke-linejoin:miter;stroke-opacity:1"
             d="m 91.034037,333.46256 c -0.383766,-3.25667 3.830112,-5.12206 4.056925,-0.86092 0,0 1.727402,24.00498 -4.112183,31.92898 -2.956292,-7.59753 -0.373102,-30.73149 0.05526,-31.06806 z"
             id="path18781"
             inkscape:connector-curvature="0"
             sodipodi:nodetypes="cccc" />
        </g>
        <path
           style="fill:url(#linearGradient18845);fill-opacity:1;fill-rule:evenodd;stroke:none;stroke-width:1px;stroke-linecap:butt;stroke-linejoin:miter;stroke-opacity:1"
           d="m 75.249234,264.01466 10.068829,-0.0305 6.736692,274.36689 H 79.836045 C 76.658611,446.90556 73.767648,355.46011 75.249234,264.01466 Z"
           id="path18785"
           inkscape:connector-curvature="0"
           sodipodi:nodetypes="ccccc" />
        <path
           sodipodi:nodetypes="ccccc"
           inkscape:connector-curvature="0"
           id="path18787"
           d="m 117.65555,264.01466 -10.06883,-0.0305 -6.73669,274.36689 h 12.21871 c 3.17744,-91.44549 6.0684,-182.89094 4.58681,-274.33639 z"
           style="fill:url(#linearGradient18847);fill-opacity:1;fill-rule:evenodd;stroke:none;stroke-width:1px;stroke-linecap:butt;stroke-linejoin:miter;stroke-opacity:1" />
      </g>
      <path
         inkscape:connector-curvature="0"
         style="fill:#e6e6e6;fill-rule:evenodd;stroke:#000000;stroke-width:2;stroke-linecap:butt;stroke-linejoin:miter;stroke-miterlimit:4;stroke-dasharray:none;stroke-opacity:1"
         d="m 374.27148,511.37891 -36.84375,0.17773 v 51.26172 c -18.44452,0.35057 -35.0597,-0.29718 -51.25,13.41602 l 0.10743,7.82226 h 0.57226 l 3.23242,103.64648 10.54883,0.0215 1.82422,-101.54297 c 1.756,-1.14843 3.51607,-2.27407 5.32617,-3.17969 0.90506,-0.45281 1.8226,-0.85043 2.75782,-1.16797 0.93519,-0.31754 1.88882,-0.55494 2.86523,-0.6875 0.97641,-0.13256 1.9752,-0.16072 3.00391,-0.0586 1.02871,0.10213 2.08565,0.33417 3.17773,0.7207 1.09208,0.38653 2.22019,0.9278 3.38672,1.64844 1.16653,0.72064 2.37294,1.62015 3.625,2.72461 l 4.82422,101.60742 9.20703,0.0195 1.82617,-101.62695 c 1.756,-1.14843 3.51607,-2.27407 5.32617,-3.17969 0.90506,-0.45281 1.82259,-0.85043 2.75782,-1.16797 0.93519,-0.31754 1.88882,-0.55494 2.86523,-0.6875 0.97641,-0.13256 1.9752,-0.16072 3.00391,-0.0586 1.02871,0.10213 2.08565,0.33417 3.17773,0.7207 1.09208,0.38653 2.22019,0.9278 3.38672,1.64844 1.16653,0.72064 2.37294,1.62015 3.625,2.72461 l 4.82812,101.69141 9.20118,0.0195 1.82812,-101.71094 c 1.756,-1.14843 3.51607,-2.27407 5.32617,-3.17969 0.90506,-0.45281 1.8226,-0.85043 2.75782,-1.16797 0.93519,-0.31754 1.88882,-0.55494 2.86523,-0.6875 0.97641,-0.13256 1.9752,-0.16072 3.00391,-0.0586 1.02871,0.10213 2.08565,0.33417 3.17773,0.7207 1.09208,0.38653 2.22019,0.9278 3.38672,1.64844 1.16653,0.72064 2.37294,1.62015 3.625,2.72461 l 4.83203,101.77539 10.20898,0.0195 1.44336,-103.5625 h 0.81446 l 0.0586,-8.17968 c -16.75617,-9.41283 -31.0668,-12.81731 -49.69141,-13.59376 z"
         id="path18791"
         transform="translate(0,28.362161)" />
      <path
         sodipodi:nodetypes="cccc"
         inkscape:connector-curvature="0"
         id="path18793"
         d="m 287.28358,604.20029 7.72931,111.03539 -4.32583,-0.35599 z"
         style="fill:url(#linearGradient18849);fill-opacity:1;fill-rule:evenodd;stroke:none;stroke-width:1px;stroke-linecap:butt;stroke-linejoin:miter;stroke-opacity:1" />
      <path
         sodipodi:nodetypes="cccccccc"
         inkscape:connector-curvature="0"
         id="path18795"
         d="m 337.78314,540.542 h 6.40776 l 0.44498,46.54528 c 0.25952,4.48698 4.33639,5.15659 6.94175,7.29773 l -7.56472,-2.5809 c -3.68997,2.65732 -11.09254,3.53403 -17.12162,3.61832 3.23373,-1.24571 8.47681,-1.93366 10.98084,-4.1523 z"
         style="fill:#b3b3b3;fill-opacity:1;fill-rule:evenodd;stroke:none;stroke-width:1px;stroke-linecap:butt;stroke-linejoin:miter;stroke-opacity:1" />
      <path
         sodipodi:nodetypes="cccccccc"
         inkscape:connector-curvature="0"
         id="path18797"
         d="m 365.72271,540.73974 7.55163,-0.25172 -0.12586,51.22518 12.96361,3.77581 c -4.37749,-0.0643 -9.74203,0.62955 -16.99115,-3.90167 -0.77581,2.06494 -4.29072,2.17338 -7.2999,2.64306 2.52668,-1.76171 4.57999,-1.85103 5.91544,-6.29301 z"
         style="fill:#ffffff;fill-opacity:1;fill-rule:evenodd;stroke:none;stroke-width:1px;stroke-linecap:butt;stroke-linejoin:miter;stroke-opacity:1" />
      <path
         style="fill:url(#linearGradient18851);fill-opacity:1;fill-rule:evenodd;stroke:none;stroke-width:1px;stroke-linecap:butt;stroke-linejoin:miter;stroke-opacity:1"
         d="m 327.55057,613.81194 8.4692,101.42374 -3.94825,0.0845 z"
         id="path18799"
         inkscape:connector-curvature="0"
         sodipodi:nodetypes="cccc" />
      <path
         sodipodi:nodetypes="cccc"
         inkscape:connector-curvature="0"
         id="path18801"
         d="m 367.55057,613.81194 8.4692,101.42374 -3.94825,0.0845 z"
         style="fill:url(#linearGradient18853);fill-opacity:1;fill-rule:evenodd;stroke:none;stroke-width:1px;stroke-linecap:butt;stroke-linejoin:miter;stroke-opacity:1" />
      <path
         style="fill:url(#linearGradient18855);fill-opacity:1;fill-rule:evenodd;stroke:none;stroke-width:1px;stroke-linecap:butt;stroke-linejoin:miter;stroke-opacity:1"
         d="m 407.55057,613.81194 8.4692,101.42374 -3.94825,0.0845 z"
         id="path18803"
         inkscape:connector-curvature="0"
         sodipodi:nodetypes="cccc" />
      <g
         id="g18841">
        <g
           transform="translate(260)"
           id="g18819">
          <path
             inkscape:connector-curvature="0"
             id="path18805"
             d="m 94.406141,62.119497 c -21.34204,-0.071 -42.56567,3.05895 -63.64453,10.09375 l 1.00976,89.476563 c 8.03907,23.43916 22.36282,38.70869 39.8711,49.83789 v 54.10938 l 47.701169,-0.35547 V 211.5277 c 16.30482,-14.8769 31.76279,-30.28251 40.58203,-49.83789 l -1.16406,-90.460933 c -21.55298,-5.7663 -43.01343,-9.03841 -64.355469,-9.10938 z m 44.238279,40.630863 0.79492,61.125 c -0.6773,1.7441 -1.4293,3.43393 -2.25195,5.07422 -0.82265,1.64028 -1.7159,3.23229 -2.67188,4.77734 -1.91196,3.09009 -4.07796,5.99719 -6.45117,8.75781 -2.37321,2.76063 -4.95305,5.37324 -7.6914,7.87305 -2.73836,2.49981 -5.6352,4.88766 -8.64258,7.19531 v 0.32227 c -2.10536,1.06386 -4.25855,2.04751 -6.53711,2.81445 -1.13929,0.38347 -2.30937,0.71209 -3.52149,0.9707 -1.21211,0.25862 -2.464899,0.44686 -3.769529,0.54688 -1.30463,0.10001 -2.66129,0.11186 -4.07812,0.0195 -1.41684,-0.0923 -2.89464,-0.289 -4.44336,-0.60742 -1.54872,-0.31843 -3.16885,-0.75767 -4.86914,-1.33594 -1.7003,-0.57827 -3.48001,-1.29611 -5.35157,-2.16797 v -0.5625 c -2.85939,-2.51101 -5.84137,-4.96087 -8.74218,-7.45117 -2.90082,-2.4903 -5.7217,-5.02169 -8.25977,-7.69336 -1.26903,-1.33584 -2.46774,-2.70593 -3.57031,-4.125 -1.10257,-1.41907 -2.10856,-2.8865 -2.99414,-4.41406 -0.88558,-1.52757 -1.64951,-3.11603 -2.26758,-4.77735 -0.61807,-1.66131 -1.09058,-3.39646 -1.39062,-5.21679 l -0.68946,-60.46094 c 3.958,1.11136 7.87143,2.06405 11.74219,2.86133 3.87076,0.79728 7.69905,1.44077 11.48633,1.9375 3.78727,0.49673 7.53464,0.84497 11.24219,1.05469 3.70754,0.20971 7.37623,0.28058 11.00781,0.21679 3.631569,-0.0638 7.225799,-0.26217 10.785149,-0.58594 3.55936,-0.32376 7.08332,-0.77354 10.57422,-1.34374 3.4909,-0.57021 6.9488,-1.25937 10.375,-2.0625 3.4262,-0.80314 6.8203,-1.71965 10.18555,-2.74219 z"
             style="fill:#447821;fill-rule:evenodd;stroke:#000000;stroke-width:1px;stroke-linecap:butt;stroke-linejoin:miter;stroke-opacity:1" />
          <path
             sodipodi:nodetypes="ccccc"
             inkscape:connector-curvature="0"
             id="path18807"
             d="m 48.204522,95.571608 2.487324,7.266852 c 25.331515,6.83256 52.208354,10.17252 88.581874,-0.6545 l 2.44506,-6.108911 C 111.71147,102.47983 77.544378,100.1798 48.204522,95.571608 Z"
             style="fill:#2d5016;fill-rule:evenodd;stroke:none;stroke-width:1px;stroke-linecap:butt;stroke-linejoin:miter;stroke-opacity:1" />
          <path
             sodipodi:nodetypes="cccccccccc"
             inkscape:connector-curvature="0"
             id="path18809"
             d="m 31.716814,72.916741 6.041298,89.109139 c 8.388627,28.54274 24.127298,33.03078 37.25467,46.0649 7.257863,5.36987 11.257682,4.22366 16.613569,5.78958 l -13.341199,4.53097 -0.625597,46.98541 -5.550506,-0.19327 0.134805,-53.84032 C 54.199581,201.19086 40.194889,182.96353 31.771371,161.68981 Z"
             style="fill:#2d5016;fill-opacity:1;fill-rule:evenodd;stroke:none;stroke-width:1px;stroke-linecap:butt;stroke-linejoin:miter;stroke-opacity:1" />
          <path
             sodipodi:nodetypes="ccccc"
             inkscape:connector-curvature="0"
             id="path18811"
             d="m 92.200605,63.786562 c 21.285135,-1.449846 43.766325,3.87801 66.005025,7.831712 l 1.50662,89.226846 C 156.90631,132.76411 159.06852,104.6831 151.29443,76.602091 132.6378,67.123711 112.07245,67.188897 92.200605,63.786562 Z"
             style="fill:#71c837;fill-rule:evenodd;stroke:none;stroke-width:1px;stroke-linecap:butt;stroke-linejoin:miter;stroke-opacity:1" />
          <path
             sodipodi:nodetypes="cccccc"
             inkscape:connector-curvature="0"
             id="path18813"
             d="m 48.414217,96.181369 1.423948,73.155301 c 12.029952,23.31697 19.306143,20.22415 28.656945,28.65695 -9.493211,-9.83898 -20.985747,-14.04351 -27.150326,-33.26318 l -0.438658,-62.3193 z"
             style="fill:#71c837;fill-opacity:1;fill-rule:evenodd;stroke:none;stroke-width:1px;stroke-linecap:butt;stroke-linejoin:miter;stroke-opacity:1" />
          <path
             sodipodi:nodetypes="cccccc"
             inkscape:connector-curvature="0"
             id="path18815"
             d="m 143.99669,98.495283 -4.72297,3.688677 0.53561,61.216 c -1.40563,6.01778 -5.81852,11.16512 -8.90523,16.5716 6.22251,-4.17742 10.5905,-10.01416 13.62653,-17.04265 z"
             style="fill:#2d5016;fill-opacity:1;fill-rule:evenodd;stroke:none;stroke-width:1px;stroke-linecap:butt;stroke-linejoin:miter;stroke-opacity:1" />
          <path
             sodipodi:nodetypes="cccccc"
             inkscape:connector-curvature="0"
             id="path18817"
             d="m 117.92066,264.74116 -3.82686,0.178 -0.35599,-54.28801 c 9.94315,-10.44322 22.65016,-17.43161 27.41099,-34.35273 -1.70541,14.08778 -14.39919,24.29732 -23.49513,35.77668 z"
             style="fill:#71c837;fill-opacity:1;fill-rule:evenodd;stroke:none;stroke-width:1px;stroke-linecap:butt;stroke-linejoin:miter;stroke-opacity:1" />
        </g>
        <g
           transform="translate(260)"
           aria-label="FBIS Tools"
           style="font-style:normal;font-variant:normal;font-weight:normal;font-stretch:normal;font-size:17.33333397px;line-height:125%;font-family:'Segoe Print';-inkscape-font-specification:'Segoe Print';letter-spacing:0px;word-spacing:0px;fill:#2d5016;fill-opacity:1;stroke:#445500;stroke-width:1px;stroke-linecap:butt;stroke-linejoin:miter;stroke-opacity:1"
           id="g18839">
          <path
             inkscape:connector-curvature="0"
             d="m 56.476947,78.922566 q -0.160808,0.287761 -0.465495,1.853516 -0.304688,1.557292 -0.304688,2.615235 0.583985,-0.0931 1.201823,-0.160808 l 1.777344,-0.203125 q 0.423177,-0.05925 1.184896,-0.26237 0.770182,-0.203125 1.049479,-0.203125 0.998698,0 0.998698,0.8125 0,0.160808 -0.28776,0.40625 -0.279297,0.245443 -0.753256,0.347006 -0.465494,0.101562 -2.259765,0.296224 -2.200521,0.253906 -2.615235,0.389323 -0.40625,0.126953 -0.482422,0.262369 -0.07617,0.126954 -0.160807,1.227214 -0.08463,1.091797 -0.08463,1.777344 l 0.03385,1.049479 q 0,0.863281 -0.626302,0.863281 -0.389323,0 -0.719401,-0.296224 -0.330078,-0.296224 -0.330078,-0.795573 0,-1.963541 0.964843,-8.277344 0.228516,-1.472656 0.228516,-1.582682 0,-0.160807 -0.101563,-0.490885 -0.135416,-0.414714 -0.135416,-0.575521 0,-0.228516 0.253906,-0.490886 0.253906,-0.270833 0.482422,-0.270833 l 1.117188,0.126953 q 0.516276,0 1.921224,-0.169271 2.386718,-0.28776 3.27539,-0.28776 0.778646,0 1.117188,0.236979 0.338541,0.236979 0.338541,0.465495 0,0.40625 -0.279296,0.702474 -0.270834,0.28776 -0.583985,0.28776 -0.14388,0 -0.313151,-0.03385 -0.922526,-0.152344 -1.404948,-0.152344 -0.905599,0 -2.352864,0.169271 -1.438803,0.160807 -1.684245,0.363932 z"
             style="fill:#2d5016;fill-opacity:1;stroke:#445500;stroke-opacity:1"
             id="path18821" />
          <path
             inkscape:connector-curvature="0"
             d="m 71.677468,82.316447 q 0,0.135416 0.169271,0.177734 0.914062,0.26237 1.616536,1.024089 0.702474,0.753255 0.702474,1.794271 0,1.599609 -2.048177,3.292317 -2.048177,1.692709 -4.307943,1.692709 -0.634765,0 -0.998698,-0.169271 -0.355468,-0.160807 -0.355468,-0.380859 0,-1.066407 1.50651,-1.066407 0.211589,0 0.651693,0.01693 0.448568,0.01693 1.024088,-0.211588 0.583985,-0.236979 1.134115,-0.600912 0.55013,-0.372396 0.939453,-0.761718 0.397787,-0.397787 0.634766,-0.837891 0.245443,-0.440104 0.245443,-0.888672 0,-0.727865 -0.634766,-1.294922 -0.626302,-0.567057 -1.675781,-0.567057 -0.169271,0 -0.804037,0.270833 -0.634766,0.279297 -0.829427,0.279297 -0.660156,0 -0.829427,-0.169271 -0.160807,-0.169271 -0.160807,-0.600911 0,-0.26237 1.430338,-0.846355 1.19336,-0.473958 2.310547,-1.548828 1.125651,-1.07487 1.125651,-1.819661 0,-0.516276 -0.423177,-0.820964 -0.423177,-0.304687 -1.184896,-0.304687 -1.261068,0 -2.505208,0.313151 -1.244141,0.304687 -1.371094,0.575521 -0.11849,0.270833 -0.685547,4.104817 -0.567057,3.825521 -0.567057,4.426433 0,0.592448 0.02539,1.108724 0.02539,0.507812 -0.186198,0.871745 -0.203125,0.372396 -0.702473,0.372396 -0.457032,0 -0.710938,-0.363933 -0.245443,-0.355469 -0.245443,-0.905599 0,-0.14388 0.07617,-0.440104 0.440104,-1.819661 0.829427,-4.654948 0.389323,-2.835287 0.389323,-3.275391 0,-0.355469 -0.101562,-0.524739 -0.0931,-0.169271 -0.440105,-0.169271 -0.135416,0 -0.270833,0.0085 -0.126953,0.0085 -0.26237,-0.160807 -0.126953,-0.169271 -0.126953,-0.40625 0,-0.744792 2.395183,-1.464193 2.395182,-0.719401 4.866536,-0.719401 1.269532,0 2.073568,0.685547 0.8125,0.677083 0.8125,1.591146 0,0.677083 -0.69401,1.599609 -0.685547,0.914063 -1.836589,1.768881 z"
             style="fill:#2d5016;fill-opacity:1;stroke:#445500;stroke-opacity:1"
             id="path18823" />
          <path
             inkscape:connector-curvature="0"
             d="m 79.726296,78.025431 q -0.05078,0.330078 -0.567057,2.361328 -0.245443,0.95638 -0.321615,1.608073 -0.05078,0.440104 -0.126953,0.95638 -0.338541,2.166667 -0.338541,2.96224 0,1.193359 0.14388,2.344401 0.08464,0.66862 -0.236979,0.964844 -0.321615,0.296224 -0.64323,0.296224 -0.457031,0 -0.634765,-0.507813 -0.177735,-0.516276 -0.177735,-1.658854 0,-1.193359 0.338542,-3.300781 0.11849,-0.795573 0.135417,-0.95638 0.01693,-0.287761 0.06771,-0.592448 0.04232,-0.296224 0.06771,-0.592448 0.05078,-0.78711 0.304688,-2.056641 0.186198,-0.95638 0.270833,-1.684245 0.05925,-0.507812 0.135417,-0.685547 0.07617,-0.177734 0.389323,-0.389323 0.321614,-0.211588 0.482422,-0.211588 0.355469,0 0.533203,0.347005 0.177734,0.338542 0.177734,0.795573 z"
             style="fill:#2d5016;fill-opacity:1;stroke:#445500;stroke-opacity:1"
             id="path18825" />
          <path
             inkscape:connector-curvature="0"
             d="m 90.119526,79.794311 q 0,-1.125651 -0.583985,-1.371094 -0.583984,-0.253906 -1.455729,-0.253906 -1.794271,0 -3.258464,0.710938 -1.455729,0.702474 -1.455729,1.692708 0,0.710938 0.643229,1.244141 0.651693,0.524739 2.826823,1.159505 2.107422,0.609375 2.996094,1.261068 0.897136,0.643229 0.897136,1.557291 0,0.922527 -1.244141,1.997396 -1.244141,1.066407 -3.004557,1.625 -1.751954,0.558594 -2.979167,0.558594 -1.024089,0 -1.557292,-0.245443 -0.52474,-0.236979 -0.52474,-0.600911 0,-0.253906 0.152344,-0.617839 0.160808,-0.372395 0.321615,-0.372395 0.169271,0 0.347005,0.05924 0.905599,0.338542 1.794271,0.338542 1.599609,0 3.39388,-0.93099 1.794271,-0.939453 1.794271,-1.751953 0,-0.347005 -0.55013,-0.660156 -0.541667,-0.321615 -2.759115,-1.024089 -2.750651,-0.871744 -3.385417,-1.692708 -0.626302,-0.829427 -0.626302,-1.74349 0,-1.760416 2.022787,-2.835286 2.022786,-1.083334 4.231771,-1.083334 1.464193,0 2.251302,0.499349 0.787109,0.490886 0.787109,1.091797 0,0.287761 -0.177734,0.837891 -0.177734,0.55013 -0.897135,0.55013 z"
             style="fill:#2d5016;fill-opacity:1;stroke:#445500;stroke-opacity:1"
             id="path18827" />
          <path
             inkscape:connector-curvature="0"
             d="m 99.006243,78.947957 q -0.0931,-0.169271 -0.0931,-0.423177 0,-0.38086 0.270834,-0.516276 0.279297,-0.135417 1.650393,-0.152344 1.68424,-0.0085 3.02148,-0.11849 1.34571,-0.118489 4.13867,-0.499349 1.05795,-0.14388 2.01433,-0.14388 0.48242,0 0.91406,0.05924 0.4401,0.05925 0.61784,0.11849 0.1862,0.05078 0.29622,0.304687 0.11003,0.245443 0.11003,0.38086 0,0.600911 -0.42318,0.600911 -0.27929,0 -0.76172,-0.05078 -0.49088,-0.04232 -1.32877,-0.04232 -0.86328,0 -2.09896,0.126953 -1.22721,0.11849 -1.36263,0.397787 -0.13542,0.279297 -0.44857,3.300781 -0.30469,3.021485 -0.30469,4.502604 0,0.685547 0.21159,1.582683 0.0339,0.169271 0.0339,0.203125 0,0.372396 -0.20313,0.66862 -0.20312,0.304687 -0.49088,0.304687 -0.44011,0 -0.73633,-0.423177 -0.28776,-0.423177 -0.28776,-2.369792 0,-1.845052 0.70247,-7.202474 0.0339,-0.28776 0.0339,-0.296224 0,-0.28776 -0.31316,-0.28776 -0.50781,0 -1.93815,0.126953 -1.43034,0.135416 -2.03971,0.135416 -0.914064,0 -1.184898,-0.28776 z"
             style="fill:#2d5016;fill-opacity:1;stroke:#445500;stroke-opacity:1"
             id="path18829" />
          <path
             inkscape:connector-curvature="0"
             d="m 112.72564,89.662801 q -1.1595,0 -1.91276,-0.880208 -0.75325,-0.880209 -0.75325,-2.175131 0,-2.183593 1.46419,-4.299479 1.47266,-2.124349 3.52084,-2.124349 1.35416,0 2.19205,1.041016 0.84636,1.041015 0.84636,2.479818 0,2.20052 -1.74349,4.079427 -1.73503,1.878906 -3.61394,1.878906 z m -1.17643,-3.275391 q 0,0.854818 0.35547,1.396485 0.36393,0.541666 0.95638,0.541666 1.26107,0 2.5306,-1.379557 1.26953,-1.388021 1.26953,-3.080729 0,-1.041016 -0.49088,-1.684245 -0.48243,-0.651693 -1.30339,-0.651693 -1.36263,0 -2.3444,1.675782 -0.97331,1.667317 -0.97331,3.182291 z"
             style="fill:#2d5016;fill-opacity:1;stroke:#445500;stroke-opacity:1"
             id="path18831" />
          <path
             inkscape:connector-curvature="0"
             d="m 122.54336,89.662801 q -1.15951,0 -1.91277,-0.880208 -0.75325,-0.880209 -0.75325,-2.175131 0,-2.183593 1.46419,-4.299479 1.47266,-2.124349 3.52084,-2.124349 1.35416,0 2.19205,1.041016 0.84636,1.041015 0.84636,2.479818 0,2.20052 -1.74349,4.079427 -1.73503,1.878906 -3.61393,1.878906 z m -1.17644,-3.275391 q 0,0.854818 0.35547,1.396485 0.36393,0.541666 0.95638,0.541666 1.26107,0 2.5306,-1.379557 1.26953,-1.388021 1.26953,-3.080729 0,-1.041016 -0.49088,-1.684245 -0.48242,-0.651693 -1.30339,-0.651693 -1.36263,0 -2.3444,1.675782 -0.97331,1.667317 -0.97331,3.182291 z"
             style="fill:#2d5016;fill-opacity:1;stroke:#445500;stroke-opacity:1"
             id="path18833" />
          <path
             inkscape:connector-curvature="0"
             d="m 132.85195,74.910847 q 0.60938,0 0.60938,0.778646 0,0.694011 -0.73633,3.300782 -0.4655,1.641927 -0.7194,3.622396 -0.25391,1.980468 -0.25391,3.10612 0,1.396484 0.17774,2.776041 0.0339,0.26237 0.0339,0.38086 0,0.423177 -0.28776,0.727864 -0.28776,0.304688 -0.60938,0.304688 -0.44856,0 -0.6263,-0.558594 -0.16927,-0.558594 -0.16927,-1.802734 0,-2.835287 0.67708,-7.02474 0.68555,-4.189453 1.08334,-4.900391 0.40625,-0.710938 0.82096,-0.710938 z"
             style="fill:#2d5016;fill-opacity:1;stroke:#445500;stroke-opacity:1"
             id="path18835" />
          <path
             inkscape:connector-curvature="0"
             d="m 139.12344,87.301473 q 0,-0.55013 -1.35417,-1.252604 -1.7181,-0.880209 -2.32747,-1.404948 -0.60092,-0.533203 -0.60092,-1.184896 0,-1.684245 1.68425,-2.792969 1.69271,-1.108724 2.75911,-1.108724 0.68555,0 0.99024,0.236979 0.31315,0.236979 0.31315,0.820964 0,0.26237 -0.22852,0.448567 -0.22005,0.186198 -0.347,0.186198 -0.0931,0 -0.36393,-0.126953 -0.27084,-0.118489 -0.35547,-0.118489 -0.42318,0 -1.7181,0.617838 -1.29492,0.617839 -1.29492,1.396485 0,0.473958 0.45703,0.863281 0.45703,0.380859 1.64192,0.939453 0.95638,0.457031 1.52344,0.981771 0.57552,0.516276 0.57552,1.21875 0,1.294922 -1.7858,2.03125 -1.78581,0.727865 -3.41081,0.727865 -1.3711,0 -1.3711,-0.93099 0,-0.321615 0.30469,-0.473958 0.31315,-0.152344 0.6263,-0.152344 0.12696,0 0.48243,0.08463 0.347,0.08464 0.45703,0.08464 0.93945,0 2.01432,-0.313151 1.07487,-0.313151 1.32878,-0.778645 z"
             style="fill:#2d5016;fill-opacity:1;stroke:#445500;stroke-opacity:1"
             id="path18837" />
        </g>
      </g>
    </g>
    <g
       style="display:inline"
       id="g15721"
       transform="matrix(0.22086567,0,0,0.25696142,-76.555948,-58.651778)">
      <path
         sodipodi:nodetypes="cccccccscccccccccc"
         inkscape:connector-curvature="0"
         id="path18057"
         d="m 612.58932,720.09231 c 5.00038,-3.79921 5.98485,-3.79091 6.85714,-1.89277 2.37766,-4.28076 1.92894,-8.53119 12.34286,-4.88965 4.94166,-4.84488 4.78679,-0.89732 6.4,0 2.97143,-2.06254 5.94286,-3.33978 8.91428,0 1.4062,-2.87106 2.2989,-6.20278 9.6,-3.78554 5.96928,0.69821 6.45638,3.01776 8.45715,4.88965 -4.99816,-3.16166 7.58405,-4.76454 10.97143,-5.36285 4.11305,-0.7265 13.22977,2.81147 8.68571,4.25874 8.12863,-0.6683 6.60617,2.90156 8.68571,4.88965 1.46001,-1.82017 -0.70348,-5.94847 8.00001,-3.15461 6.52919,-3.73195 7.22475,0.14007 8.45714,3.31234 1.78612,-3.3007 -0.47912,-7.99928 10.28571,-8.202 4.74337,0.26513 9.84879,0.26043 9.37143,4.41646 8.71556,-1.04716 9.86861,2.52671 10.97143,5.52058 v 11.04116 h -128 z"
         style="fill:#744224;fill-opacity:1;fill-rule:evenodd;stroke:none;stroke-width:0.75431085px;stroke-linecap:butt;stroke-linejoin:miter;stroke-opacity:1" />
      <path
         sodipodi:nodetypes="cccccc"
         inkscape:connector-curvature="0"
         id="path18091"
         d="m 630.67458,714.27872 c 0.45135,-1.7223 1.11992,-2.20715 2.10549,-0.88946 -0.60256,1.54668 0.22748,2.2868 0.80206,3.17105 4.48452,1.856 4.01148,3.76424 6.01578,5.64643 -2.53458,-1.90764 -3.11278,-4.97238 -8.32181,-5.29831 -0.36073,-0.85892 -0.90343,-1.69783 -0.60152,-2.62971 z"
         style="fill:#472e1f;fill-opacity:1;fill-rule:evenodd;stroke:none;stroke-width:1.39483511px;stroke-linecap:butt;stroke-linejoin:miter;stroke-opacity:1;shape-rendering:crispEdges"
         inkscape:export-filename="C:\Projects\Phaser\FlitAndBob\assets\Grass_Platform2.png"
         inkscape:export-xdpi="95.999969"
         inkscape:export-ydpi="95.999969" />
      <use
         height="100%"
         width="100%"
         transform="matrix(-1,0,0,1,1295.8987,0.50344)"
         id="use18093"
         xlink:href="#path18091"
         y="0"
         x="0" />
      <use
         height="100%"
         width="100%"
         transform="translate(62.17143,4.53095)"
         id="use18095"
         xlink:href="#path18091"
         y="0"
         x="0" />
      <use
         height="100%"
         width="100%"
         transform="matrix(-1,0,0,1,1361.9557,1.63618)"
         id="use18097"
         xlink:href="#path18091"
         y="0"
         x="0" />
      <path
         sodipodi:nodetypes="cccccc"
         inkscape:connector-curvature="0"
         id="path18099"
         d="m 714.15288,724.71476 c -0.318,1.72232 -0.78903,2.20716 -1.48339,0.88946 0.42452,-1.54666 -0.16026,-2.28692 -0.56508,-3.17115 -3.15949,-1.85588 -0.27275,-3.22414 -1.68468,-5.10621 2.09786,2.22208 -0.37931,3.87165 3.28436,4.53263 0.25414,0.85892 0.6615,1.9234 0.44879,2.85527 z"
         style="fill:#472e1f;fill-opacity:1;fill-rule:evenodd;stroke:none;stroke-width:1.17077494px;stroke-linecap:butt;stroke-linejoin:miter;stroke-opacity:1;shape-rendering:crispEdges"
         inkscape:export-filename="C:\Projects\Phaser\FlitAndBob\assets\Grass_Platform2.png"
         inkscape:export-xdpi="95.999969"
         inkscape:export-ydpi="95.999969" />
      <use
         height="100%"
         width="100%"
         transform="matrix(-1,0,0,1,1396.1748,-4.90853)"
         id="use18101"
         xlink:href="#path18099"
         y="0"
         x="0" />
      <use
         height="100%"
         width="100%"
         transform="translate(-65.371428,5.28611)"
         id="use18103"
         xlink:href="#use18101"
         y="0"
         x="0" />
      <path
         sodipodi:nodetypes="cccccc"
         inkscape:connector-curvature="0"
         id="path18105"
         d="m 644.26854,718.3556 c -0.32971,1.05067 -0.81725,1.34643 -1.53648,0.54256 0.43962,-0.94353 -0.16624,-1.39505 -0.58547,-1.93443 -3.27254,-1.13214 -2.92732,-2.29625 -4.38999,-3.44451 1.84965,1.16377 2.2716,3.03335 6.07281,3.23226 0.26351,0.52387 0.65945,1.03564 0.43893,1.60412 z"
         style="fill:#472e1f;fill-opacity:1;fill-rule:evenodd;stroke:none;stroke-width:0.93064833px;stroke-linecap:butt;stroke-linejoin:miter;stroke-opacity:1;shape-rendering:crispEdges"
         inkscape:export-filename="C:\Projects\Phaser\FlitAndBob\assets\Grass_Platform2.png"
         inkscape:export-xdpi="95.999969"
         inkscape:export-ydpi="95.999969" />
      <use
         height="100%"
         width="100%"
         transform="translate(9.02857,-0.12586)"
         id="use18107"
         xlink:href="#path18105"
         y="0"
         x="0" />
      <use
         height="100%"
         width="100%"
         transform="matrix(-1,0,0,1,1349.7464,1.13274)"
         id="use18109"
         xlink:href="#use18107"
         y="0"
         x="0" />
      <path
         sodipodi:nodetypes="cccccccccc"
         inkscape:connector-curvature="0"
         id="path18111"
         d="m 686.29599,718.56862 c 0,0 1.8263,-3.08405 3.80124,-0.58946 1.20669,0.0685 2.64221,1.67061 2.90365,3.86475 0.6465,-0.67416 3.75087,3.24339 3.23128,3.62382 0.95603,0.50088 1.37788,4.65473 0.93957,4.45569 -0.40297,-1.39689 -2.38051,-6.33085 -5.65248,-6.81462 0.20529,-2.11246 -1.07367,-0.64566 -2.169,0.37741 0.83265,-1.32651 1.158,-2.57357 -0.22979,-3.55296 1.79882,-1.70798 -1.26404,-2.01188 -2.82458,-1.36442 z"
         style="fill:#c48048;fill-opacity:1;fill-rule:evenodd;stroke:none;stroke-width:1.48738909px;stroke-linecap:butt;stroke-linejoin:miter;stroke-opacity:1;shape-rendering:crispEdges"
         inkscape:export-filename="C:\Projects\Phaser\FlitAndBob\assets\Grass_Platform2.png"
         inkscape:export-xdpi="95.999969"
         inkscape:export-ydpi="95.999969" />
      <path
         inkscape:export-ydpi="95.999969"
         inkscape:export-xdpi="95.999969"
         inkscape:export-filename="C:\Projects\Phaser\FlitAndBob\assets\Grass_Platform2.png"
         sodipodi:nodetypes="ccccccccc"
         inkscape:connector-curvature="0"
         id="use18113"
         d="m 630.70674,715.98433 -3.39918,-1.93346 c -1.29426,-0.20751 -2.58859,-0.3497 -3.88285,0.56037 0,0 -1.94792,2.38 -1.79808,2.44098 0.14968,0.0606 -1.7381,2.19696 -1.7381,2.19696 1.12986,-0.71114 2.41012,-0.40145 3.32638,-2.56303 0.91348,-1.41055 1.38832,0.0364 1.91791,1.12897 -0.11317,-1.17515 0.22683,-2.09188 2.09773,-2.13601 -0.85506,-1.81188 2.20462,0.0958 3.47619,0.30547 z"
         style="display:inline;fill:#c48048;fill-opacity:1;fill-rule:evenodd;stroke:none;stroke-width:1.35470402px;stroke-linecap:butt;stroke-linejoin:miter;stroke-opacity:1;shape-rendering:crispEdges" />
      <path
         inkscape:export-ydpi="95.999969"
         inkscape:export-xdpi="95.999969"
         inkscape:export-filename="C:\Projects\Phaser\FlitAndBob\assets\Grass_Platform2.png"
         sodipodi:nodetypes="cccccccccc"
         inkscape:connector-curvature="0"
         id="use18115"
         d="m 676.44151,725.31951 c 0,0 0.17191,-3.86695 -3.0888,-3.11081 -1.13163,-0.77149 -3.37716,-0.39762 -4.91057,1.2784 -0.18603,-1.01504 -5.30936,0.1704 -5.06443,0.84964 -1.16049,-0.23431 -3.99797,2.99613 -3.48394,3.12865 1.19027,-0.90634 5.89559,-3.72715 9.14028,-1.88871 1.0633,-1.93033 1.35262,0.19062 1.7382,1.8098 0.0314,-1.6957 0.47445,-2.97548 2.30842,-2.85164 -0.61679,-2.68253 2.3325,-0.83557 3.36081,0.78502 z"
         style="display:inline;fill:#c48048;fill-opacity:1;fill-rule:evenodd;stroke:none;stroke-width:1.61034226px;stroke-linecap:butt;stroke-linejoin:miter;stroke-opacity:1;shape-rendering:crispEdges" />
      <path
         sodipodi:nodetypes="cccc"
         inkscape:connector-curvature="0"
         id="use18117"
         d="m 640.65567,714.96733 c 0.56072,-1.22551 -0.29946,-3.82976 3.41794,-1.99107 1.9113,-2.71768 4.55066,3.77568 6.83608,5.79251 -3.41603,-1.29906 -6.58098,-6.65942 -10.25402,-3.80144 z"
         style="display:inline;fill:#c48048;fill-opacity:1;fill-rule:evenodd;stroke:none;stroke-width:2.57003379px;stroke-linecap:butt;stroke-linejoin:miter;stroke-opacity:1;shape-rendering:crispEdges"
         inkscape:export-filename="C:\Projects\Phaser\FlitAndBob\assets\Grass_Platform2.png"
         inkscape:export-xdpi="95.999969"
         inkscape:export-ydpi="95.999969" />
      <use
         height="100%"
         width="100%"
         transform="matrix(-1.1746762,-0.29836122,-0.29596374,0.97641056,1635.6061,214.85869)"
         id="use18121"
         xlink:href="#use18115"
         y="0"
         x="0" />
      <use
         height="100%"
         width="100%"
         transform="matrix(-1.9857526,0,0,1.4702559,1921.0425,-339.50119)"
         id="use18123"
         xlink:href="#use18113"
         y="0"
         x="0" />
      <path
         inkscape:export-ydpi="95.999969"
         inkscape:export-xdpi="95.999969"
         inkscape:export-filename="C:\Projects\Phaser\FlitAndBob\assets\Grass_Platform2.png"
         sodipodi:nodetypes="cccccc"
         inkscape:connector-curvature="0"
         id="use18125"
         d="m 648.69999,730.77421 c -0.19791,1.0708 -0.49054,1.37225 -0.92225,0.55309 0.26387,-0.96169 -0.0998,-1.42182 -0.35141,-1.97164 -1.96428,-1.1537 -1.75707,-2.34012 -2.63499,-3.51031 1.1102,1.18606 1.36347,3.0914 3.64507,3.29395 0.15815,0.53406 0.39581,1.05552 0.26345,1.63491 z"
         style="display:inline;fill:#472e1f;fill-opacity:1;fill-rule:evenodd;stroke:none;stroke-width:0.72788292px;stroke-linecap:butt;stroke-linejoin:miter;stroke-opacity:1;shape-rendering:crispEdges" />
      <use
         inkscape:transform-center-y="1.5103245"
         inkscape:transform-center-x="-3.5241289"
         height="100%"
         width="100%"
         transform="matrix(-0.99690406,0.08659015,0.07139683,0.99690408,1309.6051,-56.478345)"
         id="use18127"
         xlink:href="#use18121"
         y="0"
         x="0" />
      <use
         height="100%"
         width="100%"
         transform="translate(-21.511351,0.13052695)"
         id="use18129"
         xlink:href="#use18123"
         y="0"
         x="0" />
      <use
         x="0"
         y="0"
         xlink:href="#use18115"
         id="use18131"
         transform="matrix(-1.1410664,-0.29444502,-0.28749564,0.96359449,1675.3424,218.18081)"
         width="100%"
         height="100%" />
    </g>
    <g
       style="display:inline"
       id="g15765"
       transform="matrix(0.22086567,0,0,0.25455504,-49.449198,-56.90567)">
      <path
         style="fill:#744224;fill-opacity:1;fill-rule:evenodd;stroke:none;stroke-width:0.75431085px;stroke-linecap:butt;stroke-linejoin:miter;stroke-opacity:1"
         d="m 612.58932,720.09231 c 5.00038,-3.79921 5.98485,-3.79091 6.85714,-1.89277 2.37766,-4.28076 1.92894,-8.53119 12.34286,-4.88965 4.94166,-4.84488 4.78679,-0.89732 6.4,0 2.97143,-2.06254 5.94286,-3.33978 8.91428,0 1.4062,-2.87106 2.2989,-6.20278 9.6,-3.78554 5.96928,0.69821 6.45638,3.01776 8.45715,4.88965 -4.99816,-3.16166 7.58405,-4.76454 10.97143,-5.36285 4.11305,-0.7265 13.22977,2.81147 8.68571,4.25874 8.12863,-0.6683 6.60617,2.90156 8.68571,4.88965 1.46001,-1.82017 -0.70348,-5.94847 8.00001,-3.15461 6.52919,-3.73195 7.22475,0.14007 8.45714,3.31234 1.78612,-3.3007 -0.47912,-7.99928 10.28571,-8.202 4.74337,0.26513 9.84879,0.26043 9.37143,4.41646 8.71556,-1.04716 9.86861,2.52671 10.97143,5.52058 v 11.04116 h -128 z"
         id="path15723"
         inkscape:connector-curvature="0"
         sodipodi:nodetypes="cccccccscccccccccc" />
      <path
         inkscape:export-ydpi="95.999969"
         inkscape:export-xdpi="95.999969"
         inkscape:export-filename="C:\Projects\Phaser\FlitAndBob\assets\Grass_Platform2.png"
         style="fill:#472e1f;fill-opacity:1;fill-rule:evenodd;stroke:none;stroke-width:1.39483511px;stroke-linecap:butt;stroke-linejoin:miter;stroke-opacity:1;shape-rendering:crispEdges"
         d="m 630.67458,714.27872 c 0.45135,-1.7223 1.11992,-2.20715 2.10549,-0.88946 -0.60256,1.54668 0.22748,2.2868 0.80206,3.17105 4.48452,1.856 4.01148,3.76424 6.01578,5.64643 -2.53458,-1.90764 -3.11278,-4.97238 -8.32181,-5.29831 -0.36073,-0.85892 -0.90343,-1.69783 -0.60152,-2.62971 z"
         id="path15725"
         inkscape:connector-curvature="0"
         sodipodi:nodetypes="cccccc" />
      <use
         x="0"
         y="0"
         xlink:href="#path18091"
         id="use15727"
         transform="matrix(-1,0,0,1,1295.8987,0.50344)"
         width="100%"
         height="100%" />
      <use
         x="0"
         y="0"
         xlink:href="#path18091"
         id="use15729"
         transform="translate(62.17143,4.53095)"
         width="100%"
         height="100%" />
      <use
         x="0"
         y="0"
         xlink:href="#path18091"
         id="use15731"
         transform="matrix(-1,0,0,1,1361.9557,1.63618)"
         width="100%"
         height="100%" />
      <path
         inkscape:export-ydpi="95.999969"
         inkscape:export-xdpi="95.999969"
         inkscape:export-filename="C:\Projects\Phaser\FlitAndBob\assets\Grass_Platform2.png"
         style="fill:#472e1f;fill-opacity:1;fill-rule:evenodd;stroke:none;stroke-width:1.17077494px;stroke-linecap:butt;stroke-linejoin:miter;stroke-opacity:1;shape-rendering:crispEdges"
         d="m 714.15288,724.71476 c -0.318,1.72232 -0.78903,2.20716 -1.48339,0.88946 0.42452,-1.54666 -0.16026,-2.28692 -0.56508,-3.17115 -3.15949,-1.85588 -0.27275,-3.22414 -1.68468,-5.10621 2.09786,2.22208 -0.37931,3.87165 3.28436,4.53263 0.25414,0.85892 0.6615,1.9234 0.44879,2.85527 z"
         id="path15733"
         inkscape:connector-curvature="0"
         sodipodi:nodetypes="cccccc" />
      <use
         x="0"
         y="0"
         xlink:href="#path18099"
         id="use15735"
         transform="matrix(-1,0,0,1,1396.1748,-4.90853)"
         width="100%"
         height="100%" />
      <use
         x="0"
         y="0"
         xlink:href="#use18101"
         id="use15737"
         transform="translate(-65.371428,5.28611)"
         width="100%"
         height="100%" />
      <path
         inkscape:export-ydpi="95.999969"
         inkscape:export-xdpi="95.999969"
         inkscape:export-filename="C:\Projects\Phaser\FlitAndBob\assets\Grass_Platform2.png"
         style="fill:#472e1f;fill-opacity:1;fill-rule:evenodd;stroke:none;stroke-width:0.93064833px;stroke-linecap:butt;stroke-linejoin:miter;stroke-opacity:1;shape-rendering:crispEdges"
         d="m 644.26854,718.3556 c -0.32971,1.05067 -0.81725,1.34643 -1.53648,0.54256 0.43962,-0.94353 -0.16624,-1.39505 -0.58547,-1.93443 -3.27254,-1.13214 -2.92732,-2.29625 -4.38999,-3.44451 1.84965,1.16377 2.2716,3.03335 6.07281,3.23226 0.26351,0.52387 0.65945,1.03564 0.43893,1.60412 z"
         id="path15739"
         inkscape:connector-curvature="0"
         sodipodi:nodetypes="cccccc" />
      <use
         x="0"
         y="0"
         xlink:href="#path18105"
         id="use15741"
         transform="translate(9.02857,-0.12586)"
         width="100%"
         height="100%" />
      <use
         x="0"
         y="0"
         xlink:href="#use18107"
         id="use15743"
         transform="matrix(-1,0,0,1,1349.7464,1.13274)"
         width="100%"
         height="100%" />
      <path
         inkscape:export-ydpi="95.999969"
         inkscape:export-xdpi="95.999969"
         inkscape:export-filename="C:\Projects\Phaser\FlitAndBob\assets\Grass_Platform2.png"
         style="fill:#c48048;fill-opacity:1;fill-rule:evenodd;stroke:none;stroke-width:1.48738909px;stroke-linecap:butt;stroke-linejoin:miter;stroke-opacity:1;shape-rendering:crispEdges"
         d="m 686.29599,718.56862 c 0,0 1.8263,-3.08405 3.80124,-0.58946 1.20669,0.0685 2.64221,1.67061 2.90365,3.86475 0.6465,-0.67416 3.75087,3.24339 3.23128,3.62382 0.95603,0.50088 1.37788,4.65473 0.93957,4.45569 -0.40297,-1.39689 -2.38051,-6.33085 -5.65248,-6.81462 0.20529,-2.11246 -1.07367,-0.64566 -2.169,0.37741 0.83265,-1.32651 1.158,-2.57357 -0.22979,-3.55296 1.79882,-1.70798 -1.26404,-2.01188 -2.82458,-1.36442 z"
         id="path15745"
         inkscape:connector-curvature="0"
         sodipodi:nodetypes="cccccccccc" />
      <path
         style="display:inline;fill:#c48048;fill-opacity:1;fill-rule:evenodd;stroke:none;stroke-width:1.35470402px;stroke-linecap:butt;stroke-linejoin:miter;stroke-opacity:1;shape-rendering:crispEdges"
         d="m 630.70674,715.98433 -3.39918,-1.93346 c -1.29426,-0.20751 -2.58859,-0.3497 -3.88285,0.56037 0,0 -1.94792,2.38 -1.79808,2.44098 0.14968,0.0606 -1.7381,2.19696 -1.7381,2.19696 1.12986,-0.71114 2.41012,-0.40145 3.32638,-2.56303 0.91348,-1.41055 1.38832,0.0364 1.91791,1.12897 -0.11317,-1.17515 0.22683,-2.09188 2.09773,-2.13601 -0.85506,-1.81188 2.20462,0.0958 3.47619,0.30547 z"
         id="path15747"
         inkscape:connector-curvature="0"
         sodipodi:nodetypes="ccccccccc"
         inkscape:export-filename="C:\Projects\Phaser\FlitAndBob\assets\Grass_Platform2.png"
         inkscape:export-xdpi="95.999969"
         inkscape:export-ydpi="95.999969" />
      <path
         style="display:inline;fill:#c48048;fill-opacity:1;fill-rule:evenodd;stroke:none;stroke-width:1.61034226px;stroke-linecap:butt;stroke-linejoin:miter;stroke-opacity:1;shape-rendering:crispEdges"
         d="m 676.44151,725.31951 c 0,0 0.17191,-3.86695 -3.0888,-3.11081 -1.13163,-0.77149 -3.37716,-0.39762 -4.91057,1.2784 -0.18603,-1.01504 -5.30936,0.1704 -5.06443,0.84964 -1.16049,-0.23431 -3.99797,2.99613 -3.48394,3.12865 1.19027,-0.90634 5.89559,-3.72715 9.14028,-1.88871 1.0633,-1.93033 1.35262,0.19062 1.7382,1.8098 0.0314,-1.6957 0.47445,-2.97548 2.30842,-2.85164 -0.61679,-2.68253 2.3325,-0.83557 3.36081,0.78502 z"
         id="path15749"
         inkscape:connector-curvature="0"
         sodipodi:nodetypes="cccccccccc"
         inkscape:export-filename="C:\Projects\Phaser\FlitAndBob\assets\Grass_Platform2.png"
         inkscape:export-xdpi="95.999969"
         inkscape:export-ydpi="95.999969" />
      <path
         inkscape:export-ydpi="95.999969"
         inkscape:export-xdpi="95.999969"
         inkscape:export-filename="C:\Projects\Phaser\FlitAndBob\assets\Grass_Platform2.png"
         style="display:inline;fill:#c48048;fill-opacity:1;fill-rule:evenodd;stroke:none;stroke-width:2.57003379px;stroke-linecap:butt;stroke-linejoin:miter;stroke-opacity:1;shape-rendering:crispEdges"
         d="m 640.65567,714.96733 c 0.56072,-1.22551 -0.29946,-3.82976 3.41794,-1.99107 1.9113,-2.71768 4.55066,3.77568 6.83608,5.79251 -3.41603,-1.29906 -6.58098,-6.65942 -10.25402,-3.80144 z"
         id="path15751"
         inkscape:connector-curvature="0"
         sodipodi:nodetypes="cccc" />
      <use
         x="0"
         y="0"
         xlink:href="#use18115"
         id="use15753"
         transform="matrix(-1.1746762,-0.29836122,-0.29596374,0.97641056,1635.6061,214.85869)"
         width="100%"
         height="100%" />
      <use
         x="0"
         y="0"
         xlink:href="#use18113"
         id="use15755"
         transform="matrix(-1.9857526,0,0,1.4702559,1921.0425,-339.50119)"
         width="100%"
         height="100%" />
      <path
         style="display:inline;fill:#472e1f;fill-opacity:1;fill-rule:evenodd;stroke:none;stroke-width:0.72788292px;stroke-linecap:butt;stroke-linejoin:miter;stroke-opacity:1;shape-rendering:crispEdges"
         d="m 648.69999,730.77421 c -0.19791,1.0708 -0.49054,1.37225 -0.92225,0.55309 0.26387,-0.96169 -0.0998,-1.42182 -0.35141,-1.97164 -1.96428,-1.1537 -1.75707,-2.34012 -2.63499,-3.51031 1.1102,1.18606 1.36347,3.0914 3.64507,3.29395 0.15815,0.53406 0.39581,1.05552 0.26345,1.63491 z"
         id="path15757"
         inkscape:connector-curvature="0"
         sodipodi:nodetypes="cccccc"
         inkscape:export-filename="C:\Projects\Phaser\FlitAndBob\assets\Grass_Platform2.png"
         inkscape:export-xdpi="95.999969"
         inkscape:export-ydpi="95.999969" />
      <use
         x="0"
         y="0"
         xlink:href="#use18121"
         id="use15759"
         transform="matrix(-0.99690406,0.08659015,0.07139683,0.99690408,1309.6051,-56.478345)"
         width="100%"
         height="100%"
         inkscape:transform-center-x="-3.5241289"
         inkscape:transform-center-y="1.5103245" />
      <use
         x="0"
         y="0"
         xlink:href="#use18123"
         id="use15761"
         transform="translate(-21.511351,0.13052695)"
         width="100%"
         height="100%" />
      <use
         height="100%"
         width="100%"
         transform="matrix(-1.1410664,-0.29444502,-0.28749564,0.96359449,1675.3424,218.18081)"
         id="use15763"
         xlink:href="#use18115"
         y="0"
         x="0" />
    </g>
  </g>
</svg>
